<svg xmlns="http://www.w3.org/2000/svg" viewBox="0 0 1056.22 323"><defs><style>.cls-1{fill:#a88c6c;}.cls-2{fill:#606c56;}.cls-3{fill:#805a6f;}.cls-4{fill:#60314b;}</style></defs><title>ATD ColorRecurso 1</title><g id="Capa_2" data-name="Capa 2"><g id="Layer_1" data-name="Layer 1"><path class="cls-1" d="M389.25,61.08l-3.09-9.58H372.94L369.85,61l-7.64-.19s8-18.3,14.85-35.58h6s7.52,20.07,14.13,35.58ZM374.82,46.35h9.52l-4.73-12.19Z"/><path class="cls-1" d="M427.87,35c-1.39-.85-8-4.12-12.85-4.12a16,16,0,0,0-6.18,1.27,13.51,13.51,0,0,0-3.45,9.34c0,7.39,4.42,14.36,13.94,14.36a17.58,17.58,0,0,0,5-1l.06-12.48,7.09-.43L431,58.41a38.36,38.36,0,0,1-14.67,3.46c-9.7,0-18.31-6.86-18.31-17.64,0-13.1,9.4-19.64,19-19.64a31.33,31.33,0,0,1,14.19,3.94A24.26,24.26,0,0,1,427.87,35Z"/><path class="cls-1" d="M458.05,45.32,446,45.38l.25,9.57,14.18-.24-.24,6.37-14.79-.31-6.49.25.3-17.4-.48-18.06,5.94.12,15.52-.31-.12,6H446.17L446,39.5l12.25-.12Z"/><path class="cls-1" d="M474.61,60.71l-7.76.31.3-19L467,25.74l9-.55c1.88,5,11.88,16.61,18.37,24.79l-.12-10.3-.61-14,7.88-.37-.3,17.22v18.3l-7,.55c-3.46-6.67-15.22-19.46-20.25-27.16l.12,9.88Z"/><path class="cls-1" d="M538.21,52a25.48,25.48,0,0,1,.12,6.67,40.07,40.07,0,0,1-13.39,3.22,17.13,17.13,0,0,1-17.58-17.52c0-13.28,9.76-19.76,18.36-19.76,5.4,0,10.49,2.36,13.7,4.24a19.13,19.13,0,0,1-3,6.06c-.3,0-6.54-3.88-12.12-3.88a14.68,14.68,0,0,0-6.06,1.27,14.17,14.17,0,0,0-3.34,9.16,14.48,14.48,0,0,0,3.58,10.06,12.07,12.07,0,0,0,9.28,3.82C530.33,55.32,538,52,538.21,52Z"/><path class="cls-1" d="M553,60.77l-7.64.31.19-18.92-.31-16.54,7.82-.31-.54,18.19Z"/><path class="cls-1" d="M584.4,61.08l-3.1-9.58H568.09L565,61l-7.64-.19s8-18.3,14.85-35.58h6s7.52,20.07,14.13,35.58ZM570,46.35h9.52l-4.73-12.19Z"/><path class="cls-1" d="M616.09,42.29l-.18-16.8H627c8.06,0,21.58,2,21.58,16.55,0,11.52-7.58,19.4-19.22,19.4-5.94,0-7.82-.36-12.55-.42h-1.21Zm7.58,12.91a42.75,42.75,0,0,0,5.82.42,32,32,0,0,0,7.52-.91,19.28,19.28,0,0,0,3.88-11.52c0-9.75-6.31-12.36-14.07-12.36a24.5,24.5,0,0,0-3.09.18l-.42,11.7Z"/><path class="cls-1" d="M673.76,45.32l-12.06.06.24,9.57,14.19-.24-.25,6.37-14.79-.31-6.48.25.3-17.4-.49-18.06,6,.12,15.51-.31-.12,6H661.88l-.18,8.13,12.24-.12Z"/><path class="cls-2" d="M366.9,287.05h-4.49l2.57-66.2L363.9,161.5h40.28c36,0,77.77,9.86,77.77,58.06,0,42-27.63,69.42-69.41,69.42C391.11,289,384.26,287.48,366.9,287.05Zm72-26.57c4.5-9.42,8.57-22.49,8.57-36.2,0-29.78-17.78-39.43-38.35-39.43-3.64,0-7.28.22-10.28.43l-1.07,38.14L399,262.2a87.19,87.19,0,0,0,15.21,1.28A107.23,107.23,0,0,0,438.89,260.48Z"/><path class="cls-2" d="M533.33,286l-34.49,1.28.64-65.55-1.07-59.35,34.92-1.5-1.93,63Z"/><path class="cls-2" d="M548.65,228.35c0-48.85,35.78-70.7,67.7-70.7,21.85,0,45.63,9,53.35,12a103.26,103.26,0,0,1-13.29,28.07c-5.35-2.57-30-12.21-48.42-12.21-7.92,0-14.78,1.07-18,2.35-2.36,2.57-8.79,11.57-8.79,27.64,0,22.5,13.29,48.42,47.57,48.42a40.44,40.44,0,0,0,10.49-1.5l-.21-42.85,31.92-1.5-1.28,60a147.18,147.18,0,0,1-57.21,12.21C579.5,290.26,548.65,265.84,548.65,228.35Z"/><path class="cls-2" d="M727,286l-34.49,1.28.64-65.55-1.07-59.35,34.92-1.5-1.93,63Z"/><path class="cls-2" d="M771.93,287.26,773,226.63l-.86-38.35-33.85.64.43-28.06,55.92,1.29,49.92-1.08-.65,27.85-36.63-.85-1.72,38.56,1.5,59.35Z"/><path class="cls-2" d="M930.09,287.26l-8.57-27.2h-48l-8.78,27.2L831.11,286s29.14-64.92,53.78-125.33h29.56s28.93,74.77,51.42,126ZM881.46,238.2H914l-16.07-42Z"/><path class="cls-2" d="M977,286.62l.43-64.91-1.07-59.35,34.92-1.5-1.93,63,1.28,36.21,45.64-.22-.86,27.42-46.49-1.5Z"/><path class="cls-2" d="M375,132.57l.38-21.71-.31-13.72-12.11.23.15-10.05,20,.46L401,87.4l-.23,10-13.12-.31-.61,13.8.53,21.25Z"/><path class="cls-2" d="M406.52,132.57l.23-23.78-.46-21L426,87.55c12,0,17.71,5.44,17.71,12.58,0,6.28-4.14,11.27-8.13,14.49,4,6.14,9.44,13.5,9.44,13.5l-10.59,5.29A152,152,0,0,1,423.7,117c-1.69-.31-5.14-.84-5.14-.84l.3,16Zm24.62-31.37c0-4-2.61-6-7.44-6-.77,0-4.84.15-4.84.15l-.53,11.81a53.51,53.51,0,0,0,9,1.31A8.47,8.47,0,0,0,431.14,101.2Z"/><path class="cls-2" d="M483.74,132.57l-3.07-9.74H463.49l-3.15,9.74-12-.46s10.43-23.24,19.25-44.87h10.59s10.35,26.77,18.4,45.1ZM466.33,115H478l-5.75-15Z"/><path class="cls-2" d="M534.45,132.88c-4.45-8.67-15.34-21.71-21.63-31.14l.38,9.35.85,21-12.5.46.38-24.08V88.08l14.19-1c2.61,6.59,11.58,18.33,19.1,28.07l-.16-10.28-.84-16.95,12.5-.53-.46,21.78-.08,22.7Z"/><path class="cls-2" d="M555.15,130.5a49.72,49.72,0,0,1,1.61-11s13.35,3.91,20.33,3.91a2,2,0,0,0,.69-1.68c0-8.67-23.63-8.52-23.63-20.71,0-7.82,12-14.34,16.11-14.34a52.76,52.76,0,0,1,16.26,2.3,47,47,0,0,1-1.92,10.35s-12.12-3.37-17.41-3.37a1.71,1.71,0,0,0-.69,1.3c0,8.05,22.4,6.52,22.4,20.94,0,7.52-12.58,15.34-15.42,15.34C566.43,133.49,559.68,132.34,555.15,130.5Z"/><path class="cls-2" d="M595.85,132.41l.31-18.4-.62-26.31,8.67.23,20.09-.53-.23,9.27H607.58l-.07,8.9,14.11-.23-.54,9.28-13.65.16.23,17.71Z"/><path class="cls-2" d="M627.44,110.25a23.83,23.83,0,0,1,24.08-24.08c11.27,0,22.32,8.66,22.32,22.24,0,15.11-10.2,25.23-23.62,25.23C640.32,133.64,627.44,126.59,627.44,110.25Zm31.29,13.19A23.16,23.16,0,0,0,661.18,113c0-10.35-4.83-17.72-14.19-17.72a19.26,19.26,0,0,0-4.44.69,18.16,18.16,0,0,0-3.22,10.51c0,11.74,6.9,18,14.57,18A12.53,12.53,0,0,0,658.73,123.44Z"/><path class="cls-2" d="M681.1,132.57l.23-23.78-.46-21,19.71-.23c12,0,17.72,5.44,17.72,12.58,0,6.28-4.14,11.27-8.13,14.49,4,6.14,9.43,13.5,9.43,13.5L709,133.41A150.88,150.88,0,0,1,698.28,117c-1.68-.31-5.13-.84-5.13-.84l.3,16Zm24.62-31.37c0-4-2.6-6-7.44-6-.76,0-4.83.15-4.83.15l-.54,11.81a53.77,53.77,0,0,0,9,1.31A8.49,8.49,0,0,0,705.72,101.2Z"/><path class="cls-2" d="M725.54,132.57c.92-9.82,1.84-38.5,2.15-44.64l14.65-.84c3.37,9.51,8.67,19.56,12.88,27.84,4.61-9.51,10.36-20,12.74-26.54l14.11-.92.46,21.32L784,132.11l-11.73.46-.46-20.79-.54-9.58c-4.68,10.5-11.81,23.24-14.72,30.45h-5.29c-3.61-9.36-9.75-21.33-14.35-31.6v13.8l.39,17.26Z"/><path class="cls-2" d="M824.47,132.57l-3.07-9.74H804.22l-3.15,9.74-12-.46s10.43-23.24,19.25-44.87h10.59s10.35,26.77,18.4,45.1ZM807.06,115h11.65L813,100Z"/><path class="cls-2" d="M837.85,111.17c0-17,12.58-25,23.47-25,7.21,0,13.5,2.68,18,5a36.67,36.67,0,0,1-4.14,9.28c-.3,0-8.21-4-16.1-4a21.1,21.1,0,0,0-6.14.84,15.78,15.78,0,0,0-3.14,9.51,17.34,17.34,0,0,0,4.06,11.73,13.94,13.94,0,0,0,11,4.61c3.22,0,12.73-3.76,13-3.76a33.7,33.7,0,0,1,0,10.27c-3.76,1.84-12.89,4-18.41,4C847.36,133.64,837.85,123.82,837.85,111.17Z"/><path class="cls-2" d="M899,132.11l-12.35.46.23-23.47-.38-21.24,12.5-.54-.69,22.55Z"/><path class="cls-2" d="M905.64,110.25a23.83,23.83,0,0,1,24.09-24.08C941,86.17,952,94.83,952,108.41c0,15.11-10.2,25.23-23.62,25.23C918.53,133.64,905.64,126.59,905.64,110.25Zm31.29,13.19A23.15,23.15,0,0,0,939.39,113c0-10.35-4.83-17.72-14.19-17.72a19.45,19.45,0,0,0-4.45.69,18.24,18.24,0,0,0-3.22,10.51c0,11.74,6.9,18,14.57,18A12.44,12.44,0,0,0,936.93,123.44ZM921.52,79.88a85.07,85.07,0,0,0,11.81-8A30.36,30.36,0,0,1,938.7,80a54.69,54.69,0,0,1-14.42,5.13A36.66,36.66,0,0,1,921.52,79.88Z"/><path class="cls-2" d="M992,132.88c-4.45-8.67-15.34-21.71-21.63-31.14l.39,9.35.84,21-12.5.46.38-24.08V88.08l14.19-1c2.61,6.59,11.58,18.33,19.1,28.07l-.16-10.28-.84-16.95,12.5-.53-.46,21.78-.07,22.7Z"/><path class="cls-1" d="M219.78,323H103.22c-27.95,0-49.85-13.41-49.85-30.52a22.88,22.88,0,0,0-22.85-22.86C13.41,269.62,0,247.73,0,219.78V103.22C0,75.27,13.41,53.37,30.52,53.37A22.88,22.88,0,0,0,53.37,30.52C53.37,13.41,75.27,0,103.22,0H219.78c27.95,0,49.85,13.41,49.85,30.52a22.88,22.88,0,0,0,22.85,22.85c17.11,0,30.52,21.9,30.52,49.85V219.78c0,27.95-13.41,49.84-30.52,49.84a22.88,22.88,0,0,0-22.85,22.86C269.63,309.59,247.73,323,219.78,323ZM103.22,7.67C80.35,7.67,61,18.13,61,30.52A30.55,30.55,0,0,1,30.52,61C18.13,61,7.67,80.36,7.67,103.22V219.78C7.67,242.64,18.13,262,30.52,262A30.55,30.55,0,0,1,61,292.48c0,12.39,19.31,22.85,42.18,22.85H219.78c22.86,0,42.18-10.46,42.18-22.85A30.55,30.55,0,0,1,292.48,262c12.39,0,22.85-19.32,22.85-42.18V103.22c0-22.86-10.46-42.18-22.85-42.18A30.55,30.55,0,0,1,262,30.52c0-12.39-19.32-22.85-42.18-22.85Z"/><path class="cls-2" d="M222.08,303.29H100.92c-19,0-34.51-12.19-34.51-27.18a19.54,19.54,0,0,0-19.52-19.52c-15,0-27.18-15.48-27.18-34.51V100.92c0-19,12.19-34.51,27.18-34.51A19.55,19.55,0,0,0,66.41,46.89c0-15,15.48-27.18,34.51-27.18H222.08c19,0,34.51,12.19,34.51,27.18a19.55,19.55,0,0,0,19.52,19.52c15,0,27.18,15.48,27.18,34.51V222.08c0,19-12.19,34.51-27.18,34.51a19.54,19.54,0,0,0-19.52,19.52C256.59,291.1,241.11,303.29,222.08,303.29ZM100.92,27.38c-14.55,0-26.84,8.93-26.84,19.51A27.22,27.22,0,0,1,46.89,74.08c-10.58,0-19.51,12.29-19.51,26.84V222.08c0,14.55,8.93,26.84,19.51,26.84a27.22,27.22,0,0,1,27.19,27.19c0,10.58,12.29,19.52,26.84,19.52H222.08c14.55,0,26.84-8.94,26.84-19.52a27.22,27.22,0,0,1,27.19-27.19c10.57,0,19.51-12.29,19.51-26.84V100.92c0-14.55-8.94-26.84-19.51-26.84a27.22,27.22,0,0,1-27.19-27.19c0-10.58-12.29-19.51-26.84-19.51Z"/><path class="cls-3" d="M216.71,283.59H106.28c-14.8,0-26.84-10.7-26.84-23.86a16.19,16.19,0,0,0-16.18-16.18c-13.15,0-23.84-12-23.84-26.84V106.29c0-14.8,10.69-26.84,23.84-26.84A16.2,16.2,0,0,0,79.44,63.26c0-13.15,12-23.85,26.84-23.85H216.71c14.8,0,26.84,10.7,26.84,23.85a16.2,16.2,0,0,0,16.18,16.19c13.15,0,23.85,12,23.85,26.84V216.71c0,14.8-10.7,26.84-23.85,26.84a16.2,16.2,0,0,0-16.18,16.18C243.55,272.89,231.51,283.59,216.71,283.59ZM106.28,47.08c-10.57,0-19.17,7.26-19.17,16.18A23.87,23.87,0,0,1,63.26,87.11c-8.92,0-16.18,8.6-16.18,19.18V216.71c0,10.57,7.26,19.17,16.18,19.17a23.88,23.88,0,0,1,23.85,23.85c0,8.93,8.6,16.19,19.17,16.19H216.71c10.57,0,19.17-7.26,19.17-16.19a23.88,23.88,0,0,1,23.85-23.85c8.93,0,16.18-8.6,16.18-19.17V106.29c0-10.58-7.25-19.18-16.18-19.18a23.87,23.87,0,0,1-23.85-23.85c0-8.92-8.6-16.18-19.17-16.18Z"/><path class="cls-4" d="M211.34,263.88H111.65A19.19,19.19,0,0,1,92.48,244.7V242A11.51,11.51,0,0,0,81,230.52H78.29a19.19,19.19,0,0,1-19.17-19.17v-99.7A19.19,19.19,0,0,1,78.29,92.48H81A11.51,11.51,0,0,0,92.48,81V78.3a19.19,19.19,0,0,1,19.17-19.18h99.69A19.2,19.2,0,0,1,230.52,78.3V81A11.51,11.51,0,0,0,242,92.48h2.68a19.19,19.19,0,0,1,19.18,19.17v99.7a19.19,19.19,0,0,1-19.18,19.17H242a11.51,11.51,0,0,0-11.5,11.5v2.68A19.2,19.2,0,0,1,211.34,263.88Zm-133-163.73a11.51,11.51,0,0,0-11.5,11.5v99.7a11.51,11.51,0,0,0,11.5,11.5H81A19.19,19.19,0,0,1,100.15,242v2.68a11.52,11.52,0,0,0,11.5,11.51h99.69a11.52,11.52,0,0,0,11.51-11.51V242A19.19,19.19,0,0,1,242,222.85h2.68a11.52,11.52,0,0,0,11.51-11.5v-99.7a11.52,11.52,0,0,0-11.51-11.5H242A19.19,19.19,0,0,1,222.85,81V78.3a11.52,11.52,0,0,0-11.51-11.51H111.65a11.52,11.52,0,0,0-11.5,11.51V81A19.19,19.19,0,0,1,81,100.15Z"/></g></g></svg>