<svg width="206" height="63" viewBox="0 0 206 63" fill="none" xmlns="http://www.w3.org/2000/svg">
<mask id="mask0_7_4967" style="mask-type:alpha" maskUnits="userSpaceOnUse" x="0" y="0" width="206" height="63">
<rect y="0.769592" width="206" height="61.9192" fill="#D9D9D9"/>
</mask>
<g mask="url(#mask0_7_4967)">
<path d="M30.9208 39.6409C30.507 40.0359 30.3547 40.6302 29.9868 41.0972C29.6208 40.679 29.6283 40.1259 29.293 39.7691C29.7774 38.7084 30.4942 37.8254 31.2699 36.9949C32.4418 35.7405 33.6161 34.4879 34.8174 33.2639C36.4998 31.5475 37.4505 29.4897 37.5895 27.0248C37.6067 26.7119 37.6528 26.4013 37.6872 26.0895C37.7274 25.7249 37.9072 25.4406 38.1806 25.2279C38.3706 25.08 38.59 24.8966 38.832 25.0236C39.0531 25.1401 38.9607 25.4132 38.9614 25.6167C38.9667 27.5931 38.9983 29.5701 38.9533 31.5448C38.8933 34.1874 38.0735 36.5784 36.6264 38.7382C36.4906 38.942 36.3631 39.1525 36.2316 39.3601C35.9596 39.5959 35.7069 39.8492 35.5481 40.188C34.8818 40.7456 34.2809 41.3719 33.7464 42.068C33.5083 42.1947 33.3308 42.3831 33.2148 42.6358C32.9177 42.8248 32.6734 43.0686 32.5007 43.3876C31.864 43.8266 31.4578 44.5474 30.7554 45.0084C30.7174 44.7917 30.7109 44.638 30.6639 44.5001C30.4121 43.7641 30.579 43.1795 31.1912 42.718C31.352 42.5975 31.4552 42.3921 31.5834 42.2255C31.8479 42.0956 32.0319 41.8778 32.1757 41.6178C32.3489 41.5497 32.4675 41.422 32.5436 41.247C33.5716 40.2897 34.5733 39.2999 35.408 38.1502C36.7982 36.2341 37.5225 34.0585 37.6576 31.6319C37.5595 31.6752 37.4778 31.6832 37.4558 31.7259C36.3915 33.7731 34.7111 35.261 33.1955 36.8998C32.6365 37.5042 31.9975 38.0325 31.5623 38.7574C31.285 38.9932 31.063 39.2728 30.9332 39.6262L30.9208 39.6409Z" fill="#6F7857"/>
<path d="M15.4431 24.6583C15.4431 24.256 15.1341 23.9295 14.7504 23.9273C13.2788 23.9172 11.8071 23.9069 10.3356 23.898C8.63215 23.9098 6.92882 23.9695 5.22692 23.9194C3.81377 23.8773 2.58524 22.8216 2.14852 21.4349C1.69734 20.0027 2.08955 18.5165 3.18665 17.5104C3.91853 16.8389 4.78008 16.5559 5.74318 16.5576C8.09886 16.5593 10.4557 16.5723 12.8115 16.548C14.4924 16.5307 15.8428 15.099 15.8642 13.3364C15.8771 12.3028 15.8718 11.269 15.8727 10.2352C15.875 7.82111 15.8449 8.79355 15.8867 6.37996C15.9174 4.60276 17.0418 3.11931 18.6341 2.60157C20.2007 2.09243 21.8565 2.64269 22.8848 4.0208C23.7036 5.11645 23.836 6.35401 23.5496 7.67195C23.5234 7.79296 23.4633 7.90554 23.4289 8.02537C23.2541 8.62249 23.3538 8.98484 23.731 9.14242C24.1156 9.30337 24.4853 9.09911 24.681 8.54244C25.3517 6.63597 25.1409 4.82624 23.9782 3.19987C22.8355 1.59997 21.2501 0.84813 19.3628 1.03672C16.5654 1.31632 14.6313 3.55936 14.5407 6.5099C14.5128 7.41814 14.532 8.32806 14.5332 9.23697C14.5337 11.5885 14.5449 10.5532 14.5369 12.9048C14.5311 14.5576 13.7606 15.2734 12.3266 15.2043C12.0583 15.1913 11.7885 15.1992 11.5197 15.1997C9.48679 15.2026 7.45342 15.1952 5.4207 15.2104C3.2596 15.2267 1.41197 16.7051 0.834179 18.8548C0.246584 21.0398 1.05575 23.2689 2.87494 24.5091C3.75593 25.1101 4.72754 25.3577 5.76519 25.3663C7.88645 25.3815 10.0083 25.3955 12.1296 25.4096C13.0035 25.4034 13.8776 25.396 14.7511 25.3892C15.1341 25.3865 15.4431 25.0601 15.4431 24.6583Z" fill="#6F7857"/>
<path d="M44.2005 25.3714C46.1743 25.3714 48.1486 25.3719 50.1224 25.3708C51.3209 25.3702 52.4255 25.0612 53.402 24.3022C55.7605 22.4704 55.9783 18.9195 54.0302 16.7799C53.0742 15.73 51.9149 15.1869 50.5151 15.1954C48.1824 15.2105 45.8492 15.2055 43.5165 15.1976C42.0669 15.193 41.4547 14.5458 41.4219 13.0152C41.4166 12.7332 41.4187 12.4508 41.4187 12.1683C41.4198 9.12607 41.437 9.47056 41.4171 6.42833C41.3973 3.28212 38.7454 0.779536 35.8278 1.01481C32.9849 1.24385 30.5036 3.90115 31.0112 7.45875C31.0727 7.89037 31.1791 8.32199 31.3812 8.71148C31.605 9.1431 31.9237 9.29208 32.2569 9.13349C32.6168 8.96125 32.698 8.64389 32.6147 8.27076C32.5471 7.96638 32.4414 7.67094 32.3776 7.36589C31.861 4.89045 33.6384 2.49927 36.0473 2.42107C38.2651 2.3491 40.0893 4.13962 40.1134 6.49878C40.1473 9.8228 40.1253 9.76095 40.1253 13.0856C40.1253 13.4615 40.1117 13.8385 40.2014 14.2083C40.5409 15.5977 41.6806 16.5458 43.097 16.556C45.4591 16.5735 47.8218 16.5634 50.1846 16.5576C51.3151 16.5543 52.3076 16.906 53.0785 17.7997C54.0571 18.9342 54.2658 20.2555 53.7304 21.6487C53.1932 23.0484 52.1509 23.8571 50.7018 23.9189C49.2088 23.9819 47.712 23.9381 46.2167 23.9398C44.6978 23.9415 43.1795 23.9415 41.6607 23.9425C41.2808 23.9432 40.9728 24.2678 40.9767 24.6662C40.9793 25.0612 41.2852 25.3793 41.6618 25.3793H44.2005V25.3714Z" fill="#6F7857"/>
<path d="M52.4518 6.44636C51.2134 6.81276 50.5454 8.13913 50.9709 9.41376C51.1711 10.0119 51.5504 10.4329 52.1609 10.5708C52.448 10.6355 52.7093 10.5561 52.8504 10.2686C52.9813 10.0023 52.9742 9.71813 52.793 9.47173C52.7231 9.376 52.6063 9.31752 52.5198 9.23308C51.985 8.7103 52.1308 8.05688 52.8332 7.81942C53.6046 7.55886 54.4711 8.1543 54.6266 9.05293C54.896 10.604 53.6841 11.8599 52.2055 11.5718C51.1819 11.372 50.5766 10.6855 50.2692 9.69842C49.7101 7.90048 47.9831 6.74568 46.091 6.77551C45.0125 6.77838 44.0329 7.09523 43.1714 7.78739C42.8789 8.02267 42.6429 8.29334 42.6188 8.7081C42.5961 9.10197 42.6386 9.50881 42.9879 9.70077C43.3897 9.92189 43.4556 9.42438 43.6306 9.22854C45.1387 7.53745 48.3962 7.90942 49.0353 10.2601C49.1919 10.8357 49.4929 11.3512 49.8894 11.7879C50.8846 12.8836 52.1089 13.2077 53.4915 12.8932C54.8354 12.5876 55.5746 11.6416 55.8788 10.2809C55.9749 9.85145 55.9781 9.40921 55.9406 8.97085C55.7893 7.17561 54.1025 5.95794 52.4518 6.44636Z" fill="#6F7857"/>
<path d="M0.542761 7.43111C-0.16486 8.68434 -0.168073 10.0023 0.460173 11.2786C1.0497 12.4739 2.06325 12.9961 3.79775 13.0084C4.44046 13.0219 5.37817 12.6088 6.12564 11.7535C6.5328 11.2865 6.79727 10.7243 7.00069 10.1295C7.38101 9.0118 8.18584 8.43002 9.26141 8.24649C10.5631 8.02537 11.679 8.38552 12.5453 9.48117C12.849 9.86493 13.0249 9.82903 13.2504 9.39236C13.5089 8.89029 13.4263 8.39344 12.9933 7.94885C12.5786 7.52448 12.0636 7.28027 11.5308 7.06371C9.66921 6.30513 6.6133 6.91505 5.70386 9.72824C5.59926 10.049 5.44469 10.367 5.25381 10.6404C4.65336 11.4997 3.56059 11.8346 2.61469 11.4834C1.7713 11.1706 1.29376 10.3117 1.35884 9.22905C1.4011 8.53299 1.74928 8.05469 2.3711 7.83627C2.87916 7.65796 3.42595 7.80139 3.66198 8.17452C3.90284 8.55373 3.83359 8.81428 3.32295 9.34044C3.06105 9.61061 2.93829 9.8988 3.13303 10.259C3.30737 10.5819 3.67966 10.6865 4.08103 10.4931C4.70333 10.1926 5.0242 9.64937 5.11161 8.95113C5.24995 7.83576 4.70815 6.9095 3.69637 6.51613C2.65341 6.1098 1.0407 6.54934 0.542761 7.43111Z" fill="#6F7857"/>
<path d="M26.3226 17.4182C26.3886 16.1998 25.867 15.2966 24.838 14.7479C24.5075 14.5718 24.3697 14.4024 24.5376 14.0321C24.6009 13.8921 24.6454 13.7379 24.6722 13.5853C24.9635 11.9472 23.7247 10.5077 22.2017 10.7165C21.6056 10.7981 21.1271 11.0991 20.8181 11.6455C20.6539 11.9359 20.6528 12.2556 20.8823 12.5178C21.0514 12.7098 21.2778 12.8256 21.5283 12.7047C21.6865 12.6281 21.839 12.514 21.9602 12.3822C22.2574 12.0598 22.574 12.0282 22.9254 12.2595C23.2967 12.502 23.4474 12.941 23.323 13.4008C23.1614 13.9984 22.715 14.394 22.0826 14.4474C21.6964 14.4806 21.3057 14.4536 20.9167 14.457C20.2059 14.4627 20.2004 14.4616 20.0251 15.1701C19.679 16.5655 19.0524 17.7901 18.0512 18.7953C17.9074 18.9392 17.7074 19.0518 17.6714 19.3607C18.0207 19.3872 18.3764 19.3648 18.7063 19.4502C19.2043 19.5803 19.4788 19.3417 19.7493 18.9584C20.3233 18.1452 20.797 17.2774 21.0911 16.3153C21.2032 15.9494 21.3911 15.8211 21.7408 15.8329C22.309 15.8515 22.8788 15.8087 23.4447 15.8459C24.1841 15.8943 24.786 16.3721 24.956 16.9776C25.125 17.5796 24.6449 18.2538 24.0805 18.2099C23.7816 18.1864 23.6229 17.9432 23.4189 17.7637C23.1331 17.5132 22.824 17.475 22.5348 17.7665C22.2516 18.0529 22.2746 18.3781 22.4641 18.7058C22.6056 18.9505 22.8047 19.1413 23.0338 19.296C24.3578 20.1907 26.2302 19.1324 26.3226 17.4182Z" fill="#6F7857"/>
<path d="M34.1017 12.4826C34.4219 12.7484 34.7294 12.8483 35.0657 12.5524C35.3662 12.2886 35.3625 11.8695 35.0556 11.462C34.7256 11.0234 34.2868 10.7792 33.7562 10.7162C32.2534 10.536 31.0146 11.8923 31.3487 13.5107C31.5061 14.2733 31.4164 14.6193 30.756 15.0236C29.8574 15.5732 29.5489 16.545 29.6947 17.6302C29.8198 18.5546 30.3537 19.1561 31.1692 19.4782C32.0591 19.8297 33.1188 19.4601 33.5307 18.6792C33.7427 18.276 33.6922 17.8978 33.3778 17.6841C33.0007 17.4276 32.7238 17.6204 32.4272 17.8939C31.9841 18.303 31.6921 18.3043 31.3295 17.9834C30.9593 17.656 30.8799 17.1792 31.1352 16.7117C31.4449 16.1427 31.9508 15.8901 32.5453 15.852C33.1112 15.8152 33.6815 15.857 34.248 15.8287C34.6118 15.8097 34.7905 15.9705 34.8935 16.3176C35.1161 17.0702 35.4912 17.746 35.8742 18.422C36.3029 19.1775 36.8018 19.7082 37.7322 19.406C37.8968 19.352 38.0851 19.3762 38.2622 19.3649C38.2927 19.3105 38.3239 19.2559 38.3551 19.2014C37.031 18.0465 36.244 16.5671 35.8737 14.8435C35.8056 14.5271 35.6366 14.4545 35.3678 14.4592C34.8893 14.4664 34.4097 14.4782 33.9326 14.4499C33.3055 14.4135 32.8424 14.0229 32.6589 13.4426C32.533 13.0437 32.6188 12.6965 32.8789 12.3984C33.2202 12.0077 33.5468 12.0229 34.1017 12.4826Z" fill="#6F7857"/>
<path d="M15.8465 42.7748C14.5244 40.9571 13.6248 38.9246 13.1725 36.7332C13.0303 36.0443 12.3979 35.5795 11.7348 35.6764L11.6763 35.6844L11.6843 35.7467C12.0582 38.5886 13.1399 41.3055 14.8111 43.6037C15.5836 44.6656 16.486 45.6369 17.4941 46.4917C16.48 47.351 15.5745 48.3252 14.8003 49.3893C14.4725 49.8394 14.1634 50.3116 13.8813 50.7917L13.8507 50.8446L13.9012 50.8772C14.4719 51.2457 15.2295 51.0854 15.6265 50.5131C15.6951 50.4135 15.7649 50.3156 15.8357 50.2181C16.9821 48.642 18.4565 47.2716 20.1031 46.2504C20.6315 48.3791 20.7238 50.5439 20.3768 52.6858L20.3676 52.7472L21.6514 52.9756L21.6611 52.9142C22.0398 50.5711 21.9374 48.2035 21.3564 45.8767C20.8316 43.7742 19.8906 41.7371 18.6363 39.9854L18.6008 39.9358L18.5531 39.9729C18.0177 40.3956 17.8803 41.1913 18.2404 41.785C18.8375 42.7669 19.3304 43.8192 19.7066 44.9127C19.3171 45.1439 18.9377 45.391 18.5756 45.6494C17.5445 44.8136 16.6266 43.8469 15.8465 42.7748Z" fill="#6F7857"/>
<path d="M8.93397 35.6629L8.87549 35.6697L8.88191 35.7322C9.2693 39.2239 10.5558 42.557 12.6025 45.3707C13.1819 46.1676 13.8279 46.9268 14.5217 47.6257L14.5646 47.6691L15.4664 46.6843L15.424 46.641C14.7786 45.9898 14.1777 45.2841 13.6379 44.5424C11.9791 42.2611 10.8412 39.5735 10.3471 36.7694C10.2231 36.0669 9.6003 35.5813 8.93397 35.6629Z" fill="#6F7857"/>
<path d="M6.13954 35.6532L6.08105 35.6594L6.08636 35.7212C6.48404 39.8618 7.97335 43.8096 10.3935 47.1381C11.0882 48.0921 11.8645 48.9979 12.7021 49.8309L12.745 49.8731L13.6409 48.8822L13.5974 48.8393C12.811 48.0572 12.0819 47.2058 11.4295 46.3086C9.40145 43.5214 8.05385 40.2289 7.53117 36.7866C7.42448 36.0797 6.81182 35.5817 6.13954 35.6532Z" fill="#6F7857"/>
<path d="M20.5117 56.2161C16.2502 54.923 12.5355 52.4379 9.76815 49.0312C7.00741 45.6316 5.24864 41.3884 4.68209 36.7599C4.5979 36.075 4.0185 35.5837 3.3639 35.64L3.30444 35.6451L3.30975 35.7071C3.71691 40.874 5.50829 45.635 8.49126 49.4763C11.4602 53.2995 15.4958 56.0694 20.1619 57.4857C21.0578 57.7576 22.0783 58.1824 22.8911 58.6218C23.3829 58.8881 23.6894 59.4114 23.6894 59.9888V57.5719C22.3079 56.7902 20.913 56.3383 20.5117 56.2161Z" fill="#6F7857"/>
<path d="M46.9905 35.7317L46.997 35.6698L46.9385 35.6624C46.269 35.5808 45.6492 36.0671 45.5253 36.7694C45.0313 39.5736 43.8933 42.2612 42.2343 44.5421C41.6953 45.2831 41.0943 45.9899 40.4484 46.641L40.4055 46.6838L41.3085 47.6692L41.3508 47.6258C42.045 46.9258 42.691 46.1672 43.2704 45.3709C45.3166 42.5567 46.6032 39.2236 46.9905 35.7317Z" fill="#6F7857"/>
<path d="M43.1709 49.8307C44.0078 48.9985 44.7841 48.0924 45.4784 47.138C47.8997 43.8094 49.3889 39.8617 49.786 35.7211L49.7919 35.6598L49.7334 35.653C49.0611 35.5827 48.449 36.0801 48.3411 36.7869C47.8192 40.2286 46.4715 43.5218 44.443 46.3097C43.7916 47.2056 43.062 48.057 42.275 48.8392L42.2314 48.882L43.128 49.8735L43.1709 49.8307Z" fill="#6F7857"/>
<path d="M40.0368 50.2175C40.1077 50.3149 40.1774 50.4133 40.2467 50.5124C40.6426 51.0858 41.4007 51.2456 41.9714 50.877L42.0219 50.8444L41.9908 50.7915C41.7096 50.3125 41.4007 49.8405 41.0722 49.3886C40.2986 48.325 39.3925 47.3509 38.3785 46.4915C39.3866 45.6367 40.2894 44.6649 41.0615 43.6037C42.7333 41.3048 43.8148 38.5879 44.1882 35.746L44.1963 35.6847L44.1378 35.6763C43.4731 35.58 42.8427 36.0444 42.7005 36.7337C42.2473 38.925 41.3479 40.9577 40.0261 42.7741C39.2466 43.8467 38.328 44.8141 37.2968 45.6487C36.9353 45.3915 36.5555 45.1437 36.166 44.9125C36.5426 43.8191 37.0351 42.7662 37.6317 41.7843C37.9922 41.1906 37.8553 40.3949 37.3188 39.9734L37.2717 39.9357L37.2369 39.9852C35.982 41.7365 35.0414 43.774 34.5156 45.877C33.9347 48.2035 33.8321 50.5709 34.2115 52.9142L34.2211 52.9749L35.5049 52.747L35.4953 52.6852C35.1487 50.5433 35.241 48.3784 35.7694 46.2497C37.4165 47.2715 38.8909 48.6424 40.0368 50.2175Z" fill="#6F7857"/>
<path d="M32.9813 58.6218C33.794 58.1823 34.8151 57.7574 35.711 57.4857C40.3764 56.0692 44.412 53.2995 47.3815 49.4761C50.3639 45.6348 52.1553 40.8736 52.5625 35.7069L52.5679 35.6456L52.5083 35.6405C51.8537 35.5843 51.2743 36.075 51.1906 36.7604C50.6241 41.3884 48.8654 45.6315 46.1047 49.031C43.3367 52.4379 39.622 54.923 35.3607 56.2162C34.9599 56.3377 33.5644 56.7902 32.1829 57.5717V59.9882C32.1835 59.4114 32.4893 58.8879 32.9813 58.6218Z" fill="#6F7857"/>
<path d="M55.7981 33.8094H40.9622V32.3322H54.6242C55.2729 32.3322 55.7981 32.8836 55.7981 33.564V33.8094Z" fill="#6F7857"/>
<path d="M0.185791 33.8094H15.3661V32.3322H1.35905C0.711044 32.3322 0.185791 32.8836 0.185791 33.564V33.8094Z" fill="#6F7857"/>
<path d="M28.3674 42.2618C28.9156 44.3378 28.9204 46.4615 28.9071 48.5931C28.8839 52.1329 28.9011 57.9842 28.9016 61.5239C28.9016 61.6802 28.9075 61.8373 28.899 61.9932C28.8878 62.2064 28.9725 62.4975 28.7605 62.5964C28.4135 62.759 28.0041 62.6753 27.643 62.5841C27.6387 62.243 27.6286 61.9008 27.6286 61.5592C27.6286 58.2386 27.6049 52.6067 27.6419 49.2865C27.6591 47.7783 27.1747 46.5566 26.151 45.5118C24.483 43.8066 22.8386 42.0757 21.2023 40.3368C18.949 37.9412 17.7268 35.0606 17.5723 31.6898C17.5642 31.5045 17.5197 31.3211 17.4919 31.1366C17.5649 30.3902 17.6089 29.6434 17.4993 28.8962C17.5708 28.7082 17.567 28.5192 17.5069 28.329C17.5771 27.8904 17.589 27.4521 17.5037 27.0134C17.5557 26.8873 17.5557 26.7613 17.5021 26.6355C17.6447 26.1208 17.4474 25.5756 17.6255 25.0646C18.4211 25.1125 18.7608 25.4544 18.8562 26.2924C18.9361 27.006 18.9838 27.7256 19.1072 28.4302C19.4244 30.2402 20.28 31.7566 21.5007 33.0566C22.6723 34.3042 23.8409 35.5553 25.033 36.7812C26.4617 38.2512 27.5416 39.9485 28.1983 41.9355C28.2369 42.0508 28.3098 42.1532 28.3674 42.2618ZM27.4006 44.9095C27.5159 44.4858 27.4423 44.2438 27.3962 43.9997C26.9478 41.6276 25.8839 39.6001 24.2685 37.8853C23.3038 36.8614 22.3386 35.8361 21.3596 34.8274C20.566 34.0105 19.8944 33.0977 19.2962 32.1195C19.1953 31.9542 19.1781 31.6833 18.8916 31.7014C18.8916 31.9242 18.8691 32.1438 18.8943 32.3575C19.212 35.0561 20.2467 37.3985 22.0785 39.3357C23.4659 40.8028 24.8644 42.2581 26.2583 43.7176C26.6124 44.0885 26.9675 44.4576 27.4006 44.9095Z" fill="#6F7857"/>
<path d="M18.0542 20.9082C14.1356 20.8971 10.217 20.9122 6.29828 20.9151C6.02963 20.9151 5.7597 20.9188 5.49201 20.8978C5.10413 20.8661 4.88208 20.6192 4.87983 20.2229C4.8787 19.82 5.12454 19.5941 5.49956 19.551C5.73607 19.5235 5.97693 19.5291 6.21618 19.5291C8.36973 19.5308 10.5231 19.5346 12.6767 19.5368C16.2079 19.5419 18.7435 16.9191 18.7597 13.219C18.7734 10.1139 18.7623 10.3945 18.7662 7.28954C18.7662 6.97607 18.7533 6.65687 18.8036 6.35114C18.8947 5.80222 19.3091 5.4547 19.8043 5.45723C20.2666 5.45892 20.626 5.76767 20.7606 6.28676C20.7838 6.37609 20.7703 6.47518 20.7907 6.56636C20.9106 7.10146 21.1728 7.35258 21.5536 7.30235C21.9673 7.24724 22.1921 6.87023 22.1481 6.30446C22.0128 4.56619 20.1321 3.50256 18.671 4.34355C17.7574 4.87022 17.4354 5.71526 17.4409 6.7745C17.4558 9.91128 17.4435 9.66202 17.4483 12.7981C17.4488 13.3024 17.4403 13.8058 17.3352 14.2961C16.9145 16.2539 15.7594 17.4987 13.9203 18.0006C13.4086 18.1397 12.851 18.121 12.3147 18.1257C10.0716 18.1434 7.82745 18.121 5.58472 18.1572C4.33096 18.1768 3.51166 19.0649 3.53592 20.272C3.5589 21.4349 4.37177 22.2449 5.58536 22.3027C5.91362 22.3187 6.24365 22.2961 6.57256 22.3067C7.28822 22.3303 8.00708 22.2523 8.72113 22.363C10.8096 22.2334 12.8999 22.3365 14.989 22.3108C16.1238 22.2976 17.2616 22.2802 18.3939 22.3477C19.127 22.391 19.7903 22.6343 20.3466 23.0215H22.2655C21.2859 21.743 19.767 20.9134 18.0542 20.9082Z" fill="#C9AF8F"/>
<path d="M37.8678 22.3224C39.9023 22.3134 41.9361 22.3202 43.9705 22.3202V22.3156C45.9749 22.3156 47.9792 22.3156 49.9836 22.3145C50.3119 22.3145 50.6392 22.3258 50.9637 22.2369C52.0744 21.9312 52.7031 20.7523 52.3597 19.6032C52.069 18.6313 51.3608 18.1378 50.2084 18.1344C47.9647 18.1282 45.7217 18.1344 43.478 18.1323C42.9394 18.1323 42.4023 18.1198 41.8777 17.9583C39.8255 17.3292 38.541 15.5036 38.5362 13.1643C38.5282 9.83847 38.5481 9.89982 38.5325 6.57462C38.5245 4.8746 37.2052 3.77659 35.645 4.12496C34.6348 4.35012 33.8462 5.35628 33.8467 6.41754C33.8472 6.93764 34.0742 7.28601 34.4582 7.2978C34.8864 7.31179 35.1188 7.06876 35.16 6.62029C35.1724 6.49591 35.1938 6.36984 35.2314 6.25221C35.394 5.73565 35.7539 5.45133 36.2207 5.45874C36.679 5.46599 37.0684 5.7761 37.1847 6.28929C37.246 6.55894 37.2373 6.84866 37.2373 7.12943C37.24 10.3297 37.24 10.143 37.2373 13.3433C37.2368 13.7834 37.2529 14.2195 37.3463 14.6522C37.9623 17.5323 40.2525 19.4997 43.0745 19.5279C45.3182 19.5498 47.5613 19.5323 49.8054 19.534C50.0442 19.534 50.2878 19.5193 50.5213 19.5599C50.8903 19.6229 51.1188 19.8626 51.0926 20.2711C51.0694 20.6269 50.8564 20.848 50.5174 20.8829C50.2213 20.9138 49.9203 20.9065 49.6215 20.9065C45.7919 20.9087 41.963 20.9138 38.1334 20.9043C37.4664 20.9031 36.8248 21.0112 36.195 21.225C35.1509 21.5796 34.2765 22.2627 33.646 23.1305L35.4761 23.1418C36.1344 22.6055 36.9322 22.3269 37.8678 22.3224Z" fill="#C9AF8F"/>
<path d="M27.2432 11.5435C26.9192 11.1131 26.637 10.6921 26.3109 10.3129C25.7528 9.66336 25.2415 9.58247 24.3633 10.0021C24.6444 10.2891 24.8654 10.5109 25.0828 10.7371C26.2143 11.916 26.9514 13.3258 27.2561 14.965C27.4095 15.79 27.4224 16.6358 27.4187 17.4755C27.4176 17.853 27.5325 18.0077 27.9116 18.0005C28.5094 17.9897 28.5426 17.9779 28.5527 17.3112C28.5566 17.0675 28.5582 16.8238 28.5609 16.5795C28.5899 14.2093 29.4214 12.2047 31.0556 10.5677C31.1678 10.4551 31.2896 10.3528 31.3995 10.2391C31.5932 10.0389 31.4977 9.88465 31.2933 9.81824C30.7005 9.62629 30.1592 9.74274 29.7342 10.229C29.4553 10.5475 29.2255 10.9115 28.9622 11.2452C28.8619 11.373 28.8399 11.6314 28.5518 11.5346V10.485C28.5523 9.45472 28.5544 8.4243 28.5502 7.39454C28.5502 7.2127 28.6151 6.955 28.4133 6.88793C28.1483 6.79911 27.8403 6.78327 27.5763 6.89365C27.3355 6.99494 27.4299 7.27235 27.4283 7.47493C27.4192 8.58642 27.4288 9.69724 27.4208 10.8086C27.4192 11.0528 27.5077 11.3359 27.2432 11.5435Z" fill="#C9AF8F"/>
<path d="M45.4077 0.853691C45.1685 0.670156 44.8868 0.833466 44.6453 0.949419C44.3368 1.0979 44.1072 1.34329 43.9945 1.6871C43.8984 1.98304 43.8341 2.29214 43.7198 2.57899C43.4869 3.16431 43.5734 3.89592 42.9757 4.31793C42.8293 4.42141 42.9436 4.60714 42.9892 4.74786C43.075 5.01129 43.1727 5.27066 43.2794 5.57335C45.6652 4.97522 47.9464 4.83685 50.072 6.278C50.3639 6.47602 50.5302 6.31389 50.6669 6.11131C50.8339 5.86374 51.3268 5.67363 50.9991 5.29308C50.7275 4.97808 50.8505 4.72478 50.925 4.44181C51.0752 3.86879 51.2668 3.30773 51.4026 2.73151C51.4562 2.50584 51.681 2.25152 51.4819 2.03158C51.2594 1.78451 50.9808 2.00782 50.7239 2.02922C50.4401 2.05231 50.3259 2.2527 50.189 2.45528C49.9584 2.7969 49.8875 3.19919 49.7759 3.5875C49.5564 4.34945 49.5527 4.34776 48.807 4.11586C48.7501 4.09782 48.6937 4.07592 48.6352 4.06631C48.2173 3.99721 48.0982 3.77255 48.2356 3.34447C48.434 2.7214 48.609 2.09006 48.7689 1.45587C48.8799 1.01582 48.7512 0.872904 48.337 0.945374C47.662 1.06419 47.3353 1.54755 47.1518 2.19523C47.0085 2.6978 47.0402 3.36807 46.6325 3.64379C46.2022 3.93418 45.5857 3.72081 45.0524 3.76143C44.9994 3.7653 44.942 3.72317 44.8664 3.69503C44.9425 2.97858 45.2559 2.32467 45.4034 1.62642C45.4586 1.36637 45.6909 1.07144 45.4077 0.853691Z" fill="#C9AF8F"/>
<path d="M6.49066 4.279C6.19887 3.8671 6.18489 3.34313 6.00622 2.88404C5.79589 2.34321 5.44063 2.00664 4.88164 1.93855C4.5206 1.89473 4.39993 2.03866 4.49971 2.42865C4.67035 3.09336 4.87152 3.74946 5.05276 4.4113C5.13375 4.70506 5.22613 4.9673 4.98736 5.28246C4.63806 5.74206 5.21328 5.88733 5.36993 6.17047C5.51213 6.42917 5.71651 6.40676 5.97135 6.23569C7.82862 4.98971 9.84977 4.93292 11.9275 5.39774C12.7264 5.57723 12.8385 5.52094 13.0178 4.69714C13.0606 4.50248 13.0885 4.32063 12.8928 4.20586C12.5912 4.02856 12.5737 3.69823 12.4876 3.40515C12.3401 2.89583 12.2066 2.38315 12.0547 1.87552C11.935 1.47542 11.7366 1.12706 11.3552 0.944701C11.0847 0.815266 10.7746 0.654315 10.5171 0.88959C10.2993 1.0893 10.5219 1.36115 10.5739 1.58682C10.6856 2.07254 10.8508 2.54461 10.9801 3.02628C11.0409 3.25195 11.1738 3.48217 11.0134 3.74946C10.5664 3.74946 10.1196 3.73092 9.67527 3.7557C9.3348 3.77474 9.19791 3.58801 9.11515 3.28751C8.98452 2.80634 8.86514 2.31961 8.69997 1.85075C8.50683 1.30604 8.11141 0.993239 7.55177 0.945881C7.26367 0.921106 7.08195 1.01734 7.18977 1.38087C7.304 1.76917 7.39945 2.16422 7.51112 2.55421C7.91828 3.97126 7.9194 3.97058 6.49066 4.279Z" fill="#C9AF8F"/>
<path d="M48.3616 12.0026C48.361 10.7467 47.3526 9.65949 46.153 9.62291C44.9092 9.58517 43.8605 10.6431 43.8302 11.9656C43.8004 13.2902 44.797 14.3657 46.0699 14.3813C47.3198 14.3972 48.3623 13.315 48.3616 12.0026ZM45.0719 12.0004C45.0751 11.4225 45.5484 10.9284 46.0944 10.9313C46.6413 10.9346 47.1164 11.4394 47.108 12.0084C47.0992 12.5885 46.6294 13.0797 46.0847 13.0776C45.5323 13.0754 45.0686 12.5817 45.0719 12.0004Z" fill="#C9AF8F"/>
<path d="M7.64541 12.0084C7.65939 13.3588 8.65945 14.4039 9.92622 14.3909C11.1784 14.378 12.1617 13.3088 12.1473 11.9768C12.1328 10.6387 11.0974 9.5823 9.84139 9.6246C8.62827 9.66556 7.6316 10.7472 7.64541 12.0084ZM10.9047 11.9723C10.9284 12.5644 10.4831 13.0764 9.93362 13.0894C9.38313 13.1028 8.88858 12.6156 8.87941 12.0517C8.87137 11.4642 9.31613 10.9548 9.85858 10.9334C10.4111 10.9115 10.8811 11.3785 10.9047 11.9723Z" fill="#C9AF8F"/>
<path d="M54.2866 28.8792C54.2903 28.5179 54.2887 28.169 54.287 27.8038V27.5781C54.2863 27.3688 54.2854 27.1539 54.2877 26.9225C54.2925 26.3626 53.9035 26.4798 53.5945 26.4753C53.3041 26.4712 52.9684 26.4055 52.9695 26.9001C52.9716 27.4932 52.9716 28.034 52.9716 28.5658C52.9684 28.9271 52.9699 29.276 52.9716 29.6417V29.8669H52.9727C52.9732 30.0762 52.9732 30.2912 52.9716 30.5225C52.9663 31.0823 53.3546 30.9654 53.6642 30.9699C53.9544 30.9731 54.2909 31.0397 54.2893 30.5443C54.287 29.9518 54.2866 29.411 54.2866 28.8792Z" fill="#C9AF8F"/>
<path d="M51.3118 28.8792C51.3155 28.5179 51.3139 28.169 51.3123 27.8038V27.5781H51.3113C51.3107 27.3688 51.3107 27.1539 51.3129 26.9225C51.3178 26.3626 50.9287 26.4798 50.6198 26.4753C50.3294 26.4712 49.9936 26.4055 49.9953 26.9001C49.9968 27.4932 49.9968 28.034 49.9968 28.5658C49.9936 28.9271 49.9957 29.276 49.9968 29.6417V29.8669H49.9979C49.9985 30.0762 49.9985 30.2912 49.9968 30.5225C49.9915 31.0823 50.3799 30.9654 50.6895 30.9699C50.9797 30.9731 51.3161 31.0397 51.3145 30.5443C51.3123 29.9518 51.3118 29.411 51.3118 28.8792Z" fill="#C9AF8F"/>
<path d="M48.3371 28.8792C48.3408 28.5179 48.3392 28.169 48.3376 27.8038V27.5781H48.3366C48.3359 27.3688 48.3359 27.1539 48.3382 26.9225C48.3431 26.3626 47.954 26.4798 47.6451 26.4753C47.3547 26.4712 47.0189 26.4055 47.02 26.9001C47.0221 27.4932 47.0221 28.034 47.0221 28.5658C47.0189 28.9271 47.0205 29.276 47.0221 29.6417V29.8669H47.0233C47.0237 30.0762 47.0237 30.2912 47.0221 30.5225C47.0167 31.0823 47.4052 30.9654 47.7148 30.9699C48.0049 30.9731 48.3414 31.0397 48.3398 30.5443C48.3376 29.9518 48.3371 29.411 48.3371 28.8792Z" fill="#C9AF8F"/>
<path d="M45.3622 28.8792C45.366 28.5179 45.3643 28.169 45.3627 27.8038V27.5781C45.3621 27.3688 45.3611 27.1539 45.3634 26.9225C45.3682 26.3626 44.9793 26.4798 44.6702 26.4753C44.3799 26.4712 44.0441 26.4055 44.0452 26.9001C44.0472 27.4932 44.0472 28.034 44.0472 28.5658C44.0441 28.9271 44.0457 29.276 44.0472 29.6417V29.8669H44.0484C44.0489 30.0762 44.0489 30.2912 44.0472 30.5225C44.0418 31.0823 44.4303 30.9654 44.7399 30.9699C45.0301 30.9731 45.3666 31.0397 45.365 30.5443C45.3627 29.9518 45.3622 29.411 45.3622 28.8792Z" fill="#C9AF8F"/>
<path d="M42.3875 28.8792C42.3912 28.5179 42.3896 28.169 42.388 27.8038V27.5781C42.3873 27.3688 42.3864 27.1539 42.3886 26.9225C42.3934 26.3626 42.0044 26.4798 41.6955 26.4753C41.4051 26.4712 41.0693 26.4055 41.0709 26.9001C41.0725 27.4932 41.0725 28.034 41.0725 28.5658C41.0693 28.9271 41.0714 29.276 41.0725 29.6417V29.8669H41.0736C41.0741 30.0762 41.0741 30.2912 41.0725 30.5225C41.0671 31.0823 41.4556 30.9654 41.7652 30.9699C42.0554 30.9731 42.3918 31.0397 42.3902 30.5443C42.388 29.9518 42.3875 29.411 42.3875 28.8792Z" fill="#C9AF8F"/>
<path d="M15.3643 28.8792C15.368 28.5179 15.3664 28.169 15.3648 27.8038V27.5781C15.3641 27.3688 15.3632 27.1539 15.3654 26.9225C15.3703 26.3626 14.9813 26.4798 14.6723 26.4753C14.3819 26.4712 14.0461 26.4055 14.0477 26.9001C14.0493 27.4932 14.0493 28.034 14.0493 28.5658C14.0461 28.9271 14.0482 29.276 14.0493 29.6417V29.8669H14.0505C14.0509 30.0762 14.0509 30.2912 14.0493 30.5225C14.0439 31.0823 14.4324 30.9654 14.742 30.9699C15.0322 30.9731 15.3686 31.0397 15.367 30.5443C15.3648 29.9518 15.3643 29.411 15.3643 28.8792Z" fill="#C9AF8F"/>
<path d="M12.3895 28.8792C12.3931 28.5179 12.3915 28.169 12.3899 27.8038V27.5781C12.3893 27.3688 12.3883 27.1539 12.3899 26.9225C12.3954 26.3626 12.0064 26.4798 11.6974 26.4753C11.4071 26.4712 11.0713 26.4055 11.0729 26.9001C11.0745 27.4932 11.0745 28.034 11.0745 28.5658C11.0713 28.9271 11.0734 29.276 11.0745 29.6417V29.8669H11.0756C11.0761 30.0762 11.0761 30.2912 11.0745 30.5225C11.069 31.0823 11.4575 30.9654 11.7672 30.9699C12.0573 30.9731 12.3938 31.0397 12.3922 30.5443C12.3899 29.9518 12.3895 29.411 12.3895 28.8792Z" fill="#C9AF8F"/>
<path d="M9.41459 28.8792C9.41829 28.5179 9.41668 28.169 9.41508 27.8038V27.5781C9.41443 27.3688 9.41347 27.1539 9.41571 26.9225C9.42054 26.3626 9.03154 26.4798 8.72256 26.4753C8.43221 26.4712 8.0964 26.4055 8.098 26.9001C8.09961 27.4932 8.09961 28.034 8.09961 28.5658C8.0964 28.9271 8.09849 29.276 8.09961 29.6417V29.8669H8.10074C8.10122 30.0762 8.10122 30.2912 8.09961 30.5225C8.09415 31.0823 8.48266 30.9654 8.79229 30.9699C9.08248 30.9731 9.41893 31.0397 9.41733 30.5443C9.41508 29.9518 9.41459 29.411 9.41459 28.8792Z" fill="#C9AF8F"/>
<path d="M6.43987 28.8792C6.44357 28.5179 6.44196 28.169 6.44035 27.8038V27.5781C6.43971 27.3688 6.43874 27.1539 6.44035 26.9225C6.44582 26.3626 6.05682 26.4798 5.74783 26.4753C5.4575 26.4712 5.12168 26.4055 5.12281 26.9001C5.1249 27.4932 5.1249 28.034 5.1249 28.5658C5.12168 28.9271 5.12329 29.276 5.1249 29.6417V29.8669H5.12602C5.1265 30.0762 5.1265 30.2912 5.1249 30.5225C5.11943 31.0823 5.50795 30.9654 5.81757 30.9699C6.10776 30.9731 6.44421 31.0397 6.44261 30.5443C6.44035 29.9518 6.43987 29.411 6.43987 28.8792Z" fill="#C9AF8F"/>
<path d="M3.46502 28.8792C3.46871 28.5179 3.46711 28.169 3.4655 27.8038V27.5781C3.46486 27.3688 3.46389 27.1539 3.46615 26.9225C3.47097 26.3626 3.08197 26.4798 2.77298 26.4753C2.48264 26.4712 2.14683 26.4055 2.14795 26.9001C2.15004 27.4932 2.15004 28.034 2.15004 28.5658C2.14683 28.9271 2.14843 29.276 2.15004 29.6417V29.8669H2.15116C2.15165 30.0762 2.15165 30.2912 2.15004 30.5225C2.14458 31.0823 2.53309 30.9654 2.84272 30.9699C3.1329 30.9731 3.46936 31.0397 3.46775 30.5443C3.4655 29.9518 3.46502 29.411 3.46502 28.8792Z" fill="#C9AF8F"/>
<path d="M9.96995 53.797C5.40159 49.3346 2.51197 43.3959 1.74699 36.9548C1.65846 36.2063 1.03391 35.6582 0.316162 35.715C0.841897 43.015 3.95421 49.7931 9.07932 54.8005C13.6364 59.2517 19.4189 61.933 25.5681 62.4931V61.1172C19.7504 60.5612 14.284 58.0119 9.96995 53.797Z" fill="#C9AF8F"/>
<path d="M54.2397 36.9283C53.4805 43.3751 50.5925 49.3199 46.0232 53.7886C41.7988 57.9192 36.4681 60.4481 30.7849 61.0756V62.4565C36.8013 61.8245 42.4464 59.1595 46.9143 54.7909C52.0405 49.778 55.1501 42.9931 55.6694 35.6864C54.9522 35.6306 54.3283 36.1794 54.2397 36.9283Z" fill="#C9AF8F"/>
<path d="M30.7339 26.1345C30.7199 26.6534 30.4479 27.0179 30.0739 27.0203C29.6556 27.023 29.3893 26.5993 29.406 25.9566C29.4205 25.3737 29.5767 25.1569 29.9843 25.1536C30.4581 25.1497 30.7504 25.5323 30.7339 26.1345Z" fill="#C9AF8F"/>
<path d="M28.0119 34.028C28.3525 34.0426 28.728 34.5953 28.6975 35.037C28.6605 35.5677 28.3928 35.8918 27.9983 35.8827C27.5804 35.8733 27.2661 35.4191 27.2774 34.8424C27.2864 34.4045 27.6396 34.0128 28.0119 34.028Z" fill="#C9AF8F"/>
<path d="M27.9933 38.3305C27.5968 38.3182 27.2706 37.8736 27.2841 37.3626C27.2965 36.9125 27.6451 36.4758 27.9944 36.4734C28.3339 36.4707 28.7257 37.0306 28.6982 37.4779C28.6661 38.012 28.3919 38.3428 27.9933 38.3305Z" fill="#C9AF8F"/>
<path d="M27.9845 19.3256C28.3831 19.3476 28.727 19.8063 28.7013 20.2823C28.6786 20.6915 28.2859 21.1765 27.9845 21.1676C27.6083 21.1563 27.2558 20.6621 27.2849 20.1877C27.315 19.6988 27.6335 19.3064 27.9845 19.3256Z" fill="#C9AF8F"/>
<path d="M30.7341 28.5103C30.7454 29.0675 30.4546 29.4794 30.0566 29.4686C29.6841 29.4585 29.4175 29.0899 29.4068 28.5712C29.396 28.0128 29.6864 27.6021 30.0844 27.6134C30.4584 27.6235 30.7234 27.9897 30.7341 28.5103Z" fill="#C9AF8F"/>
<path d="M27.9856 21.7721C28.3827 21.794 28.727 22.2566 28.7008 22.7316C28.6772 23.1447 28.2871 23.6258 27.984 23.6162C27.6058 23.6038 27.2555 23.112 27.286 22.6348C27.3166 22.1452 27.6347 21.7529 27.9856 21.7721Z" fill="#C9AF8F"/>
<path d="M27.9479 28.5279C27.6038 28.5329 27.2878 28.0962 27.284 27.6105C27.2807 27.1587 27.6092 26.7141 27.9649 26.6883C28.2728 26.6657 28.6806 27.1508 28.701 27.5628C28.7214 27.9916 28.3076 28.5223 27.9479 28.5279Z" fill="#C9AF8F"/>
<path d="M29.408 23.6297C29.4155 23.1002 29.681 22.7277 30.0587 22.7176C30.4424 22.7068 30.7434 23.1024 30.7299 23.6004C30.7149 24.1648 30.3404 24.605 29.908 24.5678C29.586 24.5403 29.3999 24.1913 29.408 23.6297Z" fill="#C9AF8F"/>
<path d="M30.7337 33.456C30.7273 33.9843 30.4596 34.3558 30.0803 34.3642C29.6967 34.3716 29.4 33.9788 29.4112 33.4779C29.4241 32.9185 29.7461 32.4758 30.1162 32.5078C30.4896 32.5403 30.7402 32.9259 30.7337 33.456Z" fill="#C9AF8F"/>
<path d="M28.6973 29.9078C28.7105 30.4277 28.3448 30.958 27.9611 30.9753C27.6221 30.99 27.3044 30.5757 27.2845 30.0923C27.2647 29.6157 27.623 29.1295 27.9964 29.1285C28.2781 29.1273 28.6886 29.5842 28.6973 29.9078Z" fill="#C9AF8F"/>
<path d="M29.408 21.1596C29.4193 20.639 29.6988 20.2661 30.0754 20.2688C30.4821 20.2721 30.7579 20.6886 30.7342 21.2631C30.7149 21.7488 30.4526 22.1124 30.1237 22.109C29.7057 22.1039 29.3968 21.6937 29.408 21.1596Z" fill="#C9AF8F"/>
<path d="M23.1583 29.279C23.1647 28.7726 23.5214 28.3494 23.9148 28.3837C24.2152 28.4095 24.4909 28.9015 24.4824 29.3955C24.4738 29.8434 24.2008 30.2036 23.8531 30.2245C23.4501 30.2486 23.1514 29.8417 23.1583 29.279Z" fill="#C9AF8F"/>
<path d="M29.407 30.9995C29.4033 30.4688 29.6742 30.0665 30.0256 30.0789C30.4011 30.0925 30.7311 30.5516 30.7317 31.0621C30.7321 31.5488 30.4195 31.9376 30.0438 31.9169C29.6758 31.8972 29.4102 31.5145 29.407 30.9995Z" fill="#C9AF8F"/>
<path d="M31.5404 26.7933C31.5709 26.2975 31.8902 25.9279 32.2523 25.9683C32.6134 26.0094 32.909 26.5255 32.8613 27.0331C32.8193 27.4775 32.5216 27.7944 32.1627 27.777C31.7222 27.7544 31.5023 27.4068 31.5404 26.7933Z" fill="#C9AF8F"/>
<path d="M24.4853 24.4261C24.4766 24.9493 24.2144 25.3157 23.8382 25.3282C23.4375 25.341 23.1471 24.9303 23.159 24.3686C23.1692 23.8672 23.4671 23.5003 23.8469 23.5195C24.2288 23.5392 24.4933 23.914 24.4853 24.4261Z" fill="#C9AF8F"/>
<path d="M30.7357 35.9296C30.7201 36.449 30.4449 36.8137 30.0687 36.8121C29.6659 36.8105 29.3874 36.3973 29.4067 35.8305C29.4239 35.3387 29.7383 34.9696 30.1138 35.0021C30.4996 35.0362 30.7512 35.4114 30.7357 35.9296Z" fill="#C9AF8F"/>
<path d="M25.207 26.1345C25.221 26.6534 25.493 27.0179 25.8669 27.0203C26.2853 27.023 26.5515 26.5993 26.5348 25.9566C26.5203 25.3737 26.3642 25.1569 25.9559 25.1536C25.4827 25.1497 25.1903 25.5323 25.207 26.1345Z" fill="#C9AF8F"/>
<path d="M25.2069 28.5103C25.195 29.0675 25.4865 29.4794 25.8844 29.4686C26.2567 29.4585 26.5235 29.0899 26.5342 28.5712C26.5448 28.0128 26.2547 27.6021 25.8567 27.6134C25.4826 27.6235 25.2177 27.9897 25.2069 28.5103Z" fill="#C9AF8F"/>
<path d="M26.5332 23.6297C26.5255 23.1002 26.2599 22.7277 25.8825 22.7176C25.4988 22.7068 25.1979 23.1024 25.2114 23.6004C25.2263 24.1648 25.6007 24.605 26.0331 24.5678C26.3549 24.5403 26.5411 24.1913 26.5332 23.6297Z" fill="#C9AF8F"/>
<path d="M25.2072 33.456C25.2136 33.9843 25.4813 34.3558 25.8606 34.3642C26.2442 34.3716 26.5409 33.9788 26.5297 33.4779C26.5167 32.9185 26.1953 32.4758 25.8251 32.5078C25.4512 32.5403 25.2007 32.9259 25.2072 33.456Z" fill="#C9AF8F"/>
<path d="M26.533 21.1596C26.5218 20.639 26.2422 20.2661 25.8656 20.2688C25.4589 20.2721 25.1827 20.6886 25.2068 21.2631C25.2261 21.7488 25.4884 22.1124 25.8174 22.109C26.2353 22.1039 26.5443 21.6937 26.533 21.1596Z" fill="#C9AF8F"/>
<path d="M26.5341 30.9995C26.5378 30.4688 26.2669 30.0665 25.9155 30.0789C25.54 30.0925 25.21 30.5516 25.2095 31.0621C25.209 31.5488 25.5217 31.9376 25.8973 31.9169C26.2653 31.8972 26.5309 31.5145 26.5341 30.9995Z" fill="#C9AF8F"/>
<path d="M25.2053 35.9296C25.2209 36.449 25.4966 36.8137 25.8721 36.8121C26.2751 36.8105 26.5535 36.3973 26.5343 35.8305C26.5175 35.3387 26.2026 34.9696 25.8271 35.0021C25.4413 35.0362 25.1897 35.4114 25.2053 35.9296Z" fill="#C9AF8F"/>
<path d="M24.4853 31.7128C24.497 32.2351 24.2438 32.6328 23.8752 32.6728C23.4981 32.7134 23.1676 32.3268 23.1595 31.8367C23.1526 31.3488 23.4435 30.8946 23.7846 30.8626C24.1553 30.8277 24.4741 31.2148 24.4853 31.7128Z" fill="#C9AF8F"/>
<path d="M31.5403 24.4746C31.5371 23.9311 31.7752 23.5117 32.102 23.4891C32.4218 23.4662 32.8633 24.0177 32.8569 24.4324C32.8494 24.9028 32.5323 25.3311 32.1906 25.3311C31.7784 25.3311 31.544 25.0216 31.5403 24.4746Z" fill="#C9AF8F"/>
<path d="M24.4864 26.9261C24.4622 27.441 24.1586 27.8069 23.7819 27.7764C23.4042 27.746 23.1301 27.3262 23.1654 26.832C23.2025 26.3268 23.5313 25.9288 23.8806 25.9678C24.2653 26.0105 24.5109 26.3988 24.4864 26.9261Z" fill="#C9AF8F"/>
<path d="M21.0687 27.6454C21.0747 27.175 21.4057 26.7827 21.7704 26.8142C22.0495 26.8384 22.3053 27.2949 22.2972 27.7534C22.2897 28.1687 22.0365 28.5031 21.7135 28.5228C21.3396 28.5452 21.0623 28.1677 21.0687 27.6454Z" fill="#C9AF8F"/>
<path d="M22.3003 29.9041C22.3111 30.3887 22.0765 30.7577 21.7342 30.795C21.3845 30.8326 21.0771 30.4736 21.0702 30.0184C21.0636 29.5659 21.3335 29.145 21.6501 29.1152C21.9946 29.083 22.29 29.4415 22.3003 29.9041Z" fill="#C9AF8F"/>
<path d="M22.3014 25.4619C22.2789 25.9396 21.9977 26.2789 21.6474 26.2508C21.297 26.2226 21.0428 25.8328 21.0759 25.3746C21.1098 24.9054 21.4151 24.5368 21.7385 24.5722C22.0963 24.6121 22.3243 24.9723 22.3014 25.4619Z" fill="#C9AF8F"/>
<path d="M34.9416 27.6454C34.9357 27.175 34.6047 26.7827 34.2398 26.8142C33.9609 26.8384 33.7049 27.2949 33.7131 27.7534C33.7205 28.1687 33.9743 28.5031 34.2967 28.5228C34.6707 28.5452 34.948 28.1677 34.9416 27.6454Z" fill="#C9AF8F"/>
<path d="M33.71 29.9041C33.6998 30.3887 33.9337 30.7577 34.2761 30.795C34.6264 30.8326 34.9333 30.4736 34.9402 30.0184C34.9466 29.5659 34.6768 29.145 34.3603 29.1152C34.0158 29.083 33.7202 29.4415 33.71 29.9041Z" fill="#C9AF8F"/>
<path d="M33.7091 25.4619C33.7316 25.9396 34.0128 26.2789 34.3631 26.2508C34.7134 26.2226 34.9677 25.8328 34.9344 25.3746C34.9007 24.9054 34.5954 24.5368 34.2718 24.5722C33.914 24.6121 33.686 24.9723 33.7091 25.4619Z" fill="#C9AF8F"/>
<path d="M28.5994 32.4992C28.599 33.0158 28.3441 33.3928 27.976 33.4221C27.6101 33.4507 27.2695 32.9792 27.2849 32.4648C27.2984 32.0187 27.6354 31.5938 27.9829 31.583C28.3295 31.5729 28.5999 31.9742 28.5994 32.4992Z" fill="#C9AF8F"/>
<path d="M32.1923 28.418C32.4901 28.4286 32.871 28.9593 32.8566 29.3459C32.8394 29.8266 32.5142 30.2436 32.1724 30.2238C31.7754 30.2013 31.5104 29.7771 31.5421 29.2126C31.5668 28.768 31.863 28.4067 32.1923 28.418Z" fill="#C9AF8F"/>
<path d="M28.6 25.187C28.5897 25.6575 28.3296 26.057 28.0259 26.0666C27.7034 26.0767 27.2701 25.5128 27.285 25.1032C27.3016 24.6676 27.6649 24.2304 28.0034 24.2376C28.3441 24.245 28.6108 24.6693 28.6 25.187Z" fill="#C9AF8F"/>
<path d="M31.5405 31.8153C31.5401 31.2357 31.6993 30.9982 32.1011 30.9807C32.5213 30.961 32.8555 31.3072 32.8555 31.7613C32.8555 32.2346 32.5401 32.6701 32.1951 32.6735C31.7798 32.6763 31.541 32.3641 31.5405 31.8153Z" fill="#C9AF8F"/>
<path d="M160.049 27.9093L167.451 28.1704L167.551 24.5892L159.319 24.6657L159.133 17.3005V17.296L159.383 6.04911L155.025 6.19035L155.204 16.4592L155.097 28.0933L160.049 27.9093Z" fill="#6F7857"/>
<path d="M200.149 14.9512C197.949 13.887 195.872 12.8814 195.872 10.941C195.872 9.85836 196.847 9.09861 197.375 9.09861C199.329 9.09861 203.268 10.5601 204.103 10.8787C204.269 10.3756 204.776 8.72209 204.938 6.86787C202.975 6.16896 200.761 5.81503 198.354 5.81503C196.391 5.81503 191.58 8.61019 191.58 12.2736C191.58 15.4954 194.526 16.937 197.375 18.3305C199.809 19.5212 202.108 20.6461 202.108 22.8211C202.108 24.1126 201.168 24.9685 200.787 24.9685C197.828 24.9005 193.301 23.3648 192.373 23.0395C192.252 23.6263 191.887 25.5493 191.871 27.2797C193.364 27.9235 196.085 28.5948 199.371 28.5948C200.176 28.5948 201.803 27.8407 203.354 26.3996C204.343 25.4817 206 23.6078 206 21.3744C206 17.7829 202.892 16.2787 200.149 14.9512Z" fill="#6F7857"/>
<path d="M186.098 8.4698C184.202 6.63749 181.616 5.58683 179.004 5.58683C176.145 5.58683 173.448 6.75293 171.411 8.8699C169.317 11.0465 168.164 14.0134 168.164 17.2239C168.164 21.6921 170.064 24.3949 171.659 25.8759C173.543 27.626 176.113 28.6706 178.532 28.6706C184.772 28.6706 189.3 23.5045 189.3 16.3864C189.3 12.4005 187.559 9.88111 186.098 8.4698ZM183.012 24.45L182.996 24.4714L182.974 24.486C182.229 24.9795 180.733 25.3115 179.803 25.3115C177.726 25.3115 175.836 24.3874 174.481 22.7105C173.085 20.9819 172.347 18.6234 172.347 15.8912C172.347 12.5704 173.821 10.4214 174.455 9.65157L174.472 9.63017L174.495 9.61617C174.955 9.3354 176.539 8.8699 177.479 8.8699C181.987 8.8699 184.9 12.5677 184.9 18.2902C184.9 20.8625 183.952 23.2372 183.012 24.45Z" fill="#6F7857"/>
<path d="M151.95 28.1724L152.049 24.5145L143.562 24.6666L143.447 18.3143L150.643 18.2761L150.742 14.8794L143.41 14.9559L143.526 9.55519H151.84L151.906 6.08489L142.778 6.27163L139.38 6.19915L139.666 17.3717L139.488 28.1313L143.204 27.9857L151.95 28.1724Z" fill="#6F7857"/>
<path d="M92.886 6.09159L87.7458 6.41737C86.8031 9.20073 84.9043 13.5462 83.0679 17.7505C82.5165 19.0139 81.9949 20.2069 81.4949 21.3673L81.3564 21.6885L81.2073 21.3723C79.3012 17.3396 75.8751 9.63622 74.7023 5.9357L69.4853 6.22558C69.4305 7.30707 69.3543 9.28516 69.2669 11.5592C69.0508 17.1618 68.7561 24.7955 68.4568 28.1298L72.4774 27.9541L72.442 20.1945L72.6002 10.3909L72.8938 11.1444C73.8245 13.5344 75.0118 16.3031 76.1604 18.9807C77.5752 22.2789 79.0372 25.6873 79.9717 28.29H81.7519C82.3893 26.6863 83.3416 24.5287 84.4408 22.0391C85.9243 18.6785 87.6063 14.8692 88.9351 11.4488L89.2013 10.7641L89.6046 18.1663L89.8902 28.169L93.9585 27.9929L93.2433 17.2677L92.886 6.09159Z" fill="#6F7857"/>
<path d="M114.364 8.4698C112.468 6.63749 109.882 5.58683 107.27 5.58683C104.411 5.58683 101.714 6.75293 99.6772 8.8699C97.5833 11.0465 96.4297 14.0134 96.4297 17.2239C96.4297 21.6921 98.3305 24.3949 99.925 25.8759C101.809 27.626 104.379 28.6706 106.799 28.6706C113.038 28.6706 117.566 23.5045 117.566 16.3864C117.566 12.4005 115.825 9.88111 114.364 8.4698ZM111.279 24.45L111.262 24.4714L111.24 24.486C110.495 24.9795 108.998 25.3115 108.069 25.3115C105.992 25.3115 104.102 24.3874 102.747 22.7105C101.351 20.9819 100.613 18.6234 100.613 15.8912C100.613 12.5704 102.087 10.4214 102.721 9.65157L102.738 9.63017L102.761 9.61617C103.221 9.3354 104.806 8.8699 105.746 8.8699C110.253 8.8699 113.165 12.5677 113.165 18.2902C113.165 20.8625 112.218 23.2372 111.279 24.45Z" fill="#6F7857"/>
<path d="M127.811 19.9206C130.557 24.9364 132.722 27.8665 133.134 28.4107L137.038 26.8929C136.462 26.0753 134.044 22.606 132.147 19.2898L132.075 19.1637L132.185 19.0725C133.258 18.1869 135.754 15.7348 135.754 12.1216C135.754 8.36362 132.896 6.11991 128.108 6.11991L120.32 6.19423L120.498 16.5357L120.356 28.1675L124.644 27.9553L124.534 19.4338L127.771 19.8479L127.811 19.9206ZM124.461 16.023L124.613 9.06253L127.38 9.02259C130.037 9.02259 131.499 10.2448 131.499 12.4642C131.499 14.9967 130.129 16.2278 129.54 16.6392L129.5 16.6673H129.452C128.182 16.6673 125.716 16.3303 124.587 16.054L124.461 16.023Z" fill="#6F7857"/>
<rect x="68.1123" y="44.3664" width="109.714" height="1" fill="#C9AF8F"/>
<path d="M68.4783 41.2184L68.51 37.7666L68.4568 34.716L69.8266 34.6715L69.752 38.0113L69.805 40.116L72.215 40.0941L72.1829 41.241L69.9752 41.1626L68.4783 41.2184Z" fill="#C9AF8F"/>
<path d="M77.3424 41.2406L76.7903 39.4814H74.476L73.9351 41.2293L72.5972 41.1961C72.5972 41.1961 73.9984 37.8332 75.198 34.66H76.249C76.249 34.66 77.5651 38.3459 78.7331 41.1961L77.3424 41.2406ZM74.8054 38.5349H76.4825L75.6439 36.2969L74.8054 38.5349Z" fill="#C9AF8F"/>
<path d="M83.5951 41.2295L83.6588 38.0006L83.6164 35.8182L81.8755 35.8514L81.8858 34.6713L84.4442 34.7377L86.8645 34.6826L86.8435 35.8514L84.9749 35.8069L84.911 38.0006L84.9749 41.1737L83.5951 41.2295Z" fill="#C9AF8F"/>
<path d="M89.009 41.185L87.6608 41.2407L87.6924 37.7669L87.6399 34.727L89.009 34.6712L88.9241 38.0116L89.009 41.185Z" fill="#C9AF8F"/>
<path d="M90.2299 41.2295L90.283 38.0338L90.1982 34.7158L91.2385 34.7377L93.9558 34.6826L93.9349 35.7958H91.5036L91.4719 37.2769L93.6163 37.2543L93.5847 38.3455L91.4825 38.3567L91.5143 40.1158L93.9982 40.0713L93.9666 41.2408L91.3655 41.185L90.2299 41.2295Z" fill="#C9AF8F"/>
<path d="M95.0071 41.2406L95.0493 37.7888L94.9963 34.7156L97.321 34.6937C98.9025 34.6937 99.6032 35.4951 99.6032 36.4974C99.6032 37.4326 99.0403 38.1562 98.542 38.5682C99.1789 39.6819 100.007 40.84 100.007 40.84L98.7754 41.3188C98.7754 41.3188 98.0956 40.45 97.1937 38.8022L96.323 38.6909L96.3547 41.1737L95.0071 41.2406ZM98.2657 36.5975C98.2657 35.9628 97.8516 35.6397 97.1086 35.6397L96.3445 35.651L96.3016 37.5998C96.6203 37.6779 97.3425 37.7776 97.7137 37.7776C97.9047 37.6443 98.2657 37.288 98.2657 36.5975Z" fill="#C9AF8F"/>
<path d="M100.803 41.2406L100.846 37.7888L100.792 34.7156L103.117 34.6937C104.699 34.6937 105.399 35.4951 105.399 36.4974C105.399 37.4326 104.836 38.1562 104.338 38.5682C104.975 39.6819 105.803 40.84 105.803 40.84L104.572 41.3188C104.572 41.3188 103.892 40.45 102.99 38.8022L102.119 38.6909L102.151 41.1737L100.803 41.2406ZM104.062 36.5975C104.062 35.9628 103.648 35.6397 102.905 35.6397L102.141 35.651L102.098 37.5998C102.417 37.6779 103.139 37.7776 103.51 37.7776C103.701 37.6443 104.062 37.288 104.062 36.5975Z" fill="#C9AF8F"/>
<path d="M110.824 41.2406L110.272 39.4814H107.958L107.417 41.2293L106.079 41.1961C106.079 41.1961 107.48 37.8332 108.68 34.66H109.731C109.731 34.66 111.047 38.3459 112.215 41.1961L110.824 41.2406ZM108.287 38.5349H109.964L109.126 36.2969L108.287 38.5349Z" fill="#C9AF8F"/>
<path d="M120.272 42.2652L119.349 41.2742C119.083 41.3411 118.807 41.3856 118.521 41.3856C117.183 41.3856 115.442 40.3056 115.442 37.9894C115.442 35.9849 116.939 34.5375 118.659 34.5375C120.198 34.5375 121.716 35.7513 121.716 37.7446C121.716 39.0023 121.238 40.0491 120.474 40.6838C120.835 41.2184 121.217 41.6416 121.759 42.0535C121.588 42.4322 121.334 42.6545 121.334 42.6545L120.272 42.2652ZM119.794 40.0715C120.07 39.7152 120.336 39.036 120.336 38.301C120.336 36.6754 119.508 35.5956 118.213 35.5956C117.947 35.5956 117.491 35.7288 117.364 35.8071C117.162 36.0519 116.758 36.6754 116.758 37.5994C116.758 39.2251 117.682 40.3056 118.892 40.3056C119.168 40.3056 119.593 40.2048 119.794 40.0715Z" fill="#C9AF8F"/>
<path d="M122.576 38.1229L122.597 34.7154L123.967 34.6711C123.956 35.1718 123.913 36.3969 123.913 38.056C123.913 39.6817 124.359 40.2162 125.41 40.2162C125.909 40.2162 126.397 40.0604 126.599 39.9045C126.907 39.192 126.939 37.1432 126.939 36.0853V34.7154L128.255 34.6711C128.245 35.1499 128.213 36.4414 128.213 37.3323C128.213 40.0267 127.374 41.3075 125.166 41.3075C123.244 41.3075 122.576 40.294 122.576 38.1229Z" fill="#C9AF8F"/>
<path d="M129.423 41.2295L129.477 38.0338L129.392 34.7158L130.432 34.7377L133.149 34.6826L133.128 35.7958H130.697L130.665 37.2769L132.81 37.2543L132.778 38.3455L130.676 38.3567L130.708 40.1158L133.192 40.0713L133.16 41.2408L130.559 41.185L129.423 41.2295Z" fill="#C9AF8F"/>
<path d="M141.875 41.2964C141.259 40.0713 139.21 37.7225 138.329 36.3191L138.351 38.1231L138.446 41.1737L137.087 41.2295L137.14 37.7331L137.12 34.7495L138.69 34.6487C139.03 35.5622 140.771 37.6999 141.907 39.203L141.886 37.3099L141.78 34.7382L143.16 34.6713L143.106 37.8334V41.1963L141.875 41.2964Z" fill="#C9AF8F"/>
<path d="M144.02 37.9894C144.02 35.9849 145.517 34.5375 147.236 34.5375C148.776 34.5375 150.293 35.7513 150.293 37.7446C150.293 39.8824 148.935 41.3856 147.099 41.3856C145.761 41.3856 144.02 40.3056 144.02 37.9894ZM148.372 40.0715C148.648 39.7152 148.914 39.036 148.914 38.301C148.914 36.6754 148.086 35.5956 146.791 35.5956C146.525 35.5956 146.068 35.7288 145.941 35.8071C145.74 36.0519 145.336 36.6754 145.336 37.5994C145.336 39.2251 146.26 40.3056 147.47 40.3056C147.746 40.3056 148.17 40.2048 148.372 40.0715Z" fill="#C9AF8F"/>
<path d="M151.164 40.9624C151.164 40.3388 151.323 39.6264 151.323 39.6264C151.323 39.6264 152.852 40.1831 153.818 40.205C153.892 40.205 154.158 39.9933 154.158 39.6264C154.158 38.3125 151.079 38.3457 151.079 36.5421C151.079 35.4503 152.481 34.6046 153.106 34.6046C153.945 34.6046 154.593 34.7492 155.081 34.927C155.028 35.6062 154.815 36.1965 154.815 36.1965C154.815 36.1965 153.446 35.6625 152.82 35.6625C152.692 35.6625 152.427 35.8628 152.427 36.152C152.427 37.3658 155.389 37.2657 155.389 39.2032C155.389 40.3388 153.945 41.363 153.404 41.363C152.501 41.363 151.663 41.1852 151.164 40.9624Z" fill="#C9AF8F"/>
<path d="M159.146 38.1229L159.168 34.7154L160.537 34.6711C160.526 35.1718 160.484 36.3969 160.484 38.056C160.484 39.6817 160.93 40.2162 161.981 40.2162C162.48 40.2162 162.968 40.0604 163.17 39.9045C163.478 39.192 163.509 37.1432 163.509 36.0853V34.7154L164.826 34.6711C164.815 35.1499 164.784 36.4414 164.784 37.3323C164.784 40.0267 163.945 41.3075 161.737 41.3075C159.816 41.3075 159.146 40.294 159.146 38.1229Z" fill="#C9AF8F"/>
<path d="M170.75 41.2964C170.134 40.0713 168.085 37.7225 167.204 36.3191L167.225 38.1231L167.321 41.1737L165.962 41.2295L166.015 37.7331L165.994 34.7495L167.565 34.6487C167.905 35.5622 169.646 37.6999 170.781 39.203L170.76 37.3099L170.654 34.7382L172.034 34.6713L171.981 37.8334V41.1963L170.75 41.2964Z" fill="#C9AF8F"/>
<path d="M173.255 41.2295L173.308 38.0338L173.224 34.7158L174.264 34.7377L176.981 34.6826L176.96 35.7958H174.529L174.497 37.2769L176.642 37.2543L176.609 38.3455L174.508 38.3567L174.54 40.1158L177.024 40.0713L176.992 41.2408L174.391 41.185L173.255 41.2295Z" fill="#C9AF8F"/>
<path d="M68.2075 50.608C68.2075 49.2022 69.1688 48.4994 70.1496 48.4994C70.7886 48.4994 71.4024 48.7988 71.6015 48.9227C71.4893 49.2934 71.2602 49.6124 71.2602 49.6124C71.1175 49.5213 70.4409 49.1765 69.9447 49.1765C69.6716 49.1765 69.4108 49.2546 69.3116 49.3132C69.2247 49.4043 68.958 49.7553 68.958 50.3087C68.958 51.0959 69.4108 51.8511 70.3852 51.8511C70.6083 51.8511 70.8937 51.7334 70.8937 51.7334L70.9001 50.3998L71.626 50.3542L71.5827 52.1307C71.2907 52.2738 70.6705 52.5016 70.081 52.5016C69.0885 52.5016 68.2075 51.7662 68.2075 50.608Z" fill="#C9AF8F"/>
<path d="M72.1035 50.5172C72.1035 49.3455 72.9779 48.4998 73.9833 48.4998C74.8826 48.4998 75.7699 49.2088 75.7699 50.3737C75.7699 51.6229 74.976 52.502 73.9023 52.502C73.1206 52.502 72.1035 51.8705 72.1035 50.5172ZM74.6471 51.7338C74.8085 51.5257 74.9636 51.1289 74.9636 50.699C74.9636 49.7489 74.4797 49.1176 73.7227 49.1176C73.5676 49.1176 73.301 49.1958 73.2263 49.2415C73.1085 49.3849 72.8729 49.7489 72.8729 50.2893C72.8729 51.2392 73.4125 51.8705 74.1197 51.8705C74.2812 51.8705 74.5289 51.812 74.6471 51.7338Z" fill="#C9AF8F"/>
<path d="M76.3091 52.3912L76.3337 50.4451L76.3027 48.6101C76.3027 48.6101 77.637 48.5909 77.8666 48.5909C78.431 48.5909 78.8591 48.9224 78.8591 49.3974C78.8591 49.8273 78.6231 50.1396 78.3377 50.3152C78.8158 50.4322 79.1568 50.7642 79.1568 51.2651C79.1568 52.0005 78.549 52.4238 77.8478 52.4238C77.2335 52.4238 76.6691 52.4041 76.3091 52.3912ZM77.7856 50.1593C77.9224 50.1 78.1515 49.8987 78.1515 49.5993C78.1515 49.3129 77.9095 49.1503 77.5688 49.1503H77.0661L77.0537 50.1396L77.7856 50.1593ZM78.4 51.2847C78.4 50.9528 78.1515 50.699 77.6182 50.699C77.4943 50.699 77.0661 50.7187 77.0661 50.7187L77.0785 51.7991C77.246 51.8447 77.5377 51.8577 77.7609 51.8577C78.0462 51.8577 78.4 51.6753 78.4 51.2847Z" fill="#C9AF8F"/>
<path d="M80.4467 52.3845L79.6586 52.4171L79.6774 50.3868L79.6462 48.6102L80.4467 48.5776L80.3974 50.5298L80.4467 52.3845Z" fill="#C9AF8F"/>
<path d="M81.1599 52.4106L81.191 50.5428L81.1411 48.6037L81.7496 48.6165L83.3376 48.584L83.3252 49.235H81.9045L81.8859 50.1004L83.1392 50.0876L83.1204 50.7252L81.8923 50.7313L81.9105 51.76L83.3623 51.7336L83.344 52.4173L81.8235 52.3846L81.1599 52.4106Z" fill="#C9AF8F"/>
<path d="M83.9515 52.4171L83.9763 50.3995L83.9451 48.6039L85.3041 48.5903C86.2285 48.5903 86.6379 49.0591 86.6379 49.645C86.6379 50.1913 86.309 50.6146 86.0176 50.8554C86.39 51.5059 86.874 52.183 86.874 52.183L86.1539 52.4625C86.1539 52.4625 85.7569 51.9549 85.2296 50.9921L84.721 50.9268L84.7392 52.3781L83.9515 52.4171ZM85.8562 49.7034C85.8562 49.3326 85.6143 49.1441 85.1802 49.1441L84.7333 49.1503L84.7087 50.2893C84.8947 50.3348 85.3165 50.3934 85.5337 50.3934C85.6453 50.3152 85.8562 50.1069 85.8562 49.7034Z" fill="#C9AF8F"/>
<path d="M90.124 52.4497C89.764 51.7339 88.5666 50.3609 88.052 49.541L88.0643 50.595L88.1202 52.3783L87.3262 52.411L87.3568 50.3677L87.3444 48.6231L88.2629 48.5645C88.4614 49.0986 89.4786 50.348 90.1429 51.2263L90.1305 50.1201L90.0682 48.6169L90.8746 48.5775L90.8434 50.4256V52.3913L90.124 52.4497Z" fill="#C9AF8F"/>
<path d="M91.377 50.5172C91.377 49.3455 92.2513 48.4998 93.2567 48.4998C94.1559 48.4998 95.0432 49.2088 95.0432 50.3737C95.0432 51.6229 94.2493 52.502 93.1757 52.502C92.394 52.502 91.377 51.8705 91.377 50.5172ZM93.9204 51.7338C94.0819 51.5257 94.2369 51.1289 94.2369 50.699C94.2369 49.7489 93.7531 49.1176 92.996 49.1176C92.8409 49.1176 92.5743 49.1958 92.4997 49.2415C92.3817 49.3849 92.1462 49.7489 92.1462 50.2893C92.1462 51.2392 92.686 51.8705 93.3931 51.8705C93.5546 51.8705 93.8023 51.812 93.9204 51.7338Z" fill="#C9AF8F"/>
<path d="M97.3999 52.4105H97.2761L97.3254 50.3997L97.3073 48.5972H98.4424C99.2734 48.5972 100.651 48.8117 100.651 50.3739C100.651 51.6102 99.8752 52.4559 98.6844 52.4559C98.0765 52.4559 97.8839 52.4172 97.3999 52.4105ZM99.4661 51.7272C99.6833 51.4408 99.8572 50.9917 99.8572 50.4971C99.8572 49.4498 99.2177 49.1702 98.4236 49.1702C98.3185 49.1702 98.2004 49.1763 98.1077 49.1893L98.0701 50.4453L98.1077 51.7857C98.275 51.8116 98.486 51.8314 98.6968 51.8314C98.9946 51.8314 99.261 51.7857 99.4661 51.7272Z" fill="#C9AF8F"/>
<path d="M101.203 52.4106L101.234 50.5428L101.184 48.6037L101.793 48.6165L103.38 48.584L103.368 49.235H101.947L101.929 50.1004L103.182 50.0876L103.163 50.7252L101.935 50.7313L101.953 51.76L103.405 51.7336L103.386 52.4173L101.867 52.3846L101.203 52.4106Z" fill="#C9AF8F"/>
<path d="M103.994 52.4041L104.013 50.3867L103.982 48.6039L104.782 48.5775L104.739 50.5302L104.77 51.7598L106.178 51.7468L106.16 52.4171L104.869 52.3714L103.994 52.4041Z" fill="#C9AF8F"/>
<path d="M108.355 52.4106L108.386 50.5428L108.336 48.6037L108.945 48.6165L110.533 48.584L110.521 49.235H109.1L109.081 50.1004L110.334 50.0876L110.316 50.7252L109.088 50.7313L109.106 51.76L110.558 51.7336L110.539 52.4173L109.019 52.3846L108.355 52.4106Z" fill="#C9AF8F"/>
<path d="M111.109 52.2544C111.109 51.8897 111.203 51.4734 111.203 51.4734C111.203 51.4734 112.096 51.7985 112.66 51.8121C112.704 51.8121 112.859 51.6883 112.859 51.4734C112.859 50.7057 111.06 50.7249 111.06 49.6709C111.06 49.0332 111.879 48.5385 112.245 48.5385C112.735 48.5385 113.113 48.6229 113.399 48.7271C113.367 49.1243 113.243 49.4693 113.243 49.4693C113.243 49.4693 112.443 49.157 112.077 49.157C112.003 49.157 111.847 49.2742 111.847 49.4429C111.847 50.1526 113.579 50.0941 113.579 51.2263C113.579 51.8897 112.735 52.4885 112.418 52.4885C111.891 52.4885 111.401 52.3843 111.109 52.2544Z" fill="#C9AF8F"/>
<path d="M114.738 52.4106L114.775 50.5231L114.751 49.248L113.733 49.2677L113.739 48.5777L115.235 48.6165L116.649 48.584L116.637 49.2677L115.545 49.2413L115.508 50.5231L115.545 52.3779L114.738 52.4106Z" fill="#C9AF8F"/>
<path d="M119.013 52.4172L118.69 51.3889H117.337L117.021 52.4105L116.24 52.3913C116.24 52.3913 117.058 50.4256 117.76 48.5714H118.374C118.374 48.5714 119.143 50.7249 119.826 52.3913L119.013 52.4172ZM117.53 50.8359H118.51L118.02 49.528L117.53 50.8359Z" fill="#C9AF8F"/>
<path d="M120.328 52.4105H120.204L120.253 50.3997L120.235 48.5972H121.37C122.201 48.5972 123.579 48.8117 123.579 50.3739C123.579 51.6102 122.803 52.4559 121.612 52.4559C121.004 52.4559 120.811 52.4172 120.328 52.4105ZM122.394 51.7272C122.611 51.4408 122.785 50.9917 122.785 50.4971C122.785 49.4498 122.145 49.1702 121.351 49.1702C121.246 49.1702 121.128 49.1763 121.035 49.1893L120.998 50.4453L121.035 51.7857C121.203 51.8116 121.414 51.8314 121.624 51.8314C121.922 51.8314 122.189 51.7857 122.394 51.7272Z" fill="#C9AF8F"/>
<path d="M123.919 50.5172C123.919 49.3455 124.794 48.4998 125.799 48.4998C126.698 48.4998 127.586 49.2088 127.586 50.3737C127.586 51.6229 126.792 52.502 125.718 52.502C124.936 52.502 123.919 51.8705 123.919 50.5172ZM126.463 51.7338C126.624 51.5257 126.779 51.1289 126.779 50.699C126.779 49.7489 126.295 49.1176 125.539 49.1176C125.383 49.1176 125.117 49.1958 125.042 49.2415C124.924 49.3849 124.689 49.7489 124.689 50.2893C124.689 51.2392 125.228 51.8705 125.936 51.8705C126.097 51.8705 126.345 51.812 126.463 51.7338Z" fill="#C9AF8F"/>
<path d="M68.5377 59.8025L68.3525 59.3224L68.9026 58.8187C69.5623 58.2116 69.8634 57.7377 69.8634 57.2943C69.8634 57.0027 69.69 56.7963 69.3831 56.7963C68.9716 56.7963 68.6648 57.2212 68.6648 57.2212C68.6358 57.2212 68.3525 56.7839 68.3525 56.7416C68.4507 56.6201 68.8386 56.183 69.4755 56.183C70.107 56.183 70.506 56.5898 70.506 57.1846C70.506 57.7986 70.0838 58.4722 69.5221 59.0068L69.3365 59.1829H70.506L70.483 59.8025H68.5377Z" fill="#C9AF8F"/>
<path d="M70.8879 58.0534C70.8879 56.9419 71.432 56.2131 72.2254 56.2131C72.9894 56.2131 73.4353 56.9724 73.4353 57.8952C73.4353 59.0129 72.9605 59.8513 72.0866 59.8513C71.571 59.8513 70.8879 59.2802 70.8879 58.0534ZM72.5555 59.1709C72.6653 58.9823 72.7582 58.5755 72.7582 58.1141C72.7582 57.4704 72.6483 56.7782 72.0635 56.7782C71.9706 56.7782 71.8376 56.8267 71.7855 56.8632C71.6985 57.0151 71.5655 57.3612 71.5655 57.9317C71.5655 58.6245 71.7797 59.2496 72.2426 59.2496C72.3467 59.2496 72.4916 59.2138 72.5555 59.1709Z" fill="#C9AF8F"/>
<path d="M73.8058 59.8025L73.6206 59.3224L74.1706 58.8187C74.8304 58.2116 75.1315 57.7377 75.1315 57.2943C75.1315 57.0027 74.9581 56.7963 74.6512 56.7963C74.2397 56.7963 73.9328 57.2212 73.9328 57.2212C73.9039 57.2212 73.6206 56.7839 73.6206 56.7416C73.7188 56.6201 74.1067 56.183 74.7436 56.183C75.3751 56.183 75.7742 56.5898 75.7742 57.1846C75.7742 57.7986 75.3519 58.4722 74.7902 59.0068L74.6046 59.1829H75.7742L75.751 59.8025H73.8058Z" fill="#C9AF8F"/>
<path d="M77.3896 59.8024V58.9404H76.0402L75.8723 58.6247L77.3837 56.2865L78.0495 56.189V58.4299H78.5071L78.4839 58.9459H78.0495V59.8024H77.3896ZM76.573 58.4361H77.3896V57.0635L76.573 58.4361Z" fill="#C9AF8F"/>
<path d="M80.9033 58.77L80.9442 58.3148L81.6389 58.3266L82.8777 58.3024L82.8315 58.7638L81.986 58.7457L80.9033 58.77Z" fill="#C9AF8F"/>
<path d="M85.4132 59.8025L85.228 59.3224L85.7781 58.8187C86.4378 58.2116 86.7388 57.7377 86.7388 57.2943C86.7388 57.0027 86.5656 56.7963 86.2586 56.7963C85.8472 56.7963 85.5402 57.2212 85.5402 57.2212C85.5113 57.2212 85.228 56.7839 85.228 56.7416C85.3262 56.6201 85.7141 56.183 86.3511 56.183C86.9825 56.183 87.3817 56.5898 87.3817 57.1846C87.3817 57.7986 86.9594 58.4722 86.3976 59.0068L86.212 59.1829H87.3817L87.3584 59.8025H85.4132Z" fill="#C9AF8F"/>
<path d="M87.7634 58.0534C87.7634 56.9419 88.3075 56.2131 89.1008 56.2131C89.8649 56.2131 90.3108 56.9724 90.3108 57.8952C90.3108 59.0129 89.8359 59.8513 88.962 59.8513C88.4464 59.8513 87.7634 59.2802 87.7634 58.0534ZM89.4309 59.1709C89.5408 58.9823 89.6338 58.5755 89.6338 58.1141C89.6338 57.4704 89.5238 56.7782 88.939 56.7782C88.8461 56.7782 88.713 56.8267 88.661 56.8632C88.5741 57.0151 88.441 57.3612 88.441 57.9317C88.441 58.6245 88.6552 59.2496 89.1182 59.2496C89.2222 59.2496 89.3672 59.2138 89.4309 59.1709Z" fill="#C9AF8F"/>
<path d="M90.5422 59.7419C90.5422 59.6688 90.7162 59.1589 90.7509 59.1589C90.7509 59.1589 90.9939 59.2439 91.3528 59.2439C91.538 59.2439 91.6946 59.2073 91.8218 59.1712C91.8915 59.0553 91.9495 58.9034 91.9495 58.7216C91.9495 58.3452 91.6366 58.1145 91.1737 58.1145H91.098V57.6344H91.1849C91.538 57.6221 91.8104 57.4099 91.8104 57.106C91.8104 56.8933 91.6538 56.76 91.4166 56.76C91.075 56.76 90.8199 57.0273 90.8199 57.0273C90.7562 57.0273 90.5422 56.59 90.5422 56.523C90.6582 56.4319 91.0519 56.1769 91.538 56.1769C92.1576 56.1769 92.4935 56.5353 92.4935 56.9602C92.4935 57.3553 92.2155 57.6586 91.9146 57.7802C92.2736 57.8831 92.6213 58.2175 92.6213 58.7031C92.6213 59.3834 92.1173 59.8752 91.2311 59.8752C90.884 59.8752 90.5652 59.7537 90.5422 59.7419Z" fill="#C9AF8F"/>
<path d="M92.9216 58.0534C92.9216 56.9419 93.4657 56.2131 94.259 56.2131C95.0231 56.2131 95.4689 56.9724 95.4689 57.8952C95.4689 59.0129 94.9941 59.8513 94.1203 59.8513C93.6046 59.8513 92.9216 59.2802 92.9216 58.0534ZM94.5891 59.1709C94.6991 58.9823 94.7919 58.5755 94.7919 58.1141C94.7919 57.4704 94.6819 56.7782 94.0971 56.7782C94.0043 56.7782 93.8713 56.8267 93.8192 56.8632C93.7323 57.0151 93.5992 57.3612 93.5992 57.9317C93.5992 58.6245 93.8134 59.2496 94.2763 59.2496C94.3804 59.2496 94.5253 59.2138 94.5891 59.1709Z" fill="#C9AF8F"/>
</g>
</svg>
