<svg width="116" height="152" viewBox="0 0 116 152" fill="none" xmlns="http://www.w3.org/2000/svg">
<mask id="mask0_7_5030" style="mask-type:alpha" maskUnits="userSpaceOnUse" x="0" y="0" width="116" height="152">
<rect y="0.692139" width="115.525" height="151.016" fill="#D9D9D9"/>
</mask>
<g mask="url(#mask0_7_5030)">
<mask id="mask1_7_5030" style="mask-type:alpha" maskUnits="userSpaceOnUse" x="0" y="0" width="116" height="152">
<rect y="0.691528" width="115.525" height="151.016" fill="#D9D9D9"/>
</mask>
<g mask="url(#mask1_7_5030)">
<g style="mix-blend-mode:multiply" opacity="0.5">
<mask id="mask2_7_5030" style="mask-type:alpha" maskUnits="userSpaceOnUse" x="1" y="87" width="114" height="65">
<rect x="1.27979" y="87.335" width="113.013" height="64.3729" fill="#D9D9D9"/>
</mask>
<g mask="url(#mask2_7_5030)">
<path d="M97.7409 96.763C75.6745 84.1917 39.8966 84.1917 17.8301 96.7608C-4.23634 109.332 -4.23634 129.711 17.8301 142.28C39.8966 154.849 75.6745 154.851 97.7409 142.28C119.81 129.711 119.81 109.332 97.7409 96.763Z" fill="#C2C7CD"/>
</g>
</g>
<path d="M97.741 83.6549C75.6746 71.0857 39.8967 71.0857 17.8302 83.6549C13.809 85.9438 10.5309 88.4967 7.97138 91.2115L1.19995 85.7243V106.668L1.28867 106.615C1.37961 114.784 6.8868 122.937 17.8302 129.17C39.8967 141.741 75.6746 141.741 97.741 129.174C108.671 122.944 114.183 114.802 114.283 106.644L114.325 106.668V85.7243L107.578 91.1915C105.025 88.4812 101.753 85.9372 97.741 83.6549Z" fill="#D3F36B"/>
<path d="M114.844 84.6397C114.429 84.4445 113.93 84.4977 113.571 84.7905L107.675 89.568C105.109 87.0195 101.975 84.684 98.3354 82.6102C75.9784 69.8747 39.595 69.8747 17.238 82.6102C13.585 84.6929 10.4422 87.0351 7.8782 89.5902L1.95625 84.7905C1.59473 84.4977 1.10012 84.4378 0.683145 84.6419C0.263951 84.8437 -0.0022042 85.2651 1.37558e-05 85.7287L0.0887321 106.629C0.18854 115.598 6.27905 123.973 17.238 130.216C28.4165 136.582 43.1038 139.767 57.7867 139.767C72.4696 139.767 87.1591 136.582 98.3354 130.216C109.283 123.982 115.372 115.613 115.485 106.646L115.527 85.7265C115.527 85.2629 115.261 84.8393 114.844 84.6397ZM113.083 106.629C112.983 114.697 107.325 122.332 97.1488 128.127C75.4439 140.49 40.1295 140.49 18.4246 128.127C8.23973 122.325 2.5795 114.682 2.49078 106.611L2.41537 88.2505L7.21947 92.1452C7.70076 92.54 8.41273 92.4935 8.84745 92.0365C11.3804 89.344 14.6053 86.8754 18.4246 84.6973C40.1295 72.3367 75.4439 72.3367 97.1488 84.6973C100.957 86.8665 104.171 89.3262 106.706 92.0166C107.138 92.4713 107.855 92.5201 108.334 92.1253L113.12 88.2461L113.083 106.629Z" fill="black"/>
<path d="M97.7409 62.9835C75.6745 50.4121 39.8966 50.4121 17.8301 62.9835C-4.23634 75.5504 -4.23634 95.9312 17.8301 108.5C39.8966 121.067 75.6745 121.067 97.7409 108.5C119.81 95.9312 119.81 75.5504 97.7409 62.9835Z" fill="#D3F36B"/>
<path d="M98.3354 61.9367C75.9717 49.2012 39.5928 49.2034 17.238 61.9367C6.17257 68.2379 0.079834 76.6927 0.079834 85.7398C0.079834 94.7868 6.17257 103.239 17.238 109.543C28.4143 115.911 43.1016 119.093 57.7845 119.093C72.4696 119.093 87.1569 115.911 98.3354 109.543C109.401 103.239 115.493 94.7868 115.493 85.7398C115.493 76.6927 109.401 68.2379 98.3354 61.9367ZM97.1488 107.454C75.4438 119.821 40.1295 119.821 18.4246 107.454C8.14433 101.598 2.48188 93.8864 2.48188 85.7398C2.48188 77.5932 8.14433 69.8792 18.4246 64.0238C29.2748 57.8423 43.5296 54.7527 57.7845 54.7527C72.037 54.7527 86.2941 57.8423 97.1488 64.026C107.429 69.8792 113.091 77.5932 113.091 85.7398C113.091 93.8864 107.429 101.598 97.1488 107.454Z" fill="black"/>
<path d="M88.767 95.4456C86.1809 97.4174 83.2265 98.8479 80.1724 99.9392C74.0442 102.122 67.499 102.92 61.0403 102.976C57.7999 102.92 54.5816 102.665 51.4077 102.235C48.2516 101.709 45.1287 101.075 42.1522 100.108C36.3056 98.187 30.5434 95.155 27.5403 91.0141C26.0054 88.9869 25.4532 86.8599 25.6506 84.7905C25.7792 82.6857 27.09 80.4943 28.9331 78.5137C30.8029 76.5242 33.2826 74.8008 35.9907 73.3614C38.7276 71.9685 41.6731 70.8107 44.7361 69.8703C50.9131 68.1625 57.4827 67.2598 64.11 67.3729C70.755 67.4128 77.4221 68.4597 83.9385 70.844C78.4269 66.5567 71.5645 64.0637 64.5868 62.6819C61.0758 62.032 57.4982 61.7548 53.894 61.6483C50.2854 61.6151 46.6702 61.9788 43.0549 62.5621C35.8754 63.9084 28.565 66.4258 22.4944 72.0705C19.5534 74.8962 16.863 78.7887 16.2442 83.5773C15.5943 88.3304 17.1735 93.2321 19.7796 96.6677C25.1271 103.632 32.4819 106.773 39.5993 108.829C46.8254 110.723 54.2112 111.189 61.4329 110.432C65.0393 109.993 68.6302 109.423 72.1101 108.372C75.579 107.287 78.9658 105.948 82.1531 104.193C85.2671 102.315 88.2746 100.179 90.6123 97.3419C92.9545 94.5761 94.6269 91.074 94.6158 87.5696C93.5511 90.8877 91.3465 93.4894 88.767 95.4456Z" fill="#FF5572"/>
<path d="M97.2951 87.583C96.5255 92.6554 92.5487 97.4795 86.09 101.159C70.4822 110.044 45.0932 110.046 29.481 101.159C22.1662 96.9915 18.1362 91.5154 18.1362 85.7398C18.1362 79.9643 22.1662 74.4903 29.481 70.325C45.0888 61.4332 70.4822 61.4332 86.09 70.325L87.1324 70.9172L88.3212 68.8301L87.2766 68.2357C71.0167 58.9735 44.552 58.9735 28.2922 68.2357C20.1966 72.8491 15.7363 79.0638 15.7363 85.7398C15.7363 92.4159 20.1944 98.6306 28.2922 103.244C36.4232 107.875 47.1049 110.193 57.7844 110.193C68.4661 110.193 79.1478 107.875 87.2766 103.244C94.3873 99.194 98.79 93.76 99.6661 87.9401L99.848 86.7534L97.4747 86.3941L97.2951 87.583Z" fill="black"/>
<path d="M46.6313 87.7948L49.1486 86.362L40.7825 81.5978L38.2673 83.0284V88.7418L42.1643 90.9642L39.1944 92.6543L44.9101 95.9103L52.8948 91.3612L46.6313 87.7948Z" fill="#FF5572"/>
<path d="M76.3241 78.7916L70.6639 75.5712L62.8301 80.0337L69.0759 83.5913L66.727 84.9287L75.1109 89.7018L77.4597 88.3643L77.6261 82.5555L73.6715 80.3021L76.3241 78.7916Z" fill="#FF5572"/>
<path d="M66.7274 76.3463L63.3805 74.4366L53.1779 74.5365L48.3338 77.2978L48.2961 83.029L59.1774 89.226L49.1478 94.9417L52.5191 96.8602H62.5465L67.5591 94.0035L67.599 88.2678L56.7 82.0598L66.7274 76.3463Z" fill="#FF5572"/>
<rect x="7.55225" y="104.603" width="2.39983" height="17.8036" fill="black"/>
<rect x="17.1714" y="112.858" width="2.40205" height="17.8013" fill="black"/>
<rect x="38.7942" y="120.386" width="2.40205" height="17.8013" fill="black"/>
<rect x="52.2529" y="121.741" width="2.40205" height="17.8036" fill="black"/>
<rect x="27.4939" y="117.228" width="2.40205" height="17.8013" fill="black"/>
<rect x="105.535" y="105.315" width="2.40427" height="17.8035" fill="black"/>
<rect x="96.0752" y="112.494" width="2.39983" height="17.8036" fill="black"/>
<path d="M97.741 57.8068C75.6746 45.2376 39.8967 45.2376 17.8302 57.8068C13.809 60.0979 10.5309 62.6508 7.97138 65.3633L1.19995 59.8761V80.8203L1.28867 80.7671C1.37961 88.938 6.8868 97.089 17.8302 103.324C39.8967 115.891 75.6746 115.891 97.741 103.324C108.671 97.0979 114.183 88.9536 114.283 80.7937L114.325 80.8203V59.8761L107.578 65.3434C105.025 62.6375 101.753 60.0913 97.741 57.8068Z" fill="#D3F36B"/>
<path d="M114.844 58.7938C114.429 58.5964 113.93 58.6541 113.571 58.9447L107.675 63.7221C105.109 61.1715 101.973 58.8338 98.3354 56.7644C75.974 44.0289 39.595 44.0289 17.238 56.7644C13.5872 58.8426 10.4422 61.1848 7.8782 63.7443L1.95625 58.9447C1.59473 58.6519 1.10012 58.5898 0.683145 58.7938C0.263951 58.9957 -0.0022042 59.4193 1.37558e-05 59.8829L0.0887321 80.7805C0.18854 89.7499 6.27905 98.1271 17.238 104.368C28.4187 110.736 43.0994 113.921 57.7867 113.921C72.4696 113.921 87.1591 110.734 98.3354 104.368C109.283 98.1338 115.372 89.7676 115.485 80.7982L115.527 59.8784C115.527 59.4171 115.261 58.9957 114.844 58.7938ZM113.083 80.7805C112.983 88.8494 107.325 96.4836 97.1488 102.281C75.4439 114.644 40.1295 114.644 18.4246 102.281C8.23973 96.4769 2.5795 88.8339 2.49078 80.7627L2.41537 62.4025L7.21947 66.2994C7.70076 66.692 8.41273 66.6476 8.84745 66.1885C11.3826 63.4937 14.6053 61.0251 18.4246 58.8493C40.1318 46.4864 75.4461 46.4886 97.1488 58.8515C100.955 61.0184 104.169 63.4804 106.706 66.1685C107.138 66.6254 107.855 66.6742 108.334 66.2772L113.12 62.398L113.083 80.7805Z" fill="black"/>
<path d="M97.7409 37.1355C75.6745 24.5663 39.8966 24.5663 17.8301 37.1355C-4.23634 49.7047 -4.23634 70.0833 17.8301 82.6524C39.8966 95.2216 75.6745 95.2216 97.7409 82.6524C119.81 70.0833 119.81 49.7047 97.7409 37.1355Z" fill="#D3F36B"/>
<path d="M98.3354 36.0908C75.9717 23.3553 39.5928 23.3575 17.238 36.0908C6.17257 42.3943 0.079834 50.8425 0.079834 59.8918C0.079834 68.9388 6.17257 77.3937 17.238 83.6949C28.4143 90.0649 43.1016 93.2498 57.7845 93.2498C72.4696 93.2498 87.1569 90.0649 98.3354 83.6949C109.401 77.3937 115.493 68.9388 115.493 59.8918C115.493 50.8469 109.401 42.3943 98.3354 36.0908ZM97.1488 81.61C75.4438 93.9729 40.1317 93.9729 18.4246 81.61C8.14433 75.7524 2.48188 68.0361 2.48188 59.8918C2.48188 51.7452 8.14433 44.0356 18.4246 38.1779C29.2748 31.9987 43.5296 28.9069 57.7845 28.9069C72.0415 28.9069 86.2941 31.9987 97.1488 38.1779C107.429 44.0356 113.091 51.7452 113.091 59.8918C113.091 68.0405 107.429 75.7524 97.1488 81.61Z" fill="black"/>
<path d="M88.767 69.5975C86.1809 71.5692 83.2265 73.002 80.1724 74.0933C74.0442 76.2735 67.499 77.0742 61.0403 77.1274C57.7999 77.0742 54.5816 76.8169 51.4077 76.3866C48.2516 75.861 45.1287 75.2289 42.1522 74.2618C36.3056 72.3389 30.5434 69.3069 27.5403 65.1682C26.0054 63.1432 25.4532 61.0117 25.6506 58.9424C25.7792 56.842 27.09 54.6462 28.9331 52.6656C30.8029 50.6761 33.2826 48.9527 35.9907 47.5132C38.7276 46.1248 41.6731 44.9648 44.7361 44.02C50.9131 42.3144 57.4827 41.4139 64.11 41.5248C70.755 41.5669 77.4221 42.6116 83.9385 44.9959C78.4269 40.7086 71.5645 38.2156 64.5868 36.8338C61.0758 36.1861 57.4982 35.9067 53.894 35.8024C50.2854 35.7669 46.6702 36.1307 43.0549 36.7162C35.8754 38.0603 28.565 40.5777 22.4944 46.2224C19.5534 49.0481 16.863 52.9406 16.2442 57.7292C15.5943 62.4822 17.1735 67.3839 19.7796 70.8196C25.1271 77.7884 32.4819 80.9246 39.5993 82.9828C46.8254 84.8725 54.2112 85.3427 61.4329 84.5842C65.0393 84.1473 68.6302 83.5772 72.1101 82.5237C75.579 81.4414 78.9658 80.0995 82.1531 78.3473C85.2671 76.4665 88.2746 74.3328 90.6123 71.496C92.9545 68.7302 94.6269 65.2281 94.6158 61.7215C93.5511 65.0418 91.3465 67.6412 88.767 69.5975Z" fill="#FF5572"/>
<path d="M97.2951 61.7348C96.5255 66.8095 92.5487 71.6314 86.09 75.311C70.4822 84.2005 45.0888 84.2005 29.481 75.311C22.1662 71.1434 18.1362 65.6673 18.1362 59.8917C18.1362 54.1184 22.1662 48.6422 29.481 44.4769C45.0888 35.5873 70.4822 35.5873 86.09 44.4769L87.1324 45.0691L88.3212 42.9842L87.2766 42.392C71.0167 33.1276 44.552 33.1276 28.2922 42.392C20.1944 47.001 15.7363 53.2201 15.7363 59.8917C15.7363 66.5678 20.1944 72.7847 28.2922 77.3959C36.4232 82.0292 47.1049 84.3447 57.7844 84.3447C68.4661 84.3447 79.1478 82.0292 87.2766 77.3959C94.3873 73.3459 98.79 67.9119 99.6661 62.0919L99.848 60.9075L97.4747 60.5482L97.2951 61.7348Z" fill="black"/>
<path d="M66.7274 50.4994L63.3805 48.5919L53.1779 48.6873L48.3338 51.4486L48.2961 57.1843L59.1774 63.3813L49.1478 69.0903L52.5191 71.0133H62.5465L67.5591 68.1565L67.599 62.4209L56.7 56.2128L66.7274 50.4994Z" fill="#FF5572"/>
<path d="M46.6313 61.946L49.1486 60.5132L40.7825 55.7468L38.2673 57.1841V62.8931L42.1643 65.1177L39.1944 66.8056L44.9101 70.0615L52.8948 65.5125L46.6313 61.946Z" fill="#FF5572"/>
<path d="M76.3241 52.9463L70.6639 49.7214L62.8301 54.1862L69.0759 57.7416L66.727 59.079L75.1109 63.8543L77.4597 62.5168L77.6261 56.708L73.6715 54.4546L76.3241 52.9463Z" fill="#FF5572"/>
<rect x="7.55225" y="78.7548" width="2.39983" height="17.8035" fill="black"/>
<rect x="17.1714" y="87.01" width="2.40205" height="17.8036" fill="black"/>
<rect x="38.7942" y="94.5355" width="2.40205" height="17.8036" fill="black"/>
<rect x="52.2529" y="95.8951" width="2.40205" height="17.8036" fill="black"/>
<rect x="27.4939" y="91.3794" width="2.40205" height="17.8013" fill="black"/>
<rect x="105.535" y="79.469" width="2.40427" height="17.8013" fill="black"/>
<rect x="96.0752" y="86.6484" width="2.39983" height="17.8013" fill="black"/>
<path d="M97.741 31.9588C75.6746 19.3918 39.8967 19.3918 17.8302 31.9588C13.809 34.2499 10.5309 36.8006 7.97138 39.5154L1.19995 34.0304V54.9723L1.28867 54.9191C1.37961 63.0878 6.8868 71.241 17.8302 77.4779C39.8967 90.0471 75.6746 90.0471 97.741 77.4779C108.671 71.2499 114.183 63.1078 114.283 54.9501L114.325 54.9723V34.0304L107.578 39.4976C105.025 36.7895 101.753 34.2433 97.741 31.9588Z" fill="#D3F36B"/>
<path d="M114.844 32.9457C114.429 32.7439 113.93 32.8038 113.571 33.0943L107.675 37.8718C105.109 35.3234 101.975 32.9879 98.3354 30.9141C75.9784 18.1785 39.595 18.1785 17.238 30.9141C13.585 32.9967 10.4422 35.3389 7.8782 37.894L1.95625 33.0943C1.59473 32.8015 1.10012 32.7417 0.683145 32.9457C0.263951 33.1475 -0.0022042 33.569 1.37558e-05 34.0325L0.0887321 54.9346C0.18854 63.9018 6.27905 72.2745 17.238 78.5203C28.4165 84.8859 43.1038 88.0709 57.7867 88.0709C72.4696 88.0709 87.1591 84.8859 98.3354 78.5203C109.283 72.2856 115.372 63.9173 115.485 54.9501L115.527 34.0303C115.527 33.569 115.261 33.1475 114.844 32.9457ZM113.083 54.9323C112.983 62.999 107.325 70.6355 97.1488 76.431C75.4439 88.7939 40.1295 88.7939 18.4246 76.431C8.23973 70.6288 2.5795 62.9857 2.49078 54.9146L2.41537 36.5543L7.21947 40.4491C7.70076 40.8439 8.41273 40.7995 8.84745 40.3382C11.3804 37.6478 14.6053 35.1792 18.4246 33.0012C40.1295 20.6405 75.4439 20.6405 97.1488 33.0012C100.957 35.1725 104.171 37.6323 106.706 40.3182C107.138 40.7773 107.855 40.8239 108.334 40.4269L113.12 36.5499L113.083 54.9323Z" fill="black"/>
<path d="M97.7409 11.2852C75.6745 -1.28175 39.8966 -1.28175 17.8301 11.2852C-4.23634 23.8566 -4.23634 44.2352 17.8301 56.8044C39.8966 69.3735 75.6745 69.3735 97.7409 56.8044C119.81 44.2352 119.81 23.8566 97.7409 11.2852Z" fill="#D3F36B"/>
<path d="M98.3354 10.2427C75.9717 -2.49281 39.5928 -2.49281 17.238 10.2405C6.17257 16.5439 0.079834 24.9966 0.079834 34.0436C0.079834 43.0885 6.17257 51.5433 17.238 57.8467C28.4143 64.2123 43.1016 67.3973 57.7845 67.3973C72.4696 67.3973 87.1569 64.2123 98.3354 57.8467C109.401 51.5433 115.493 43.0929 115.493 34.0458C115.493 24.9966 109.401 16.5461 98.3354 10.2427ZM97.1488 55.7596C75.4438 68.1226 40.1295 68.1226 18.4246 55.7596C8.14433 49.902 2.48188 42.1902 2.48188 34.0436C2.48188 25.8948 8.14433 18.1852 18.4246 12.3298C29.2748 6.14836 43.5296 3.05653 57.7845 3.05653C72.037 3.05653 86.2941 6.14836 97.1488 12.3298C107.429 18.1874 113.091 25.8948 113.091 34.0458C113.091 42.1902 107.429 49.902 97.1488 55.7596Z" fill="black"/>
<path d="M88.767 43.7517C86.1809 45.7256 83.2265 47.154 80.1724 48.2452C74.0442 50.4277 67.499 51.2284 61.0403 51.2816C57.7999 51.2262 54.5816 50.9733 51.4077 50.5408C48.2516 50.0174 45.1287 49.383 42.1522 48.4138C36.3056 46.493 30.5434 43.4611 27.5403 39.3224C26.0054 37.293 25.4532 35.1659 25.6506 33.0944C25.7792 30.994 27.09 28.7982 28.9331 26.8198C30.8029 24.8302 33.2826 23.1069 35.9907 21.6652C38.7276 20.2768 41.6731 19.119 44.7361 18.1719C50.9131 16.4685 57.4827 15.5681 64.11 15.679C70.755 15.7189 77.4221 16.7658 83.9385 19.1478C78.4269 14.8627 71.5645 12.3675 64.5868 10.988C61.0758 10.3381 57.4982 10.0609 53.894 9.95884C50.2854 9.92113 46.6702 10.2871 43.0549 10.8704C35.8754 12.2123 28.565 14.7319 22.4944 20.3766C19.5534 23.2023 16.863 27.0948 16.2442 31.8856C15.5943 36.6364 17.1735 41.5381 19.7796 44.9715C25.1271 51.9404 32.4819 55.081 39.5993 57.137C46.8254 59.0267 54.2112 59.4947 61.4329 58.7384C65.0393 58.2992 68.6302 57.7292 72.1101 56.6779C75.579 55.5955 78.9658 54.2537 82.1531 52.4993C85.2671 50.6207 88.2746 48.4848 90.6123 45.6502C92.9545 42.8844 94.6269 39.3801 94.6158 35.8757C93.5511 39.1915 91.3465 41.7954 88.767 43.7517Z" fill="white"/>
<path d="M97.2951 35.8868C96.5255 40.9637 92.5487 45.7855 86.09 49.4629C70.4822 58.3503 45.0932 58.3525 29.481 49.4629C22.1662 45.2953 18.1362 39.8192 18.1362 34.0459C18.1362 28.2703 22.1662 22.7942 29.481 18.6288C45.0888 9.73704 70.4822 9.73704 86.09 18.6288L87.1324 19.2232L88.3212 17.1362L87.2766 16.5417C71.0167 7.27954 44.552 7.27954 28.2922 16.5417C20.1966 21.1551 15.7363 27.3698 15.7363 34.0459C15.7363 40.7219 20.1944 46.9366 28.2922 51.55C36.4232 56.1811 47.1049 58.4966 57.7844 58.4966C68.4661 58.4966 79.1478 56.1811 87.2766 51.55C94.3873 47.5 98.79 42.0638 99.6661 36.2461L99.848 35.0595L97.4747 34.7002L97.2951 35.8868Z" fill="black"/>
<path d="M46.6313 36.0989L49.1486 34.6661L40.7825 29.902L38.2673 31.3326V37.0482L42.1643 39.2684L39.1944 40.9607L44.9101 44.2145L52.8948 39.6676L46.6313 36.0989Z" fill="white"/>
<path d="M76.3241 27.0994L70.6639 23.8767L62.8301 28.3392L69.0759 31.8968L66.727 33.2298L75.1109 38.0073L77.4597 36.6699L77.6261 30.8588L73.6715 28.6054L76.3241 27.0994Z" fill="white"/>
<path d="M66.7274 24.6508L63.3805 22.7434L53.1779 22.841L48.3338 25.6001L48.2961 31.3336L59.1774 37.5328L49.1478 43.2462L52.5191 45.1625H62.5465L67.5591 42.308L67.599 36.5724L56.7 30.3643L66.7274 24.6508Z" fill="white"/>
<rect x="7.55225" y="52.9044" width="2.39983" height="17.8058" fill="black"/>
<rect x="17.1714" y="61.162" width="2.40205" height="17.8013" fill="black"/>
<rect x="38.7942" y="68.6897" width="2.40205" height="17.8013" fill="black"/>
<rect x="52.2529" y="70.0471" width="2.40205" height="17.8013" fill="black"/>
<rect x="27.4939" y="65.5312" width="2.40205" height="17.8036" fill="black"/>
<rect x="105.535" y="53.6208" width="2.40427" height="17.8013" fill="black"/>
<rect x="96.0752" y="60.8004" width="2.39983" height="17.8013" fill="black"/>
</g>
</g>
</svg>
