<svg width="58" height="60" viewBox="0 0 58 60" fill="none" xmlns="http://www.w3.org/2000/svg">
<mask id="mask0_7_5074" style="mask-type:alpha" maskUnits="userSpaceOnUse" x="0" y="0" width="58" height="61">
<rect y="0.00463867" width="57.5" height="60" fill="#D9D9D9"/>
</mask>
<g mask="url(#mask0_7_5074)">
<path d="M28.7495 35.0054C25.9926 35.0054 23.7495 32.7615 23.7495 30.005C23.7495 27.2477 25.9926 25.005 28.7495 25.005C31.5068 25.005 33.7499 27.2477 33.7499 30.005C33.7499 32.7615 31.5068 35.0054 28.7495 35.0054ZM28.7495 27.5054C27.3709 27.5054 26.2491 28.6268 26.2491 30.005C26.2491 31.384 27.3709 32.5054 28.7495 32.5054C30.1286 32.5054 31.2499 31.384 31.2499 30.005C31.2499 28.6268 30.1286 27.5054 28.7495 27.5054Z" fill="white"/>
<path d="M28.7495 60.0046C25.7729 60.0046 23.2195 56.7867 21.3671 50.6984C19.6789 45.1537 18.7495 37.8044 18.7495 30.005C18.7495 22.2057 19.6789 14.8568 21.3671 9.31165C23.2195 3.22336 25.7729 0.00463867 28.7495 0.00463867C30.191 0.00463867 31.5431 0.762969 32.767 2.26003C32.9961 2.53935 33.0929 2.90443 33.0324 3.26174C32.9712 3.61743 32.7596 3.92983 32.4509 4.11767C31.6987 4.5779 31.2499 5.37584 31.2499 6.25546C31.2499 7.6345 32.3713 8.75586 33.7499 8.75586C34.028 8.75586 34.3024 8.7089 34.5658 8.61784C34.8868 8.50717 35.2404 8.53167 35.543 8.68685C35.846 8.84203 36.0723 9.114 36.1707 9.43906C37.8335 14.9695 38.7499 22.2739 38.7499 30.005C38.7499 37.8044 37.8205 45.1537 36.1331 50.6984C34.28 56.7867 31.7269 60.0046 28.7495 60.0046ZM28.7495 2.50505C25.6182 2.50505 21.2499 12.9669 21.2499 30.005C21.2499 47.0428 25.6182 57.5051 28.7495 57.5051C31.8812 57.5051 36.2495 47.0428 36.2495 30.005C36.2495 23.0102 35.4851 16.4049 34.0864 11.2436C33.9745 11.251 33.8618 11.2555 33.7499 11.2555C30.9926 11.2555 28.7495 9.01191 28.7495 6.25546C28.7495 5.02669 29.1877 3.87756 29.9632 2.98447C29.5932 2.70555 29.1787 2.50505 28.7495 2.50505Z" fill="white"/>
<path d="M33.7504 11.255C30.9931 11.255 28.75 9.01191 28.75 6.25546C28.75 4.49704 29.6472 2.90034 31.1491 1.98438C31.9312 1.50742 32.8308 1.25464 33.7504 1.25464C36.5073 1.25464 38.7504 3.49737 38.7504 6.25546C38.7504 8.38589 37.3963 10.2856 35.3818 10.9814C34.8559 11.1628 34.3066 11.255 33.7504 11.255ZM33.7504 3.75505C33.2898 3.75505 32.8414 3.88041 32.4514 4.11767C31.6992 4.5779 31.25 5.37543 31.25 6.25546C31.25 7.63409 32.3714 8.75546 33.7504 8.75546C34.0285 8.75546 34.3029 8.7089 34.5663 8.61784C35.5733 8.26991 36.25 7.32088 36.25 6.25546C36.25 4.87641 35.1286 3.75505 33.7504 3.75505Z" fill="white"/>
<path d="M48.4828 48.869C42.5591 48.869 32.8592 44.8205 23.1688 38.3026C16.6974 33.9503 11.118 29.0773 7.45823 24.582C3.44034 19.6469 2.19402 15.7328 3.85646 13.2626C4.80346 11.8537 6.539 11.1387 9.0145 11.1387C14.939 11.1387 24.6385 15.188 34.3306 21.7063C44.5813 28.6011 52.2818 36.5822 53.99 42.0755C54.0423 42.2131 54.0713 42.3629 54.0713 42.5193C54.0713 43.2078 53.5134 43.7673 52.8249 43.7698C52.7874 43.7689 52.7514 43.7681 52.7147 43.7653C52.6334 43.7583 52.5632 43.7551 52.4999 43.7551C51.1212 43.7551 50.0003 44.8764 50.0003 46.2551C50.0003 46.565 50.0566 46.8672 50.1677 47.1559C50.3127 47.5304 50.2686 47.9522 50.0497 48.2883C49.8312 48.6248 49.4637 48.8363 49.0631 48.8551C48.8757 48.8641 48.68 48.869 48.4828 48.869ZM9.0145 13.6391C7.9209 13.6391 6.49612 13.8151 5.93054 14.6579C4.18274 17.2564 10.4258 26.7194 24.5642 36.2285C33.188 42.0289 42.0152 45.8961 47.5003 46.329C47.4999 46.3045 47.4999 46.2796 47.4999 46.2551C47.4999 43.9964 49.0059 42.0824 51.0661 41.465C48.7499 36.5822 41.7464 29.7078 32.9352 23.7808C23.7744 17.6206 14.3857 13.6391 9.0145 13.6391Z" fill="white"/>
<path d="M52.5 51.255C50.4504 51.255 48.576 49.9703 47.8361 48.0576C47.6131 47.4809 47.5 46.8741 47.5 46.2554C47.5 43.4974 49.7423 41.2546 52.5 41.2546C52.6331 41.2546 52.772 41.2612 52.9231 41.2742C55.49 41.4899 57.4996 43.6779 57.4996 46.2554C57.4996 49.0123 55.2573 51.255 52.5 51.255ZM52.5 43.755C51.1214 43.755 50 44.8764 50 46.2554C50 46.565 50.0568 46.8672 50.1678 47.1559C50.5378 48.1123 51.4754 48.7546 52.5 48.7546C53.8782 48.7546 54.9996 47.6337 54.9996 46.2554C54.9996 44.9671 53.9954 43.8735 52.714 43.7653C52.6331 43.7583 52.5629 43.755 52.5 43.755Z" fill="white"/>
<path d="M9.0178 48.8689H9.01658C8.81934 48.8689 8.62414 48.8641 8.4367 48.8551C8.0361 48.8363 7.66816 48.6247 7.44928 48.2883C7.23081 47.9522 7.18711 47.5303 7.33208 47.1559C7.44275 46.8671 7.49951 46.565 7.49951 46.255C7.49951 44.8764 6.37814 43.755 4.99951 43.755C4.93662 43.755 4.86597 43.7583 4.78512 43.7652C4.37226 43.7995 3.97003 43.6276 3.70949 43.3058C3.44936 42.9844 3.36483 42.5548 3.48448 42.1587C5.13958 36.6642 12.8662 28.6358 23.1688 21.7067C32.8609 15.188 42.5616 11.139 48.4849 11.139C50.9608 11.139 52.6963 11.8537 53.6437 13.2625C55.3046 15.7327 54.059 19.6469 50.0412 24.5819C46.3822 29.0772 40.8028 33.9502 34.3306 38.3025C24.6401 44.8204 14.9407 48.8689 9.0178 48.8689ZM6.43327 41.4649C8.49387 42.0824 9.99992 43.9964 9.99992 46.255C9.99992 46.2795 9.99992 46.3044 9.9991 46.3289C15.4846 45.8969 24.3102 42.0293 32.9352 36.2285C39.2081 32.0097 44.5944 27.3131 48.1027 23.0044C51.7689 18.501 52.2974 15.7397 51.5688 14.6583C51.0029 13.815 49.5793 13.639 48.4849 13.639C43.1145 13.639 33.725 17.6206 24.5642 23.7807C15.7533 29.7077 8.74992 36.5821 6.43327 41.4649Z" fill="white"/>
<path d="M4.99959 51.255C2.24273 51.255 0 49.0123 0 46.2554C0 43.6779 2.00996 41.4899 4.57612 41.2742C4.72844 41.2612 4.86647 41.2546 4.99959 41.2546C7.75727 41.2546 10 43.4974 10 46.2554C10 46.8741 9.88688 47.4809 9.66392 48.0576C8.92396 49.9703 7.04958 51.255 4.99959 51.255ZM4.99959 43.755C4.93711 43.755 4.86647 43.7583 4.7852 43.7653C3.50457 43.8735 2.49918 44.9671 2.49918 46.2554C2.49918 47.6337 3.62177 48.7546 4.99959 48.7546C6.02458 48.7546 6.96219 48.1123 7.33216 47.1559C7.44324 46.8672 7.5 46.565 7.5 46.2554C7.5 44.8764 6.37863 43.755 4.99959 43.755Z" fill="white"/>
</g>
</svg>
