<svg width="59" height="61" viewBox="0 0 59 61" fill="none" xmlns="http://www.w3.org/2000/svg">
<mask id="mask0_7_5068" style="mask-type:alpha" maskUnits="userSpaceOnUse" x="0" y="0" width="59" height="61">
<rect x="0.188477" y="0.317871" width="58.4638" height="60" fill="#D9D9D9"/>
</mask>
<g mask="url(#mask0_7_5068)">
<path d="M29.5287 37.0632C27.8988 37.0632 26.4863 35.6507 26.4863 34.0201C26.4863 32.3901 27.8988 30.9777 29.5287 30.9777C31.1586 30.9777 32.5715 32.3901 32.5715 34.0201C32.5715 35.6507 31.1586 37.0632 29.5287 37.0632ZM29.5287 33.6943C29.3113 33.6943 29.203 33.8034 29.203 34.0201C29.203 34.2379 29.3113 34.3466 29.5287 34.3466C29.7461 34.3466 29.8549 34.2379 29.8549 34.0201C29.8549 33.8034 29.7461 33.6943 29.5287 33.6943Z" fill="white"/>
<path d="M29.5287 38.6931C28.7681 38.6931 28.1162 38.0416 28.1162 37.2806V35.5416C28.1162 34.7814 28.7681 34.1292 29.5287 34.1292C30.2893 34.1292 30.9412 34.7814 30.9412 35.5416V37.2806C30.9412 38.1499 30.2893 38.6931 29.5287 38.6931Z" fill="white"/>
<path d="M35.7232 27.5H23.3347C22.5738 27.5 21.9219 26.8485 21.9219 26.0876V24.3489C21.9219 20.2194 25.2908 16.7422 29.5286 16.7422C31.2676 16.7422 33.0066 17.3945 34.4191 18.4804C36.1577 19.8937 37.1357 22.0668 37.1357 24.2402V26.0876C37.1357 26.8485 36.4835 27.5 35.7232 27.5ZM24.6385 24.7838H34.4191V24.4576C34.4191 23.0448 33.7668 21.6319 32.6801 20.763C31.8108 20.002 30.7241 19.6763 29.5286 19.6763C26.812 19.5672 24.6385 21.741 24.6385 24.4576V24.7838Z" fill="white"/>
<path d="M29.5285 42.7139C23.7694 42.7139 19.2051 38.0416 19.2051 32.3905V26.0875C19.2051 25.3269 19.857 24.675 20.6179 24.675H38.6568C39.4174 24.675 40.0696 25.3269 40.0696 26.0875V32.2818C40.0696 36.3026 37.8958 39.7802 34.3099 41.6275C32.6799 42.279 31.1584 42.7139 29.5285 42.7139ZM21.9217 27.5V32.3905C21.9217 36.6283 25.3993 39.9972 29.5285 39.9972C30.7239 39.9972 31.8106 39.7802 32.8974 39.2363C35.5057 37.9321 37.1356 35.3242 37.1356 32.3905V27.5H21.9217Z" fill="white"/>
<path d="M35.7233 60.3178H23.3352C23.009 60.3178 22.5742 60.2095 22.3568 59.883C21.27 58.797 20.1837 57.7095 19.2053 56.7319C11.5986 49.0164 7.79556 45.2134 5.83952 39.3457C3.99219 33.6942 3.99219 26.3049 3.99219 11.7429V6.52708C3.99219 6.09224 4.20961 5.76648 4.53537 5.44035C4.86112 5.22293 5.29596 5.11459 5.6221 5.11459C14.0985 6.63617 21.8136 5.11459 28.7685 0.550624C29.3116 0.224492 29.9635 0.224492 30.3984 0.658959C35.7233 5.11459 43.2213 6.52708 53.436 5.11459C53.8705 5.00626 54.197 5.22293 54.5227 5.44035C54.8489 5.65777 54.9572 6.09224 54.9572 6.41875V13.4819C54.9572 27.0659 55.0663 33.9117 53.2186 39.2358C51.3713 44.6695 47.894 48.2555 40.9392 55.4277C39.6354 56.7319 38.2225 58.2538 36.7013 59.883C36.4839 60.2095 36.1582 60.3178 35.7233 60.3178ZM23.9867 57.6012H35.1798C36.5926 56.1887 37.8964 54.7762 39.0922 53.5804C45.8296 46.6263 49.1982 43.257 50.7194 38.3665C52.3497 33.4768 52.3497 26.7394 52.3497 13.4819V7.94032C47.7853 8.48312 43.5471 8.37479 39.9615 7.7229C35.9407 6.96192 32.4631 5.44035 29.5291 3.26726C24.0958 6.63617 18.2277 8.37479 12.0334 8.37479C10.2948 8.37479 8.55616 8.26608 6.81716 8.04866V11.7429C6.81716 26.0875 6.81716 33.2598 8.55616 38.5843C10.2948 43.7998 13.9894 47.4956 21.27 54.8845L23.9867 57.6012Z" fill="white"/>
<path d="M34.0925 52.168C33.7668 52.168 33.441 52.0596 33.1145 51.8415C32.5713 51.2987 32.5713 50.429 33.1145 49.8862C33.9842 48.9082 34.8535 48.0388 35.6141 47.2779C40.5042 42.1707 43.0034 39.6708 44.0901 36.3026C45.2856 32.825 45.2856 28.261 45.1772 19.1327V14.7862C38.4394 15.5468 33.2236 14.4604 29.3111 11.5263C24.0953 14.6771 18.2271 15.7642 11.9246 14.5687C11.164 14.4604 10.7291 13.6994 10.8378 12.9388C10.9462 12.1779 11.7071 11.743 12.4677 11.8521C18.3355 12.9388 23.7695 11.8521 28.6592 8.70061C29.2028 8.37486 29.8547 8.37486 30.2891 8.80895C33.9842 11.8521 39.2 12.9388 46.3723 11.8521C46.8072 11.743 47.1325 11.9604 47.459 12.1779C47.7848 12.3953 47.8939 12.8301 47.8939 13.1562V19.0244C48.0022 38.0416 47.8939 38.3666 37.4614 49.1248C36.7008 49.8862 35.8315 50.7555 34.9618 51.7331C34.8535 52.0596 34.5274 52.168 34.0925 52.168Z" fill="white"/>
<path d="M57.239 60.3179H1.60096C0.840365 60.3179 0.188477 59.6664 0.188477 58.9054C0.188477 58.1444 0.840365 57.4929 1.60096 57.4929H57.239C58 57.4929 58.6519 58.1444 58.6519 58.9054C58.6519 59.6664 58 60.3179 57.239 60.3179Z" fill="white"/>
<path d="M50.5013 54.8845H40.9389C40.1779 54.8845 39.5264 54.233 39.5264 53.4721C39.5264 52.7111 40.1779 52.0596 40.9389 52.0596H50.5013C51.2622 52.0596 51.9141 52.7111 51.9141 53.4721C51.8054 54.233 51.1535 54.8845 50.5013 54.8845Z" fill="white"/>
<path d="M17.9012 54.8845H8.33876C7.57778 54.8845 6.92627 54.233 6.92627 53.4721C6.92627 52.7111 7.57778 52.0596 8.33876 52.0596H17.9012C18.6621 52.0596 19.314 52.7111 19.314 53.4721C19.2053 54.233 18.5534 54.8845 17.9012 54.8845Z" fill="white"/>
</g>
</svg>
