<svg width="55" height="60" viewBox="0 0 55 60" fill="none" xmlns="http://www.w3.org/2000/svg">
<mask id="mask0_7_5080" style="mask-type:alpha" maskUnits="userSpaceOnUse" x="0" y="0" width="55" height="61">
<rect x="0.499023" y="0.00463867" width="53.6856" height="60" fill="#D9D9D9"/>
</mask>
<g mask="url(#mask0_7_5080)">
<path d="M44.4635 9.78941H10.2203C9.54452 9.78941 8.99707 9.24071 8.99707 8.56616V1.22789C8.99707 0.552506 9.54452 0.00463867 10.2203 0.00463867H44.4635C45.1385 0.00463867 45.6863 0.552506 45.6863 1.22789V8.56616C45.6863 9.24071 45.1385 9.78941 44.4635 9.78941ZM11.4436 7.34332H43.2407V2.45114H11.4436V7.34332Z" fill="white"/>
<path d="M19.1448 38.2851C17.4592 38.2851 15.9336 37.9865 14.6148 37.4C14.1733 37.2035 13.8892 36.7649 13.8892 36.2826V8.56651C13.8892 7.89071 14.437 7.34326 15.1116 7.34326H39.5716C40.247 7.34326 40.7941 7.89071 40.7941 8.56651V31.2613C40.7941 31.8635 40.3559 32.3765 39.7606 32.47C37.6846 32.7969 35.0367 33.8079 32.235 34.8787C28.0556 36.4749 23.3192 38.2851 19.1448 38.2851ZM16.3348 35.4407C17.1705 35.7078 18.0968 35.8386 19.1448 35.8386C22.8677 35.8386 27.3807 34.1152 31.3611 32.5938C33.8662 31.6368 36.2516 30.7254 38.3484 30.2523V9.78935H16.3348V35.4407Z" fill="white"/>
<path d="M27.342 58.7075C19.9236 58.7075 13.8892 52.9472 13.8892 45.8669V36.2823C13.8892 35.8678 14.0985 35.4815 14.4457 35.2563C14.793 35.0304 15.2308 34.9959 15.6088 35.1646C16.6277 35.6181 17.7832 35.8387 19.1427 35.8387H19.144C22.8677 35.8379 27.3802 34.1141 31.3607 32.5934C34.2878 31.4753 37.0504 30.4202 39.3814 30.0531C39.7345 29.9982 40.0938 30.0992 40.3662 30.3318C40.6379 30.564 40.7941 30.9037 40.7941 31.2614V45.8669C40.7941 52.9472 34.7596 58.7075 27.342 58.7075ZM16.3348 37.9745V45.8669C16.3348 51.5981 21.2727 56.2614 27.342 56.2614C33.4105 56.2614 38.3484 51.5981 38.3484 45.8669V32.7687C36.5403 33.2335 34.4352 34.0377 32.2338 34.8788C28.0552 36.475 23.3188 38.2839 19.1448 38.2848H19.1427C18.1479 38.2848 17.2088 38.1805 16.3348 37.9745Z" fill="white"/>
<path d="M32.233 44.0325C30.2106 44.0325 28.5649 42.3869 28.5649 40.3632C28.5649 38.3404 30.2106 36.6938 32.233 36.6938C34.2571 36.6938 35.9016 38.3404 35.9016 40.3632C35.9016 42.3869 34.2571 44.0325 32.233 44.0325ZM32.233 39.1399C31.5597 39.1399 31.0114 39.6886 31.0114 40.3632C31.0114 41.0377 31.5597 41.586 32.233 41.586C32.908 41.586 33.4563 41.0377 33.4563 40.3632C33.4563 39.6886 32.908 39.1399 32.233 39.1399Z" fill="white"/>
<path d="M27.3422 53.8157C25.3181 53.8157 23.6729 52.1704 23.6729 50.1468C23.6729 48.1239 25.3181 46.4774 27.3422 46.4774C29.3646 46.4774 31.0115 48.1239 31.0115 50.1468C31.0115 52.1704 29.3646 53.8157 27.3422 53.8157ZM27.3422 48.9235C26.6672 48.9235 26.1189 49.4722 26.1189 50.1468C26.1189 50.8213 26.6672 51.3696 27.3422 51.3696C28.0163 51.3696 28.5654 50.8213 28.5654 50.1468C28.5654 49.4722 28.0163 48.9235 27.3422 48.9235Z" fill="white"/>
<path d="M22.4498 33.0254C20.4273 33.0254 18.7812 31.3793 18.7812 29.356C18.7812 27.3336 20.4273 25.6875 22.4498 25.6875C24.473 25.6875 26.1191 27.3336 26.1191 29.356C26.1191 31.3793 24.473 33.0254 22.4498 33.0254ZM22.4498 28.1336C21.7748 28.1336 21.2265 28.6823 21.2265 29.356C21.2265 30.0306 21.7748 30.5793 22.4498 30.5793C23.1239 30.5793 23.673 30.0306 23.673 29.356C23.673 28.6823 23.1239 28.1336 22.4498 28.1336Z" fill="white"/>
<path d="M32.233 23.2419C30.2106 23.2419 28.5649 21.5958 28.5649 19.5725C28.5649 17.5493 30.2106 15.9032 32.233 15.9032C34.2571 15.9032 35.9016 17.5493 35.9016 19.5725C35.9016 21.5958 34.2571 23.2419 32.233 23.2419ZM32.233 18.3493C31.5597 18.3493 31.0114 18.898 31.0114 19.5725C31.0114 20.2471 31.5597 20.7954 32.233 20.7954C32.908 20.7954 33.4563 20.2471 33.4563 19.5725C33.4563 18.898 32.908 18.3493 32.233 18.3493Z" fill="white"/>
<path d="M20.0041 42.8089C19.3291 42.8089 18.7812 42.261 18.7812 41.5856V40.3628C18.7812 39.6874 19.3291 39.1395 20.0041 39.1395C20.6791 39.1395 21.2273 39.6874 21.2273 40.3628V41.5856C21.2273 42.261 20.6791 42.8089 20.0041 42.8089Z" fill="white"/>
<path d="M26.1192 45.2554C25.4434 45.2554 24.8955 44.7075 24.8955 44.0322V42.8093C24.8955 42.1339 25.4434 41.5861 26.1192 41.5861C26.7941 41.5861 27.342 42.1339 27.342 42.8093V44.0322C27.342 44.7075 26.7941 45.2554 26.1192 45.2554Z" fill="white"/>
<path d="M34.6793 50.1468C34.0043 50.1468 33.4561 49.5989 33.4561 48.9235V47.7007C33.4561 47.0253 34.0043 46.4774 34.6793 46.4774C35.3551 46.4774 35.9017 47.0253 35.9017 47.7007V48.9235C35.9017 49.5989 35.3551 50.1468 34.6793 50.1468Z" fill="white"/>
<path d="M21.2267 50.1468C20.5517 50.1468 20.0034 49.5989 20.0034 48.9235V47.7007C20.0034 47.0253 20.5517 46.4774 21.2267 46.4774C21.9021 46.4774 22.4499 47.0253 22.4499 47.7007V48.9235C22.4499 49.5989 21.9021 50.1468 21.2267 50.1468Z" fill="white"/>
<path d="M29.7882 30.5793C29.112 30.5793 28.5649 30.0314 28.5649 29.356V28.1336C28.5649 27.4578 29.112 26.9108 29.7882 26.9108C30.4632 26.9108 31.0114 27.4578 31.0114 28.1336V29.356C31.0114 30.0314 30.4632 30.5793 29.7882 30.5793Z" fill="white"/>
<path d="M34.6793 28.1336C34.0043 28.1336 33.4561 27.5857 33.4561 26.9103V25.6875C33.4561 25.0117 34.0043 24.4642 34.6793 24.4642C35.3551 24.4642 35.9017 25.0117 35.9017 25.6875V26.9103C35.9017 27.5857 35.3551 28.1336 34.6793 28.1336Z" fill="white"/>
<path d="M24.8961 23.2419C24.2207 23.2419 23.6729 22.6948 23.6729 22.0186V20.7958C23.6729 20.1204 24.2207 19.5725 24.8961 19.5725C25.5719 19.5725 26.1194 20.1204 26.1194 20.7958V22.0186C26.1194 22.6948 25.5719 23.2419 24.8961 23.2419Z" fill="white"/>
<path d="M20.0041 19.5725C19.3291 19.5725 18.7812 19.0255 18.7812 18.3493V17.1264C18.7812 16.4511 19.3291 15.9032 20.0041 15.9032C20.6791 15.9032 21.2273 16.4511 21.2273 17.1264V18.3493C21.2273 19.0255 20.6791 19.5725 20.0041 19.5725Z" fill="white"/>
<path d="M26.1192 14.6808C25.4434 14.6808 24.8955 14.1329 24.8955 13.4575V12.2347C24.8955 11.5593 25.4434 11.0118 26.1192 11.0118C26.7941 11.0118 27.342 11.5593 27.342 12.2347V13.4575C27.342 14.1329 26.7941 14.6808 26.1192 14.6808Z" fill="white"/>
<path d="M34.6793 14.6808C34.0043 14.6808 33.4561 14.1329 33.4561 13.4575V12.2347C33.4561 11.5593 34.0043 11.0118 34.6793 11.0118C35.3551 11.0118 35.9017 11.5593 35.9017 12.2347V13.4575C35.9017 14.1329 35.3551 14.6808 34.6793 14.6808Z" fill="white"/>
<path d="M52.887 60.0047H1.79621C1.09798 60.0047 0.499023 59.4065 0.499023 58.7075C0.499023 58.0088 1.09798 57.4103 1.79621 57.4103H52.887C53.5857 57.4103 54.1846 58.0088 54.1846 58.7075C54.1846 59.4065 53.5857 60.0047 52.887 60.0047Z" fill="white"/>
<path d="M45.8936 53.7123H37.9643C37.3334 53.7123 36.793 53.1719 36.793 52.541C36.793 51.91 37.3334 51.3696 37.9643 51.3696H45.8936C46.5246 51.3696 47.0654 51.91 47.0654 52.541C46.9752 53.1719 46.4344 53.7123 45.8936 53.7123Z" fill="white"/>
<path d="M16.6026 53.7123H8.67328C8.04234 53.7123 7.50195 53.1719 7.50195 52.541C7.50195 51.91 8.04234 51.3696 8.67328 51.3696H16.6026C17.2336 51.3696 17.7744 51.91 17.7744 52.541C17.6842 53.1719 17.1434 53.7123 16.6026 53.7123Z" fill="white"/>
</g>
</svg>
