<svg width="80" height="60" viewBox="0 0 80 60" fill="none" xmlns="http://www.w3.org/2000/svg">
<mask id="mask0_7_5077" style="mask-type:alpha" maskUnits="userSpaceOnUse" x="0" y="0" width="80" height="61">
<rect y="0.00463867" width="79.9991" height="60" fill="#D9D9D9"/>
</mask>
<g mask="url(#mask0_7_5077)">
<path d="M73.5992 60.0047H52.1328C48.6658 60.0047 45.333 58.9376 42.933 57.0712L27.7323 45.7372L27.5996 45.604C25.5993 43.8702 22.5326 42.9375 18.2666 42.6704C17.3334 42.6704 16.666 41.871 16.666 40.9383C16.666 40.0045 17.466 39.3372 18.3993 39.3372C23.3331 39.6042 27.1999 40.8039 29.7326 43.0707L44.7995 54.4046C46.666 55.8703 49.3325 56.6714 51.999 56.6714H73.5992C74.5325 56.6714 75.3325 56.4044 75.866 56.0041C76.1325 55.737 76.5328 55.3373 76.5328 54.8049C76.5328 54.0032 75.3325 52.9379 73.733 52.9379L57.4664 52.1367C56.3993 52.1367 55.4661 52.0041 54.399 51.737C51.8663 51.204 49.599 50.0043 47.8657 48.2705L37.0659 40.1372C33.7327 37.605 34.3994 35.4709 34.7991 34.5371C35.5992 33.0704 37.5995 32.1377 38.7997 32.5374C38.9324 32.5374 39.0662 32.6706 39.1995 32.6706L53.3326 42.0037C54.1326 42.404 54.7993 42.5378 55.3323 42.5378C55.9996 42.5378 56.7991 42.404 57.8661 40.9366L57.9988 40.8039C58.2658 40.1372 56.7991 38.6704 55.4661 38.0048C55.4661 38.0048 55.3323 38.0048 55.3323 37.8704L37.7327 26.6703H18.3993C17.466 26.6703 16.666 25.8708 16.666 24.9382C16.666 24.0044 17.466 23.2043 18.3993 23.2043H38.2662C38.5327 23.2043 38.9324 23.337 39.1995 23.4714L57.3326 35.0712C59.7326 36.271 62.7994 39.2045 61.1994 42.2707C61.0662 42.5378 60.9323 42.6704 60.7997 42.9375C59.8659 44.1372 58.2658 45.871 55.5993 45.871C54.5329 45.871 53.3326 45.604 52.1328 45.0716C51.999 45.0716 51.999 44.9372 51.8663 44.9372L38.133 36.0039C37.9992 36.0039 37.9992 36.1383 37.8665 36.1383C37.8665 36.271 37.9992 36.6707 39.0662 37.4707L49.9999 45.604L50.1325 45.7372C51.3328 46.9381 53.1993 47.8708 55.1991 48.4037C55.9996 48.5375 56.7991 48.6708 57.5991 48.8046L73.9989 49.6046C77.3328 49.7373 79.9987 52.0041 79.9987 54.8049C79.9987 56.2711 79.1993 57.6041 77.999 58.6712C76.7993 59.4706 75.1992 60.0047 73.5992 60.0047Z" fill="white"/>
<path d="M69.1995 51.737H55.0658C54.1326 51.737 53.332 50.9375 53.332 50.0043C53.332 49.0705 54.1326 48.2704 55.0658 48.2704H69.1995C70.533 48.2704 71.7322 47.204 71.7322 45.7372C71.7322 45.0715 71.4657 44.4042 71.0654 44.0045C70.533 43.4704 69.9995 43.3377 69.3322 43.3377H60.1329C59.1991 43.3377 58.3997 42.5377 58.3997 41.6039C58.3997 40.6712 59.1991 39.8712 60.1329 39.8712H69.3322C70.9328 39.8712 72.3995 40.5368 73.4655 41.6039C74.5325 42.6704 75.1993 44.1377 75.1993 45.7372C75.066 49.0705 72.3995 51.737 69.1995 51.737Z" fill="white"/>
<path d="M18.3996 51.7369H1.73326C0.799441 51.7369 0 50.9369 0 50.0042V18.4042C0 17.4715 0.799441 16.6715 1.73326 16.6715H18.3996C19.3329 16.6715 20.1334 17.4715 20.1334 18.4042V50.1375C19.9996 50.9369 19.2002 51.7369 18.3996 51.7369ZM3.33327 48.4036H16.6664V20.0036H3.33327V48.4036Z" fill="white"/>
<path d="M10.0001 46.6716C7.20038 46.6716 4.93359 44.4048 4.93359 41.6039C4.93359 38.8047 7.20038 36.538 10.0001 36.538C12.7999 36.538 15.0672 38.8047 15.0672 41.6039C15.0672 44.4048 12.7999 46.6716 10.0001 46.6716ZM10.0001 40.0045C9.06687 40.0045 8.26686 40.8045 8.26686 41.7383C8.26686 42.671 9.06687 43.471 10.0001 43.471C10.9334 43.471 11.7339 42.671 11.7339 41.7383C11.7339 40.8045 10.9334 40.0045 10.0001 40.0045Z" fill="white"/>
<path d="M59.9995 30.0041C59.5998 30.0041 59.2001 29.8708 58.933 29.6038C58.7998 29.4711 55.4665 26.4049 52.1332 22.4043C47.4664 16.8042 45.0664 12.2712 45.0664 8.80359C45.0664 6.40413 46.1335 4.27059 47.8667 2.5379C49.5994 0.937319 51.8668 0.00463867 54.4 0.00463867C55.733 0.00463867 57.066 0.271686 58.2668 0.804079C58.933 1.07113 59.5998 1.47141 60.1333 1.87113C61.7328 0.671406 63.7331 0.00463867 65.8666 0.00463867C68.5331 0.00463867 70.9331 1.07113 72.7996 2.80381C74.3996 4.40496 75.2002 6.53681 75.2002 8.80359C75.0664 12.2712 72.6664 16.8042 68.1334 22.4043C64.9334 26.2705 61.7328 29.2041 61.333 29.6038C60.8001 29.8708 60.3998 30.0041 59.9995 30.0041ZM54.2662 3.33791C51.0662 3.33791 48.3997 5.73737 48.2664 8.80359C48.2664 13.6036 55.8662 22.0046 59.8663 26.0046C61.0666 24.8037 63.1995 22.6713 65.1998 20.1375C69.1999 15.3375 71.4661 11.2042 71.4661 8.67092C71.4661 7.33681 70.9331 6.13709 69.9999 5.0706C68.7996 3.87087 67.2001 3.20354 65.4663 3.20354C63.7331 3.20354 62.1336 3.87087 60.9328 5.0706C60.6668 5.33708 60.1333 5.60469 59.733 5.60469C59.3333 5.60469 58.7998 5.47145 58.5327 5.0706C57.9998 4.53764 57.333 4.00468 56.5336 3.73763C56 3.47058 55.1995 3.33791 54.2662 3.33791Z" fill="white"/>
</g>
</svg>
