<svg width="66" height="61" viewBox="0 0 66 61" fill="none" xmlns="http://www.w3.org/2000/svg">
<mask id="mask0_7_5062" style="mask-type:alpha" maskUnits="userSpaceOnUse" x="0" y="0" width="66" height="61">
<rect y="0.317871" width="65.4175" height="60" fill="#D9D9D9"/>
</mask>
<g mask="url(#mask0_7_5062)">
<path d="M2.95601 16.5011C3.92563 5.55344 11.7247 3.6142 15.0329 3.28907C15.5833 3.23461 16.1333 3.2082 16.6817 3.2082C23.382 3.2082 29.7389 7.15063 31.3077 12.5149C31.4921 13.1453 32.0681 13.5542 32.6932 13.5542C32.6981 13.5542 32.7035 13.5542 32.7085 13.5538C33.3562 13.5716 33.924 13.1503 34.1097 12.5149C35.8067 6.71162 43.1065 2.57155 50.3848 3.28907C53.6926 3.6142 61.4921 5.55344 62.4613 16.5011C63.8926 32.6665 42.0271 51.2637 34.4265 57.2081H39.2887C40.2913 56.3437 41.3847 55.3795 42.542 54.3273H42.2598C41.4222 54.3273 40.7051 53.6102 40.7051 52.7722C40.7051 51.9346 41.4222 51.2175 42.2598 51.2175H45.8631C47.2276 49.9021 48.63 48.5022 50.0308 47.0321C60.9792 35.5406 66.1298 25.1826 65.3384 16.2465C64.5334 7.15764 59.0491 1.23926 50.6674 0.414461C43.253 -0.313784 36.0142 3.14714 32.7089 8.60753C29.4035 3.14714 22.1639 -0.315022 14.7499 0.414461C6.36824 1.23926 0.883916 7.15764 0.0789262 16.2465C-0.362972 21.2402 1.05185 26.6779 4.29532 32.5092H7.64649C4.48347 27.2626 2.49101 21.7543 2.95601 16.5011Z" fill="white"/>
<path d="M9.5038 35.3735C9.42004 35.3888 9.33463 35.3979 9.24716 35.3979H6.03174C8.43681 39.1291 11.5553 43.0108 15.3867 47.0321C16.7875 48.5026 18.1899 49.9025 19.5544 51.2179H22.5825C23.4205 51.2179 24.138 51.935 24.138 52.7726C24.0328 53.5091 23.4647 54.1515 22.8412 54.296C24.0105 55.3605 25.1163 56.3359 26.1284 57.2085H30.9897C26.3108 53.5508 16.2321 45.1027 9.5038 35.3735Z" fill="white"/>
<path d="M10.6391 34.3379L13.083 25.4863L16.5265 40.4082C16.6763 41.058 17.2519 41.5205 17.9187 41.5275C18.5846 41.5325 19.1705 41.0836 19.3339 40.437L23.9171 22.2936L28.1781 40.4139C28.3307 41.0634 28.9088 41.5238 29.576 41.5275H29.5842C30.2477 41.5275 30.8266 41.0749 30.9858 40.4296L33.9161 28.5718L36.8114 34.5805C37.0523 35.0802 37.5578 35.3975 38.1123 35.3975H47.9323C48.7298 35.3975 49.3764 34.7509 49.3764 33.9534C49.3764 33.1558 48.7298 32.5093 47.9323 32.5093H39.0196L34.7768 23.7051C34.5128 23.1568 33.9326 22.8304 33.3269 22.896C32.7216 22.9587 32.2203 23.3949 32.0743 23.9861L29.6189 33.9228L25.3728 15.8681C25.2205 15.2199 24.6449 14.7599 23.979 14.7545H23.967C23.3064 14.7545 22.7292 15.2034 22.5671 15.845L17.9971 33.9361L14.6154 19.2816C14.4668 18.6375 13.8999 18.1767 13.2389 18.1626C12.5833 18.1465 11.992 18.5851 11.8163 19.2222L8.1478 32.5093H7.64648C8.22784 33.4743 8.85087 34.4295 9.50361 35.3736C10.0425 35.2762 10.4893 34.8797 10.6391 34.3379Z" fill="white"/>
<path d="M9.50419 35.3735C8.85146 34.4295 8.22842 33.4743 7.64707 32.5096H4.2959C4.82568 33.4619 5.40498 34.4249 6.03213 35.3979H9.24755C9.33503 35.3979 9.42044 35.3888 9.50419 35.3735Z" fill="white"/>
<path d="M63.3283 57.2085H39.2888C38.1723 58.1715 37.1672 59.0128 36.3255 59.7027C35.5143 60.3674 34.3343 59.7691 32.9269 59.7613C31.505 59.7538 29.8567 60.3298 29.0141 59.6387C28.1885 58.9608 27.2115 58.1422 26.1288 57.2085H2.08887C1.2517 57.2085 0.53418 57.9256 0.53418 58.7632C0.53418 59.6008 1.2517 60.3179 2.08887 60.3179H63.3283C64.1659 60.3179 64.8834 59.6008 64.8834 58.7632C64.8834 57.9256 64.1659 57.2085 63.3283 57.2085Z" fill="white"/>
<path d="M32.7082 58.5251C33.1377 58.2037 33.7219 57.7589 34.4258 57.2085H30.9893C31.6936 57.7589 32.2786 58.2037 32.7082 58.5251Z" fill="white"/>
<path d="M32.9269 59.7613C34.3339 59.7687 35.5143 60.3674 36.3251 59.7027C37.1668 59.0128 38.1719 58.1715 39.2888 57.2085H34.4263C33.7224 57.7589 33.1381 58.2037 32.7086 58.5251C32.2791 58.2037 31.694 57.7589 30.9897 57.2085H26.1284C27.2115 58.1422 28.1885 58.9608 29.0142 59.6383C29.8563 60.3298 31.5051 59.7534 32.9269 59.7613Z" fill="white"/>
<path d="M12.0576 51.2179C11.22 51.2179 10.5029 51.935 10.5029 52.7726C10.5029 53.6102 11.22 54.3273 12.0576 54.3273H22.5827C22.6694 54.3273 22.756 54.3157 22.8414 54.2959C21.7885 53.3379 20.6852 52.3076 19.5546 51.2179H12.0576Z" fill="white"/>
<path d="M24.1383 52.7726C24.1383 51.935 23.4208 51.2179 22.5832 51.2179H19.5547C20.6852 52.3076 21.7885 53.3379 22.8415 54.2959C23.4649 54.1515 24.0331 53.5091 24.1383 52.7726Z" fill="white"/>
<path d="M52.7849 54.3273C53.5028 54.3273 54.2203 53.6102 54.34 52.7726C54.34 51.935 53.6225 51.2179 52.7849 51.2179H45.863C44.7201 52.3195 43.6053 53.3601 42.542 54.3273H52.7849Z" fill="white"/>
<path d="M40.7051 52.7726C40.7051 53.6102 41.4222 54.3273 42.2598 54.3273H42.542C43.6053 53.3601 44.7205 52.3195 45.8634 51.2179H42.2598C41.4222 51.2179 40.7051 51.935 40.7051 52.7726Z" fill="white"/>
</g>
</svg>
