<svg width="70" height="61" viewBox="0 0 70 61" fill="none" xmlns="http://www.w3.org/2000/svg">
<mask id="mask0_7_5059" style="mask-type:alpha" maskUnits="userSpaceOnUse" x="0" y="0" width="70" height="61">
<rect x="0.39209" y="0.317505" width="68.8954" height="60" fill="#D9D9D9"/>
</mask>
<g mask="url(#mask0_7_5059)">
<path d="M15.78 27.0716C11.786 27.0716 8.59204 23.8769 8.59204 19.9837C8.59204 16.0906 11.786 12.8962 15.78 12.8962C19.7729 12.8962 22.9668 16.0906 22.9668 19.9837C22.9668 23.8769 19.7729 27.0716 15.78 27.0716ZM15.78 15.3918C13.1836 15.3918 11.0876 17.4882 11.0876 19.9837C11.0876 22.4793 13.1836 24.5757 15.78 24.5757C18.3753 24.5757 20.4713 22.4793 20.4713 19.9837C20.4713 17.4882 18.3753 15.3918 15.78 15.3918Z" fill="white"/>
<path d="M15.7801 60.3149C15.0806 60.3149 14.4819 59.7162 14.4819 59.0174V48.3352C14.4819 47.6364 15.0806 47.0377 15.7801 47.0377C16.4785 47.0377 17.0772 47.6364 17.0772 48.3352V59.1168C17.0772 59.7162 16.4785 60.3149 15.7801 60.3149Z" fill="white"/>
<path d="M34.6474 27.0716C30.6546 27.0716 27.4595 23.8769 27.4595 19.9837C27.4595 16.0906 30.6546 12.8962 34.6474 12.8962C38.6403 12.8962 41.8354 16.0906 41.8354 19.9837C41.8354 23.8769 38.6403 27.0716 34.6474 27.0716ZM34.6474 15.3918C32.0521 15.3918 29.9554 17.4882 29.9554 19.9837C29.9554 22.4793 32.0521 24.5757 34.6474 24.5757C37.2427 24.5757 39.3398 22.4793 39.3398 19.9837C39.3398 17.4882 37.2427 15.3918 34.6474 15.3918Z" fill="white"/>
<path d="M34.6477 60.3149C33.9493 60.3149 33.3506 59.7162 33.3506 59.0174V48.3352C33.3506 47.6364 33.9493 47.0377 34.6477 47.0377C35.3472 47.0377 35.9459 47.6364 35.9459 48.3352V59.1168C35.9459 59.7162 35.3472 60.3149 34.6477 60.3149Z" fill="white"/>
<path d="M22.1695 60.3149H9.49068C8.79228 60.3149 8.19359 59.7162 8.19359 59.0174V48.6351H5.8967C5.1983 48.6351 4.59961 48.0357 4.59961 47.3369V34.6584C4.59961 32.862 5.09895 31.1645 6.09651 29.767C7.09519 28.3694 8.59247 27.5709 10.0894 27.5709H21.3707C23.5671 27.5709 25.4632 29.1679 26.3626 31.6639C26.5613 32.3627 26.2621 33.0614 25.5637 33.2609C24.8642 33.4607 24.1661 33.1615 23.966 32.4627C23.4666 30.9651 22.469 30.0669 21.3707 30.0669H10.1898C8.59247 30.0669 7.19454 32.1632 7.19454 34.6584V46.1391H9.49068C10.1898 46.1391 10.7889 46.7382 10.7889 47.437V57.8193H20.971V47.3369C20.971 46.6381 21.5697 46.0394 22.2689 46.0394H24.9646C25.663 46.0394 26.2621 46.6381 26.2621 47.3369C26.2621 48.0357 25.663 48.6351 24.9646 48.6351H23.5671V59.1168C23.3673 59.7162 22.8679 60.3149 22.1695 60.3149Z" fill="white"/>
<path d="M59.8046 60.3149H47.1265C46.4274 60.3149 45.8283 59.7162 45.8283 59.0174V48.6351H44.4307C43.7327 48.6351 43.1337 48.0357 43.1337 47.3369C43.1337 46.6381 43.7327 46.0394 44.4307 46.0394H47.1265C47.8249 46.0394 48.424 46.6381 48.424 47.3369V57.8193H58.6069V47.3369C58.6069 46.6381 59.2059 46.0394 59.9051 46.0394H62.1004V34.6584C62.1004 32.1632 60.7028 30.0669 59.1062 30.0669H47.8249C46.7265 30.0669 45.729 31.0648 45.2296 32.4627C45.0298 33.1615 44.3314 33.4607 43.6319 33.2609C42.9338 33.0614 42.6343 32.3627 42.8334 31.6639C43.7327 29.1679 45.6285 27.5709 47.8249 27.5709H59.1062C60.6035 27.5709 62.1004 28.3698 63.099 29.767C63.9973 31.0648 64.5963 32.7619 64.5963 34.6584V47.3369C64.5963 48.0357 63.9973 48.6351 63.2992 48.6351H61.1028V59.1168C61.1028 59.7162 60.5038 60.3149 59.8046 60.3149Z" fill="white"/>
<path d="M40.9374 60.3145H28.359C27.6598 60.3145 27.0608 59.7158 27.0608 59.017V48.6347H24.765C24.0659 48.6347 23.4668 48.0357 23.4668 47.3369V34.6584C23.4668 33.6601 23.667 32.5617 23.9661 31.6635C24.8644 29.1679 26.7616 27.5709 28.958 27.5709H40.2382C42.4346 27.5709 44.3315 29.1679 45.2297 31.6635C45.5293 32.5617 45.7291 33.5608 45.7291 34.6584V47.3369C45.7291 48.0357 45.1304 48.6347 44.4309 48.6347H42.1351V59.1164C42.2348 59.7158 41.6358 60.3145 40.9374 60.3145ZM29.5567 57.8189H39.7389V47.3369C39.7389 46.6381 40.3379 46.039 41.0371 46.039H43.3328V34.6584C43.3328 33.8599 43.2335 33.1611 42.934 32.4624C42.4346 30.9647 41.4371 30.0665 40.3379 30.0665H28.958C27.8596 30.0665 26.861 31.0648 26.3627 32.4624C26.1626 33.1611 25.9627 33.8599 25.9627 34.6584V46.1391H28.2585C28.958 46.1391 29.5567 46.7378 29.5567 47.4366V57.8189Z" fill="white"/>
<path d="M53.5161 27.0716C49.5221 27.0716 46.3281 23.8769 46.3281 19.9837C46.3281 16.0906 49.5221 12.8962 53.5161 12.8962C57.5089 12.8962 60.7025 16.0906 60.7025 19.9837C60.7025 23.8769 57.4092 27.0716 53.5161 27.0716ZM53.5161 15.3918C50.9193 15.3918 48.8237 17.4882 48.8237 19.9837C48.8237 22.4793 50.9193 24.5757 53.5161 24.5757C56.111 24.5757 58.2074 22.4793 58.2074 19.9837C58.2074 17.4882 56.111 15.3918 53.5161 15.3918Z" fill="white"/>
<path d="M53.5159 60.3149C52.8167 60.3149 52.2173 59.7162 52.2173 59.0174V48.3352C52.2173 47.6364 52.8167 47.0377 53.5159 47.0377C54.2139 47.0377 54.8126 47.6364 54.8126 48.3352V59.1168C54.7132 59.7162 54.2139 60.3149 53.5159 60.3149Z" fill="white"/>
<path d="M44.5311 16.6893H44.2315C43.7322 16.5892 43.3326 16.19 43.2328 15.691L42.6342 11.7975H38.142C37.4424 11.7975 36.8438 11.1988 36.8438 10.5V1.71507C36.8438 1.01592 37.4424 0.417236 38.142 0.417236H53.2163C53.9143 0.417236 54.5134 1.01592 54.5134 1.71507V10.5C54.5134 11.1988 53.9143 11.7975 53.2163 11.7975H48.2247L45.4293 16.19C45.3288 16.3898 44.9299 16.6893 44.5311 16.6893ZM39.4391 9.20182H43.7322C44.3312 9.20182 44.8306 9.70116 44.9299 10.2998L45.2295 11.9969L46.627 9.80125C46.8268 9.40163 47.2257 9.20182 47.7254 9.20182H52.1179V2.91245H39.4391V9.20182Z" fill="white"/>
<path d="M25.6631 16.6893C25.2642 16.6893 24.8642 16.4899 24.5651 16.0902L21.7696 11.6974H16.778C16.0796 11.6974 15.481 11.0987 15.481 10.3999V1.61497C15.481 0.916197 16.0796 0.317139 16.778 0.317139H31.8524C32.5515 0.317139 33.1506 0.916197 33.1506 1.61497V10.3999C33.1506 11.0987 32.5515 11.6974 31.8524 11.6974H27.3602L26.7611 15.5909C26.6618 16.0902 26.2618 16.4899 25.7624 16.5892C25.8629 16.5892 25.7624 16.6893 25.6631 16.6893ZM18.0763 9.20181H22.4691C22.868 9.20181 23.2676 9.40162 23.5671 9.80124L24.9647 11.9969L25.2642 10.2998C25.3636 9.70115 25.8629 9.20181 26.462 9.20181H30.7543V2.91244H18.0763V9.20181Z" fill="white"/>
<path d="M42.6342 4.21069C41.6355 4.21069 40.7373 5.00956 40.7373 6.10722C40.7373 7.20524 41.5362 8.00411 42.6342 8.00411C43.6321 8.00411 44.5311 7.20524 44.5311 6.10722C44.5311 5.00956 43.6321 4.21069 42.6342 4.21069Z" fill="white"/>
<path d="M48.9228 4.21069C47.9248 4.21069 47.0259 5.00956 47.0259 6.10722C47.0259 7.20524 47.8247 8.00411 48.9228 8.00411C49.9215 8.00411 50.8197 7.20524 50.8197 6.10722C50.8197 5.00956 49.9215 4.21069 48.9228 4.21069Z" fill="white"/>
<path d="M27.56 4.21069C26.5613 4.21069 25.6631 5.00956 25.6631 6.10722C25.6631 7.20524 26.462 8.00411 27.56 8.00411C28.5575 8.00411 29.4569 7.20524 29.4569 6.10722C29.4569 5.00956 28.5575 4.21069 27.56 4.21069Z" fill="white"/>
<path d="M21.2702 4.21069C20.2722 4.21069 19.374 5.00956 19.374 6.10722C19.374 7.20524 20.1718 8.00411 21.2702 8.00411C22.2689 8.00411 23.1671 7.20524 23.1671 6.10722C23.1671 5.00956 22.2689 4.21069 21.2702 4.21069Z" fill="white"/>
<path d="M67.89 57.5239H56.8096H12.8693H1.7889C1.03674 57.5239 0.39209 58.1682 0.39209 58.9207C0.39209 59.6733 1.03674 60.3176 1.7889 60.3176H12.8693H56.8096H67.89C68.6425 60.3176 69.2871 59.6733 69.2871 58.9207C69.2871 58.1682 68.6425 57.5239 67.89 57.5239Z" fill="white"/>
</g>
</svg>
