<svg width="94" height="60" viewBox="0 0 94 60" fill="none" xmlns="http://www.w3.org/2000/svg">
<mask id="mask0_7_5071" style="mask-type:alpha" maskUnits="userSpaceOnUse" x="0" y="0" width="94" height="61">
<rect x="0.0998535" y="0.00463867" width="93.4802" height="60" fill="#D9D9D9"/>
</mask>
<g mask="url(#mask0_7_5071)">
<path d="M44.1 58.0044C36.3616 58.0044 29.0719 57.5818 23.5749 56.8143C16.2987 55.7988 13.4639 54.4495 13.4639 52.0055V23.0957C13.4639 22.4376 13.7874 21.8224 14.329 21.4486C14.8702 21.0762 15.5607 20.9926 16.1754 21.2271L44.1 31.8652L72.0252 21.2271C72.6398 20.9926 73.3304 21.0762 73.8725 21.4486C74.4136 21.8224 74.7376 22.4376 74.7376 23.0957V52.0055C74.7376 54.4495 71.9028 55.7988 64.6267 56.8143C59.1282 57.5818 51.8395 58.0044 44.1 58.0044ZM17.4642 51.3362C19.5238 52.3667 28.5177 54.0056 44.1 54.0056C59.6824 54.0056 68.6773 52.3667 70.7374 51.3362V25.9983L44.8138 35.8742C44.3534 36.0483 43.8476 36.0483 43.3892 35.8742L17.4642 25.9983V51.3362Z" fill="white"/>
<path d="M44.1006 36.0053C43.8598 36.0053 43.617 35.9608 43.3893 35.8738L1.38815 19.8736C0.61343 19.5786 0.0998535 18.8348 0.0998535 18.005C0.0998535 17.1751 0.61343 16.4314 1.38815 16.1354L43.3893 0.135209C43.8477 -0.0388848 44.354 -0.0388848 44.8139 0.135209L86.8136 16.1354C87.5883 16.4314 88.1014 17.1751 88.1014 18.005C88.1014 18.8348 87.5883 19.5786 86.8136 19.8736L44.8139 35.8738C44.5833 35.9608 44.3429 36.0053 44.1006 36.0053ZM7.71839 18.005L44.1006 31.8653L80.4833 18.005L44.1006 4.14517L7.71839 18.005Z" fill="white"/>
<path d="M86.1017 34.0052C84.9972 34.0052 84.1016 33.1091 84.1016 32.0051V20.0052H46.0998C44.9957 20.0052 44.1001 19.1105 44.1001 18.005C44.1001 16.899 44.9957 16.0049 46.0998 16.0049H86.1017C87.2057 16.0049 88.1014 16.899 88.1014 18.005V32.0051C88.1014 33.1091 87.2057 34.0052 86.1017 34.0052Z" fill="white"/>
<path d="M86.1018 60.0046C84.0044 60.0046 81.9922 59.1177 80.5777 57.5697C79.1646 56.0213 78.4625 53.937 78.652 51.8483L80.1023 35.9057C80.155 32.6419 82.8269 30.0044 86.1018 30.0044C89.3762 30.0044 92.0466 32.6419 92.1008 35.9057L93.5496 51.8483C93.7397 53.937 93.0375 56.0213 91.624 57.5697C90.2109 59.1177 88.1972 60.0046 86.1018 60.0046ZM86.1018 34.0052C84.9987 34.0052 84.1016 34.9022 84.1016 36.0053C84.1016 36.0653 84.0987 36.1267 84.0925 36.1862L82.6354 52.2115C82.5464 53.1966 82.8646 54.1415 83.5325 54.8723C84.1993 55.6025 85.1109 56.0058 86.1018 56.0058C87.0907 56.0058 88.0033 55.6025 88.6706 54.8723C89.338 54.1415 89.6557 53.1966 89.5667 52.2115L88.1092 36.1862C88.1044 36.1267 88.1015 36.0653 88.1015 36.0053C88.1015 34.9022 87.2044 34.0052 86.1018 34.0052Z" fill="white"/>
</g>
</svg>
