<svg width="70" height="61" viewBox="0 0 70 61" fill="none" xmlns="http://www.w3.org/2000/svg">
<mask id="mask0_7_5065" style="mask-type:alpha" maskUnits="userSpaceOnUse" x="0" y="0" width="70" height="61">
<rect x="0.5" y="0.317505" width="68.9762" height="60" fill="#D9D9D9"/>
</mask>
<g mask="url(#mask0_7_5065)">
<path d="M58.7268 37.4836C58.0348 37.4836 57.4419 36.8906 57.4419 36.1986V26.3141C57.4419 25.6221 58.0348 25.0288 58.7268 25.0288C59.4188 25.0288 60.0117 25.6221 60.0117 26.3141V36.1986C59.913 36.8906 59.3197 37.4836 58.7268 37.4836Z" fill="white"/>
<path d="M11.775 37.4836C11.083 37.4836 10.4897 36.8906 10.4897 36.1986V26.3141C10.4897 25.6221 11.083 25.0288 11.775 25.0288C12.467 25.0288 13.06 25.6221 13.06 26.3141V36.1986C12.9609 36.8906 12.368 37.4836 11.775 37.4836Z" fill="white"/>
<path d="M58.727 59.7242H11.775C11.083 59.7242 10.4897 59.1312 10.4897 58.4392V48.5543C10.4897 47.8623 11.083 47.2694 11.775 47.2694C12.467 47.2694 13.06 47.8623 13.06 48.5543V57.253H57.5408V48.5543C57.5408 47.8623 58.1341 47.2694 58.8261 47.2694C59.5181 47.2694 60.111 47.8623 60.111 48.5543V58.4392C59.9132 59.1312 59.3199 59.7242 58.727 59.7242Z" fill="white"/>
<path d="M58.727 49.8396H11.775C11.083 49.8396 10.4897 49.246 10.4897 48.554V36.2974C10.4897 35.6058 11.083 35.0125 11.775 35.0125H58.727C59.419 35.0125 60.0119 35.6058 60.0119 36.2974V48.653C59.9132 49.246 59.3199 49.8396 58.727 49.8396ZM12.9609 47.3681H57.4421V37.4832H12.9609V47.3681Z" fill="white"/>
<path d="M63.6694 27.599H56.2556C55.5636 27.599 54.9707 27.0061 54.9707 26.3141C54.9707 25.6221 55.5636 25.0288 56.2556 25.0288H63.6694C64.3614 25.0288 64.9543 25.6221 64.9543 26.3141C64.8553 27.0061 64.2623 27.599 63.6694 27.599Z" fill="white"/>
<path d="M36.4863 27.599H32.7302C32.0382 27.599 31.4453 27.0061 31.4453 26.3141C31.4453 25.6221 32.0382 25.0288 32.7302 25.0288H36.4863C37.1783 25.0288 37.7716 25.6221 37.7716 26.3141C37.6725 27.0061 37.0796 27.599 36.4863 27.599Z" fill="white"/>
<path d="M12.9608 27.599H6.73365C6.04165 27.599 5.44873 27.0061 5.44873 26.3141C5.44873 25.6221 6.04165 25.0288 6.73365 25.0288H12.9608C13.6528 25.0288 14.2461 25.6221 14.2461 26.3141C14.2461 27.0061 13.6528 27.599 12.9608 27.599Z" fill="white"/>
<path d="M56.2555 27.599H36.4861C35.7941 27.599 35.2012 27.0061 35.2012 26.3141V25.0288C35.2012 18.9007 40.1434 13.8594 46.371 13.8594C49.336 13.8594 52.1036 15.0452 54.2786 17.1212C56.3542 19.1972 57.5401 22.0639 57.5401 25.0288V26.3141C57.4418 27.0061 56.8489 27.599 56.2555 27.599ZM37.6723 25.1279H54.9706C54.9706 22.8545 54.0805 20.6799 52.4 18.9994C50.72 17.3193 48.5453 16.4292 46.2719 16.4292C41.5274 16.5283 37.6723 20.3834 37.6723 25.1279Z" fill="white"/>
<path d="M46.3712 12.7719C43.01 12.7719 40.144 10.0043 40.144 6.5447C40.144 3.08511 42.9117 0.317139 46.3712 0.317139C49.8308 0.317139 52.5984 3.08511 52.5984 6.5447C52.5984 10.0043 49.7318 12.7719 46.3712 12.7719ZM46.3712 2.88697C44.2956 2.88697 42.6152 4.56779 42.6152 6.6434C42.6152 8.71938 44.2956 10.3998 46.3712 10.3998C48.4468 10.3998 50.1273 8.71938 50.1273 6.6434C50.1273 4.56779 48.3481 2.88697 46.3712 2.88697Z" fill="white"/>
<path d="M32.7302 27.599H12.9607C12.2687 27.599 11.6758 27.0061 11.6758 26.3141V25.0288C11.6758 18.9007 16.6184 13.8594 22.8456 13.8594C25.8106 13.8594 28.5786 15.0452 30.7533 17.1212C32.8289 19.1972 34.0151 22.0639 34.0151 25.0288V26.3141C34.0151 27.0061 33.4218 27.599 32.7302 27.599ZM14.246 25.1279H31.5443C31.5443 22.8545 30.6542 20.6799 28.9741 18.9994C27.2937 17.3193 25.119 16.4292 22.8456 16.4292C18.1011 16.5283 14.246 20.3834 14.246 25.1279Z" fill="white"/>
<path d="M22.8458 12.7719C19.4853 12.7719 16.6187 10.0043 16.6187 6.5447C16.6187 3.08511 19.3862 0.317139 22.8458 0.317139C26.3054 0.317139 29.073 3.08511 29.073 6.5447C29.073 10.0043 26.2067 12.7719 22.8458 12.7719ZM22.8458 2.88697C20.7702 2.88697 19.0898 4.56779 19.0898 6.6434C19.0898 8.71938 20.7702 10.3998 22.8458 10.3998C24.9218 10.3998 26.6019 8.71938 26.6019 6.6434C26.6019 4.56779 24.9218 2.88697 22.8458 2.88697Z" fill="white"/>
<path d="M67.809 60.3175H2.16678C1.26943 60.3175 0.5 59.6578 0.5 58.8872C0.5 58.1166 1.26943 57.4569 2.16678 57.4569H67.809C68.7067 57.4569 69.4762 58.1166 69.4762 58.8872C69.4762 59.6578 68.7067 60.3175 67.809 60.3175Z" fill="white"/>
<path d="M66.3936 54.8063H59.3678C58.5972 54.8063 57.9375 54.1465 57.9375 53.376C57.9375 52.6054 58.5972 51.9457 59.3678 51.9457H66.3936C67.1642 51.9457 67.8243 52.6054 67.8243 53.376C67.7142 54.1465 67.0541 54.8063 66.3936 54.8063Z" fill="white"/>
<path d="M10.9539 54.8063H3.54846C2.77789 54.8063 2.11816 54.1465 2.11816 53.376C2.11816 52.6054 2.77789 51.9457 3.54846 51.9457H10.9539C11.7245 51.9457 12.3846 52.6054 12.3846 53.376C12.2745 54.1465 11.6144 54.8063 10.9539 54.8063Z" fill="white"/>
</g>
</svg>
