<svg width="32" height="26" viewBox="0 0 32 26" fill="none" xmlns="http://www.w3.org/2000/svg">
<path d="M3.125 25.8726C2.26562 25.8726 1.52995 25.5666 0.917969 24.9546C0.305984 24.3426 0 23.6069 0 22.7476V3.99756C0 3.13818 0.305984 2.40253 0.917969 1.79047C1.52995 1.17847 2.26562 0.872559 3.125 0.872559H28.125C28.9844 0.872559 29.72 1.17847 30.332 1.79047C30.944 2.40253 31.25 3.13818 31.25 3.99756V22.7476C31.25 23.6069 30.944 24.3426 30.332 24.9546C29.72 25.5666 28.9844 25.8726 28.125 25.8726H3.125ZM15.625 14.9351L28.125 7.1225V3.99756L15.625 11.8101L3.125 3.99756V7.1225L15.625 14.9351Z" fill="#2A3B29"/>
</svg>
