<svg width="16" height="26" viewBox="0 0 16 26" fill="none" xmlns="http://www.w3.org/2000/svg">
<path d="M2.27274 25.8726C1.64774 25.8726 1.11269 25.65 0.667618 25.2048C0.222549 24.7599 0 24.2249 0 23.5998V3.14526C0 2.52039 0.222549 1.98517 0.667618 1.54016C1.11269 1.09521 1.64774 0.872559 2.27274 0.872559H13.6364C14.2614 0.872559 14.7964 1.09521 15.2415 1.54016C15.6866 1.98517 15.9091 2.52039 15.9091 3.14526V23.5998C15.9091 24.2249 15.6866 24.7599 15.2415 25.2048C14.7964 25.65 14.2614 25.8726 13.6364 25.8726H2.27274ZM7.95454 23.0316C8.27652 23.0316 8.54642 22.9228 8.76422 22.705C8.98201 22.4871 9.0909 22.2172 9.0909 21.8953C9.0909 21.5733 8.98201 21.3035 8.76422 21.0856C8.54642 20.8679 8.27652 20.7589 7.95454 20.7589C7.63258 20.7589 7.3627 20.8679 7.14488 21.0856C6.92709 21.3035 6.81818 21.5733 6.81818 21.8953C6.81818 22.2172 6.92709 22.4871 7.14488 22.705C7.3627 22.9228 7.63258 23.0316 7.95454 23.0316ZM2.27274 17.918H13.6364V6.55438H2.27274V17.918Z" fill="#2A3B29"/>
</svg>
