<svg width="832" height="125" viewBox="0 0 832 125" fill="none" xmlns="http://www.w3.org/2000/svg">
<mask id="mask0_7_5012" style="mask-type:alpha" maskUnits="userSpaceOnUse" x="0" y="0" width="832" height="126">
<rect y="0.00469971" width="832" height="125" fill="white"/>
</mask>
<g mask="url(#mask0_7_5012)">
<mask id="mask1_7_5012" style="mask-type:alpha" maskUnits="userSpaceOnUse" x="-534" y="7" width="3749" height="102">
<rect x="-534" y="7.7887" width="3748.2" height="100.432" fill="#D9D9D9"/>
</mask>
<g mask="url(#mask1_7_5012)">
<path d="M2357.9 46.0227H246.241C233.013 46.0227 220.889 52.6647 214.799 63.2497L194.095 99.2207H2357.9V46.0227Z" fill="#2E3A2B"/>
<path d="M186.429 100.659C187.303 100.659 188.152 100.2 188.611 99.3847L206.873 66.8997C215.188 52.1117 230.893 42.9257 247.86 42.9257H2357.19C2358.57 42.9257 2359.69 41.8057 2359.69 40.4257C2359.69 39.0447 2358.57 37.9257 2357.19 37.9257H247.86C229.089 37.9257 211.714 48.0887 202.516 64.4487L184.251 96.9327C183.575 98.1377 184.002 99.6617 185.205 100.338C185.593 100.555 186.014 100.659 186.429 100.659Z" fill="#C49A6D"/>
<path d="M168.669 100.66C169.543 100.66 170.392 100.201 170.85 99.3857L203.469 41.3697C204.146 40.1657 203.719 38.6407 202.516 37.9657C201.312 37.2887 199.786 37.7157 199.111 38.9187L166.492 96.9337C165.815 98.1387 166.242 99.6627 167.445 100.339C167.833 100.556 168.254 100.66 168.669 100.66Z" fill="#C49A6D"/>
<path d="M150.91 100.66C151.784 100.66 152.633 100.201 153.091 99.3857L185.711 41.3697C186.388 40.1657 185.961 38.6407 184.758 37.9657C183.554 37.2857 182.028 37.7157 181.353 38.9187L148.733 96.9337C148.056 98.1387 148.483 99.6627 149.686 100.339C150.074 100.557 150.495 100.66 150.91 100.66Z" fill="#C49A6D"/>
<path d="M133.15 100.66C134.024 100.66 134.873 100.201 135.331 99.3857L167.951 41.3697C168.628 40.1657 168.201 38.6407 166.998 37.9657C165.793 37.2857 164.269 37.7157 163.593 38.9187L130.973 96.9337C130.296 98.1387 130.723 99.6627 131.926 100.339C132.314 100.557 132.735 100.66 133.15 100.66Z" fill="#C49A6D"/>
<path d="M64.927 105.159C64.927 103.521 66.25 102.188 67.888 102.178C74.1799 102.137 80.471 102.097 86.763 102.059C94.044 102.109 101.329 102.351 108.603 102.147C114.646 101.975 119.897 97.6727 121.766 92.0187C123.694 86.1817 122.017 80.1257 117.327 76.0247C114.199 73.2877 110.515 72.1347 106.397 72.1387C96.3239 72.1477 86.25 72.1997 76.1779 72.1017C68.992 72.0307 63.218 66.1977 63.1259 59.0117C63.0709 54.7987 63.093 50.5847 63.0889 46.3717C63.0809 36.5307 63.208 40.4937 63.031 30.6567C62.9 23.4127 58.091 17.3667 51.284 15.2567C44.586 13.1807 37.5089 15.4247 33.111 21.0417C29.612 25.5077 29.043 30.5507 30.268 35.9227C30.382 36.4177 30.6359 36.8757 30.786 37.3637C31.5319 39.7977 31.106 41.2737 29.4949 41.9177C27.8499 42.5727 26.268 41.7407 25.431 39.4707C22.5659 31.6987 23.465 24.3247 28.4359 17.6947C33.322 11.1737 40.101 8.10872 48.169 8.87672C60.13 10.0187 68.396 19.1617 68.784 31.1847C68.9039 34.8877 68.822 38.5967 68.8189 42.3017C68.814 51.8867 68.768 47.6667 68.802 57.2517C68.827 63.9887 72.1199 66.9067 78.252 66.6237C79.398 66.5707 80.551 66.6047 81.7009 66.6067C90.392 66.6167 99.0839 66.5867 107.776 66.6497C117.016 66.7177 124.914 72.7417 127.385 81.5037C129.896 90.4107 126.438 99.4937 118.661 104.552C114.892 107.002 110.739 108.01 106.305 108.043C97.2329 108.109 88.163 108.161 79.091 108.221C75.356 108.196 71.6199 108.166 67.885 108.138C66.2479 108.127 64.927 106.797 64.927 105.159Z" fill="#C49A6D"/>
<path d="M53.7628 89.8747C70.5158 89.8297 87.2688 89.8917 104.021 89.9007C105.171 89.9027 106.326 89.9197 107.471 89.8297C109.129 89.7017 110.079 88.6947 110.086 87.0837C110.092 85.4387 109.04 84.5177 107.439 84.3417C106.427 84.2297 105.397 84.2527 104.376 84.2527C95.1668 84.2587 85.9598 84.2737 76.7528 84.2857C61.6548 84.3057 50.8168 73.6157 50.7458 58.5357C50.6878 45.8767 50.7338 47.0217 50.7208 34.3637C50.7208 33.0887 50.7738 31.7887 50.5578 30.5417C50.1698 28.3027 48.3998 26.8857 46.2798 26.8957C44.3038 26.9037 42.7678 28.1607 42.1918 30.2777C42.0928 30.6417 42.1488 31.0477 42.0618 31.4177C41.5518 33.5997 40.4288 34.6217 38.8018 34.4167C37.0318 34.1927 36.0718 32.6577 36.2598 30.3517C36.8368 23.2647 44.8808 18.9307 51.1228 22.3587C55.0318 24.5037 56.4068 27.9477 56.3858 32.2667C56.3178 45.0527 56.3728 44.0327 56.3548 56.8177C56.3508 58.8717 56.3858 60.9257 56.8358 62.9237C58.6348 70.9027 63.5738 75.9757 71.4358 78.0217C73.6238 78.5907 76.0058 78.5147 78.3008 78.5327C87.8918 78.6057 97.4848 78.5147 107.075 78.6587C112.431 78.7397 115.937 82.3607 115.833 87.2797C115.734 92.0207 112.261 95.3237 107.072 95.5577C105.668 95.6227 104.257 95.5297 102.852 95.5747C99.7898 95.6697 96.7178 95.3517 93.6638 95.8037C84.7358 95.2757 75.7998 95.6947 66.8668 95.5927C62.0148 95.5377 57.1498 95.4677 52.3108 95.7407C49.1748 95.9197 46.3408 96.9107 43.9618 98.4857H35.7578C39.9448 93.2777 46.4378 89.8947 53.7628 89.8747Z" fill="#C49A6D"/>
<path d="M128.63 34.9417C131.654 40.0507 131.669 45.4237 128.981 50.6237C126.462 55.4957 122.129 57.6247 114.713 57.6727C111.966 57.7287 107.958 56.0467 104.762 52.5607C103.02 50.6567 101.888 48.3667 101.021 45.9387C99.3963 41.3837 95.9542 39.0137 91.3533 38.2657C85.7913 37.3637 81.0183 38.8337 77.3162 43.2977C76.0183 44.8617 75.2642 44.7147 74.3023 42.9357C73.1953 40.8877 73.5482 38.8627 75.3993 37.0537C77.1713 35.3227 79.3733 34.3277 81.6513 33.4437C89.6113 30.3527 102.675 32.8387 106.565 44.3037C107.011 45.6137 107.672 46.9067 108.489 48.0227C111.056 51.5277 115.728 52.8907 119.773 51.4587C123.376 50.1847 125.42 46.6827 125.141 42.2697C124.959 39.4337 123.473 37.4827 120.814 36.5927C118.641 35.8657 116.305 36.4497 115.292 37.9727C114.264 39.5177 114.558 40.5767 116.744 42.7237C117.862 43.8237 118.387 44.9987 117.556 46.4667C116.81 47.7847 115.218 48.2107 113.502 47.4197C110.843 46.1977 109.47 43.9817 109.098 41.1367C108.502 36.5917 110.822 32.8167 115.147 31.2097C119.606 29.5557 126.502 31.3467 128.63 34.9417Z" fill="#C49A6D"/>
<path d="M18.4139 75.6487C18.132 70.6827 20.361 67.0007 24.76 64.7637C26.1729 64.0477 26.765 63.3567 26.0469 61.8477C25.775 61.2767 25.5839 60.6477 25.468 60.0257C24.2239 53.3497 29.52 47.4837 36.031 48.3327C38.58 48.6647 40.6259 49.8937 41.947 52.1187C42.648 53.3017 42.655 54.6047 41.6719 55.6737C40.9509 56.4577 39.981 56.9297 38.9099 56.4367C38.234 56.1257 37.5819 55.6577 37.064 55.1217C35.794 53.8097 34.4409 53.6817 32.9359 54.6217C31.351 55.6117 30.708 57.4017 31.239 59.2757C31.9279 61.7087 33.8369 63.3217 36.541 63.5417C38.192 63.6737 39.8619 63.5667 41.525 63.5777C44.5629 63.6007 44.5869 63.5977 45.3369 66.4847C46.817 72.1747 49.4959 77.1647 53.7759 81.2607C54.3909 81.8497 55.2449 82.3057 55.4 83.5677C53.9069 83.6747 52.3859 83.5817 50.976 83.9317C48.846 84.4617 47.6729 83.4897 46.517 81.9257C44.062 78.6117 42.036 75.0747 40.7789 71.1537C40.301 69.6617 39.497 69.1387 38.0009 69.1847C35.5739 69.2627 33.1379 69.0897 30.718 69.2417C27.557 69.4377 24.9829 71.3827 24.2559 73.8537C23.5349 76.3067 25.585 79.0557 28.002 78.8737C29.2769 78.7797 29.9539 77.7887 30.8279 77.0597C32.049 76.0377 33.374 75.8797 34.6079 77.0687C35.82 78.2357 35.7189 79.5637 34.911 80.8967C34.306 81.8957 33.4539 82.6717 32.476 83.3037C26.8129 86.9507 18.8079 82.6367 18.4139 75.6487Z" fill="#C49A6D"/>
<path d="M103.201 22.0937C104.449 20.4147 104.507 18.2797 105.272 16.4067C106.17 14.2027 107.689 12.8307 110.079 12.5537C111.622 12.3757 112.14 12.9627 111.713 14.5527C110.983 17.2617 110.124 19.9347 109.347 22.6297C109 23.8307 108.606 24.8987 109.627 26.1817C111.12 28.0577 108.661 28.6477 107.992 29.8027C107.382 30.8567 106.509 30.7667 105.421 30.0697C97.4809 24.9907 88.8379 24.7577 79.9559 26.6547C76.5409 27.3847 76.0609 27.1547 75.2939 23.7997C75.1109 23.0047 74.9929 22.2617 75.8279 21.7947C77.1199 21.0727 77.1959 19.7247 77.5589 18.5307C78.1919 16.4567 78.7629 14.3647 79.4109 12.2957C79.9229 10.6677 80.7719 9.2477 82.4019 8.5037C83.5589 7.9757 84.8849 7.3187 85.9849 8.2787C86.9159 9.0927 85.9659 10.2007 85.7429 11.1217C85.2649 13.1007 84.5579 15.0247 84.0059 16.9877C83.7469 17.9087 83.1789 18.8467 83.8659 19.9357C85.7739 19.9357 87.6849 19.8587 89.5829 19.9607C91.0419 20.0387 91.6259 19.2777 91.9769 18.0537C92.5399 16.0917 93.0479 14.1077 93.7549 12.1967C94.5799 9.9747 96.2699 8.7017 98.6629 8.5067C99.8959 8.4077 100.673 8.8007 100.212 10.2807C99.7219 11.8657 99.3149 13.4757 98.8369 15.0627C97.0959 20.8387 97.0909 20.8367 103.201 22.0937Z" fill="#C49A6D"/>
<path d="M98.2662 53.5967C98.3242 48.4577 94.0622 44.0497 88.8762 43.8837C83.5062 43.7097 79.0802 48.0157 79.0173 53.4687C78.9562 58.9007 83.1592 63.2557 88.5142 63.3087C93.9272 63.3627 98.2052 59.1037 98.2662 53.5967ZM84.3292 53.4517C84.4282 51.0317 86.4393 49.1277 88.8032 49.2167C91.1212 49.3047 93.0253 51.3777 92.9872 53.7747C92.9502 56.0747 90.8342 58.0597 88.4802 58.0047C86.1312 57.9507 84.2302 55.8657 84.3292 53.4517Z" fill="#C49A6D"/>
</g>
<mask id="mask2_7_5012" style="mask-type:alpha" maskUnits="userSpaceOnUse" x="200" y="49" width="2159" height="48">
<path d="M245.765 49.8097C234.206 49.8097 223.612 55.6137 218.291 64.8627L200.2 96.2937H2358.11V49.8097H245.765Z" fill="black"/>
</mask>
<g mask="url(#mask2_7_5012)">
<path d="M805.951 56.1197C811.995 56.1647 818.041 56.1087 824.083 56.1997C827.46 56.2507 829.668 58.5327 829.604 61.6317C829.541 64.6197 827.351 66.6997 824.081 66.8487C823.196 66.8897 822.308 66.8317 821.423 66.8597C819.493 66.9197 817.556 66.7197 815.633 67.0037C810.005 66.6697 804.374 66.9347 798.746 66.8697C795.687 66.8357 792.622 66.7907 789.572 66.9647C787.597 67.0767 785.812 67.7017 784.31 68.6947H779.141C781.779 65.4117 785.872 63.2797 790.488 63.2667C801.044 63.2387 811.601 63.2777 822.159 63.2837C822.883 63.2837 823.611 63.2947 824.333 63.2387C825.378 63.1587 825.976 62.5237 825.981 61.5067C825.985 60.4707 825.321 59.8917 824.314 59.7797C823.676 59.7107 823.025 59.7237 822.381 59.7237C816.579 59.7277 810.778 59.7387 804.975 59.7447C797.243 59.7557 791.285 55.3097 789.299 48.5427H793.139C794.621 52.2707 797.464 54.7157 801.626 55.7987C803.002 56.1567 804.506 56.1087 805.951 56.1197Z" fill="#6F7857"/>
<path d="M787.65 82.5887C787.982 80.7777 788.111 78.9287 788.329 77.0987C788.585 74.9447 789.5 74.0657 791.644 73.9447C792.124 75.2567 791.592 76.6567 791.975 77.9797C791.831 78.3027 791.831 78.6257 791.971 78.9487C791.74 80.0747 791.773 81.2017 791.962 82.3307C791.801 82.8167 791.79 83.3017 791.984 83.7847C791.689 85.7057 791.805 87.6227 792.003 89.5417C791.928 90.0137 791.809 90.4847 791.786 90.9607C791.695 92.8397 791.443 94.6467 791.083 96.4067H787.529C787.82 95.1897 788.066 93.9557 788.223 92.6777C788.292 92.1267 788.232 91.5617 788.232 90.9917C787.458 90.9437 787.413 91.6417 787.142 92.0637C786.17 93.5827 785.111 95.0277 783.965 96.4067H779.28C779.917 95.7577 780.566 95.1207 781.203 94.4717C784.49 91.1337 786.797 87.2367 787.65 82.5887Z" fill="#6F7857"/>
<path d="M815.629 77.5677C816.411 77.5567 817.316 77.3867 817.313 78.6597C817.307 80.1827 817.305 81.5717 817.305 82.9377C817.316 83.8657 817.311 84.7617 817.307 85.7007V86.2787H817.305C817.303 86.8167 817.303 87.3687 817.309 87.9627C817.32 89.4017 816.275 89.0997 815.442 89.1107C814.66 89.1217 813.753 89.2917 813.757 88.0207C813.764 86.4977 813.764 85.1087 813.764 83.7407C813.753 82.8147 813.759 81.9187 813.764 80.9797V80.3997H813.766C813.768 79.8637 813.768 79.3107 813.762 78.7157C813.749 77.2787 814.795 77.5787 815.629 77.5677Z" fill="#6F7857"/>
<path d="M799.599 77.5677C800.381 77.5567 801.288 77.3867 801.283 78.6597C801.277 80.1827 801.277 81.5717 801.277 82.9377C801.286 83.8657 801.281 84.7617 801.277 85.7007V86.2787H801.275C801.273 86.8167 801.273 87.3687 801.279 87.9627C801.292 89.4017 800.245 89.0997 799.412 89.1107C798.63 89.1217 797.723 89.2917 797.727 88.0207C797.734 86.4977 797.734 85.1087 797.734 83.7407C797.725 82.8147 797.729 81.9187 797.734 80.9797V80.3997H797.736C797.738 79.8637 797.738 79.3107 797.734 78.7157C797.719 77.2787 798.766 77.5787 799.599 77.5677Z" fill="#6F7857"/>
<path d="M807.614 77.5677C808.396 77.5567 809.301 77.3867 809.298 78.6597C809.292 80.1827 809.29 81.5717 809.29 82.9377C809.301 83.8657 809.296 84.7617 809.292 85.7007V86.2787H809.29C809.288 86.8167 809.288 87.3687 809.292 87.9627C809.305 89.4017 808.26 89.0997 807.427 89.1107C806.645 89.1217 805.738 89.2917 805.742 88.0207C805.749 86.4977 805.749 85.1087 805.749 83.7407C805.738 82.8147 805.744 81.9187 805.749 80.9797V80.3997H805.751C805.753 79.8637 805.753 79.3107 805.747 78.7157C805.734 77.2787 806.78 77.5787 807.614 77.5677Z" fill="#6F7857"/>
<path d="M833.314 96.4047H797.729V92.6117H834.835C835.233 92.6117 835.61 92.6887 835.972 92.8037C836.332 92.6887 836.709 92.6117 837.107 92.6117H873.285V96.4047H838.628H833.314Z" fill="#6F7857"/>
<path d="M831.658 77.5677C832.44 77.5567 833.345 77.3867 833.342 78.6597C833.336 80.1827 833.334 81.5717 833.334 82.9377C833.345 83.8657 833.34 84.7617 833.336 85.7007V86.2787H833.334C833.332 86.8167 833.332 87.3687 833.336 87.9627C833.349 89.4017 832.304 89.0997 831.471 89.1107C830.689 89.1217 829.782 89.2917 829.786 88.0207C829.793 86.4977 829.793 85.1087 829.793 83.7407C829.782 82.8147 829.788 81.9187 829.793 80.9797V80.3997H829.795C829.797 79.8637 829.797 79.3107 829.791 78.7157C829.778 77.2787 830.825 77.5787 831.658 77.5677Z" fill="#6F7857"/>
<path d="M823.644 77.5677C824.426 77.5567 825.331 77.3867 825.328 78.6597C825.322 80.1827 825.32 81.5717 825.32 82.9377C825.331 83.8657 825.324 84.7617 825.322 85.7007V86.2787H825.32C825.318 86.8167 825.318 87.3687 825.322 87.9627C825.335 89.4017 824.29 89.0997 823.457 89.1107C822.675 89.1217 821.768 89.2917 821.772 88.0207C821.779 86.4977 821.779 85.1087 821.779 83.7407C821.768 82.8147 821.774 81.9187 821.779 80.9797V80.3997H821.781C821.783 79.8637 821.783 79.3107 821.777 78.7157C821.764 77.2787 822.81 77.5787 823.644 77.5677Z" fill="#6F7857"/>
<path d="M723.078 59.7217C717.034 59.7777 710.988 59.7327 704.944 59.7367C704.3 59.7367 703.645 59.7007 703.014 59.8037C702.021 59.9677 701.405 60.5817 701.476 61.6307C701.538 62.5457 702.111 63.1117 703.025 63.2027C703.824 63.2827 704.634 63.2627 705.441 63.2627C715.757 63.2697 726.072 63.2827 736.389 63.2587C738.186 63.2547 739.915 63.5317 741.613 64.0817C744.426 64.9927 746.782 66.7457 748.48 68.9747L743.549 69.0027C741.776 67.6247 739.629 66.9097 737.107 66.9007C731.625 66.8767 726.145 66.8947 720.663 66.8947V66.8817C715.263 66.8817 709.864 66.8837 704.463 66.8797C703.58 66.8797 702.697 66.9097 701.823 66.6787C698.831 65.8947 697.138 62.8667 698.062 59.9157C698.846 57.4187 700.754 56.1507 703.856 56.1417C709.902 56.1267 715.946 56.1417 721.992 56.1377C723.442 56.1377 724.889 56.1057 726.302 55.6917C730.104 54.5807 732.894 51.9907 734.292 48.5427H738.154C736.081 55.2027 730.21 59.6547 723.078 59.7217Z" fill="#6F7857"/>
<path d="M759.125 54.8477C758.789 57.2237 757.352 58.7677 755.153 59.5947C752.756 60.4977 749.902 59.5477 748.79 57.5427C748.219 56.5067 748.357 55.5347 749.204 54.9857C750.218 54.3267 750.966 54.8217 751.763 55.5257C752.958 56.5777 753.744 56.5797 754.722 55.7547C755.72 54.9147 755.933 53.6887 755.246 52.4887C754.41 51.0287 753.047 50.3787 751.446 50.2797C749.921 50.1867 748.385 50.2947 746.858 50.2207C745.88 50.1737 745.398 50.5847 745.12 51.4767C744.519 53.4107 743.509 55.1447 742.477 56.8807C741.323 58.8217 739.979 60.1857 737.471 59.4097C737.028 59.2717 736.521 59.3347 736.043 59.3047C735.961 59.1617 735.877 59.0217 735.795 58.8817C739.128 56.1117 741.185 52.6037 742.255 48.5427H756.831C758.804 49.9987 759.485 52.2957 759.125 54.8477Z" fill="#6F7857"/>
<path d="M790.495 57.8397C790.883 58.2107 791.421 58.4987 791.518 59.2937C790.579 59.3607 789.62 59.3027 788.731 59.5237C787.389 59.8577 786.65 59.2437 785.92 58.2597C784.374 56.1707 783.098 53.9407 782.306 51.4707C782.002 50.5317 781.498 50.2017 780.555 50.2297C779.025 50.2797 777.489 50.1697 775.964 50.2647C773.972 50.3887 772.35 51.6147 771.891 53.1717C771.437 54.7187 772.729 56.4507 774.252 56.3367C775.058 56.2757 775.484 55.6517 776.033 55.1927C776.802 54.5487 777.638 54.4497 778.416 55.1987C779.18 55.9337 779.116 56.7717 778.605 57.6117C778.224 58.2407 777.69 58.7297 777.072 59.1277C773.505 61.4257 768.46 58.7077 768.21 54.3027C768.074 51.8817 768.895 49.9497 770.556 48.5437H785.183C786.116 52.1227 787.802 55.2637 790.495 57.8397Z" fill="#6F7857"/>
<path d="M535.719 77.5677C536.5 77.5567 537.407 77.3867 537.402 78.6597C537.396 80.1827 537.396 81.5717 537.396 82.9377C537.405 83.8657 537.4 84.7617 537.396 85.7007V86.2787H537.394C537.392 86.8167 537.392 87.3687 537.398 87.9627C537.411 89.4017 536.365 89.0997 535.531 89.1107C534.749 89.1217 533.842 89.2917 533.846 88.0207C533.853 86.4977 533.853 85.1087 533.853 83.7407C533.844 82.8147 533.848 81.9187 533.853 80.9797V80.3997H533.855C533.857 79.8637 533.857 79.3107 533.853 78.7157C533.839 77.2787 534.885 77.5787 535.719 77.5677Z" fill="#6F7857"/>
<path d="M527.622 77.5677C528.404 77.5567 529.309 77.3867 529.306 78.6597C529.3 80.1827 529.298 81.5717 529.298 82.9377C529.309 83.8657 529.304 84.7617 529.3 85.7007V86.2787H529.298C529.296 86.8167 529.296 87.3687 529.3 87.9627C529.313 89.4017 528.268 89.0997 527.435 89.1107C526.653 89.1217 525.746 89.2917 525.75 88.0207C525.757 86.4977 525.757 85.1087 525.757 83.7407C525.746 82.8147 525.752 81.9187 525.757 80.9797V80.3997H525.759C525.761 79.8637 525.761 79.3107 525.755 78.7157C525.742 77.2787 526.789 77.5787 527.622 77.5677Z" fill="#6F7857"/>
<path d="M519.606 77.5677C520.388 77.5567 521.295 77.3867 521.29 78.6597C521.284 80.1827 521.284 81.5717 521.284 82.9377C521.293 83.8657 521.288 84.7617 521.284 85.7007V86.2787H521.282C521.28 86.8167 521.28 87.3687 521.286 87.9627C521.299 89.4017 520.252 89.0997 519.419 89.1107C518.637 89.1217 517.73 89.2917 517.734 88.0207C517.741 86.4977 517.743 85.1087 517.743 83.7407C517.732 82.8147 517.736 81.9187 517.741 80.9797V80.3997H517.743C517.745 79.8637 517.745 79.3107 517.741 78.7157C517.728 77.2787 518.773 77.5787 519.606 77.5677Z" fill="#6F7857"/>
<path d="M543.651 77.5677C544.433 77.5567 545.34 77.3867 545.336 78.6597C545.329 80.1827 545.329 81.5717 545.329 82.9377C545.34 83.8657 545.333 84.7617 545.329 85.7007V86.2787H545.327C545.325 86.8167 545.325 87.3687 545.331 87.9627C545.344 89.4017 544.297 89.0997 543.464 89.1107C542.682 89.1217 541.775 89.2917 541.779 88.0207C541.786 86.4977 541.788 85.1087 541.788 83.7407C541.777 82.8147 541.781 81.9187 541.786 80.9797V80.3997H541.788C541.79 79.8637 541.79 79.3107 541.786 78.7157C541.773 77.2787 542.818 77.5787 543.651 77.5677Z" fill="#6F7857"/>
<path d="M551.364 77.5677C552.146 77.5567 553.051 77.3867 553.046 78.6597C553.042 80.1827 553.04 81.5717 553.04 82.9377C553.051 83.8657 553.046 84.7617 553.042 85.7007V86.2787H553.04C553.038 86.8167 553.038 87.3687 553.044 87.9627C553.055 89.4017 552.01 89.0997 551.177 89.1107C550.395 89.1217 549.488 89.2917 549.492 88.0207C549.499 86.4977 549.499 85.1087 549.499 83.7407C549.488 82.8147 549.494 81.9187 549.499 80.9797V80.3997H549.501C549.503 79.8637 549.503 79.3107 549.497 78.7157C549.484 77.2787 550.531 77.5787 551.364 77.5677Z" fill="#6F7857"/>
<path d="M512.005 77.5677C512.786 77.5567 513.693 77.3867 513.688 78.6597C513.682 80.1827 513.68 81.5717 513.68 82.9377C513.691 83.8657 513.686 84.7617 513.682 85.7007V86.2787H513.68C513.678 86.8167 513.678 87.3687 513.684 87.9627C513.695 89.4017 512.651 89.0997 511.818 89.1107C511.033 89.1217 510.128 89.2917 510.132 88.0207C510.139 86.4977 510.139 85.1087 510.139 83.7407C510.13 82.8147 510.134 81.9187 510.139 80.9797V80.3997H510.141C510.143 79.8637 510.143 79.3107 510.137 78.7157C510.125 77.2787 511.172 77.5787 512.005 77.5677Z" fill="#6F7857"/>
<path d="M544.933 96.4047H510.135V92.6117H547.24C547.494 92.6117 547.744 92.6377 547.983 92.6847C548.224 92.6377 548.472 92.6117 548.726 92.6117H584.904V96.4047H551.033H544.933Z" fill="#6F7857"/>
<path d="M594.349 91.0517C594.291 90.9437 594.071 90.9247 593.806 90.8107C593.918 92.7407 594.203 94.5997 594.627 96.4047H591.002C590.608 94.5177 590.364 92.5857 590.315 90.5887C590.194 85.5157 590.28 80.4367 590.295 75.3627C590.295 74.8367 590.045 74.1367 590.642 73.8397C591.295 73.5117 591.885 73.9817 592.398 74.3627C593.134 74.9077 593.617 75.6377 593.727 76.5747C593.819 77.3767 593.944 78.1757 593.991 78.9767C594.364 85.3097 596.925 90.5947 601.459 95.0047C601.935 95.4647 602.401 95.9387 602.874 96.4047H598.121C596.708 94.7567 595.413 93.0027 594.349 91.0517Z" fill="#6F7857"/>
<path d="M566.899 77.5677C567.681 77.5567 568.586 77.3867 568.581 78.6597C568.577 80.1827 568.575 81.5717 568.575 82.9377C568.586 83.8657 568.581 84.7617 568.577 85.7007V86.2787H568.575C568.573 86.8167 568.573 87.3687 568.579 87.9627C568.59 89.4017 567.543 89.0997 566.712 89.1107C565.928 89.1217 565.023 89.2917 565.027 88.0207C565.034 86.4977 565.034 85.1087 565.034 83.7407C565.023 82.8147 565.029 81.9187 565.034 80.9797V80.3997H565.036C565.038 79.8637 565.038 79.3107 565.032 78.7157C565.019 77.2787 566.066 77.5787 566.899 77.5677Z" fill="#6F7857"/>
<path d="M582.929 77.5677C583.711 77.5567 584.616 77.3867 584.611 78.6597C584.607 80.1827 584.605 81.5717 584.605 82.9377C584.616 83.8657 584.611 84.7617 584.607 85.7007V86.2787H584.605C584.603 86.8167 584.603 87.3687 584.607 87.9627C584.62 89.4017 583.575 89.0997 582.742 89.1107C581.96 89.1217 581.053 89.2917 581.057 88.0207C581.064 86.4977 581.064 85.1087 581.064 83.7407C581.053 82.8147 581.059 81.9187 581.064 80.9797V80.3997H581.066C581.068 79.8637 581.068 79.3107 581.062 78.7157C581.049 77.2787 582.096 77.5787 582.929 77.5677Z" fill="#6F7857"/>
<path d="M558.884 77.5677C559.666 77.5567 560.571 77.3867 560.566 78.6597C560.562 80.1827 560.56 81.5717 560.56 82.9377C560.571 83.8657 560.566 84.7617 560.562 85.7007V86.2787H560.56C560.558 86.8167 560.558 87.3687 560.562 87.9627C560.575 89.4017 559.53 89.0997 558.697 89.1107C557.915 89.1217 557.008 89.2917 557.012 88.0207C557.019 86.4977 557.019 85.1087 557.019 83.7407C557.008 82.8147 557.014 81.9187 557.019 80.9797V80.3997H557.021C557.023 79.8637 557.023 79.3107 557.017 78.7157C557.004 77.2787 558.051 77.5787 558.884 77.5677Z" fill="#6F7857"/>
<path d="M574.913 77.5677C575.695 77.5567 576.602 77.3867 576.597 78.6597C576.591 80.1827 576.589 81.5717 576.589 82.9377C576.6 83.8657 576.595 84.7617 576.591 85.7007V86.2787H576.589C576.587 86.8167 576.587 87.3687 576.593 87.9627C576.606 89.4017 575.559 89.0997 574.726 89.1107C573.944 89.1217 573.037 89.2917 573.041 88.0207C573.048 86.4977 573.05 85.1087 573.05 83.7407C573.039 82.8147 573.043 81.9187 573.048 80.9797V80.3997H573.05C573.052 79.8637 573.052 79.3107 573.048 78.7157C573.035 77.2787 574.08 77.5787 574.913 77.5677Z" fill="#6F7857"/>
<path d="M435.483 59.7217C429.439 59.7777 423.393 59.7327 417.349 59.7367C416.705 59.7367 416.05 59.7007 415.419 59.8037C414.426 59.9677 413.81 60.5817 413.881 61.6307C413.943 62.5457 414.517 63.1117 415.43 63.2027C416.229 63.2827 417.039 63.2627 417.846 63.2627C428.162 63.2697 438.477 63.2827 448.795 63.2587C450.593 63.2547 452.321 63.5317 454.018 64.0817C456.831 64.9927 459.187 66.7457 460.885 68.9747L455.956 69.0027C454.182 67.6247 452.032 66.9097 449.512 66.9007C444.03 66.8767 438.55 66.8947 433.069 66.8947V66.8817C427.668 66.8817 422.269 66.8837 416.869 66.8797C415.986 66.8797 415.102 66.9097 414.228 66.6787C411.236 65.8947 409.543 62.8667 410.467 59.9157C411.251 57.4187 413.157 56.1507 416.261 56.1417C422.307 56.1267 428.351 56.1417 434.397 56.1377C435.847 56.1377 437.295 56.1057 438.707 55.6917C442.509 54.5807 445.299 51.9907 446.697 48.5427H450.559C448.487 55.2027 442.615 59.6547 435.483 59.7217Z" fill="#6F7857"/>
<path d="M471.53 54.8477C471.194 57.2237 469.757 58.7677 467.558 59.5947C465.159 60.4977 462.307 59.5477 461.195 57.5427C460.625 56.5067 460.762 55.5347 461.607 54.9857C462.624 54.3267 463.371 54.8217 464.168 55.5257C465.363 56.5777 466.149 56.5797 467.127 55.7547C468.125 54.9147 468.338 53.6887 467.651 52.4887C466.817 51.0287 465.452 50.3787 463.851 50.2797C462.326 50.1867 460.79 50.2947 459.263 50.2207C458.283 50.1737 457.801 50.5847 457.525 51.4767C456.924 53.4107 455.914 55.1447 454.882 56.8807C453.728 58.8217 452.384 60.1857 449.876 59.4097C449.433 59.2717 448.926 59.3347 448.448 59.3047C448.366 59.1617 448.282 59.0217 448.198 58.8817C451.533 56.1117 453.59 52.6037 454.66 48.5427H469.236C471.209 49.9987 471.89 52.2957 471.53 54.8477Z" fill="#6F7857"/>
<path d="M502.9 57.8397C503.288 58.2107 503.826 58.4987 503.925 59.2937C502.984 59.3607 502.026 59.3027 501.136 59.5237C499.794 59.8577 499.055 59.2437 498.325 58.2597C496.778 56.1707 495.503 53.9407 494.711 51.4707C494.407 50.5317 493.903 50.2017 492.959 50.2297C491.43 50.2797 489.894 50.1697 488.369 50.2647C486.379 50.3887 484.755 51.6147 484.298 53.1717C483.844 54.7187 485.136 56.4507 486.659 56.3367C487.463 56.2757 487.889 55.6517 488.441 55.1927C489.21 54.5487 490.043 54.4497 490.823 55.1987C491.585 55.9337 491.521 56.7717 491.012 57.6117C490.631 58.2407 490.095 58.7297 489.479 59.1277C485.91 61.4257 480.865 58.7077 480.617 54.3027C480.479 51.8817 481.3 49.9497 482.961 48.5437H497.588C498.521 52.1227 500.207 55.2637 502.9 57.8397Z" fill="#6F7857"/>
<path d="M663.748 77.5677C664.53 77.5567 665.437 77.3867 665.432 78.6597C665.426 80.1827 665.426 81.5717 665.426 82.9377C665.435 83.8657 665.43 84.7617 665.426 85.7007V86.2787H665.424C665.422 86.8167 665.422 87.3687 665.428 87.9627C665.441 89.4017 664.394 89.0997 663.561 89.1107C662.779 89.1217 661.872 89.2917 661.876 88.0207C661.883 86.4977 661.883 85.1087 661.883 83.7407C661.874 82.8147 661.878 81.9187 661.883 80.9797V80.3997H661.885C661.887 79.8637 661.887 79.3107 661.883 78.7157C661.868 77.2787 662.914 77.5787 663.748 77.5677Z" fill="#6F7857"/>
<path d="M655.734 77.5677C656.516 77.5567 657.421 77.3867 657.418 78.6597C657.412 80.1827 657.41 81.5717 657.41 82.9377C657.421 83.8657 657.416 84.7617 657.412 85.7007V86.2787H657.41C657.408 86.8167 657.408 87.3687 657.414 87.9627C657.425 89.4017 656.38 89.0997 655.547 89.1107C654.765 89.1217 653.858 89.2917 653.862 88.0207C653.869 86.4977 653.869 85.1087 653.869 83.7407C653.858 82.8147 653.864 81.9187 653.869 80.9797V80.3997H653.871C653.873 79.8637 653.873 79.3107 653.867 78.7157C653.854 77.2787 654.9 77.5787 655.734 77.5677Z" fill="#6F7857"/>
<path d="M671.764 77.5677C672.546 77.5567 673.45 77.3867 673.445 78.6597C673.442 80.1827 673.439 81.5717 673.439 82.9377C673.45 83.8657 673.445 84.7617 673.442 85.7007V86.2787H673.439C673.438 86.8167 673.438 87.3687 673.442 87.9627C673.454 89.4017 672.41 89.0997 671.577 89.1107C670.794 89.1217 669.887 89.2917 669.891 88.0207C669.898 86.4977 669.898 85.1087 669.898 83.7407C669.887 82.8147 669.893 81.9187 669.898 80.9797V80.3997H669.901C669.902 79.8637 669.902 79.3107 669.896 78.7157C669.884 77.2787 670.931 77.5787 671.764 77.5677Z" fill="#6F7857"/>
<path d="M687.792 77.5677C688.574 77.5567 689.481 77.3867 689.476 78.6597C689.47 80.1827 689.47 81.5717 689.47 82.9377C689.479 83.8657 689.474 84.7617 689.47 85.7007V86.2787H689.468C689.466 86.8167 689.466 87.3687 689.472 87.9627C689.485 89.4017 688.438 89.0997 687.605 89.1107C686.823 89.1217 685.916 89.2917 685.92 88.0207C685.927 86.4977 685.927 85.1087 685.927 83.7407C685.918 82.8147 685.922 81.9187 685.927 80.9797V80.3997H685.929C685.931 79.8637 685.931 79.3107 685.927 78.7157C685.912 77.2787 686.958 77.5787 687.792 77.5677Z" fill="#6F7857"/>
<path d="M679.778 77.5677C680.56 77.5567 681.465 77.3867 681.462 78.6597C681.456 80.1827 681.454 81.5717 681.454 82.9377C681.465 83.8657 681.46 84.7617 681.456 85.7007V86.2787H681.454C681.452 86.8167 681.452 87.3687 681.458 87.9627C681.469 89.4017 680.424 89.0997 679.591 89.1107C678.809 89.1217 677.902 89.2917 677.906 88.0207C677.913 86.4977 677.913 85.1087 677.913 83.7407C677.902 82.8147 677.908 81.9187 677.913 80.9797V80.3997H677.915C677.917 79.8637 677.917 79.3107 677.911 78.7157C677.898 77.2787 678.945 77.5787 679.778 77.5677Z" fill="#6F7857"/>
<path d="M643.785 82.5887C644.117 80.7777 644.246 78.9287 644.463 77.0987C644.718 74.9447 645.635 74.0657 647.778 73.9447C648.257 75.2567 647.727 76.6567 648.11 77.9797C647.964 78.3027 647.966 78.6257 648.106 78.9487C647.875 80.0747 647.908 81.2017 648.095 82.3307C647.936 82.8167 647.925 83.3017 648.119 83.7847C647.821 85.7057 647.94 87.6227 648.138 89.5417C648.063 90.0137 647.942 90.4847 647.921 90.9607C647.83 92.8397 647.578 94.6467 647.218 96.4067H643.664C643.955 95.1897 644.201 93.9557 644.358 92.6777C644.427 92.1267 644.367 91.5617 644.367 90.9917C643.593 90.9437 643.548 91.6417 643.277 92.0637C642.303 93.5827 641.245 95.0277 640.1 96.4067H635.413C636.052 95.7577 636.698 95.1207 637.336 94.4717C640.625 91.1337 642.932 87.2367 643.785 82.5887Z" fill="#6F7857"/>
<path d="M662.085 56.1197C668.129 56.1647 674.173 56.1087 680.217 56.1997C683.594 56.2507 685.802 58.5327 685.738 61.6317C685.675 64.6197 683.485 66.6997 680.217 66.8487C679.332 66.8897 678.442 66.8317 677.557 66.8597C675.627 66.9197 673.69 66.7197 671.767 67.0037C666.141 66.6697 660.508 66.9347 654.88 66.8697C651.824 66.8357 648.756 66.7907 645.706 66.9647C643.731 67.0767 641.945 67.7017 640.446 68.6947H635.275C637.913 65.4117 642.006 63.2797 646.622 63.2667C657.178 63.2387 667.737 63.2777 678.293 63.2837C679.019 63.2837 679.745 63.2947 680.467 63.2387C681.512 63.1587 682.11 62.5237 682.115 61.5067C682.119 60.4707 681.455 59.8917 680.447 59.7797C679.81 59.7107 679.159 59.7237 678.517 59.7237C672.715 59.7277 666.912 59.7387 661.109 59.7447C653.379 59.7557 647.419 55.3097 645.435 48.5427H649.275C650.757 52.2707 653.598 54.7157 657.76 55.7987C659.136 56.1567 660.64 56.1087 662.085 56.1197Z" fill="#6F7857"/>
<path d="M688.799 96.4047H653.864V92.6117H690.97C691.248 92.6117 691.519 92.6457 691.78 92.7017C692.043 92.6457 692.312 92.6117 692.592 92.6117H728.77V96.4047H694.763H688.799Z" fill="#6F7857"/>
<path d="M738.215 91.0517C738.157 90.9437 737.937 90.9247 737.672 90.8107C737.784 92.7407 738.069 94.5997 738.491 96.4047H734.868C734.474 94.5177 734.228 92.5857 734.181 90.5887C734.06 85.5157 734.146 80.4367 734.159 75.3627C734.161 74.8367 733.911 74.1367 734.508 73.8397C735.161 73.5117 735.751 73.9817 736.264 74.3627C736.998 74.9077 737.483 75.6377 737.593 76.5747C737.685 77.3767 737.81 78.1757 737.855 78.9767C738.23 85.3097 740.791 90.5947 745.325 95.0047C745.801 95.4647 746.267 95.9387 746.738 96.4047H741.987C740.574 94.7567 739.279 93.0027 738.215 91.0517Z" fill="#6F7857"/>
<path d="M726.794 77.5677C727.576 77.5567 728.481 77.3867 728.478 78.6597C728.472 80.1827 728.47 81.5717 728.47 82.9377C728.481 83.8657 728.476 84.7617 728.472 85.7007V86.2787H728.47C728.468 86.8167 728.468 87.3687 728.474 87.9627C728.485 89.4017 727.44 89.0997 726.607 89.1107C725.825 89.1217 724.918 89.2917 724.922 88.0207C724.929 86.4977 724.929 85.1087 724.929 83.7407C724.918 82.8147 724.924 81.9187 724.929 80.9797V80.3997H724.931C724.933 79.8637 724.933 79.3107 724.927 78.7157C724.914 77.2787 725.96 77.5787 726.794 77.5677Z" fill="#6F7857"/>
<path d="M694.735 77.5677C695.517 77.5567 696.422 77.3867 696.417 78.6597C696.413 80.1827 696.411 81.5717 696.411 82.9377C696.422 83.8657 696.417 84.7617 696.413 85.7007V86.2787H696.411C696.409 86.8167 696.409 87.3687 696.413 87.9627C696.426 89.4017 695.381 89.0997 694.548 89.1107C693.766 89.1217 692.859 89.2917 692.863 88.0207C692.87 86.4977 692.87 85.1087 692.87 83.7407C692.859 82.8147 692.865 81.9187 692.87 80.9797V80.3997H692.872C692.874 79.8637 692.874 79.3107 692.868 78.7157C692.855 77.2787 693.901 77.5787 694.735 77.5677Z" fill="#6F7857"/>
<path d="M718.779 77.5677C719.561 77.5567 720.466 77.3867 720.463 78.6597C720.457 80.1827 720.455 81.5717 720.455 82.9377C720.466 83.8657 720.461 84.7617 720.457 85.7007V86.2787H720.455C720.453 86.8167 720.453 87.3687 720.457 87.9627C720.47 89.4017 719.425 89.0997 718.592 89.1107C717.81 89.1217 716.903 89.2917 716.907 88.0207C716.914 86.4977 716.914 85.1087 716.914 83.7407C716.903 82.8147 716.909 81.9187 716.914 80.9797V80.3997H716.916C716.918 79.8637 716.918 79.3107 716.912 78.7157C716.899 77.2787 717.945 77.5787 718.779 77.5677Z" fill="#6F7857"/>
<path d="M702.75 77.5677C703.531 77.5567 704.436 77.3867 704.433 78.6597C704.427 80.1827 704.425 81.5717 704.425 82.9377C704.436 83.8657 704.431 84.7617 704.427 85.7007V86.2787H704.425C704.423 86.8167 704.423 87.3687 704.429 87.9627C704.44 89.4017 703.396 89.0997 702.563 89.1107C701.78 89.1217 700.873 89.2917 700.877 88.0207C700.884 86.4977 700.884 85.1087 700.884 83.7407C700.873 82.8147 700.879 81.9187 700.884 80.9797V80.3997H700.886C700.888 79.8637 700.888 79.3107 700.882 78.7157C700.87 77.2787 701.917 77.5787 702.75 77.5677Z" fill="#6F7857"/>
<path d="M710.764 77.5677C711.546 77.5567 712.453 77.3867 712.448 78.6597C712.442 80.1827 712.442 81.5717 712.442 82.9377C712.451 83.8657 712.446 84.7617 712.442 85.7007V86.2787H712.44C712.438 86.8167 712.438 87.3687 712.444 87.9627C712.457 89.4017 711.41 89.0997 710.577 89.1107C709.795 89.1217 708.888 89.2917 708.892 88.0207C708.899 86.4977 708.899 85.1087 708.899 83.7407C708.89 82.8147 708.894 81.9187 708.899 80.9797V80.3997H708.901C708.903 79.8637 708.903 79.3107 708.899 78.7157C708.884 77.2787 709.93 77.5787 710.764 77.5677Z" fill="#6F7857"/>
<path d="M615.26 54.8477C614.923 57.2237 613.486 58.7677 611.287 59.5947C608.888 60.4977 606.036 59.5477 604.924 57.5427C604.352 56.5067 604.49 55.5347 605.336 54.9857C606.354 54.3267 607.1 54.8217 607.897 55.5257C609.092 56.5777 609.88 56.5797 610.857 55.7547C611.854 54.9147 612.068 53.6887 611.38 52.4887C610.547 51.0287 609.182 50.3787 607.58 50.2797C606.055 50.1867 604.519 50.2947 602.992 50.2207C602.012 50.1737 601.531 50.5847 601.255 51.4767C600.653 53.4107 599.643 55.1447 598.611 56.8807C597.458 58.8217 596.113 60.1857 593.605 59.4097C593.162 59.2717 592.656 59.3347 592.177 59.3047C592.096 59.1617 592.011 59.0217 591.927 58.8817C595.262 56.1117 597.319 52.6037 598.389 48.5427H612.965C614.936 49.9987 615.62 52.2957 615.26 54.8477Z" fill="#6F7857"/>
<path d="M579.212 59.7217C573.168 59.7777 567.122 59.7327 561.078 59.7367C560.434 59.7367 559.779 59.7007 559.148 59.8037C558.155 59.9677 557.539 60.5817 557.61 61.6307C557.672 62.5457 558.245 63.1117 559.159 63.2027C559.958 63.2827 560.768 63.2627 561.575 63.2627C571.891 63.2697 582.206 63.2827 592.524 63.2587C594.32 63.2547 596.05 63.5317 597.747 64.0817C600.56 64.9927 602.916 66.7457 604.614 68.9747L599.683 69.0027C597.91 67.6247 595.761 66.9097 593.241 66.9007C587.759 66.8767 582.279 66.8947 576.797 66.8947V66.8817C571.397 66.8817 565.998 66.8837 560.598 66.8797C559.714 66.8797 558.831 66.9097 557.957 66.6787C554.965 65.8947 553.272 62.8667 554.196 59.9157C554.978 57.4187 556.886 56.1507 559.99 56.1417C566.036 56.1267 572.08 56.1417 578.126 56.1377C579.576 56.1377 581.023 56.1057 582.436 55.6917C586.238 54.5807 589.028 51.9907 590.426 48.5427H594.285C592.216 55.2027 586.344 59.6547 579.212 59.7217Z" fill="#6F7857"/>
<path d="M646.629 57.8397C647.017 58.2107 647.555 58.4987 647.654 59.2937C646.713 59.3607 645.755 59.3027 644.865 59.5237C643.523 59.8577 642.782 59.2437 642.054 58.2597C640.508 56.1707 639.232 53.9407 638.44 51.4707C638.136 50.5317 637.632 50.2017 636.689 50.2297C635.159 50.2797 633.624 50.1697 632.098 50.2647C630.108 50.3887 628.484 51.6147 628.028 53.1717C627.573 54.7187 628.865 56.4507 630.388 56.3367C631.192 56.2757 631.618 55.6517 632.17 55.1927C632.939 54.5487 633.772 54.4497 634.552 55.1987C635.314 55.9337 635.25 56.7717 634.741 57.6117C634.36 58.2407 633.824 58.7297 633.208 59.1277C629.639 61.4257 624.594 58.7077 624.346 54.3027C624.209 51.8817 625.029 49.9497 626.69 48.5437H641.317C642.25 52.1227 643.937 55.2637 646.629 57.8397Z" fill="#6F7857"/>
<path d="M621.392 54.4507C621.396 55.4197 621.086 55.8187 620.065 55.7987C618.454 55.7707 618.364 55.7407 618.338 54.0287C618.327 53.4037 618.323 52.7767 618.314 52.1507C618.299 50.9057 618.17 49.7097 617.971 48.5447H621.747C621.426 50.4917 621.383 52.4757 621.392 54.4507Z" fill="#6F7857"/>
<path d="M579.153 52.0887C572.788 52.1337 566.421 52.1057 560.056 52.0907C557.01 52.0847 554.337 52.9887 552.261 55.2827C550.65 57.0647 549.823 59.0247 549.743 61.0967C549.758 61.4667 549.799 61.8397 549.782 62.2057C549.87 63.1747 550.098 64.1637 550.503 65.1697C551.951 68.7647 554.76 70.8407 558.663 71.0007C562.686 71.1617 566.72 71.0497 570.748 71.0547C574.839 71.0567 578.929 71.0587 583.022 71.0607C584.045 71.0607 584.874 71.8967 584.865 72.9217C584.857 73.9337 584.034 74.7507 583.022 74.7507C580.741 74.7527 578.46 74.7527 576.178 74.7527V74.7307C570.86 74.7307 565.542 74.7337 560.224 74.7307C556.997 74.7287 554.019 73.9337 551.389 71.9847C549.948 70.9187 548.819 69.6157 547.972 68.1877C546.96 69.8757 545.56 71.3647 543.789 72.5167C541.416 74.0617 538.799 74.6967 536.003 74.7157C530.286 74.7567 524.57 74.7917 518.853 74.8277C516.499 74.8127 514.147 74.7937 511.792 74.7767C510.761 74.7697 509.927 73.9317 509.927 72.9007C509.927 71.8667 510.763 71.0267 511.795 71.0197C515.76 70.9937 519.723 70.9707 523.689 70.9467C528.277 70.9767 532.869 71.1297 537.45 71.0007C541.259 70.8927 544.569 68.1807 545.745 64.6187C545.993 63.8727 546.122 63.1217 546.185 62.3757C546.152 61.8487 546.157 61.3207 546.187 60.7947C545.98 58.4387 544.877 56.2267 542.949 54.5397C540.979 52.8167 538.657 52.0887 536.061 52.0907C529.713 52.0977 523.366 52.1297 517.018 52.0677C514.25 52.0417 511.829 50.6477 510.338 48.5437H516.725C517.223 48.6077 517.746 48.6427 518.325 48.6147C519.047 48.5817 519.773 48.6037 520.499 48.6037C525.976 48.6097 531.454 48.5927 536.929 48.6317C541.605 48.6657 545.7 51.1427 547.955 54.9687C548.438 54.1497 549.015 53.3747 549.696 52.6637C552.272 49.9647 555.395 48.5717 559.166 48.5947C565.452 48.6317 571.737 48.6187 578.022 48.5997C578.352 48.5997 578.643 48.5687 578.942 48.5437H585.852C584.422 50.7107 581.994 52.0697 579.153 52.0887Z" fill="#6F7857"/>
<path d="M723.019 52.0887C716.654 52.1337 710.287 52.1057 703.922 52.0907C700.876 52.0847 698.203 52.9887 696.127 55.2827C693.488 58.1977 692.928 61.5897 694.369 65.1697C695.817 68.7647 698.625 70.8407 702.529 71.0007C706.55 71.1617 710.584 71.0497 714.614 71.0547C718.705 71.0567 722.797 71.0587 726.888 71.0607C727.911 71.0607 728.74 71.8967 728.731 72.9217C728.723 73.9337 727.9 74.7507 726.885 74.7507C724.604 74.7527 722.325 74.7527 720.044 74.7527V74.7307C714.726 74.7307 709.408 74.7337 704.09 74.7307C700.861 74.7287 697.884 73.9337 695.254 71.9847C693.777 70.8907 692.624 69.5527 691.772 68.0837C690.757 69.8157 689.327 71.3407 687.518 72.5167C685.144 74.0617 682.529 74.6967 679.731 74.7157C674.016 74.7567 668.3 74.7917 662.583 74.8277C660.229 74.8127 657.875 74.7937 655.523 74.7767C654.489 74.7697 653.657 73.9317 653.657 72.9007C653.657 71.8667 654.491 71.0267 655.523 71.0197C659.488 70.9937 663.451 70.9707 667.417 70.9467C672.005 70.9767 676.597 71.1297 681.181 71.0007C684.989 70.8927 688.299 68.1807 689.475 64.6187C690.69 60.9417 689.633 57.1247 686.68 54.5397C684.707 52.8167 682.385 52.0887 679.791 52.0907C673.444 52.0977 667.094 52.1297 660.746 52.0677C657.98 52.0417 655.557 50.6477 654.069 48.5437H660.455C660.951 48.6077 661.474 48.6427 662.053 48.6147C662.777 48.5817 663.503 48.6037 664.229 48.6037C669.704 48.6097 675.182 48.5927 680.659 48.6317C685.385 48.6657 689.519 51.1967 691.752 55.0917C692.252 54.2297 692.846 53.4117 693.561 52.6637C696.138 49.9647 699.261 48.5717 703.032 48.5947C709.318 48.6317 715.603 48.6187 721.886 48.5997C722.218 48.5997 722.509 48.5687 722.808 48.5437H729.718C728.285 50.7107 725.86 52.0697 723.019 52.0887Z" fill="#6F7857"/>
<path d="M333.091 54.4507C333.095 55.4197 332.785 55.8187 331.764 55.7987C330.153 55.7707 330.065 55.7407 330.037 54.0287C330.026 53.4037 330.022 52.7767 330.013 52.1507C329.998 50.9057 329.869 49.7097 329.671 48.5447H333.447C333.126 50.4917 333.082 52.4757 333.091 54.4507Z" fill="#6F7857"/>
<path d="M290.852 52.0887C284.487 52.1337 278.12 52.1057 271.755 52.0907C268.709 52.0847 266.036 52.9887 263.96 55.2827C261.323 58.1977 260.761 61.5897 262.202 65.1697C263.65 68.7647 266.459 70.8407 270.362 71.0007C274.385 71.1617 278.419 71.0497 282.447 71.0547C286.538 71.0567 290.63 71.0587 294.721 71.0607C295.746 71.0607 296.573 71.8967 296.564 72.9217C296.556 73.9337 295.733 74.7507 294.721 74.7507C292.44 74.7527 290.159 74.7527 287.877 74.7527V74.7307C282.559 74.7307 277.241 74.7337 271.923 74.7307C268.697 74.7287 265.718 73.9337 263.088 71.9847C261.405 70.7397 260.141 69.1807 259.267 67.4637C258.246 69.4497 256.718 71.2047 254.702 72.5167C252.329 74.0617 249.711 74.6967 246.916 74.7157C241.199 74.7567 235.482 74.7917 229.766 74.8277C227.414 74.8127 225.057 74.7937 222.705 74.7767C221.674 74.7697 220.84 73.9317 220.84 72.9007C220.84 71.8667 221.674 71.0267 222.707 71.0197C226.671 70.9937 230.636 70.9707 234.602 70.9467C239.189 70.9767 243.78 71.1297 248.365 71.0007C252.171 70.8927 255.482 68.1807 256.658 64.6187C257.875 60.9417 256.817 57.1247 253.862 54.5397C251.889 52.8167 249.567 52.0887 246.976 52.0907C240.626 52.0977 234.278 52.1297 227.931 52.0677C225.163 52.0417 222.74 50.6477 221.251 48.5437H227.638C228.135 48.6077 228.659 48.6427 229.236 48.6147C229.96 48.5817 230.686 48.6037 231.412 48.6037C236.889 48.6097 242.367 48.5927 247.844 48.6317C252.807 48.6687 257.132 51.4447 259.273 55.6797C259.824 54.6007 260.522 53.5797 261.395 52.6637C263.971 49.9647 267.094 48.5717 270.865 48.5947C277.151 48.6317 283.436 48.6187 289.721 48.5997C290.051 48.5997 290.342 48.5687 290.641 48.5437H297.551C296.121 50.7107 293.693 52.0697 290.852 52.0887Z" fill="#6F7857"/>
<path d="M765.258 54.4507C765.262 55.4197 764.952 55.8187 763.931 55.7987C762.32 55.7707 762.23 55.7407 762.202 54.0287C762.193 53.4037 762.189 52.7767 762.18 52.1507C762.165 50.9057 762.036 49.7097 761.838 48.5447H765.613C765.293 50.4917 765.249 52.4757 765.258 54.4507Z" fill="#6F7857"/>
<path d="M435.424 52.0887C429.059 52.1337 422.694 52.1057 416.327 52.0907C413.281 52.0847 410.608 52.9887 408.532 55.2827C405.895 58.1977 405.333 61.5897 406.774 65.1697C408.222 68.7647 411.031 70.8407 414.934 71.0007C418.957 71.1617 422.991 71.0497 427.019 71.0547C431.11 71.0567 435.202 71.0587 439.293 71.0607C440.318 71.0607 441.145 71.8967 441.136 72.9217C441.128 73.9337 440.305 74.7507 439.293 74.7507C437.012 74.7527 434.731 74.7527 432.449 74.7527V74.7307C427.131 74.7307 421.813 74.7337 416.495 74.7307C413.268 74.7287 410.29 73.9337 407.66 71.9847C405.958 70.7247 404.685 69.1437 403.811 67.4057C402.79 69.4147 401.256 71.1917 399.218 72.5167C396.842 74.0617 394.227 74.6967 391.432 74.7157C385.715 74.7567 379.998 74.7917 374.282 74.8277C371.928 74.8127 369.575 74.7937 367.221 74.7767C366.19 74.7697 365.358 73.9317 365.358 72.9007C365.358 71.8667 366.192 71.0267 367.223 71.0197C371.189 70.9937 375.152 70.9707 379.117 70.9467C383.705 70.9767 388.298 71.1297 392.879 71.0007C396.687 70.8927 399.998 68.1807 401.176 64.6187C402.391 60.9417 401.333 57.1247 398.378 54.5397C396.407 52.8167 394.085 52.0887 391.49 52.0907C385.142 52.0977 378.794 52.1297 372.447 52.0677C369.679 52.0417 367.258 50.6477 365.769 48.5437H372.156C372.651 48.6077 373.175 48.6427 373.754 48.6147C374.476 48.5817 375.202 48.6037 375.928 48.6037C381.405 48.6097 386.883 48.5927 392.358 48.6317C397.342 48.6687 401.687 51.4667 403.819 55.7287C404.373 54.6327 405.079 53.5927 405.967 52.6637C408.543 49.9647 411.666 48.5717 415.437 48.5947C421.723 48.6317 428.008 48.6187 434.293 48.5997C434.623 48.5997 434.914 48.5687 435.213 48.5437H442.123C440.693 50.7107 438.267 52.0697 435.424 52.0887Z" fill="#6F7857"/>
<path d="M867.534 52.0887C861.169 52.1337 854.804 52.1057 848.437 52.0907C845.391 52.0847 842.718 52.9887 840.642 55.2827C838.003 58.1977 837.443 61.5897 838.884 65.1697C840.332 68.7647 843.141 70.8407 847.044 71.0007C851.067 71.1617 855.099 71.0497 859.129 71.0547C863.22 71.0567 867.312 71.0587 871.403 71.0607C872.426 71.0607 873.255 71.8967 873.246 72.9217C873.238 73.9337 872.415 74.7507 871.403 74.7507C869.122 74.7527 866.841 74.7527 864.559 74.7527V74.7307C859.241 74.7307 853.923 74.7337 848.605 74.7307C845.378 74.7287 842.402 73.9337 839.77 71.9847C838.087 70.7397 836.821 69.1807 835.948 67.4637C834.928 69.4497 833.4 71.2047 831.384 72.5167C829.011 74.0617 826.393 74.6967 823.598 74.7157C817.881 74.7567 812.164 74.7917 806.448 74.8277C804.094 74.8127 801.739 74.7937 799.387 74.7767C798.353 74.7697 797.522 73.9317 797.522 72.9007C797.522 71.8667 798.356 71.0267 799.389 71.0197C803.353 70.9937 807.318 70.9707 811.284 70.9467C815.871 70.9767 820.461 71.1297 825.047 71.0007C828.853 70.8927 832.164 68.1807 833.34 64.6187C834.557 60.9417 833.499 57.1247 830.544 54.5397C828.571 52.8167 826.251 52.0887 823.656 52.0907C817.308 52.0977 810.96 52.1297 804.613 52.0677C801.845 52.0417 799.422 50.6477 797.933 48.5437H804.32C804.817 48.6077 805.341 48.6427 805.918 48.6147C806.642 48.5817 807.368 48.6037 808.094 48.6037C813.571 48.6097 819.046 48.5927 824.526 48.6317C829.487 48.6687 833.814 51.4447 835.955 55.6797C836.506 54.6007 837.204 53.5797 838.076 52.6637C840.653 49.9647 843.776 48.5717 847.547 48.5947C853.833 48.6317 860.118 48.6187 866.403 48.5997C866.733 48.5997 867.024 48.5687 867.323 48.5437H874.233C872.803 50.7107 870.375 52.0697 867.534 52.0887Z" fill="#6F7857"/>
<path d="M477.662 54.4507C477.666 55.4197 477.356 55.8187 476.335 55.7987C474.724 55.7707 474.636 55.7407 474.608 54.0287C474.597 53.4037 474.593 52.7767 474.584 52.1507C474.569 50.9057 474.44 49.7097 474.244 48.5447H478.017C477.697 50.4917 477.653 52.4757 477.662 54.4507Z" fill="#6F7857"/>
<path d="M613.87 86.8227C614.904 86.7907 615.701 87.8247 615.69 89.1877C615.679 90.5107 614.9 91.4927 613.818 91.5437C612.713 91.5977 611.794 90.5987 611.794 89.3497C611.796 88.0377 612.765 86.8577 613.87 86.8227Z" fill="#C49A6D"/>
<path d="M613.698 80.4897C614.868 80.4617 615.723 81.5177 615.691 82.9497C615.66 84.2827 614.874 85.2307 613.78 85.2547C612.61 85.2827 611.755 84.2247 611.787 82.7947C611.82 81.4567 612.6 80.5157 613.698 80.4897Z" fill="#C49A6D"/>
<path d="M613.729 78.9667C612.628 78.9607 611.829 78.0237 611.788 76.6917C611.739 75.1457 612.598 74.1637 613.99 74.1717C615.19 74.1807 615.65 74.7367 615.694 76.2337C615.741 77.8857 614.959 78.9757 613.729 78.9667Z" fill="#C49A6D"/>
<path d="M634.043 78.4827C634.149 79.7517 633.343 80.8307 632.232 80.9077C631.122 80.9877 630.23 80.0467 630.159 78.7237C630.088 77.3687 630.808 76.3717 631.941 76.2617C632.968 76.1627 633.935 77.1857 634.043 78.4827Z" fill="#C49A6D"/>
<path d="M632.04 69.9757C633.158 69.9267 634.032 70.8677 634.063 72.1577C634.097 73.5987 633.244 74.6547 632.066 74.6197C630.961 74.5897 630.188 73.6487 630.164 72.3047C630.14 70.9907 630.916 70.0257 632.04 69.9757Z" fill="#C49A6D"/>
<path d="M632.022 87.1967C630.999 87.1427 630.195 86.2187 630.172 85.0687C630.146 83.7997 630.958 82.5357 631.841 82.4687C632.998 82.3827 634.047 83.4687 634.064 84.7697C634.085 86.2147 633.207 87.2597 632.022 87.1967Z" fill="#C49A6D"/>
<path d="M619.752 76.5167C618.858 76.4907 618.091 75.4657 618.063 74.2577C618.031 72.9287 618.815 71.8387 619.817 71.8187C620.812 71.7997 621.88 72.9237 621.927 74.0417C621.973 75.0947 620.7 76.5447 619.752 76.5167Z" fill="#C49A6D"/>
<path d="M607.5 82.5567C608.469 82.5267 609.339 83.4567 609.413 84.5987C609.505 86.0467 608.728 87.1377 607.558 87.1967C606.552 87.2457 605.598 86.1757 605.546 84.9417C605.505 83.9487 606.623 82.5827 607.5 82.5567Z" fill="#C49A6D"/>
<path d="M607.767 89.1387C608.95 89.1857 609.417 89.7937 609.417 91.2837C609.415 92.6927 608.713 93.4957 607.491 93.4857C606.477 93.4787 605.548 92.3587 605.551 91.1437C605.551 89.9787 606.533 89.0897 607.767 89.1387Z" fill="#C49A6D"/>
<path d="M613.724 61.6257C614.833 61.6197 615.654 62.5757 615.688 63.9137C615.721 65.2857 614.812 66.3387 613.584 66.3517C612.617 66.3607 611.844 65.4277 611.788 64.1807C611.719 62.7027 612.531 61.6347 613.724 61.6257Z" fill="#C49A6D"/>
<path d="M607.323 76.2657C608.387 76.1607 609.326 77.1097 609.417 78.3857C609.529 79.9597 608.883 80.8537 607.588 80.9097C606.53 80.9547 605.656 80.1407 605.533 78.9987C605.393 77.6957 606.261 76.3717 607.323 76.2657Z" fill="#C49A6D"/>
<path d="M619.873 59.2027C620.905 59.1537 621.842 60.1617 621.93 61.4167C622.016 62.6367 620.98 63.9047 619.873 63.9327C618.986 63.9567 617.831 62.7117 617.766 61.6607C617.691 60.4367 618.701 59.2587 619.873 59.2027Z" fill="#C49A6D"/>
<path d="M605.546 72.3187C605.527 71.2547 606.823 69.8377 607.765 69.8957C608.725 69.9537 609.427 71.0307 609.417 72.4287C609.406 73.8327 608.717 74.6257 607.506 74.6277C606.5 74.6277 605.567 73.5297 605.546 72.3187Z" fill="#C49A6D"/>
<path d="M625.95 74.1967C627.023 74.2637 627.781 75.2397 627.787 76.5637C627.796 77.9167 627.005 78.9487 625.982 78.9247C624.961 78.8987 623.968 77.8087 623.925 76.6627C623.876 75.3467 624.873 74.1297 625.95 74.1967Z" fill="#C49A6D"/>
<path d="M626.061 72.7077C625.012 72.6687 623.892 71.3507 623.926 70.1897C623.963 68.9407 624.935 67.8417 625.949 67.9067C627.007 67.9717 628.133 69.3237 628.079 70.4677C628.017 71.8377 627.196 72.7487 626.061 72.7077Z" fill="#C49A6D"/>
<path d="M625.866 80.4867C626.971 80.5037 627.759 81.4537 627.788 82.7957C627.815 84.2457 626.945 85.3057 625.773 85.2517C624.787 85.2057 623.9 84.0407 623.925 82.8237C623.953 81.5747 624.869 80.4697 625.866 80.4867Z" fill="#C49A6D"/>
<path d="M632.224 88.8367C633.226 88.9187 634.083 90.0837 634.059 91.3377C634.038 92.5977 633.066 93.5907 631.957 93.4847C630.871 93.3837 630.128 92.3627 630.163 91.0207C630.195 89.7397 631.134 88.7467 632.224 88.8367Z" fill="#C49A6D"/>
<path d="M625.871 91.5417C624.861 91.5567 623.933 90.4347 623.92 89.1857C623.909 88.0217 624.872 86.8847 625.921 86.8207C626.827 86.7617 628.032 88.0097 628.088 89.0627C628.144 90.1697 626.931 91.5267 625.871 91.5417Z" fill="#C49A6D"/>
<path d="M613.774 67.9147C614.885 67.9407 615.665 68.8967 615.687 70.2587C615.711 71.7017 615.163 72.5977 614.218 72.6687C612.945 72.7637 611.846 71.6327 611.801 70.1827C611.762 68.9037 612.645 67.8867 613.774 67.9147Z" fill="#C49A6D"/>
<path d="M619.932 78.1137C620.977 78.1807 621.942 79.3217 621.933 80.4827C621.92 81.7327 620.994 82.8527 619.982 82.8397C618.924 82.8247 617.705 81.4637 617.767 80.3607C617.826 79.3007 619.025 78.0557 619.932 78.1137Z" fill="#C49A6D"/>
<path d="M619.875 70.2227C618.983 70.2487 617.837 69.0097 617.768 67.9507C617.689 66.7307 618.705 65.5427 619.871 65.4867C620.902 65.4367 621.837 66.4427 621.928 67.7027C622.016 68.9287 620.989 70.1907 619.875 70.2227Z" fill="#C49A6D"/>
<path d="M619.839 84.3817C620.935 84.3857 621.991 85.6337 621.933 86.8587C621.872 88.0997 620.94 89.1637 619.942 89.1247C618.816 89.0817 617.739 87.7177 617.778 86.3847C617.804 85.5537 619.012 84.3797 619.839 84.3817Z" fill="#C49A6D"/>
<path d="M619.88 90.6877C620.901 90.7137 621.892 91.8077 621.931 92.9517C621.976 94.2717 620.974 95.4847 619.899 95.4117C618.816 95.3357 618.067 94.3667 618.064 93.0397C618.064 91.6917 618.859 90.6617 619.88 90.6877Z" fill="#C49A6D"/>
<path d="M626.078 66.3607C625.094 66.3997 624.011 65.3117 623.922 64.1877C623.82 62.9317 624.808 61.6217 625.851 61.6287C626.956 61.6347 627.742 62.5567 627.787 63.8947C627.83 65.2237 627.07 66.3217 626.078 66.3607Z" fill="#C49A6D"/>
<path d="M611.788 95.4977C611.769 94.1367 612.505 93.1457 613.604 93.0617C614.694 92.9797 615.639 94.1167 615.678 95.5537C615.687 95.8577 615.635 96.1417 615.551 96.4047H611.935C611.846 96.1307 611.792 95.8277 611.788 95.4977Z" fill="#C49A6D"/>
<path d="M625.874 93.0647C626.992 93.0887 627.765 94.0237 627.789 95.3807C627.795 95.7527 627.742 96.0977 627.64 96.4057H624.116C623.987 96.0847 623.907 95.7397 623.916 95.3907C623.946 94.1507 624.877 93.0437 625.874 93.0647Z" fill="#C49A6D"/>
<path d="M775.888 87.1967C774.866 87.1427 774.063 86.2187 774.037 85.0687C774.011 83.7997 774.823 82.5357 775.707 82.4687C776.864 82.3827 777.912 83.4687 777.932 84.7697C777.951 86.2147 777.073 87.2597 775.888 87.1967Z" fill="#C49A6D"/>
<path d="M777.909 78.4827C778.015 79.7517 777.207 80.8307 776.098 80.9077C774.988 80.9877 774.096 80.0467 774.025 78.7237C773.952 77.3687 774.674 76.3717 775.807 76.2617C776.834 76.1627 777.801 77.1857 777.909 78.4827Z" fill="#C49A6D"/>
<path d="M775.906 69.9757C777.024 69.9267 777.898 70.8677 777.929 72.1577C777.963 73.5987 777.108 74.6547 775.932 74.6197C774.825 74.5897 774.054 73.6487 774.028 72.3047C774.004 70.9907 774.782 70.0257 775.906 69.9757Z" fill="#C49A6D"/>
<path d="M776.09 88.8367C777.094 88.9187 777.948 90.0837 777.927 91.3377C777.904 92.5977 776.932 93.5907 775.823 93.4847C774.739 93.3837 773.994 92.3627 774.029 91.0207C774.061 89.7397 774.998 88.7467 776.09 88.8367Z" fill="#C49A6D"/>
<path d="M751.366 82.5567C752.335 82.5267 753.205 83.4567 753.279 84.5987C753.371 86.0467 752.592 87.1377 751.424 87.1967C750.418 87.2457 749.464 86.1757 749.412 84.9417C749.371 83.9487 750.489 82.5827 751.366 82.5567Z" fill="#C49A6D"/>
<path d="M751.632 89.1387C752.814 89.1857 753.282 89.7937 753.282 91.2837C753.28 92.6927 752.58 93.4957 751.356 93.4857C750.342 93.4787 749.413 92.3587 749.416 91.1437C749.416 89.9787 750.398 89.0897 751.632 89.1387Z" fill="#C49A6D"/>
<path d="M757.64 67.9147C758.751 67.9407 759.531 68.8967 759.553 70.2587C759.576 71.7017 759.029 72.5977 758.084 72.6687C756.811 72.7637 755.712 71.6327 755.667 70.1827C755.628 68.9037 756.511 67.8867 757.64 67.9147Z" fill="#C49A6D"/>
<path d="M763.739 59.2027C764.771 59.1537 765.708 60.1617 765.796 61.4167C765.882 62.6367 764.844 63.9047 763.739 63.9327C762.852 63.9567 761.697 62.7117 761.632 61.6607C761.555 60.4367 762.565 59.2587 763.739 59.2027Z" fill="#C49A6D"/>
<path d="M757.59 61.6257C758.697 61.6197 759.52 62.5757 759.552 63.9137C759.587 65.2857 758.677 66.3387 757.448 66.3517C756.481 66.3607 755.71 65.4277 755.651 64.1807C755.585 62.7027 756.395 61.6347 757.59 61.6257Z" fill="#C49A6D"/>
<path d="M751.188 76.2657C752.252 76.1607 753.191 77.1097 753.282 78.3857C753.394 79.9597 752.748 80.8537 751.453 80.9097C750.395 80.9547 749.521 80.1407 749.398 78.9987C749.258 77.6957 750.126 76.3717 751.188 76.2657Z" fill="#C49A6D"/>
<path d="M749.411 72.3187C749.392 71.2547 750.69 69.8377 751.63 69.8957C752.59 69.9537 753.292 71.0307 753.282 72.4287C753.273 73.8327 752.584 74.6257 751.371 74.6277C750.365 74.6277 749.432 73.5297 749.411 72.3187Z" fill="#C49A6D"/>
<path d="M769.717 61.6287C770.822 61.6357 771.608 62.5567 771.653 63.8947C771.696 65.2237 770.936 66.3217 769.943 66.3607C768.957 66.3997 767.878 65.3097 767.787 64.1877C767.686 62.9317 768.672 61.6227 769.717 61.6287Z" fill="#C49A6D"/>
<path d="M769.814 67.9057C770.872 67.9727 771.996 69.3257 771.944 70.4687C771.882 71.8367 771.061 72.7477 769.926 72.7067C768.877 72.6707 767.757 71.3497 767.791 70.1887C767.826 68.9397 768.799 67.8437 769.814 67.9057Z" fill="#C49A6D"/>
<path d="M769.737 91.5417C768.727 91.5567 767.799 90.4347 767.786 89.1857C767.775 88.0217 768.735 86.8847 769.787 86.8207C770.691 86.7617 771.895 88.0097 771.951 89.0627C772.009 90.1697 770.797 91.5267 769.737 91.5417Z" fill="#C49A6D"/>
<path d="M769.732 80.4867C770.835 80.5037 771.625 81.4537 771.651 82.7957C771.679 84.2457 770.811 85.3057 769.637 85.2517C768.653 85.2057 767.763 84.0407 767.791 82.8237C767.817 81.5747 768.735 80.4697 769.732 80.4867Z" fill="#C49A6D"/>
<path d="M763.797 78.1137C764.842 78.1807 765.807 79.3217 765.798 80.4827C765.785 81.7327 764.859 82.8527 763.847 82.8397C762.789 82.8247 761.57 81.4637 761.632 80.3607C761.693 79.3007 762.89 78.0557 763.797 78.1137Z" fill="#C49A6D"/>
<path d="M769.815 74.1967C770.888 74.2637 771.646 75.2397 771.652 76.5637C771.661 77.9167 770.87 78.9487 769.847 78.9247C768.826 78.8987 767.833 77.8087 767.79 76.6627C767.741 75.3467 768.74 74.1297 769.815 74.1967Z" fill="#C49A6D"/>
<path d="M763.618 76.5167C762.724 76.4907 761.957 75.4657 761.928 74.2577C761.896 72.9287 762.681 71.8387 763.682 71.8187C764.677 71.7997 765.745 72.9237 765.793 74.0417C765.839 75.0947 764.566 76.5447 763.618 76.5167Z" fill="#C49A6D"/>
<path d="M763.74 70.2227C762.848 70.2487 761.7 69.0097 761.633 67.9507C761.556 66.7307 762.568 65.5427 763.736 65.4867C764.767 65.4367 765.702 66.4427 765.793 67.7027C765.881 68.9287 764.852 70.1907 763.74 70.2227Z" fill="#C49A6D"/>
<path d="M757.595 78.9667C756.494 78.9607 755.695 78.0237 755.654 76.6917C755.604 75.1457 756.464 74.1637 757.856 74.1717C759.055 74.1807 759.516 74.7367 759.559 76.2337C759.607 77.8857 758.825 78.9757 757.595 78.9667Z" fill="#C49A6D"/>
<path d="M757.564 80.4897C758.734 80.4617 759.589 81.5177 759.556 82.9497C759.526 84.2827 758.74 85.2307 757.646 85.2547C756.476 85.2827 755.619 84.2247 755.653 82.7947C755.686 81.4567 756.464 80.5157 757.564 80.4897Z" fill="#C49A6D"/>
<path d="M757.735 86.8227C758.769 86.7907 759.566 87.8247 759.555 89.1877C759.544 90.5107 758.765 91.4927 757.681 91.5437C756.578 91.5977 755.659 90.5987 755.659 89.3497C755.661 88.0377 756.63 86.8577 757.735 86.8227Z" fill="#C49A6D"/>
<path d="M763.745 90.6877C764.766 90.7137 765.757 91.8077 765.796 92.9517C765.841 94.2717 764.839 95.4847 763.764 95.4117C762.681 95.3357 761.934 94.3667 761.929 93.0397C761.929 91.6917 762.724 90.6617 763.745 90.6877Z" fill="#C49A6D"/>
<path d="M763.704 84.3817C764.8 84.3857 765.856 85.6337 765.798 86.8587C765.737 88.0997 764.805 89.1637 763.807 89.1247C762.681 89.0817 761.604 87.7177 761.643 86.3847C761.669 85.5537 762.877 84.3797 763.704 84.3817Z" fill="#C49A6D"/>
<path d="M769.74 93.0647C770.858 93.0887 771.629 94.0237 771.655 95.3807C771.661 95.7527 771.608 96.0977 771.504 96.4057H767.982C767.853 96.0847 767.773 95.7397 767.782 95.3907C767.81 94.1507 768.743 93.0437 769.74 93.0647Z" fill="#C49A6D"/>
<path d="M755.654 95.4977C755.635 94.1367 756.371 93.1457 757.47 93.0617C758.558 92.9797 759.505 94.1167 759.542 95.5537C759.55 95.8577 759.501 96.1417 759.415 96.4047H755.8C755.712 96.1307 755.658 95.8277 755.654 95.4977Z" fill="#C49A6D"/>
<path d="M294.628 77.5677C295.41 77.5567 296.315 77.3867 296.313 78.6597C296.306 80.1827 296.304 81.5717 296.304 82.9377C296.315 83.8657 296.31 84.7617 296.306 85.7007V86.2787H296.304C296.302 86.8167 296.302 87.3687 296.306 87.9627C296.319 89.4017 295.274 89.0997 294.441 89.1107C293.659 89.1217 292.752 89.2917 292.756 88.0207C292.763 86.4977 292.763 85.1087 292.763 83.7407C292.752 82.8147 292.758 81.9187 292.763 80.9797V80.3997H292.765C292.767 79.8637 292.767 79.3107 292.761 78.7157C292.748 77.2787 293.795 77.5787 294.628 77.5677Z" fill="#6F7857"/>
<path d="M262.568 77.5677C263.35 77.5567 264.257 77.3867 264.253 78.6597C264.246 80.1827 264.246 81.5717 264.246 82.9377C264.255 83.8657 264.25 84.7617 264.246 85.7007V86.2787H264.244C264.242 86.8167 264.242 87.3687 264.248 87.9627C264.261 89.4017 263.214 89.0997 262.381 89.1107C261.599 89.1217 260.692 89.2917 260.696 88.0207C260.703 86.4977 260.705 85.1087 260.705 83.7407C260.694 82.8147 260.698 81.9187 260.703 80.9797V80.3997H260.705C260.707 79.8637 260.707 79.3107 260.703 78.7157C260.69 77.2787 261.735 77.5787 262.568 77.5677Z" fill="#6F7857"/>
<path d="M286.612 77.5677C287.394 77.5567 288.301 77.3867 288.297 78.6597C288.29 80.1827 288.29 81.5717 288.29 82.9377C288.299 83.8657 288.294 84.7617 288.29 85.7007V86.2787H288.288C288.286 86.8167 288.286 87.3687 288.292 87.9627C288.305 89.4017 287.258 89.0997 286.425 89.1107C285.643 89.1217 284.736 89.2917 284.74 88.0207C284.747 86.4977 284.749 85.1087 284.749 83.7407C284.738 82.8147 284.742 81.9187 284.747 80.9797V80.3997H284.749C284.751 79.8637 284.751 79.3107 284.747 78.7157C284.734 77.2787 285.779 77.5787 286.612 77.5677Z" fill="#6F7857"/>
<path d="M254.976 77.5677C255.758 77.5567 256.663 77.3867 256.658 78.6597C256.654 80.1827 256.652 81.5717 256.652 82.9377C256.663 83.8657 256.658 84.7617 256.654 85.7007V86.2787H256.652C256.65 86.8167 256.65 87.3687 256.656 87.9627C256.667 89.4017 255.622 89.0997 254.789 89.1107C254.007 89.1217 253.1 89.2917 253.104 88.0207C253.111 86.4977 253.111 85.1087 253.111 83.7407C253.102 82.8147 253.106 81.9187 253.111 80.9797V80.3997H253.113C253.115 79.8637 253.115 79.3107 253.109 78.7157C253.096 77.2787 254.143 77.5787 254.976 77.5677Z" fill="#6F7857"/>
<path d="M230.932 77.5677C231.714 77.5567 232.619 77.3867 232.614 78.6597C232.61 80.1827 232.608 81.5717 232.608 82.9377C232.619 83.8657 232.614 84.7617 232.61 85.7007V86.2787H232.608C232.606 86.8167 232.606 87.3687 232.612 87.9627C232.623 89.4017 231.578 89.0997 230.745 89.1107C229.963 89.1217 229.056 89.2917 229.06 88.0207C229.067 86.4977 229.067 85.1087 229.067 83.7407C229.058 82.8147 229.062 81.9187 229.067 80.9797V80.3997H229.069C229.071 79.8637 229.071 79.3107 229.065 78.7157C229.052 77.2787 230.099 77.5787 230.932 77.5677Z" fill="#6F7857"/>
<path d="M238.946 77.5677C239.728 77.5567 240.635 77.3867 240.63 78.6597C240.624 80.1827 240.624 81.5717 240.624 82.9377C240.635 83.8657 240.628 84.7617 240.624 85.7007V86.2787H240.622C240.62 86.8167 240.62 87.3687 240.626 87.9627C240.639 89.4017 239.592 89.0997 238.759 89.1107C237.977 89.1217 237.07 89.2917 237.074 88.0207C237.081 86.4977 237.083 85.1087 237.083 83.7407C237.072 82.8147 237.076 81.9187 237.081 80.9797V80.3997H237.083C237.085 79.8637 237.085 79.3107 237.081 78.7157C237.068 77.2787 238.112 77.5787 238.946 77.5677Z" fill="#6F7857"/>
<path d="M246.962 77.5677C247.744 77.5567 248.649 77.3867 248.647 78.6597C248.64 80.1827 248.638 81.5717 248.638 82.9377C248.649 83.8657 248.644 84.7617 248.64 85.7007V86.2787H248.638C248.636 86.8167 248.636 87.3687 248.64 87.9627C248.653 89.4017 247.608 89.0997 246.775 89.1107C245.993 89.1217 245.086 89.2917 245.09 88.0207C245.097 86.4977 245.097 85.1087 245.097 83.7407C245.086 82.8147 245.092 81.9187 245.097 80.9797V80.3997H245.099C245.101 79.8637 245.101 79.3107 245.095 78.7157C245.082 77.2787 246.129 77.5787 246.962 77.5677Z" fill="#6F7857"/>
<path d="M270.583 77.5677C271.365 77.5567 272.27 77.3867 272.265 78.6597C272.261 80.1827 272.259 81.5717 272.259 82.9377C272.27 83.8657 272.265 84.7617 272.261 85.7007V86.2787H272.259C272.257 86.8167 272.257 87.3687 272.261 87.9627C272.274 89.4017 271.229 89.0997 270.396 89.1107C269.614 89.1217 268.707 89.2917 268.711 88.0207C268.718 86.4977 268.718 85.1087 268.718 83.7407C268.707 82.8147 268.713 81.9187 268.718 80.9797V80.3997H268.72C268.722 79.8637 268.722 79.3107 268.716 78.7157C268.703 77.2787 269.75 77.5787 270.583 77.5677Z" fill="#6F7857"/>
<path d="M306.048 91.0517C305.99 90.9437 305.77 90.9247 305.505 90.8107C305.617 92.7407 305.902 94.5997 306.326 96.4047H302.701C302.307 94.5177 302.063 92.5857 302.014 90.5887C301.893 85.5157 301.979 80.4367 301.994 75.3627C301.994 74.8367 301.744 74.1367 302.341 73.8397C302.994 73.5117 303.584 73.9817 304.097 74.3627C304.833 74.9077 305.316 75.6377 305.426 76.5747C305.518 77.3767 305.643 78.1757 305.691 78.9767C306.063 85.3097 308.624 90.5947 313.158 95.0047C313.634 95.4647 314.1 95.9387 314.573 96.4047H309.82C308.407 94.7567 307.112 93.0027 306.048 91.0517Z" fill="#6F7857"/>
<path d="M256.632 96.4047H221.049V92.6117H258.153C258.551 92.6117 258.928 92.6887 259.29 92.8037C259.652 92.6887 260.029 92.6117 260.427 92.6117H296.603V96.4047H261.946H256.632Z" fill="#6F7857"/>
<path d="M222.917 77.5677C223.699 77.5567 224.604 77.3867 224.601 78.6597C224.595 80.1827 224.593 81.5717 224.593 82.9377C224.604 83.8657 224.599 84.7617 224.595 85.7007V86.2787H224.593C224.591 86.8167 224.591 87.3687 224.595 87.9627C224.608 89.4017 223.563 89.0997 222.73 89.1107C221.948 89.1217 221.041 89.2917 221.045 88.0207C221.052 86.4977 221.052 85.1087 221.052 83.7407C221.041 82.8147 221.047 81.9187 221.052 80.9797V80.3997H221.054C221.056 79.8637 221.056 79.3107 221.05 78.7157C221.037 77.2787 222.084 77.5787 222.917 77.5677Z" fill="#6F7857"/>
<path d="M213.813 57.8397C214.201 58.2107 214.739 58.4987 214.836 59.2937C213.897 59.3607 212.939 59.3027 212.049 59.5237C210.707 59.8577 209.966 59.2437 209.238 58.2597C207.691 56.1707 206.414 53.9407 205.624 51.4707C205.32 50.5317 204.816 50.2017 203.873 50.2297C202.343 50.2797 200.808 50.1697 199.282 50.2647C197.29 50.3887 195.668 51.6147 195.209 53.1717C194.755 54.7187 196.049 56.4507 197.57 56.3367C198.376 56.2757 198.802 55.6517 199.351 55.1927C200.12 54.5487 200.956 54.4497 201.734 55.1987C202.498 55.9337 202.434 56.7717 201.925 57.6117C201.542 58.2407 201.008 58.7297 200.39 59.1277C196.823 61.4257 191.778 58.7077 191.528 54.3027C191.392 51.8817 192.213 49.9497 193.874 48.5437H208.501C209.434 52.1227 211.121 55.2637 213.813 57.8397Z" fill="#6F7857"/>
<path d="M229.269 56.1197C235.313 56.1647 241.357 56.1087 247.401 56.1997C250.778 56.2507 252.986 58.5327 252.922 61.6317C252.859 64.6197 250.669 66.6997 247.399 66.8487C246.514 66.8897 245.626 66.8317 244.741 66.8597C242.811 66.9197 240.874 66.7197 238.951 67.0037C233.323 66.6697 227.692 66.9347 222.064 66.8697C219.005 66.8357 215.94 66.7907 212.89 66.9647C210.915 67.0767 209.13 67.7017 207.628 68.6947H202.459C205.097 65.4117 209.19 63.2797 213.806 63.2667C224.362 63.2387 234.921 63.2777 245.478 63.2837C246.201 63.2837 246.929 63.2947 247.651 63.2387C248.696 63.1587 249.294 62.5237 249.299 61.5067C249.303 60.4707 248.64 59.8917 247.631 59.7797C246.994 59.7107 246.343 59.7237 245.699 59.7237C239.897 59.7277 234.096 59.7387 228.293 59.7447C220.561 59.7557 214.603 55.3097 212.617 48.5427H216.457C217.939 52.2707 220.782 54.7157 224.944 55.7987C226.32 56.1567 227.824 56.1087 229.269 56.1197Z" fill="#6F7857"/>
<path d="M210.968 82.5887C211.299 80.7777 211.429 78.9287 211.646 77.0987C211.903 74.9447 212.818 74.0657 214.961 73.9447C215.442 75.2567 214.909 76.6567 215.292 77.9797C215.148 78.3027 215.148 78.6257 215.289 78.9487C215.057 80.0747 215.091 81.2017 215.279 82.3307C215.118 82.8167 215.107 83.3017 215.302 83.7847C215.006 85.7057 215.122 87.6227 215.32 89.5417C215.245 90.0137 215.127 90.4847 215.104 90.9607C215.013 92.8397 214.76 94.6467 214.404 96.4067H210.846C211.138 95.1897 211.383 93.9557 211.541 92.6777C211.609 92.1267 211.552 91.5617 211.552 90.9917C210.779 90.9437 210.732 91.6417 210.459 92.0637C209.487 93.5827 208.429 95.0277 207.282 96.4067H202.597C203.234 95.7577 203.883 95.1207 204.521 94.4717C207.807 91.1337 210.115 87.2367 210.968 82.5887Z" fill="#6F7857"/>
<path d="M373.784 56.1197C379.828 56.1647 385.872 56.1087 391.916 56.1997C395.293 56.2507 397.501 58.5327 397.437 61.6317C397.374 64.6197 395.184 66.6997 391.916 66.8487C391.031 66.8897 390.141 66.8317 389.256 66.8597C387.326 66.9197 385.39 66.7197 383.466 67.0037C377.84 66.6697 372.207 66.9347 366.579 66.8697C363.521 66.8357 360.455 66.7907 357.405 66.9647C355.43 67.0767 353.645 67.7017 352.145 68.6947H346.976C349.612 65.4117 353.705 63.2797 358.321 63.2667C368.877 63.2387 379.436 63.2777 389.993 63.2837C390.719 63.2837 391.444 63.2947 392.166 63.2387C393.211 63.1587 393.809 62.5237 393.814 61.5067C393.818 60.4707 393.155 59.8917 392.147 59.7797C391.509 59.7107 390.858 59.7237 390.217 59.7237C384.412 59.7277 378.611 59.7387 372.808 59.7447C365.078 59.7557 359.118 55.3097 357.134 48.5427H360.975C362.454 52.2707 365.298 54.7157 369.459 55.7987C370.835 56.1567 372.339 56.1087 373.784 56.1197Z" fill="#6F7857"/>
<path d="M391.477 77.5677C392.259 77.5567 393.166 77.3867 393.161 78.6597C393.155 80.1827 393.153 81.5717 393.153 82.9377C393.164 83.8657 393.159 84.7617 393.155 85.7007V86.2787H393.153C393.151 86.8167 393.151 87.3687 393.157 87.9627C393.168 89.4017 392.123 89.0997 391.29 89.1107C390.506 89.1217 389.601 89.2917 389.605 88.0207C389.612 86.4977 389.612 85.1087 389.612 83.7407C389.603 82.8147 389.607 81.9187 389.612 80.9797V80.3997H389.614C389.616 79.8637 389.616 79.3107 389.61 78.7157C389.597 77.2787 390.644 77.5787 391.477 77.5677Z" fill="#6F7857"/>
<path d="M399.492 77.5677C400.274 77.5567 401.181 77.3867 401.177 78.6597C401.17 80.1827 401.17 81.5717 401.17 82.9377C401.179 83.8657 401.174 84.7617 401.17 85.7007V86.2787H401.168C401.166 86.8167 401.166 87.3687 401.172 87.9627C401.185 89.4017 400.138 89.0997 399.305 89.1107C398.523 89.1217 397.616 89.2917 397.62 88.0207C397.627 86.4977 397.627 85.1087 397.627 83.7407C397.618 82.8147 397.625 81.9187 397.627 80.9797V80.3997H397.629C397.631 79.8637 397.631 79.3107 397.627 78.7157C397.614 77.2787 398.659 77.5787 399.492 77.5677Z" fill="#6F7857"/>
<path d="M407.14 77.5677C407.922 77.5567 408.828 77.3867 408.825 78.6597C408.818 80.1827 408.818 81.5717 408.818 82.9377C408.828 83.8657 408.821 84.7617 408.818 85.7007V86.2787H408.815C408.813 86.8167 408.813 87.3687 408.82 87.9627C408.833 89.4017 407.786 89.0997 406.953 89.1107C406.17 89.1217 405.263 89.2917 405.268 88.0207C405.274 86.4977 405.276 85.1087 405.276 83.7407C405.266 82.8147 405.269 81.9187 405.274 80.9797V80.3997H405.276C405.279 79.8637 405.279 79.3107 405.274 78.7157C405.261 77.2787 406.307 77.5787 407.14 77.5677Z" fill="#6F7857"/>
<path d="M415.155 77.5677C415.937 77.5567 416.842 77.3867 416.84 78.6597C416.833 80.1827 416.831 81.5717 416.831 82.9377C416.842 83.8657 416.837 84.7617 416.833 85.7007V86.2787H416.831C416.829 86.8167 416.829 87.3687 416.833 87.9627C416.846 89.4017 415.801 89.0997 414.968 89.1107C414.186 89.1217 413.279 89.2917 413.283 88.0207C413.29 86.4977 413.29 85.1087 413.29 83.7407C413.279 82.8147 413.285 81.9187 413.29 80.9797V80.3997H413.292C413.294 79.8637 413.294 79.3107 413.288 78.7157C413.275 77.2787 414.322 77.5787 415.155 77.5677Z" fill="#6F7857"/>
<path d="M367.433 77.5677C368.215 77.5567 369.122 77.3867 369.118 78.6597C369.111 80.1827 369.109 81.5717 369.109 82.9377C369.12 83.8657 369.115 84.7617 369.111 85.7007V86.2787H369.109C369.107 86.8167 369.107 87.3687 369.113 87.9627C369.124 89.4017 368.079 89.0997 367.246 89.1107C366.464 89.1217 365.557 89.2917 365.561 88.0207C365.568 86.4977 365.57 85.1087 365.57 83.7407C365.559 82.8147 365.563 81.9187 365.568 80.9797V80.3997H365.57C365.572 79.8637 365.572 79.3107 365.566 78.7157C365.555 77.2787 366.6 77.5787 367.433 77.5677Z" fill="#6F7857"/>
<path d="M375.447 77.5677C376.229 77.5567 377.136 77.3867 377.132 78.6597C377.125 80.1827 377.125 81.5717 377.125 82.9377C377.134 83.8657 377.129 84.7617 377.125 85.7007V86.2787H377.123C377.121 86.8167 377.121 87.3687 377.127 87.9627C377.14 89.4017 376.093 89.0997 375.26 89.1107C374.478 89.1217 373.571 89.2917 373.575 88.0207C373.582 86.4977 373.582 85.1087 373.582 83.7407C373.573 82.8147 373.58 81.9187 373.582 80.9797V80.3997H373.584C373.586 79.8637 373.586 79.3107 373.582 78.7157C373.567 77.2787 374.614 77.5787 375.447 77.5677Z" fill="#6F7857"/>
<path d="M383.463 77.5677C384.245 77.5567 385.15 77.3867 385.145 78.6597C385.141 80.1827 385.139 81.5717 385.139 82.9377C385.15 83.8657 385.145 84.7617 385.141 85.7007V86.2787H385.139C385.137 86.8167 385.137 87.3687 385.143 87.9627C385.154 89.4017 384.107 89.0997 383.276 89.1107C382.494 89.1217 381.587 89.2917 381.591 88.0207C381.598 86.4977 381.598 85.1087 381.598 83.7407C381.587 82.8147 381.593 81.9187 381.598 80.9797V80.3997H381.6C381.602 79.8637 381.602 79.3107 381.596 78.7157C381.583 77.2787 382.629 77.5787 383.463 77.5677Z" fill="#6F7857"/>
<path d="M401.204 96.4047H365.563V92.6117H402.669C403.078 92.6117 403.464 92.6917 403.832 92.8117C404.202 92.6917 404.588 92.6117 404.997 92.6117H441.175V96.4047H406.462H401.204Z" fill="#6F7857"/>
<path d="M500.055 82.5887C500.387 80.7777 500.516 78.9287 500.733 77.0987C500.988 74.9447 501.905 74.0657 504.048 73.9447C504.527 75.2567 503.997 76.6567 504.38 77.9797C504.234 78.3027 504.236 78.6257 504.376 78.9487C504.145 80.0747 504.178 81.2017 504.365 82.3307C504.206 82.8167 504.195 83.3017 504.387 83.7847C504.092 85.7057 504.21 87.6227 504.408 89.5417C504.333 90.0137 504.212 90.4847 504.191 90.9607C504.1 92.8397 503.848 94.6467 503.488 96.4067H499.934C500.225 95.1897 500.471 93.9557 500.628 92.6777C500.697 92.1267 500.637 91.5617 500.637 90.9917C499.863 90.9437 499.818 91.6417 499.547 92.0637C498.573 93.5827 497.516 95.0277 496.37 96.4067H491.683C492.32 95.7577 492.969 95.1207 493.606 94.4717C496.895 91.1337 499.202 87.2367 500.055 82.5887Z" fill="#6F7857"/>
<path d="M518.356 56.1197C524.4 56.1647 530.443 56.1087 536.488 56.1997C539.865 56.2507 542.073 58.5327 542.009 61.6317C541.946 64.6197 539.755 66.6997 536.488 66.8487C535.603 66.8897 534.713 66.8317 533.828 66.8597C531.898 66.9197 529.962 66.7197 528.037 67.0037C522.411 66.6697 516.779 66.9347 511.151 66.8697C508.094 66.8357 505.026 66.7907 501.977 66.9647C500.002 67.0767 498.217 67.7017 496.717 68.6947H491.547C494.183 65.4117 498.276 63.2797 502.893 63.2667C513.448 63.2387 524.008 63.2777 534.565 63.2837C535.291 63.2837 536.016 63.2947 536.738 63.2387C537.782 63.1587 538.381 62.5237 538.385 61.5067C538.39 60.4707 537.727 59.8917 536.719 59.7797C536.081 59.7107 535.43 59.7237 534.789 59.7237C528.985 59.7277 523.182 59.7387 517.38 59.7447C509.65 59.7557 503.69 55.3097 501.706 48.5427H505.547C507.026 52.2707 509.87 54.7157 514.031 55.7987C515.406 56.1567 516.911 56.1087 518.356 56.1197Z" fill="#6F7857"/>
<path d="M476.144 59.2027C477.176 59.1537 478.113 60.1617 478.201 61.4167C478.287 62.6367 477.251 63.9047 476.144 63.9327C475.257 63.9567 474.102 62.7117 474.037 61.6607C473.962 60.4367 474.972 59.2587 476.144 59.2027Z" fill="#C49A6D"/>
<path d="M488.31 69.9757C489.428 69.9267 490.303 70.8677 490.333 72.1577C490.367 73.5987 489.514 74.6547 488.336 74.6197C487.231 74.5897 486.458 73.6487 486.434 72.3047C486.41 70.9907 487.186 70.0257 488.31 69.9757Z" fill="#C49A6D"/>
<path d="M490.314 78.4827C490.42 79.7517 489.614 80.8307 488.503 80.9077C487.393 80.9877 486.502 80.0467 486.431 78.7237C486.359 77.3687 487.079 76.3717 488.212 76.2617C489.239 76.1627 490.206 77.1857 490.314 78.4827Z" fill="#C49A6D"/>
<path d="M482.123 61.6287C483.228 61.6357 484.014 62.5567 484.06 63.8947C484.102 65.2237 483.342 66.3217 482.349 66.3607C481.363 66.3997 480.284 65.3097 480.193 64.1877C480.092 62.9317 481.078 61.6227 482.123 61.6287Z" fill="#C49A6D"/>
<path d="M476.145 70.2227C475.253 70.2487 474.107 69.0097 474.038 67.9507C473.959 66.7307 474.976 65.5427 476.141 65.4867C477.173 65.4367 478.107 66.4427 478.198 67.7027C478.286 68.9287 477.259 70.1907 476.145 70.2227Z" fill="#C49A6D"/>
<path d="M476.023 76.5167C475.129 76.4907 474.362 75.4657 474.334 74.2577C474.302 72.9287 475.086 71.8387 476.088 71.8187C477.083 71.7997 478.151 72.9237 478.198 74.0417C478.244 75.0947 476.971 76.5447 476.023 76.5167Z" fill="#C49A6D"/>
<path d="M463.593 76.2657C464.657 76.1607 465.596 77.1097 465.687 78.3857C465.799 79.9597 465.153 80.8537 463.856 80.9097C462.8 80.9547 461.926 80.1407 461.803 78.9987C461.663 77.6957 462.531 76.3717 463.593 76.2657Z" fill="#C49A6D"/>
<path d="M463.77 82.5567C464.739 82.5267 465.609 83.4567 465.683 84.5987C465.775 86.0467 464.998 87.1377 463.828 87.1967C462.822 87.2457 461.868 86.1757 461.816 84.9417C461.776 83.9487 462.893 82.5827 463.77 82.5567Z" fill="#C49A6D"/>
<path d="M464.038 89.1387C465.221 89.1857 465.688 89.7937 465.688 91.2837C465.686 92.6927 464.984 93.4957 463.762 93.4857C462.748 93.4787 461.819 92.3587 461.822 91.1437C461.822 89.9787 462.804 89.0897 464.038 89.1387Z" fill="#C49A6D"/>
<path d="M482.142 91.5417C481.132 91.5567 480.204 90.4347 480.193 89.1857C480.18 88.0217 481.143 86.8847 482.192 86.8207C483.098 86.7617 484.303 88.0097 484.358 89.0627C484.415 90.1697 483.202 91.5267 482.142 91.5417Z" fill="#C49A6D"/>
<path d="M476.202 78.1137C477.247 78.1807 478.212 79.3217 478.203 80.4827C478.19 81.7327 477.264 82.8527 476.252 82.8397C475.194 82.8247 473.975 81.4637 474.037 80.3607C474.095 79.3007 475.295 78.0557 476.202 78.1137Z" fill="#C49A6D"/>
<path d="M482.221 74.1967C483.291 74.2637 484.052 75.2397 484.058 76.5637C484.067 77.9167 483.277 78.9487 482.253 78.9247C481.232 78.8987 480.239 77.8087 480.196 76.6627C480.147 75.3467 481.144 74.1297 482.221 74.1967Z" fill="#C49A6D"/>
<path d="M482.22 67.9057C483.278 67.9727 484.402 69.3257 484.35 70.4687C484.288 71.8367 483.467 72.7477 482.332 72.7067C481.281 72.6707 480.163 71.3497 480.197 70.1887C480.232 68.9397 481.206 67.8437 482.22 67.9057Z" fill="#C49A6D"/>
<path d="M488.495 88.8367C489.497 88.9187 490.354 90.0837 490.33 91.3377C490.309 92.5977 489.337 93.5907 488.226 93.4847C487.142 93.3837 486.399 92.3627 486.434 91.0207C486.466 89.7397 487.405 88.7467 488.495 88.8367Z" fill="#C49A6D"/>
<path d="M482.137 80.4867C483.242 80.5037 484.03 81.4537 484.058 82.7957C484.086 84.2457 483.216 85.3057 482.044 85.2517C481.058 85.2057 480.171 84.0407 480.196 82.8237C480.224 81.5747 481.14 80.4697 482.137 80.4867Z" fill="#C49A6D"/>
<path d="M488.293 87.1967C487.27 87.1427 486.467 86.2187 486.443 85.0687C486.417 83.7997 487.229 82.5357 488.112 82.4687C489.269 82.3827 490.318 83.4687 490.335 84.7697C490.356 86.2147 489.478 87.2597 488.293 87.1967Z" fill="#C49A6D"/>
<path d="M461.816 72.3187C461.797 71.2547 463.093 69.8377 464.035 69.8957C464.995 69.9537 465.697 71.0307 465.687 72.4287C465.676 73.8327 464.987 74.6257 463.776 74.6277C462.77 74.6277 461.838 73.5297 461.816 72.3187Z" fill="#C49A6D"/>
<path d="M476.109 84.3817C477.205 84.3857 478.261 85.6337 478.203 86.8587C478.144 88.0997 477.21 89.1637 476.212 89.1247C475.086 89.0817 474.009 87.7177 474.048 86.3847C474.074 85.5537 475.282 84.3797 476.109 84.3817Z" fill="#C49A6D"/>
<path d="M476.15 90.6877C477.171 90.7137 478.162 91.8077 478.201 92.9517C478.246 94.2717 477.244 95.4847 476.169 95.4117C475.086 95.3357 474.336 94.3667 474.334 93.0397C474.334 91.6917 475.129 90.6617 476.15 90.6877Z" fill="#C49A6D"/>
<path d="M469.995 61.6257C471.102 61.6197 471.925 62.5757 471.957 63.9137C471.992 65.2857 471.083 66.3387 469.853 66.3517C468.886 66.3607 468.115 65.4277 468.057 64.1807C467.988 62.7027 468.8 61.6347 469.995 61.6257Z" fill="#C49A6D"/>
<path d="M482.144 93.0647C483.262 93.0887 484.035 94.0237 484.059 95.3807C484.065 95.7527 484.011 96.0977 483.91 96.4057H480.386C480.257 96.0847 480.178 95.7397 480.186 95.3907C480.214 94.1507 481.147 93.0437 482.144 93.0647Z" fill="#C49A6D"/>
<path d="M468.059 95.4977C468.04 94.1367 468.776 93.1457 469.877 93.0617C470.965 92.9797 471.91 94.1167 471.949 95.5537C471.956 95.8577 471.906 96.1417 471.822 96.4047H468.206C468.117 96.1307 468.063 95.8277 468.059 95.4977Z" fill="#C49A6D"/>
<path d="M469.968 80.4897C471.14 80.4617 471.993 81.5177 471.961 82.9497C471.93 84.2827 471.144 85.2307 470.05 85.2547C468.88 85.2827 468.025 84.2247 468.058 82.7947C468.09 81.4567 468.87 80.5157 469.968 80.4897Z" fill="#C49A6D"/>
<path d="M470 78.9667C468.899 78.9607 468.1 78.0237 468.059 76.6917C468.01 75.1457 468.869 74.1637 470.261 74.1717C471.46 74.1807 471.921 74.7367 471.964 76.2337C472.012 77.8857 471.23 78.9757 470 78.9667Z" fill="#C49A6D"/>
<path d="M470.045 67.9147C471.154 67.9407 471.936 68.8967 471.958 70.2587C471.981 71.7017 471.434 72.5977 470.487 72.6687C469.216 72.7637 468.115 71.6327 468.072 70.1827C468.033 68.9037 468.916 67.8867 470.045 67.9147Z" fill="#C49A6D"/>
<path d="M470.141 86.8227C471.175 86.7907 471.972 87.8247 471.961 89.1877C471.95 90.5107 471.171 91.4927 470.089 91.5437C468.984 91.5977 468.065 90.5987 468.065 89.3497C468.067 88.0377 469.036 86.8577 470.141 86.8227Z" fill="#C49A6D"/>
<path d="M450.62 91.0517C450.562 90.9437 450.342 90.9247 450.077 90.8107C450.189 92.7407 450.474 94.5997 450.898 96.4047H447.273C446.879 94.5177 446.635 92.5857 446.586 90.5887C446.465 85.5157 446.551 80.4367 446.566 75.3627C446.566 74.8367 446.319 74.1367 446.913 73.8397C447.566 73.5117 448.156 73.9817 448.669 74.3627C449.405 74.9077 449.888 75.6377 449.998 76.5747C450.09 77.3767 450.215 78.1757 450.263 78.9767C450.635 85.3097 453.196 90.5947 457.73 95.0047C458.206 95.4647 458.672 95.9387 459.145 96.4047H454.392C452.979 94.7567 451.684 93.0027 450.62 91.0517Z" fill="#6F7857"/>
<path d="M439.199 77.5677C439.981 77.5567 440.888 77.3867 440.884 78.6597C440.877 80.1827 440.875 81.5717 440.875 82.9377C440.886 83.8657 440.881 84.7617 440.877 85.7007V86.2787H440.875C440.873 86.8167 440.873 87.3687 440.879 87.9627C440.89 89.4017 439.845 89.0997 439.012 89.1107C438.23 89.1217 437.323 89.2917 437.327 88.0207C437.334 86.4977 437.334 85.1087 437.334 83.7407C437.323 82.8147 437.329 81.9187 437.334 80.9797V80.3997H437.336C437.338 79.8637 437.338 79.3107 437.332 78.7157C437.319 77.2787 438.366 77.5787 439.199 77.5677Z" fill="#6F7857"/>
<path d="M431.184 77.5677C431.966 77.5567 432.873 77.3867 432.868 78.6597C432.862 80.1827 432.862 81.5717 432.862 82.9377C432.871 83.8657 432.866 84.7617 432.862 85.7007V86.2787H432.86C432.858 86.8167 432.858 87.3687 432.864 87.9627C432.877 89.4017 431.83 89.0997 430.997 89.1107C430.215 89.1217 429.308 89.2917 429.312 88.0207C429.319 86.4977 429.319 85.1087 429.319 83.7407C429.31 82.8147 429.314 81.9187 429.319 80.9797V80.3997H429.321C429.323 79.8637 429.323 79.3107 429.319 78.7157C429.304 77.2787 430.351 77.5787 431.184 77.5677Z" fill="#6F7857"/>
<path d="M355.484 82.5887C355.816 80.7777 355.945 78.9287 356.163 77.0987C356.417 74.9447 357.334 74.0657 359.477 73.9447C359.958 75.2567 359.426 76.6567 359.809 77.9797C359.663 78.3027 359.665 78.6257 359.805 78.9487C359.575 80.0747 359.607 81.2017 359.794 82.3307C359.635 82.8167 359.624 83.3017 359.818 83.7847C359.521 85.7057 359.639 87.6227 359.837 89.5417C359.762 90.0137 359.641 90.4847 359.62 90.9607C359.529 92.8397 359.277 94.6467 358.918 96.4067H355.363C355.654 95.1897 355.9 93.9557 356.057 92.6777C356.126 92.1267 356.066 91.5617 356.066 90.9917C355.292 90.9437 355.247 91.6417 354.976 92.0637C354.002 93.5827 352.945 95.0277 351.799 96.4067H347.114C347.751 95.7577 348.398 95.1207 349.035 94.4717C352.324 91.1337 354.631 87.2367 355.484 82.5887Z" fill="#6F7857"/>
<path d="M423.17 77.5677C423.952 77.5567 424.857 77.3867 424.852 78.6597C424.848 80.1827 424.846 81.5717 424.846 82.9377C424.857 83.8657 424.852 84.7617 424.848 85.7007V86.2787H424.846C424.844 86.8167 424.844 87.3687 424.85 87.9627C424.861 89.4017 423.816 89.0997 422.983 89.1107C422.201 89.1217 421.294 89.2917 421.298 88.0207C421.305 86.4977 421.305 85.1087 421.305 83.7407C421.296 82.8147 421.3 81.9187 421.305 80.9797V80.3997H421.307C421.309 79.8637 421.309 79.3107 421.303 78.7157C421.29 77.2787 422.336 77.5787 423.17 77.5677Z" fill="#6F7857"/>
<path d="M290.912 59.7217C284.868 59.7777 278.822 59.7327 272.778 59.7367C272.134 59.7367 271.479 59.7007 270.848 59.8037C269.855 59.9677 269.239 60.5817 269.31 61.6307C269.372 62.5457 269.946 63.1117 270.859 63.2027C271.658 63.2827 272.468 63.2627 273.275 63.2627C283.591 63.2697 293.906 63.2827 304.224 63.2587C306.022 63.2547 307.749 63.5317 309.447 64.0817C312.26 64.9927 314.616 66.7457 316.314 68.9747L311.383 69.0027C309.611 67.6247 307.461 66.9097 304.941 66.9007C299.459 66.8767 293.979 66.8947 288.497 66.8947V66.8817C283.097 66.8817 277.698 66.8837 272.298 66.8797C271.415 66.8797 270.531 66.9097 269.657 66.6787C266.665 65.8947 264.972 62.8667 265.896 59.9157C266.68 57.4187 268.586 56.1507 271.69 56.1417C277.736 56.1267 283.78 56.1417 289.824 56.1377C291.276 56.1377 292.723 56.1057 294.136 55.6917C297.938 54.5807 300.728 51.9907 302.126 48.5427H305.988C303.916 55.2027 298.044 59.6547 290.912 59.7217Z" fill="#6F7857"/>
<path d="M358.328 57.8397C358.716 58.2107 359.254 58.4987 359.353 59.2937C358.412 59.3607 357.454 59.3027 356.564 59.5237C355.222 59.8577 354.483 59.2437 353.753 58.2597C352.206 56.1707 350.931 53.9407 350.139 51.4707C349.835 50.5317 349.331 50.2017 348.388 50.2297C346.858 50.2797 345.323 50.1697 343.797 50.2647C341.807 50.3887 340.183 51.6147 339.726 53.1717C339.272 54.7187 340.564 56.4507 342.087 56.3367C342.891 56.2757 343.317 55.6517 343.869 55.1927C344.638 54.5487 345.471 54.4497 346.251 55.1987C347.013 55.9337 346.949 56.7717 346.44 57.6117C346.059 58.2407 345.523 58.7297 344.907 59.1277C341.338 61.4257 336.293 58.7077 336.045 54.3027C335.907 51.8817 336.728 49.9497 338.389 48.5437H353.016C353.949 52.1227 355.636 55.2637 358.328 57.8397Z" fill="#6F7857"/>
<path d="M326.958 54.8477C326.622 57.2237 325.185 58.7677 322.986 59.5947C320.587 60.4977 317.735 59.5477 316.623 57.5427C316.053 56.5067 316.19 55.5347 317.035 54.9857C318.052 54.3267 318.799 54.8217 319.596 55.5257C320.791 56.5777 321.577 56.5797 322.555 55.7547C323.553 54.9147 323.766 53.6887 323.079 52.4887C322.245 51.0287 320.88 50.3787 319.279 50.2797C317.754 50.1867 316.218 50.2947 314.691 50.2207C313.711 50.1737 313.229 50.5847 312.953 51.4767C312.352 53.4107 311.342 55.1447 310.31 56.8807C309.156 58.8217 307.812 60.1857 305.304 59.4097C304.861 59.2717 304.354 59.3347 303.876 59.3047C303.794 59.1617 303.71 59.0217 303.626 58.8817C306.961 56.1117 309.018 52.6037 310.088 48.5427H324.664C326.637 49.9987 327.318 52.2957 326.958 54.8477Z" fill="#6F7857"/>
<path d="M331.538 84.3817C332.634 84.3857 333.69 85.6337 333.632 86.8587C333.574 88.0997 332.639 89.1637 331.642 89.1247C330.515 89.0817 329.438 87.7177 329.477 86.3847C329.503 85.5537 330.711 84.3797 331.538 84.3817Z" fill="#C49A6D"/>
<path d="M331.579 90.6877C332.6 90.7137 333.591 91.8077 333.63 92.9517C333.675 94.2717 332.673 95.4847 331.598 95.4117C330.515 95.3357 329.765 94.3667 329.763 93.0397C329.763 91.6917 330.556 90.6617 331.579 90.6877Z" fill="#C49A6D"/>
<path d="M323.487 95.4977C323.468 94.1367 324.204 93.1457 325.303 93.0617C326.393 92.9797 327.338 94.1167 327.377 95.5537C327.384 95.8577 327.334 96.1417 327.25 96.4047H323.634C323.545 96.1307 323.491 95.8277 323.487 95.4977Z" fill="#C49A6D"/>
<path d="M337.573 93.0647C338.691 93.0887 339.464 94.0237 339.488 95.3807C339.494 95.7527 339.44 96.0977 339.339 96.4057H335.815C335.686 96.0847 335.607 95.7397 335.615 95.3907C335.643 94.1507 336.576 93.0437 337.573 93.0647Z" fill="#C49A6D"/>
<path d="M319.022 76.2657C320.086 76.1607 321.025 77.1097 321.116 78.3857C321.228 79.9597 320.582 80.8537 319.285 80.9097C318.229 80.9547 317.355 80.1407 317.232 78.9987C317.092 77.6957 317.96 76.3717 319.022 76.2657Z" fill="#C49A6D"/>
<path d="M325.424 61.6257C326.531 61.6197 327.354 62.5757 327.385 63.9137C327.42 65.2857 326.511 66.3387 325.281 66.3517C324.315 66.3607 323.544 65.4277 323.485 64.1807C323.417 62.7027 324.229 61.6347 325.424 61.6257Z" fill="#C49A6D"/>
<path d="M325.429 78.9667C324.328 78.9607 323.529 78.0237 323.488 76.6917C323.439 75.1457 324.298 74.1637 325.69 74.1717C326.89 74.1807 327.35 74.7367 327.394 76.2337C327.441 77.8857 326.659 78.9757 325.429 78.9667Z" fill="#C49A6D"/>
<path d="M325.473 67.9147C326.585 67.9407 327.364 68.8967 327.386 70.2587C327.41 71.7017 326.862 72.5977 325.917 72.6687C324.644 72.7637 323.545 71.6327 323.5 70.1827C323.461 68.9037 324.344 67.8867 325.473 67.9147Z" fill="#C49A6D"/>
<path d="M317.244 72.3187C317.225 71.2547 318.524 69.8377 319.465 69.8957C320.423 69.9537 321.125 71.0307 321.117 72.4287C321.106 73.8327 320.417 74.6257 319.204 74.6277C318.198 74.6277 317.266 73.5297 317.244 72.3187Z" fill="#C49A6D"/>
<path d="M325.569 86.8227C326.603 86.7907 327.4 87.8247 327.389 89.1877C327.378 90.5107 326.599 91.4927 325.517 91.5437C324.412 91.5977 323.493 90.5987 323.493 89.3497C323.495 88.0377 324.464 86.8577 325.569 86.8227Z" fill="#C49A6D"/>
<path d="M325.396 80.4897C326.566 80.4617 327.421 81.5177 327.388 82.9497C327.358 84.2827 326.572 85.2307 325.478 85.2547C324.308 85.2827 323.453 84.2247 323.485 82.7947C323.518 81.4567 324.298 80.5157 325.396 80.4897Z" fill="#C49A6D"/>
<path d="M319.466 89.1387C320.649 89.1857 321.116 89.7937 321.116 91.2837C321.114 92.6927 320.412 93.4957 319.19 93.4857C318.176 93.4787 317.247 92.3587 317.25 91.1437C317.25 89.9787 318.232 89.0897 319.466 89.1387Z" fill="#C49A6D"/>
<path d="M331.451 76.5167C330.557 76.4907 329.79 75.4657 329.762 74.2577C329.73 72.9287 330.514 71.8387 331.516 71.8187C332.511 71.7997 333.579 72.9237 333.627 74.0417C333.672 75.0947 332.399 76.5447 331.451 76.5167Z" fill="#C49A6D"/>
<path d="M331.572 59.2027C332.604 59.1537 333.541 60.1617 333.629 61.4167C333.715 62.6367 332.677 63.9047 331.572 63.9327C330.685 63.9567 329.53 62.7117 329.466 61.6607C329.39 60.4367 330.4 59.2587 331.572 59.2027Z" fill="#C49A6D"/>
<path d="M331.574 70.2227C330.682 70.2487 329.536 69.0097 329.468 67.9507C329.388 66.7307 330.405 65.5427 331.57 65.4867C332.602 65.4367 333.536 66.4427 333.627 67.7027C333.715 68.9287 332.688 70.1907 331.574 70.2227Z" fill="#C49A6D"/>
<path d="M331.631 78.1137C332.676 78.1807 333.641 79.3217 333.632 80.4827C333.621 81.7327 332.693 82.8527 331.681 82.8397C330.623 82.8247 329.404 81.4637 329.466 80.3607C329.524 79.3007 330.724 78.0557 331.631 78.1137Z" fill="#C49A6D"/>
<path d="M319.199 82.5567C320.168 82.5267 321.038 83.4567 321.112 84.5987C321.204 86.0467 320.427 87.1377 319.257 87.1967C318.251 87.2457 317.297 86.1757 317.245 84.9417C317.204 83.9487 318.322 82.5827 319.199 82.5567Z" fill="#C49A6D"/>
<path d="M345.742 78.4827C345.848 79.7517 345.042 80.8307 343.931 80.9077C342.821 80.9877 341.93 80.0467 341.858 78.7237C341.787 77.3687 342.507 76.3717 343.64 76.2617C344.667 76.1627 345.634 77.1857 345.742 78.4827Z" fill="#C49A6D"/>
<path d="M337.649 74.1967C338.72 74.2637 339.48 75.2397 339.486 76.5637C339.495 77.9167 338.705 78.9487 337.681 78.9247C336.66 78.8987 335.667 77.8087 335.624 76.6627C335.575 75.3467 336.572 74.1297 337.649 74.1967Z" fill="#C49A6D"/>
<path d="M343.721 87.1967C342.698 87.1427 341.895 86.2187 341.871 85.0687C341.845 83.7997 342.657 82.5357 343.54 82.4687C344.697 82.3827 345.746 83.4687 345.763 84.7697C345.785 86.2147 344.906 87.2597 343.721 87.1967Z" fill="#C49A6D"/>
<path d="M343.923 88.8367C344.925 88.9187 345.782 90.0837 345.758 91.3377C345.737 92.5977 344.765 93.5907 343.654 93.4847C342.57 93.3837 341.827 92.3627 341.862 91.0207C341.894 89.7397 342.831 88.7467 343.923 88.8367Z" fill="#C49A6D"/>
<path d="M343.739 69.9757C344.857 69.9267 345.731 70.8677 345.762 72.1577C345.796 73.5987 344.943 74.6547 343.765 74.6197C342.66 74.5897 341.887 73.6487 341.863 72.3047C341.839 70.9907 342.615 70.0257 343.739 69.9757Z" fill="#C49A6D"/>
<path d="M337.648 67.9057C338.706 67.9727 339.83 69.3257 339.778 70.4687C339.716 71.8367 338.895 72.7477 337.76 72.7067C336.709 72.6707 335.591 71.3497 335.626 70.1887C335.66 68.9397 336.634 67.8437 337.648 67.9057Z" fill="#C49A6D"/>
<path d="M337.57 91.5417C336.56 91.5567 335.632 90.4347 335.621 89.1857C335.608 88.0217 336.571 86.8847 337.62 86.8207C338.526 86.7617 339.731 88.0097 339.786 89.0627C339.843 90.1697 338.63 91.5267 337.57 91.5417Z" fill="#C49A6D"/>
<path d="M337.551 61.6287C338.656 61.6357 339.442 62.5567 339.488 63.8947C339.531 65.2237 338.77 66.3217 337.777 66.3607C336.791 66.3997 335.712 65.3097 335.621 64.1877C335.52 62.9317 336.506 61.6227 337.551 61.6287Z" fill="#C49A6D"/>
<path d="M337.565 80.4867C338.67 80.5037 339.458 81.4537 339.486 82.7957C339.514 84.2457 338.644 85.3057 337.472 85.2517C336.486 85.2057 335.599 84.0407 335.624 82.8237C335.652 81.5747 336.568 80.4697 337.565 80.4867Z" fill="#C49A6D"/>
<path d="M278.598 77.5677C279.38 77.5567 280.285 77.3867 280.28 78.6597C280.276 80.1827 280.274 81.5717 280.274 82.9377C280.285 83.8657 280.28 84.7617 280.276 85.7007V86.2787H280.274C280.272 86.8167 280.272 87.3687 280.278 87.9627C280.289 89.4017 279.244 89.0997 278.411 89.1107C277.627 89.1217 276.722 89.2917 276.726 88.0207C276.733 86.4977 276.733 85.1087 276.733 83.7407C276.724 82.8147 276.728 81.9187 276.733 80.9797V80.3997H276.735C276.737 79.8637 276.737 79.3107 276.731 78.7157C276.718 77.2787 277.765 77.5787 278.598 77.5677Z" fill="#6F7857"/>
<path d="M201.227 78.4827C201.333 79.7517 200.527 80.8307 199.416 80.9077C198.306 80.9877 197.415 80.0467 197.343 78.7237C197.27 77.3687 197.992 76.3717 199.125 76.2617C200.152 76.1627 201.119 77.1857 201.227 78.4827Z" fill="#C49A6D"/>
<path d="M199.223 69.9757C200.341 69.9267 201.215 70.8677 201.246 72.1577C201.28 73.5987 200.425 74.6547 199.249 74.6197C198.142 74.5897 197.371 73.6487 197.347 72.3047C197.321 70.9907 198.099 70.0257 199.223 69.9757Z" fill="#C49A6D"/>
<path d="M199.205 87.1967C198.184 87.1427 197.381 86.2187 197.355 85.0687C197.329 83.7997 198.141 82.5357 199.026 82.4687C200.181 82.3827 201.23 83.4687 201.249 84.7697C201.269 86.2147 200.39 87.2597 199.205 87.1967Z" fill="#C49A6D"/>
<path d="M199.407 88.8367C200.411 88.9187 201.266 90.0837 201.244 91.3377C201.221 92.5977 200.249 93.5907 199.14 93.4847C198.057 93.3837 197.313 92.3627 197.346 91.0207C197.378 89.7397 198.317 88.7467 199.407 88.8367Z" fill="#C49A6D"/>
</g>
</g>
</svg>
