<svg width="526" height="94" viewBox="0 0 526 94" fill="none" xmlns="http://www.w3.org/2000/svg">
<mask id="mask0_97_61810" style="mask-type:alpha" maskUnits="userSpaceOnUse" x="0" y="0" width="570" height="94">
<rect y="0.975586" width="570" height="93" fill="white"/>
</mask>
<g mask="url(#mask0_97_61810)">
<mask id="mask1_97_61810" style="mask-type:alpha" maskUnits="userSpaceOnUse" x="-398" y="6" width="2794" height="76">
<rect x="-397.959" y="6.69897" width="2793.31" height="74.8461" fill="#D9D9D9"/>
</mask>
<g mask="url(#mask1_97_61810)">
<path d="M1757.21 35.1926H183.509C173.651 35.1926 164.615 40.1425 160.077 48.0309L144.647 74.838H1757.21V35.1926Z" fill="#2E3A2B"/>
<path d="M138.935 75.9094C139.586 75.9094 140.219 75.5674 140.561 74.96L154.17 50.7508C160.367 39.7302 172.071 32.8844 184.715 32.8844H1756.67C1757.7 32.8844 1758.54 32.0497 1758.54 31.0213C1758.54 29.9921 1757.7 29.1582 1756.67 29.1582H184.715C170.727 29.1582 157.778 36.7321 150.923 48.9242L137.311 73.1327C136.808 74.0307 137.126 75.1664 138.022 75.6702C138.311 75.8319 138.625 75.9094 138.935 75.9094Z" fill="#C49A6D"/>
<path d="M125.699 75.9103C126.35 75.9103 126.983 75.5682 127.324 74.9608L151.633 31.7249C152.138 30.8276 151.82 29.6911 150.923 29.1881C150.026 28.6836 148.889 29.0018 148.386 29.8983L124.077 73.1335C123.572 74.0315 123.89 75.1673 124.787 75.6711C125.076 75.8328 125.39 75.9103 125.699 75.9103Z" fill="#C49A6D"/>
<path d="M112.465 75.9103C113.116 75.9103 113.749 75.5682 114.09 74.9609L138.4 31.7249C138.904 30.8277 138.586 29.6912 137.69 29.1881C136.792 28.6814 135.655 29.0018 135.152 29.8983L110.842 73.1335C110.338 74.0315 110.656 75.1673 111.552 75.6711C111.842 75.8335 112.155 75.9103 112.465 75.9103Z" fill="#C49A6D"/>
<path d="M99.2292 75.9103C99.8805 75.9103 100.513 75.5682 100.855 74.9609L125.164 31.7249C125.669 30.8277 125.351 29.6912 124.454 29.1881C123.556 28.6814 122.42 29.0018 121.917 29.8983L97.6068 73.1335C97.1023 74.0315 97.4205 75.1673 98.317 75.6711C98.6062 75.8335 98.9199 75.9103 99.2292 75.9103Z" fill="#C49A6D"/>
<path d="M48.3862 79.2632C48.3862 78.0425 49.3722 77.0491 50.5929 77.0417C55.2819 77.0111 59.9702 76.9813 64.6593 76.953C70.0854 76.9902 75.5144 77.1706 80.9354 77.0186C85.4389 76.8904 89.3521 73.6844 90.745 69.4708C92.1818 65.1208 90.932 60.6076 87.4369 57.5514C85.1057 55.5116 82.3603 54.6524 79.2914 54.6553C71.7845 54.6621 64.2769 54.7008 56.7709 54.6278C51.4156 54.5749 47.1126 50.2279 47.044 44.8726C47.003 41.7329 47.0194 38.5924 47.0165 35.4527C47.0105 28.1188 47.1051 31.0722 46.9732 23.7412C46.8756 18.3427 43.2917 13.837 38.2188 12.2645C33.2272 10.7174 27.9532 12.3897 24.6756 16.5757C22.068 19.904 21.644 23.6622 22.5569 27.6657C22.6418 28.0346 22.8311 28.3759 22.9429 28.7396C23.4988 30.5535 23.1814 31.6535 21.9808 32.1334C20.7549 32.6215 19.5759 32.0015 18.9521 30.3098C16.817 24.5178 17.487 19.0224 21.1916 14.0814C24.8329 9.2217 29.8848 6.93753 35.8974 7.50988C44.8113 8.36094 50.9714 15.1747 51.2606 24.1347C51.35 26.8944 51.2889 29.6585 51.2867 32.4196C51.2829 39.5627 51.2487 36.4178 51.274 43.5609C51.2926 48.5816 53.7467 50.7562 58.3166 50.5453C59.1706 50.5058 60.0299 50.5312 60.8869 50.5327C67.3638 50.5401 73.8414 50.5178 80.3191 50.5647C87.205 50.6154 93.091 55.1047 94.9325 61.6345C96.8038 68.2724 94.2267 75.0414 88.431 78.8109C85.6222 80.6367 82.5272 81.3879 79.2228 81.4125C72.4619 81.4617 65.7026 81.5005 58.9418 81.5452C56.1583 81.5265 53.3741 81.5042 50.5906 81.4833C49.3706 81.4751 48.3862 80.4839 48.3862 79.2632Z" fill="#C49A6D"/>
<path d="M40.0665 67.8729C52.5516 67.8394 65.0366 67.8856 77.5209 67.8923C78.3779 67.8938 79.2386 67.9065 80.092 67.8394C81.3276 67.744 82.0355 66.9935 82.0408 65.7929C82.0452 64.567 81.2612 63.8807 80.0681 63.7495C79.3139 63.666 78.5463 63.6832 77.7854 63.6832C70.9225 63.6876 64.0611 63.6988 57.1996 63.7078C45.948 63.7227 37.871 55.756 37.8181 44.5178C37.7749 35.0838 37.8092 35.9371 37.7995 26.5038C37.7995 25.5536 37.839 24.5848 37.678 23.6555C37.3889 21.9869 36.0698 20.9309 34.4899 20.9383C33.0173 20.9443 31.8726 21.8811 31.4434 23.4588C31.3696 23.73 31.4113 24.0326 31.3464 24.3083C30.9664 25.9344 30.1295 26.6961 28.917 26.5433C27.5979 26.3764 26.8824 25.2324 27.0226 23.5139C27.4525 18.2324 33.4473 15.0025 38.0991 17.5572C41.0122 19.1557 42.0369 21.7223 42.0213 24.941C41.9706 34.4697 42.0116 33.7096 41.9982 43.2375C41.9952 44.7682 42.0213 46.2989 42.3566 47.7879C43.6973 53.7342 47.3781 57.5148 53.2372 59.0396C54.8678 59.4636 56.6429 59.407 58.3533 59.4204C65.5009 59.4748 72.65 59.407 79.7969 59.5143C83.7884 59.5746 86.4012 62.2732 86.3237 65.939C86.2499 69.4722 83.6617 71.9337 79.7946 72.1081C78.7483 72.1566 77.6968 72.0873 76.6497 72.1208C74.3677 72.1916 72.0784 71.9546 69.8024 72.2915C63.1489 71.898 56.4894 72.2102 49.8322 72.1342C46.2162 72.0932 42.5907 72.0411 38.9844 72.2445C36.6473 72.3779 34.5353 73.1164 32.7624 74.2902H26.6484C29.7688 70.409 34.6076 67.8878 40.0665 67.8729Z" fill="#C49A6D"/>
<path d="M95.8604 26.9346C98.114 30.742 98.1252 34.7462 96.122 38.6215C94.2447 42.2523 91.0156 43.8389 85.4889 43.8747C83.4417 43.9164 80.4548 42.6629 78.073 40.065C76.7748 38.646 75.9311 36.9394 75.285 35.13C74.074 31.7354 71.5088 29.9692 68.0801 29.4118C63.935 28.7395 60.378 29.8351 57.6191 33.1618C56.6518 34.3274 56.0898 34.2178 55.3729 32.892C54.5479 31.3658 54.811 29.8567 56.1905 28.5085C57.511 27.2185 59.152 26.477 60.8496 25.8182C66.7818 23.5147 76.5176 25.3673 79.4167 33.9115C79.749 34.8878 80.2416 35.8514 80.8505 36.6831C82.7635 39.2951 86.2453 40.3109 89.2598 39.2437C91.9449 38.2943 93.4682 35.6845 93.2602 32.3957C93.1246 30.2822 92.0172 28.8282 90.0356 28.165C88.4162 27.6232 86.6753 28.0584 85.9203 29.1934C85.1542 30.3448 85.3733 31.134 87.0025 32.734C87.8356 33.5538 88.2269 34.4295 87.6076 35.5235C87.0517 36.5057 85.8652 36.8232 84.5864 36.2337C82.6048 35.323 81.5816 33.6716 81.3044 31.5513C80.8601 28.1642 82.5891 25.3509 85.8123 24.1533C89.1354 22.9207 94.2745 24.2554 95.8604 26.9346Z" fill="#C49A6D"/>
<path d="M13.7228 57.271C13.5127 53.5701 15.1738 50.8261 18.4521 49.159C19.5051 48.6254 19.9463 48.1104 19.4112 46.9859C19.2085 46.5603 19.0662 46.0916 18.9798 45.628C18.0527 40.6528 21.9995 36.2812 26.8517 36.9139C28.7514 37.1614 30.2761 38.0773 31.2606 39.7354C31.783 40.617 31.7883 41.5881 31.0556 42.3848C30.5183 42.969 29.7955 43.3208 28.9972 42.9534C28.4935 42.7216 28.0076 42.3728 27.6216 41.9734C26.6751 40.9956 25.6668 40.9002 24.5452 41.6008C23.364 42.3386 22.8848 43.6725 23.2806 45.0691C23.794 46.8823 25.2167 48.0844 27.2318 48.2483C28.4622 48.3467 29.7068 48.2669 30.9461 48.2751C33.2101 48.2923 33.228 48.2901 33.7869 50.4416C34.8899 54.682 36.8864 58.4007 40.076 61.4533C40.5343 61.8922 41.1708 62.232 41.2863 63.1725C40.1736 63.2523 39.0401 63.183 37.9894 63.4438C36.402 63.8388 35.5278 63.1144 34.6664 61.9488C32.8368 59.4791 31.3269 56.8432 30.3901 53.9211C30.0339 52.8092 29.4347 52.4194 28.3198 52.4537C26.5112 52.5118 24.6957 52.3829 22.8923 52.4962C20.5365 52.6423 18.6183 54.0918 18.0765 55.9333C17.5392 57.7613 19.0669 59.81 20.8682 59.6744C21.8183 59.6043 22.3229 58.8658 22.9742 58.3225C23.8842 57.5609 24.8716 57.4431 25.7912 58.3292C26.6945 59.1989 26.6192 60.1886 26.0171 61.182C25.5662 61.9265 24.9312 62.5048 24.2024 62.9758C19.9821 65.6937 14.0164 62.4787 13.7228 57.271Z" fill="#C49A6D"/>
<path d="M76.9098 17.3596C77.8398 16.1084 77.8831 14.5173 78.4532 13.1214C79.1224 11.4789 80.2545 10.4564 82.0356 10.25C83.1855 10.1174 83.5715 10.5548 83.2533 11.7397C82.7092 13.7586 82.0691 15.7506 81.49 17.7591C81.2314 18.6541 80.9379 19.45 81.6987 20.4062C82.8114 21.8042 80.9789 22.2439 80.4803 23.1047C80.0257 23.8902 79.3751 23.8231 78.5643 23.3037C72.6471 19.5186 66.2059 19.3449 59.5867 20.7587C57.0417 21.3027 56.684 21.1313 56.1124 18.631C55.976 18.0385 55.8881 17.4848 56.5103 17.1368C57.4731 16.5987 57.5298 15.5941 57.8003 14.7043C58.2721 13.1587 58.6976 11.5996 59.1805 10.0577C59.5621 8.84448 60.1948 7.78624 61.4095 7.23178C62.2718 6.83829 63.26 6.34867 64.0797 7.0641C64.7736 7.67073 64.0655 8.49645 63.8994 9.18282C63.5432 10.6577 63.0162 12.0915 62.6049 13.5544C62.4119 14.2408 61.9886 14.9398 62.5006 15.7514C63.9225 15.7514 65.3467 15.694 66.7611 15.77C67.8484 15.8281 68.2836 15.261 68.5452 14.3488C68.9648 12.8867 69.3434 11.4081 69.8702 9.98396C70.4851 8.32803 71.7446 7.37934 73.5279 7.23402C74.4468 7.16024 75.0258 7.45312 74.6822 8.55607C74.3171 9.73728 74.0138 10.9371 73.6576 12.1198C72.3601 16.4243 72.3564 16.4228 76.9098 17.3596Z" fill="#C49A6D"/>
<path d="M73.2319 40.8371C73.2751 37.0073 70.0989 33.7222 66.234 33.5985C62.2321 33.4688 58.9337 36.6779 58.8867 40.7417C58.8412 44.7898 61.9735 48.0353 65.9642 48.0748C69.9983 48.1151 73.1864 44.9411 73.2319 40.8371ZM62.8455 40.729C62.9192 38.9255 64.4179 37.5066 66.1796 37.5729C67.9071 37.6385 69.3261 39.1834 69.2977 40.9697C69.2701 42.6838 67.6932 44.1631 65.939 44.1221C64.1884 44.0818 62.7716 42.528 62.8455 40.729Z" fill="#C49A6D"/>
</g>
<mask id="mask2_97_61810" style="mask-type:alpha" maskUnits="userSpaceOnUse" x="149" y="38" width="1609" height="35">
<path d="M183.154 38.0146C174.54 38.0146 166.645 42.34 162.679 49.2328L149.197 72.6565H1757.36V38.0146H183.154Z" fill="black"/>
</mask>
<g mask="url(#mask2_97_61810)">
<path d="M538.868 45.4014C534.364 45.4431 529.858 45.4096 525.354 45.4125C524.874 45.4125 524.386 45.3857 523.915 45.4625C523.175 45.5847 522.716 46.0423 522.769 46.824C522.815 47.5059 523.242 47.9277 523.923 47.9956C524.519 48.0552 525.123 48.0403 525.724 48.0403C533.412 48.0455 541.099 48.0552 548.788 48.0373C550.127 48.0343 551.415 48.2407 552.681 48.6506C554.777 49.3295 556.533 50.6359 557.798 52.2971L554.124 52.318C552.802 51.291 551.202 50.7582 549.323 50.7515C545.237 50.7336 541.153 50.747 537.068 50.747V50.7373C533.044 50.7373 529.02 50.7388 524.995 50.7358C524.337 50.7358 523.679 50.7582 523.028 50.586C520.798 50.0017 519.536 47.7452 520.225 45.5459C520.809 43.6851 522.231 42.7401 524.543 42.7334C529.048 42.7222 533.553 42.7334 538.058 42.7304C539.139 42.7304 540.217 42.7066 541.27 42.398C544.104 41.5701 546.183 39.6399 547.225 37.0703H550.103C548.558 42.0336 544.183 45.3514 538.868 45.4014Z" fill="#6F7857"/>
<path d="M399.24 58.7011C399.822 58.6929 400.498 58.5663 400.494 59.515C400.49 60.6499 400.49 61.6851 400.49 62.7031C400.497 63.3947 400.493 64.0624 400.49 64.7622V65.1929H400.488C400.487 65.5939 400.487 66.0053 400.491 66.4479C400.501 67.5203 399.722 67.2953 399.1 67.3035C398.517 67.3117 397.841 67.4384 397.844 66.4912C397.849 65.3562 397.849 64.321 397.849 63.3015C397.843 62.6114 397.846 61.9437 397.849 61.2439V60.8117H397.851C397.853 60.4122 397.853 60.0001 397.849 59.5567C397.839 58.4858 398.619 58.7093 399.24 58.7011Z" fill="#6F7857"/>
<path d="M393.206 58.7011C393.788 58.6929 394.463 58.5663 394.461 59.515C394.456 60.6499 394.455 61.6851 394.455 62.7031C394.463 63.3947 394.459 64.0624 394.456 64.7622V65.1929H394.455C394.453 65.5939 394.453 66.0053 394.456 66.4479C394.466 67.5203 393.687 67.2953 393.066 67.3035C392.483 67.3117 391.808 67.4384 391.811 66.4912C391.816 65.3562 391.816 64.321 391.816 63.3015C391.808 62.6114 391.812 61.9437 391.816 61.2439V60.8117H391.817C391.819 60.4122 391.819 60.0001 391.814 59.5567C391.804 58.4858 392.585 58.7093 393.206 58.7011Z" fill="#6F7857"/>
<path d="M387.232 58.7011C387.815 58.6929 388.491 58.5663 388.487 59.515C388.483 60.6499 388.483 61.6851 388.483 62.7031C388.489 63.3947 388.485 64.0624 388.483 64.7622V65.1929H388.481C388.48 65.5939 388.48 66.0053 388.484 66.4479C388.494 67.5203 387.713 67.2953 387.093 67.3035C386.51 67.3117 385.834 67.4384 385.837 66.4912C385.842 65.3562 385.844 64.321 385.844 63.3015C385.835 62.6114 385.838 61.9437 385.842 61.2439V60.8117H385.844C385.845 60.4122 385.845 60.0001 385.842 59.5567C385.832 58.4858 386.611 58.7093 387.232 58.7011Z" fill="#6F7857"/>
<path d="M405.151 58.7011C405.734 58.6929 406.41 58.5663 406.407 59.515C406.402 60.6499 406.402 61.6851 406.402 62.7031C406.41 63.3947 406.405 64.0624 406.402 64.7622V65.1929H406.4C406.399 65.5939 406.399 66.0053 406.403 66.4479C406.413 67.5203 405.633 67.2953 405.012 67.3035C404.429 67.3117 403.753 67.4384 403.756 66.4912C403.761 65.3562 403.763 64.321 403.763 63.3015C403.755 62.6114 403.758 61.9437 403.761 61.2439V60.8117H403.763C403.765 60.4122 403.765 60.0001 403.761 59.5567C403.752 58.4858 404.531 58.7093 405.151 58.7011Z" fill="#6F7857"/>
<path d="M410.899 58.7011C411.482 58.6929 412.156 58.5663 412.153 59.515C412.15 60.6499 412.148 61.6851 412.148 62.7031C412.156 63.3947 412.153 64.0624 412.15 64.7622V65.1929H412.148C412.146 65.5939 412.146 66.0053 412.151 66.4479C412.159 67.5203 411.381 67.2953 410.76 67.3035C410.177 67.3117 409.501 67.4384 409.504 66.4912C409.509 65.3562 409.509 64.321 409.509 63.3015C409.501 62.6114 409.505 61.9437 409.509 61.2439V60.8117H409.511C409.512 60.4122 409.512 60.0001 409.508 59.5567C409.498 58.4858 410.278 58.7093 410.899 58.7011Z" fill="#6F7857"/>
<path d="M381.567 58.7011C382.149 58.6929 382.825 58.5663 382.821 59.515C382.817 60.6499 382.816 61.6851 382.816 62.7031C382.824 63.3947 382.82 64.0624 382.817 64.7622V65.1929H382.816C382.814 65.5939 382.814 66.0053 382.818 66.4479C382.827 67.5203 382.049 67.2953 381.428 67.3035C380.843 67.3117 380.168 67.4384 380.171 66.4912C380.177 65.3562 380.177 64.321 380.177 63.3015C380.17 62.6114 380.173 61.9437 380.177 61.2439V60.8117H380.178C380.18 60.4122 380.18 60.0001 380.175 59.5567C380.166 58.4858 380.946 58.7093 381.567 58.7011Z" fill="#6F7857"/>
<path d="M406.107 72.7393H380.174V69.9126H407.826C408.015 69.9126 408.202 69.932 408.38 69.967C408.559 69.932 408.744 69.9126 408.933 69.9126H435.895V72.7393H410.653H406.107Z" fill="#6F7857"/>
<path d="M442.933 68.7498C442.89 68.6693 442.726 68.6552 442.529 68.5702C442.612 70.0085 442.825 71.3939 443.141 72.7391H440.439C440.146 71.3328 439.964 69.893 439.927 68.4048C439.837 64.6242 439.901 60.8391 439.912 57.0577C439.912 56.6657 439.726 56.144 440.171 55.9227C440.657 55.6783 441.097 56.0285 441.479 56.3125C442.028 56.7186 442.388 57.2627 442.47 57.961C442.538 58.5586 442.632 59.1541 442.667 59.751C442.945 64.4706 444.853 68.4092 448.232 71.6958C448.587 72.0386 448.934 72.3918 449.287 72.7391H445.745C444.692 71.5109 443.726 70.2038 442.933 68.7498Z" fill="#6F7857"/>
<path d="M422.477 58.7011C423.059 58.6929 423.734 58.5663 423.73 59.515C423.727 60.6499 423.726 61.6851 423.726 62.7031C423.734 63.3947 423.73 64.0624 423.727 64.7622V65.1929H423.726C423.724 65.5939 423.724 66.0053 423.729 66.4479C423.737 67.5203 422.957 67.2953 422.337 67.3035C421.753 67.3117 421.079 67.4384 421.082 66.4912C421.087 65.3562 421.087 64.321 421.087 63.3015C421.079 62.6114 421.083 61.9437 421.087 61.2439V60.8117H421.088C421.09 60.4122 421.09 60.0001 421.085 59.5567C421.076 58.4858 421.856 58.7093 422.477 58.7011Z" fill="#6F7857"/>
<path d="M434.423 58.7011C435.006 58.6929 435.68 58.5663 435.676 59.515C435.673 60.6499 435.672 61.6851 435.672 62.7031C435.68 63.3947 435.676 64.0624 435.673 64.7622V65.1929H435.672C435.671 65.5939 435.671 66.0053 435.673 66.4479C435.683 67.5203 434.904 67.2953 434.284 67.3035C433.701 67.3117 433.025 67.4384 433.028 66.4912C433.033 65.3562 433.033 64.321 433.033 63.3015C433.025 62.6114 433.029 61.9437 433.033 61.2439V60.8117H433.035C433.036 60.4122 433.036 60.0001 433.032 59.5567C433.022 58.4858 433.802 58.7093 434.423 58.7011Z" fill="#6F7857"/>
<path d="M416.504 58.7011C417.086 58.6929 417.761 58.5663 417.757 59.515C417.754 60.6499 417.753 61.6851 417.753 62.7031C417.761 63.3947 417.757 64.0624 417.754 64.7622V65.1929H417.753C417.751 65.5939 417.751 66.0053 417.754 66.4479C417.764 67.5203 416.985 67.2953 416.364 67.3035C415.781 67.3117 415.105 67.4384 415.108 66.4912C415.114 65.3562 415.114 64.321 415.114 63.3015C415.105 62.6114 415.11 61.9437 415.114 61.2439V60.8117H415.115C415.117 60.4122 415.117 60.0001 415.112 59.5567C415.103 58.4858 415.883 58.7093 416.504 58.7011Z" fill="#6F7857"/>
<path d="M428.449 58.7011C429.032 58.6929 429.708 58.5663 429.704 59.515C429.699 60.6499 429.698 61.6851 429.698 62.7031C429.706 63.3947 429.702 64.0624 429.699 64.7622V65.1929H429.698C429.696 65.5939 429.696 66.0053 429.701 66.4479C429.71 67.5203 428.93 67.2953 428.309 67.3035C427.727 67.3117 427.051 67.4384 427.054 66.4912C427.059 65.3562 427.06 64.321 427.06 63.3015C427.052 62.6114 427.055 61.9437 427.059 61.2439V60.8117H427.06C427.062 60.4122 427.062 60.0001 427.059 59.5567C427.049 58.4858 427.828 58.7093 428.449 58.7011Z" fill="#6F7857"/>
<path d="M324.54 45.4014C320.036 45.4431 315.53 45.4096 311.026 45.4125C310.546 45.4125 310.058 45.3857 309.588 45.4625C308.848 45.5847 308.388 46.0423 308.441 46.824C308.488 47.5059 308.915 47.9277 309.596 47.9956C310.191 48.0552 310.795 48.0403 311.396 48.0403C319.084 48.0455 326.771 48.0552 334.461 48.0373C335.801 48.0343 337.088 48.2407 338.353 48.6506C340.449 49.3295 342.205 50.6359 343.471 52.2971L339.797 52.318C338.475 51.291 336.873 50.7582 334.995 50.7515C330.91 50.7336 326.826 50.747 322.741 50.747V50.7373C318.716 50.7373 314.692 50.7388 310.668 50.7358C310.01 50.7358 309.351 50.7582 308.7 50.586C306.47 50.0017 305.209 47.7452 305.897 45.5459C306.481 43.6851 307.902 42.7401 310.215 42.7334C314.721 42.7222 319.225 42.7334 323.731 42.7304C324.811 42.7304 325.89 42.7066 326.943 42.398C329.776 41.5701 331.855 39.6399 332.897 37.0703H335.775C334.231 42.0336 329.855 45.3514 324.54 45.4014Z" fill="#6F7857"/>
<path d="M351.404 41.7691C351.153 43.5398 350.082 44.6904 348.443 45.3067C346.656 45.9797 344.53 45.2717 343.702 43.7775C343.277 43.0054 343.379 42.281 344.009 41.8719C344.766 41.3808 345.323 41.7497 345.917 42.2743C346.808 43.0583 347.393 43.0598 348.122 42.445C348.866 41.819 349.025 40.9053 348.513 40.011C347.891 38.923 346.874 38.4386 345.681 38.3648C344.544 38.2955 343.4 38.376 342.262 38.3208C341.531 38.2858 341.172 38.5921 340.966 39.2568C340.519 40.6981 339.766 41.9904 338.997 43.2841C338.137 44.7306 337.135 45.7472 335.266 45.1688C334.936 45.066 334.558 45.113 334.202 45.0906C334.141 44.984 334.078 44.8797 334.016 44.7754C336.501 42.711 338.034 40.0967 338.831 37.0703H349.694C351.164 38.1554 351.672 39.8672 351.404 41.7691Z" fill="#6F7857"/>
<path d="M374.782 43.9991C375.071 44.2755 375.472 44.4902 375.546 45.0826C374.844 45.1326 374.131 45.0893 373.467 45.254C372.467 45.503 371.917 45.0454 371.372 44.3121C370.219 42.7552 369.269 41.0934 368.679 39.2526C368.453 38.5528 368.077 38.3069 367.373 38.3278C366.234 38.365 365.089 38.2831 363.953 38.3539C362.47 38.4463 361.26 39.3599 360.919 40.5203C360.581 41.6732 361.543 42.9639 362.678 42.879C363.278 42.8335 363.595 42.3685 364.006 42.0264C364.58 41.5465 365.2 41.4727 365.782 42.0309C366.349 42.5786 366.302 43.2031 365.922 43.8291C365.639 44.2979 365.239 44.6623 364.78 44.9589C362.12 46.6715 358.36 44.6459 358.176 41.3631C358.073 39.5589 358.685 38.1191 359.923 37.0713H370.823C371.519 39.7385 372.775 42.0793 374.782 43.9991Z" fill="#6F7857"/>
<path d="M494.652 58.7011C495.235 58.6929 495.911 58.5663 495.907 59.515C495.903 60.6499 495.903 61.6851 495.903 62.7031C495.91 63.3947 495.906 64.0624 495.903 64.7622V65.1929H495.901C495.9 65.5939 495.9 66.0053 495.904 66.4479C495.914 67.5203 495.134 67.2953 494.513 67.3035C493.93 67.3117 493.254 67.4384 493.257 66.4912C493.263 65.3562 493.263 64.321 493.263 63.3015C493.256 62.6114 493.259 61.9437 493.263 61.2439V60.8117H493.264C493.266 60.4122 493.266 60.0001 493.263 59.5567C493.251 58.4858 494.031 58.7093 494.652 58.7011Z" fill="#6F7857"/>
<path d="M488.68 58.7011C489.263 58.6929 489.938 58.5663 489.935 59.515C489.931 60.6499 489.929 61.6851 489.929 62.7031C489.938 63.3947 489.934 64.0624 489.931 64.7622V65.1929H489.929C489.928 65.5939 489.928 66.0053 489.932 66.4479C489.94 67.5203 489.162 67.2953 488.541 67.3035C487.958 67.3117 487.282 67.4384 487.285 66.4912C487.29 65.3562 487.29 64.321 487.29 63.3015C487.282 62.6114 487.287 61.9437 487.29 61.2439V60.8117H487.292C487.293 60.4122 487.293 60.0001 487.289 59.5567C487.279 58.4858 488.059 58.7093 488.68 58.7011Z" fill="#6F7857"/>
<path d="M500.626 58.7011C501.209 58.6929 501.883 58.5663 501.879 59.515C501.877 60.6499 501.875 61.6851 501.875 62.7031C501.883 63.3947 501.879 64.0624 501.877 64.7622V65.1929H501.875C501.874 65.5939 501.874 66.0053 501.877 66.4479C501.886 67.5203 501.108 67.2953 500.487 67.3035C499.903 67.3117 499.227 67.4384 499.23 66.4912C499.236 65.3562 499.236 64.321 499.236 63.3015C499.227 62.6114 499.232 61.9437 499.236 61.2439V60.8117H499.238C499.239 60.4122 499.239 60.0001 499.234 59.5567C499.225 58.4858 500.006 58.7093 500.626 58.7011Z" fill="#6F7857"/>
<path d="M512.571 58.7011C513.154 58.6929 513.829 58.5663 513.826 59.515C513.821 60.6499 513.821 61.6851 513.821 62.7031C513.828 63.3947 513.824 64.0624 513.821 64.7622V65.1929H513.82C513.818 65.5939 513.818 66.0053 513.823 66.4479C513.833 67.5203 513.052 67.2953 512.432 67.3035C511.849 67.3117 511.173 67.4384 511.176 66.4912C511.181 65.3562 511.181 64.321 511.181 63.3015C511.174 62.6114 511.177 61.9437 511.181 61.2439V60.8117H511.183C511.184 60.4122 511.184 60.0001 511.181 59.5567C511.17 58.4858 511.949 58.7093 512.571 58.7011Z" fill="#6F7857"/>
<path d="M506.599 58.7011C507.182 58.6929 507.856 58.5663 507.854 59.515C507.849 60.6499 507.848 61.6851 507.848 62.7031C507.856 63.3947 507.852 64.0624 507.849 64.7622V65.1929H507.848C507.846 65.5939 507.846 66.0053 507.851 66.4479C507.859 67.5203 507.08 67.2953 506.459 67.3035C505.877 67.3117 505.201 67.4384 505.204 66.4912C505.209 65.3562 505.209 64.321 505.209 63.3015C505.201 62.6114 505.205 61.9437 505.209 61.2439V60.8117H505.21C505.212 60.4122 505.212 60.0001 505.207 59.5567C505.198 58.4858 505.978 58.7093 506.599 58.7011Z" fill="#6F7857"/>
<path d="M479.775 62.4428C480.023 61.0932 480.119 59.7153 480.281 58.3515C480.471 56.7462 481.154 56.0911 482.751 56.001C483.108 56.9787 482.713 58.0221 482.998 59.008C482.89 59.2487 482.891 59.4894 482.995 59.7302C482.823 60.5693 482.848 61.4092 482.987 62.2506C482.869 62.6128 482.861 62.9742 483.005 63.3342C482.783 64.7658 482.872 66.1944 483.019 67.6245C482.964 67.9763 482.873 68.3273 482.858 68.682C482.79 70.0823 482.602 71.429 482.334 72.7406H479.685C479.902 71.8336 480.085 70.914 480.202 69.9616C480.254 69.551 480.209 69.1299 480.209 68.7051C479.632 68.6693 479.599 69.1895 479.397 69.504C478.671 70.636 477.882 71.7129 477.029 72.7406H473.536C474.012 72.2569 474.494 71.7822 474.969 71.2986C477.42 68.8109 479.14 65.9067 479.775 62.4428Z" fill="#6F7857"/>
<path d="M493.413 42.717C497.917 42.7505 502.422 42.7088 506.926 42.7766C509.442 42.8146 511.088 44.5153 511.04 46.8248C510.993 49.0516 509.361 50.6017 506.926 50.7127C506.266 50.7433 505.603 50.7 504.943 50.7209C503.505 50.7656 502.062 50.6166 500.628 50.8282C496.436 50.5793 492.238 50.7768 488.044 50.7284C485.766 50.703 483.48 50.6695 481.207 50.7992C479.735 50.8826 478.404 51.3484 477.287 52.0884H473.433C475.399 49.6418 478.449 48.0529 481.889 48.0432C489.756 48.0224 497.625 48.0514 505.492 48.0559C506.033 48.0559 506.574 48.0641 507.112 48.0224C507.891 47.9628 508.336 47.4895 508.34 46.7316C508.343 45.9596 507.848 45.5281 507.097 45.4446C506.622 45.3932 506.137 45.4029 505.659 45.4029C501.335 45.4058 497.01 45.414 492.686 45.4185C486.925 45.4267 482.483 42.1134 481.005 37.0703H483.866C484.971 39.8486 487.088 41.6707 490.19 42.4778C491.215 42.7446 492.336 42.7088 493.413 42.717Z" fill="#6F7857"/>
<path d="M513.322 72.7393H487.287V69.9126H514.939C515.147 69.9126 515.349 69.9379 515.543 69.9797C515.739 69.9379 515.94 69.9126 516.148 69.9126H543.11V72.7393H517.766H513.322Z" fill="#6F7857"/>
<path d="M517.745 58.7011C518.328 58.6929 519.002 58.5663 518.999 59.515C518.996 60.6499 518.994 61.6851 518.994 62.7031C519.002 63.3947 518.999 64.0624 518.996 64.7622V65.1929H518.994C518.993 65.5939 518.993 66.0053 518.996 66.4479C519.005 67.5203 518.227 67.2953 517.606 67.3035C517.023 67.3117 516.347 67.4384 516.35 66.4912C516.355 65.3562 516.355 64.321 516.355 63.3015C516.347 62.6114 516.352 61.9437 516.355 61.2439V60.8117H516.357C516.358 60.4122 516.358 60.0001 516.354 59.5567C516.344 58.4858 517.124 58.7093 517.745 58.7011Z" fill="#6F7857"/>
<path d="M523.719 58.7011C524.301 58.6929 524.975 58.5663 524.973 59.515C524.968 60.6499 524.967 61.6851 524.967 62.7031C524.975 63.3947 524.971 64.0624 524.968 64.7622V65.1929H524.967C524.965 65.5939 524.965 66.0053 524.97 66.4479C524.978 67.5203 524.2 67.2953 523.579 67.3035C522.996 67.3117 522.32 67.4384 522.323 66.4912C522.328 65.3562 522.328 64.321 522.328 63.3015C522.32 62.6114 522.324 61.9437 522.328 61.2439V60.8117H522.329C522.331 60.4122 522.331 60.0001 522.327 59.5567C522.318 58.4858 523.098 58.7093 523.719 58.7011Z" fill="#6F7857"/>
<path d="M458.517 41.7691C458.266 43.5398 457.195 44.6904 455.556 45.3067C453.768 45.9797 451.643 45.2717 450.814 43.7775C450.388 43.0054 450.491 42.281 451.121 41.8719C451.88 41.3808 452.436 41.7497 453.03 42.2743C453.921 43.0583 454.508 43.0598 455.236 42.445C455.979 41.819 456.138 40.9053 455.626 40.011C455.005 38.923 453.988 38.4386 452.794 38.3648C451.657 38.2955 450.513 38.376 449.375 38.3208C448.644 38.2858 448.286 38.5921 448.08 39.2568C447.631 40.6981 446.879 41.9904 446.11 43.2841C445.25 44.7306 444.248 45.7472 442.379 45.1688C442.049 45.066 441.672 45.113 441.315 45.0906C441.254 44.984 441.191 44.8797 441.128 44.7754C443.614 42.711 445.147 40.0967 445.944 37.0703H456.807C458.276 38.1554 458.785 39.8672 458.517 41.7691Z" fill="#6F7857"/>
<path d="M431.653 45.4014C427.149 45.4431 422.643 45.4096 418.139 45.4125C417.659 45.4125 417.171 45.3857 416.7 45.4625C415.96 45.5847 415.501 46.0423 415.554 46.824C415.6 47.5059 416.027 47.9277 416.709 47.9956C417.304 48.0552 417.908 48.0403 418.509 48.0403C426.197 48.0455 433.884 48.0552 441.574 48.0373C442.912 48.0343 444.201 48.2407 445.466 48.6506C447.562 49.3295 449.318 50.6359 450.584 52.2971L446.909 52.318C445.587 51.291 443.986 50.7582 442.108 50.7515C438.022 50.7336 433.939 50.747 429.853 50.747V50.7373C425.829 50.7373 421.805 50.7388 417.781 50.7358C417.122 50.7358 416.464 50.7582 415.813 50.586C413.583 50.0017 412.321 47.7452 413.01 45.5459C413.593 43.6851 415.015 42.7401 417.328 42.7334C421.834 42.7222 426.338 42.7334 430.844 42.7304C431.924 42.7304 433.002 42.7066 434.056 42.398C436.889 41.5701 438.968 39.6399 440.01 37.0703H442.886C441.344 42.0336 436.968 45.3514 431.653 45.4014Z" fill="#6F7857"/>
<path d="M481.895 43.9991C482.184 44.2755 482.585 44.4902 482.659 45.0826C481.957 45.1326 481.243 45.0893 480.58 45.254C479.58 45.503 479.028 45.0454 478.485 44.3121C477.333 42.7552 476.382 41.0934 475.792 39.2526C475.565 38.5528 475.19 38.3069 474.487 38.3278C473.347 38.365 472.203 38.2831 471.066 38.3539C469.582 38.4463 468.372 39.3599 468.032 40.5203C467.693 41.6732 468.656 42.9639 469.791 42.879C470.39 42.8335 470.708 42.3685 471.119 42.0264C471.692 41.5465 472.313 41.4727 472.894 42.0309C473.462 42.5786 473.414 43.2031 473.035 43.8291C472.751 44.2979 472.352 44.6623 471.893 44.9589C469.233 46.6715 465.473 44.6459 465.288 41.3631C465.186 39.5589 465.797 38.1191 467.035 37.0713H477.936C478.631 39.7385 479.888 42.0793 481.895 43.9991Z" fill="#6F7857"/>
<path d="M463.087 41.4734C463.09 42.1956 462.859 42.4929 462.098 42.478C460.898 42.4571 460.831 42.4348 460.811 41.1589C460.803 40.6932 460.8 40.2259 460.793 39.7594C460.782 38.8315 460.686 37.9402 460.538 37.072H463.352C463.113 38.523 463.08 40.0016 463.087 41.4734Z" fill="#6F7857"/>
<path d="M431.609 39.7132C426.865 39.7467 422.12 39.7258 417.377 39.7147C415.107 39.7102 413.115 40.3839 411.568 42.0935C410.367 43.4215 409.751 44.8822 409.691 46.4263C409.702 46.702 409.733 46.98 409.72 47.2528C409.786 47.9749 409.956 48.712 410.258 49.4617C411.337 52.1408 413.43 53.6879 416.339 53.8072C419.337 53.9272 422.343 53.8437 425.345 53.8474C428.394 53.8489 431.442 53.8504 434.492 53.8519C435.254 53.8519 435.872 54.4749 435.865 55.2388C435.859 55.993 435.246 56.6018 434.492 56.6018C432.792 56.6033 431.092 56.6033 429.391 56.6033V56.5869C425.428 56.5869 421.465 56.5892 417.502 56.5869C415.097 56.5854 412.878 55.993 410.918 54.5405C409.844 53.7461 409.002 52.775 408.371 51.7108C407.617 52.9688 406.574 54.0784 405.254 54.937C403.485 56.0884 401.535 56.5616 399.452 56.5758C395.191 56.6063 390.931 56.6324 386.671 56.6592C384.916 56.648 383.163 56.6339 381.408 56.6212C380.64 56.616 380.019 55.9915 380.019 55.2231C380.019 54.4526 380.641 53.8266 381.411 53.8213C384.366 53.802 387.319 53.7848 390.275 53.7669C393.694 53.7893 397.116 53.9033 400.53 53.8072C403.369 53.7267 405.835 51.7056 406.712 49.051C406.896 48.4951 406.993 47.9354 407.04 47.3795C407.015 46.9867 407.019 46.5932 407.041 46.2012C406.887 44.4455 406.065 42.797 404.628 41.5398C403.16 40.2557 401.429 39.7132 399.495 39.7147C394.764 39.7199 390.034 39.7437 385.303 39.6975C383.24 39.6781 381.436 38.6393 380.325 37.0713H385.085C385.456 37.119 385.846 37.1451 386.277 37.1242C386.815 37.0996 387.356 37.116 387.897 37.116C391.979 37.1205 396.061 37.1078 400.141 37.1369C403.626 37.1622 406.678 39.0082 408.359 41.8595C408.719 41.2491 409.149 40.6715 409.656 40.1417C411.576 38.1303 413.903 37.0922 416.714 37.1093C421.398 37.1369 426.082 37.1272 430.766 37.113C431.012 37.113 431.229 37.0899 431.451 37.0713H436.601C435.535 38.6862 433.726 39.699 431.609 39.7132Z" fill="#6F7857"/>
<path d="M538.824 39.7132C534.08 39.7467 529.335 39.7258 524.592 39.7147C522.322 39.7102 520.33 40.3839 518.783 42.0935C516.816 44.2659 516.399 46.7937 517.473 49.4617C518.552 52.1408 520.644 53.6879 523.554 53.8072C526.55 53.9272 529.557 53.8437 532.56 53.8474C535.609 53.8489 538.658 53.8504 541.707 53.8519C542.469 53.8519 543.087 54.4749 543.081 55.2388C543.075 55.993 542.461 56.6018 541.705 56.6018C540.005 56.6033 538.307 56.6033 536.607 56.6033V56.5869C532.643 56.5869 528.68 56.5892 524.717 56.5869C522.311 56.5854 520.092 55.993 518.132 54.5405C517.031 53.7252 516.172 52.7281 515.537 51.6333C514.781 52.9241 513.715 54.0606 512.367 54.937C510.598 56.0884 508.649 56.5616 506.564 56.5758C502.305 56.6063 498.045 56.6324 493.784 56.6592C492.03 56.648 490.276 56.6339 488.523 56.6212C487.752 56.616 487.132 55.9915 487.132 55.2231C487.132 54.4526 487.754 53.8266 488.523 53.8213C491.478 53.802 494.431 53.7848 497.387 53.7669C500.806 53.7893 504.228 53.9033 507.644 53.8072C510.482 53.7267 512.949 51.7056 513.825 49.051C514.731 46.3108 513.943 43.4662 511.742 41.5398C510.272 40.2557 508.542 39.7132 506.609 39.7147C501.878 39.7199 497.146 39.7437 492.415 39.6975C490.354 39.6781 488.548 38.6393 487.439 37.0713H492.198C492.568 37.119 492.958 37.1451 493.389 37.1242C493.929 37.0996 494.47 37.116 495.011 37.116C499.091 37.1205 503.174 37.1078 507.255 37.1369C510.777 37.1622 513.858 39.0484 515.522 41.9511C515.895 41.3087 516.338 40.6991 516.87 40.1417C518.791 38.1303 521.118 37.0922 523.929 37.1093C528.613 37.1369 533.297 37.1272 537.979 37.113C538.227 37.113 538.444 37.0899 538.667 37.0713H543.816C542.748 38.6862 540.941 39.699 538.824 39.7132Z" fill="#6F7857"/>
<path d="M248.233 41.4734C248.236 42.1956 248.005 42.4929 247.244 42.478C246.044 42.4571 245.978 42.4348 245.957 41.1589C245.949 40.6932 245.946 40.2259 245.939 39.7594C245.928 38.8315 245.832 37.9402 245.685 37.072H248.499C248.259 38.523 248.227 40.0016 248.233 41.4734Z" fill="#6F7857"/>
<path d="M216.755 39.7132C212.011 39.7467 207.267 39.7258 202.523 39.7147C200.253 39.7102 198.261 40.3839 196.714 42.0935C194.749 44.2659 194.33 46.7937 195.404 49.4617C196.483 52.1408 198.576 53.6879 201.485 53.8072C204.483 53.9272 207.489 53.8437 210.491 53.8474C213.54 53.8489 216.59 53.8504 219.638 53.8519C220.402 53.8519 221.019 54.4749 221.012 55.2388C221.006 55.993 220.392 56.6018 219.638 56.6018C217.938 56.6033 216.239 56.6033 214.538 56.6033V56.5869C210.575 56.5869 206.612 56.5892 202.648 56.5869C200.244 56.5854 198.024 55.993 196.064 54.5405C194.81 53.6127 193.868 52.4508 193.217 51.1713C192.456 52.6513 191.317 53.9592 189.815 54.937C188.046 56.0884 186.095 56.5616 184.012 56.5758C179.751 56.6063 175.491 56.6324 171.231 56.6592C169.478 56.648 167.722 56.6339 165.969 56.6212C165.201 56.616 164.579 55.9915 164.579 55.2231C164.579 54.4526 165.201 53.8266 165.97 53.8213C168.925 53.802 171.88 53.7848 174.835 53.7669C178.254 53.7893 181.675 53.9033 185.092 53.8072C187.928 53.7267 190.396 51.7056 191.272 49.051C192.179 46.3108 191.391 43.4662 189.188 41.5398C187.718 40.2557 185.988 39.7132 184.057 39.7147C179.324 39.7199 174.594 39.7437 169.864 39.6975C167.801 39.6781 165.995 38.6393 164.885 37.0713H169.645C170.016 37.119 170.406 37.1451 170.836 37.1242C171.376 37.0996 171.917 37.116 172.458 37.116C176.54 37.1205 180.622 37.1078 184.704 37.1369C188.402 37.1644 191.625 39.2332 193.221 42.3893C193.632 41.5852 194.152 40.8243 194.802 40.1417C196.722 38.1303 199.05 37.0922 201.86 37.1093C206.544 37.1369 211.228 37.1272 215.912 37.113C216.158 37.113 216.375 37.0899 216.598 37.0713H221.747C220.682 38.6862 218.872 39.699 216.755 39.7132Z" fill="#6F7857"/>
<path d="M324.496 39.7132C319.752 39.7467 315.009 39.7258 310.264 39.7147C307.994 39.7102 306.002 40.3839 304.455 42.0935C302.49 44.2659 302.071 46.7937 303.145 49.4617C304.224 52.1408 306.317 53.6879 309.226 53.8072C312.224 53.9272 315.23 53.8437 318.232 53.8474C321.281 53.8489 324.331 53.8504 327.379 53.8519C328.143 53.8519 328.759 54.4749 328.753 55.2388C328.747 55.993 328.133 56.6018 327.379 56.6018C325.679 56.6033 323.979 56.6033 322.279 56.6033V56.5869C318.316 56.5869 314.352 56.5892 310.389 56.5869C307.984 56.5854 305.765 55.993 303.805 54.5405C302.537 53.6015 301.588 52.4233 300.937 51.128C300.176 52.6252 299.032 53.9495 297.514 54.937C295.743 56.0884 293.794 56.5616 291.711 56.5758C287.451 56.6063 283.19 56.6324 278.93 56.6592C277.176 56.648 275.422 56.6339 273.668 56.6212C272.9 56.616 272.28 55.9915 272.28 55.2231C272.28 54.4526 272.901 53.8266 273.67 53.8213C276.625 53.802 279.579 53.7848 282.534 53.7669C285.953 53.7893 289.376 53.9033 292.79 53.8072C295.628 53.7267 298.095 51.7056 298.973 49.051C299.878 46.3108 299.09 43.4662 296.888 41.5398C295.419 40.2557 293.688 39.7132 291.754 39.7147C287.024 39.7199 282.293 39.7437 277.563 39.6975C275.5 39.6781 273.696 38.6393 272.586 37.0713H277.346C277.715 37.119 278.105 37.1451 278.537 37.1242C279.075 37.0996 279.616 37.116 280.157 37.116C284.239 37.1205 288.321 37.1078 292.401 37.1369C296.116 37.1644 299.354 39.2496 300.943 42.4258C301.355 41.6091 301.882 40.834 302.543 40.1417C304.463 38.1303 306.79 37.0922 309.601 37.1093C314.285 37.1369 318.969 37.1272 323.653 37.113C323.899 37.113 324.116 37.0899 324.339 37.0713H329.488C328.423 38.6862 326.615 39.699 324.496 39.7132Z" fill="#6F7857"/>
<path d="M355.973 41.4734C355.977 42.1956 355.745 42.4929 354.985 42.478C353.784 42.4571 353.718 42.4348 353.698 41.1589C353.689 40.6932 353.686 40.2259 353.68 39.7594C353.668 38.8315 353.572 37.9402 353.426 37.072H356.238C356 38.523 355.967 40.0016 355.973 41.4734Z" fill="#6F7857"/>
<path d="M457.481 65.5982C458.252 65.5743 458.846 66.3449 458.838 67.3607C458.829 68.3466 458.249 69.0785 457.443 69.1165C456.619 69.1567 455.934 68.4122 455.934 67.4814C455.936 66.5037 456.658 65.6243 457.481 65.5982Z" fill="#C49A6D"/>
<path d="M457.353 60.8786C458.225 60.8577 458.862 61.6447 458.838 62.7119C458.815 63.7053 458.23 64.4118 457.414 64.4297C456.542 64.4505 455.905 63.6621 455.929 62.5964C455.953 61.5992 456.535 60.898 457.353 60.8786Z" fill="#C49A6D"/>
<path d="M457.376 59.7436C456.556 59.7392 455.96 59.0409 455.93 58.0482C455.893 56.8961 456.533 56.1642 457.571 56.1702C458.465 56.1769 458.808 56.5913 458.841 57.7069C458.876 58.938 458.293 59.7503 457.376 59.7436Z" fill="#C49A6D"/>
<path d="M472.515 59.383C472.594 60.3287 471.994 61.1329 471.166 61.1902C470.338 61.2498 469.674 60.5486 469.621 59.5626C469.568 58.5528 470.104 57.8098 470.949 57.7278C471.714 57.6541 472.435 58.4164 472.515 59.383Z" fill="#C49A6D"/>
<path d="M471.023 53.0431C471.856 53.0066 472.507 53.7079 472.53 54.6692C472.556 55.7431 471.92 56.5301 471.042 56.504C470.218 56.4817 469.642 55.7804 469.624 54.7788C469.607 53.7995 470.185 53.0804 471.023 53.0431Z" fill="#C49A6D"/>
<path d="M471.009 65.8769C470.247 65.8367 469.647 65.1481 469.63 64.291C469.611 63.3453 470.216 62.4034 470.874 62.3534C471.736 62.2893 472.518 63.0987 472.531 64.0682C472.546 65.1451 471.892 65.9239 471.009 65.8769Z" fill="#C49A6D"/>
<path d="M461.865 57.9178C461.199 57.8985 460.627 57.1346 460.606 56.2343C460.582 55.2439 461.166 54.4316 461.913 54.4167C462.655 54.4025 463.451 55.2402 463.486 56.0734C463.52 56.8581 462.571 57.9387 461.865 57.9178Z" fill="#C49A6D"/>
<path d="M452.734 62.419C453.457 62.3966 454.105 63.0897 454.16 63.9408C454.229 65.0199 453.65 65.8329 452.778 65.8769C452.028 65.9134 451.317 65.116 451.278 64.1964C451.248 63.4564 452.081 62.4384 452.734 62.419Z" fill="#C49A6D"/>
<path d="M452.933 67.3242C453.815 67.3592 454.163 67.8123 454.163 68.9227C454.161 69.9728 453.638 70.5712 452.727 70.5638C451.972 70.5586 451.279 69.7239 451.282 68.8184C451.282 67.9502 452.014 67.2877 452.933 67.3242Z" fill="#C49A6D"/>
<path d="M457.373 46.8203C458.199 46.8159 458.811 47.5283 458.836 48.5254C458.861 49.5479 458.183 50.3327 457.268 50.3423C456.548 50.3491 455.972 49.6537 455.93 48.7244C455.878 47.623 456.484 46.827 457.373 46.8203Z" fill="#C49A6D"/>
<path d="M452.602 57.7308C453.395 57.6525 454.095 58.3598 454.163 59.3107C454.246 60.4837 453.765 61.1499 452.8 61.1917C452.011 61.2252 451.36 60.6186 451.268 59.7675C451.164 58.7965 451.811 57.8098 452.602 57.7308Z" fill="#C49A6D"/>
<path d="M461.955 45.0147C462.724 44.9782 463.422 45.7294 463.488 46.6647C463.552 47.5739 462.78 48.5188 461.955 48.5397C461.294 48.5576 460.433 47.6298 460.385 46.8465C460.329 45.9343 461.082 45.0564 461.955 45.0147Z" fill="#C49A6D"/>
<path d="M451.278 54.7894C451.264 53.9965 452.23 52.9405 452.932 52.9837C453.647 53.0269 454.17 53.8296 454.163 54.8714C454.155 55.9177 453.641 56.5087 452.739 56.5102C451.989 56.5102 451.294 55.6919 451.278 54.7894Z" fill="#C49A6D"/>
<path d="M466.484 56.1887C467.284 56.2387 467.849 56.966 467.853 57.9527C467.86 58.961 467.27 59.7301 466.508 59.7122C465.747 59.6929 465.007 58.8805 464.975 58.0265C464.938 57.0458 465.681 56.1388 466.484 56.1887Z" fill="#C49A6D"/>
<path d="M466.567 55.0792C465.785 55.0502 464.95 54.0679 464.976 53.2027C465.003 52.2719 465.728 51.4529 466.483 51.5013C467.272 51.5498 468.111 52.5573 468.071 53.4099C468.024 54.4309 467.413 55.1098 466.567 55.0792Z" fill="#C49A6D"/>
<path d="M466.421 60.8764C467.245 60.889 467.832 61.597 467.854 62.5971C467.874 63.6777 467.226 64.4677 466.352 64.4274C465.617 64.3932 464.956 63.525 464.975 62.618C464.996 61.6872 465.678 60.8637 466.421 60.8764Z" fill="#C49A6D"/>
<path d="M471.159 67.0992C471.906 67.1603 472.545 68.0285 472.527 68.963C472.511 69.9021 471.787 70.6421 470.961 70.5631C470.151 70.4878 469.598 69.7269 469.623 68.7268C469.647 67.7721 470.347 67.0321 471.159 67.0992Z" fill="#C49A6D"/>
<path d="M466.425 69.115C465.672 69.1262 464.98 68.29 464.971 67.3592C464.963 66.4918 465.68 65.6444 466.462 65.5967C467.137 65.5527 468.035 66.4828 468.077 67.2676C468.119 68.0925 467.215 69.1038 466.425 69.115Z" fill="#C49A6D"/>
<path d="M457.41 51.5073C458.238 51.5266 458.819 52.2391 458.835 53.2541C458.853 54.3295 458.445 54.9972 457.741 55.0501C456.792 55.1209 455.973 54.2781 455.939 53.1975C455.91 52.2443 456.568 51.4864 457.41 51.5073Z" fill="#C49A6D"/>
<path d="M461.999 59.1079C462.778 59.1578 463.497 60.0082 463.49 60.8734C463.481 61.8049 462.791 62.6396 462.036 62.6299C461.248 62.6187 460.339 61.6045 460.385 60.7825C460.43 59.9925 461.323 59.0647 461.999 59.1079Z" fill="#C49A6D"/>
<path d="M461.956 53.2273C461.292 53.2467 460.438 52.3233 460.386 51.5341C460.327 50.6249 461.084 49.7396 461.953 49.6979C462.722 49.6606 463.418 50.4103 463.486 51.3493C463.552 52.263 462.787 53.2035 461.956 53.2273Z" fill="#C49A6D"/>
<path d="M461.93 63.7791C462.747 63.782 463.534 64.7121 463.49 65.625C463.445 66.5499 462.75 67.3428 462.007 67.3137C461.168 67.2817 460.365 66.2652 460.394 65.2718C460.413 64.6525 461.314 63.7776 461.93 63.7791Z" fill="#C49A6D"/>
<path d="M461.96 68.4786C462.721 68.498 463.46 69.3133 463.489 70.1659C463.522 71.1496 462.776 72.0536 461.974 71.9991C461.167 71.9425 460.609 71.2204 460.607 70.2314C460.607 69.2269 461.199 68.4593 461.96 68.4786Z" fill="#C49A6D"/>
<path d="M466.579 50.3493C465.846 50.3783 465.039 49.5675 464.972 48.7298C464.896 47.7938 465.632 46.8176 466.41 46.8228C467.233 46.8272 467.819 47.5144 467.853 48.5115C467.885 49.5019 467.318 50.3202 466.579 50.3493Z" fill="#C49A6D"/>
<path d="M455.93 72.0631C455.916 71.0489 456.464 70.3103 457.283 70.2477C458.096 70.1866 458.8 71.034 458.829 72.1049C458.836 72.3314 458.797 72.5431 458.734 72.7391H456.04C455.973 72.5349 455.933 72.3091 455.93 72.0631Z" fill="#C49A6D"/>
<path d="M466.427 70.25C467.261 70.2679 467.837 70.9647 467.855 71.976C467.859 72.2532 467.82 72.5103 467.744 72.7398H465.117C465.021 72.5006 464.961 72.2435 464.968 71.9834C464.991 71.0593 465.684 70.2343 466.427 70.25Z" fill="#C49A6D"/>
<path d="M219.569 58.7011C220.152 58.6929 220.826 58.5663 220.825 59.515C220.819 60.6499 220.818 61.6851 220.818 62.7031C220.826 63.3947 220.822 64.0624 220.819 64.7622V65.1929H220.818C220.816 65.5939 220.816 66.0053 220.819 66.4479C220.829 67.5203 220.05 67.2953 219.43 67.3035C218.847 67.3117 218.171 67.4384 218.174 66.4912C218.179 65.3562 218.179 64.321 218.179 63.3015C218.171 62.6114 218.175 61.9437 218.179 61.2439V60.8117H218.181C218.182 60.4122 218.182 60.0001 218.178 59.5567C218.168 58.4858 218.948 58.7093 219.569 58.7011Z" fill="#6F7857"/>
<path d="M195.676 58.7011C196.259 58.6929 196.935 58.5663 196.932 59.515C196.927 60.6499 196.927 61.6851 196.927 62.7031C196.934 63.3947 196.93 64.0624 196.927 64.7622V65.1929H196.925C196.924 65.5939 196.924 66.0053 196.928 66.4479C196.938 67.5203 196.158 67.2953 195.537 67.3035C194.954 67.3117 194.278 67.4384 194.281 66.4912C194.287 65.3562 194.288 64.321 194.288 63.3015C194.28 62.6114 194.283 61.9437 194.287 61.2439V60.8117H194.288C194.289 60.4122 194.289 60.0001 194.287 59.5567C194.277 58.4858 195.056 58.7093 195.676 58.7011Z" fill="#6F7857"/>
<path d="M213.595 58.7011C214.178 58.6929 214.854 58.5663 214.851 59.515C214.846 60.6499 214.846 61.6851 214.846 62.7031C214.853 63.3947 214.849 64.0624 214.846 64.7622V65.1929H214.844C214.843 65.5939 214.843 66.0053 214.847 66.4479C214.857 67.5203 214.077 67.2953 213.456 67.3035C212.873 67.3117 212.197 67.4384 212.2 66.4912C212.205 65.3562 212.207 64.321 212.207 63.3015C212.199 62.6114 212.202 61.9437 212.205 61.2439V60.8117H212.207C212.208 60.4122 212.208 60.0001 212.205 59.5567C212.196 58.4858 212.974 58.7093 213.595 58.7011Z" fill="#6F7857"/>
<path d="M190.019 58.7011C190.601 58.6929 191.276 58.5663 191.272 59.515C191.269 60.6499 191.268 61.6851 191.268 62.7031C191.276 63.3947 191.272 64.0624 191.269 64.7622V65.1929H191.268C191.266 65.5939 191.266 66.0053 191.271 66.4479C191.279 67.5203 190.5 67.2953 189.879 67.3035C189.297 67.3117 188.621 67.4384 188.624 66.4912C188.629 65.3562 188.629 64.321 188.629 63.3015C188.622 62.6114 188.625 61.9437 188.629 61.2439V60.8117H188.63C188.632 60.4122 188.632 60.0001 188.627 59.5567C188.618 58.4858 189.398 58.7093 190.019 58.7011Z" fill="#6F7857"/>
<path d="M172.1 58.7011C172.683 58.6929 173.357 58.5663 173.354 59.515C173.351 60.6499 173.349 61.6851 173.349 62.7031C173.357 63.3947 173.354 64.0624 173.351 64.7622V65.1929H173.349C173.348 65.5939 173.348 66.0053 173.352 66.4479C173.36 67.5203 172.582 67.2953 171.961 67.3035C171.378 67.3117 170.702 67.4384 170.705 66.4912C170.71 65.3562 170.71 64.321 170.71 63.3015C170.704 62.6114 170.707 61.9437 170.71 61.2439V60.8117H170.712C170.713 60.4122 170.713 60.0001 170.709 59.5567C170.699 58.4858 171.479 58.7093 172.1 58.7011Z" fill="#6F7857"/>
<path d="M178.072 58.7011C178.655 58.6929 179.331 58.5663 179.327 59.515C179.323 60.6499 179.323 61.6851 179.323 62.7031C179.331 63.3947 179.326 64.0624 179.323 64.7622V65.1929H179.321C179.32 65.5939 179.32 66.0053 179.324 66.4479C179.334 67.5203 178.554 67.2953 177.933 67.3035C177.35 67.3117 176.674 67.4384 176.677 66.4912C176.683 65.3562 176.684 64.321 176.684 63.3015C176.676 62.6114 176.679 61.9437 176.683 61.2439V60.8117H176.684C176.685 60.4122 176.685 60.0001 176.683 59.5567C176.673 58.4858 177.451 58.7093 178.072 58.7011Z" fill="#6F7857"/>
<path d="M184.046 58.7011C184.629 58.6929 185.304 58.5663 185.302 59.515C185.297 60.6499 185.295 61.6851 185.295 62.7031C185.304 63.3947 185.3 64.0624 185.297 64.7622V65.1929H185.295C185.294 65.5939 185.294 66.0053 185.297 66.4479C185.307 67.5203 184.528 67.2953 183.907 67.3035C183.324 67.3117 182.648 67.4384 182.651 66.4912C182.657 65.3562 182.657 64.321 182.657 63.3015C182.648 62.6114 182.653 61.9437 182.657 61.2439V60.8117H182.658C182.66 60.4122 182.66 60.0001 182.655 59.5567C182.645 58.4858 183.426 58.7093 184.046 58.7011Z" fill="#6F7857"/>
<path d="M201.649 58.7011C202.232 58.6929 202.907 58.5663 202.903 59.515C202.9 60.6499 202.899 61.6851 202.899 62.7031C202.907 63.3947 202.903 64.0624 202.9 64.7622V65.1929H202.899C202.897 65.5939 202.897 66.0053 202.9 66.4479C202.91 67.5203 202.131 67.2953 201.51 67.3035C200.927 67.3117 200.251 67.4384 200.254 66.4912C200.26 65.3562 200.26 64.321 200.26 63.3015C200.251 62.6114 200.256 61.9437 200.26 61.2439V60.8117H200.261C200.263 60.4122 200.263 60.0001 200.258 59.5567C200.248 58.4858 201.029 58.7093 201.649 58.7011Z" fill="#6F7857"/>
<path d="M228.079 68.7498C228.036 68.6693 227.872 68.6552 227.675 68.5702C227.758 70.0085 227.971 71.3939 228.287 72.7391H225.585C225.291 71.3328 225.11 69.893 225.073 68.4048C224.983 64.6242 225.047 60.8391 225.058 57.0577C225.058 56.6657 224.872 56.144 225.317 55.9227C225.804 55.6783 226.243 56.0285 226.625 56.3125C227.174 56.7186 227.534 57.2627 227.616 57.961C227.684 58.5586 227.778 59.1541 227.813 59.751C228.091 64.4706 229.999 68.4092 233.378 71.6958C233.733 72.0386 234.08 72.3918 234.433 72.7391H230.89C229.837 71.5109 228.872 70.2038 228.079 68.7498Z" fill="#6F7857"/>
<path d="M191.253 72.7393H164.735V69.9126H192.386C192.683 69.9126 192.964 69.97 193.234 70.0557C193.503 69.97 193.784 69.9126 194.081 69.9126H221.041V72.7393H195.213H191.253Z" fill="#6F7857"/>
<path d="M166.127 58.7011C166.71 58.6929 167.384 58.5663 167.382 59.515C167.378 60.6499 167.376 61.6851 167.376 62.7031C167.384 63.3947 167.381 64.0624 167.378 64.7622V65.1929H167.376C167.375 65.5939 167.375 66.0053 167.378 66.4479C167.387 67.5203 166.608 67.2953 165.988 67.3035C165.405 67.3117 164.729 67.4384 164.732 66.4912C164.737 65.3562 164.737 64.321 164.737 63.3015C164.729 62.6114 164.733 61.9437 164.737 61.2439V60.8117H164.739C164.74 60.4122 164.74 60.0001 164.736 59.5567C164.726 58.4858 165.506 58.7093 166.127 58.7011Z" fill="#6F7857"/>
<path d="M159.342 43.9991C159.631 44.2755 160.032 44.4902 160.105 45.0826C159.405 45.1326 158.691 45.0893 158.028 45.254C157.027 45.503 156.475 45.0454 155.933 44.3121C154.78 42.7552 153.828 41.0934 153.239 39.2526C153.013 38.5528 152.637 38.3069 151.934 38.3278C150.794 38.365 149.65 38.2831 148.513 38.3539C147.028 38.4463 145.82 39.3599 145.478 40.5203C145.139 41.6732 146.104 42.9639 147.237 42.879C147.838 42.8335 148.155 42.3685 148.564 42.0264C149.138 41.5465 149.761 41.4727 150.34 42.0309C150.91 42.5786 150.862 43.2031 150.483 43.8291C150.197 44.2979 149.799 44.6623 149.339 44.9589C146.681 46.6715 142.921 44.6459 142.734 41.3631C142.633 39.5589 143.245 38.1191 144.483 37.0713H155.383C156.079 39.7385 157.336 42.0793 159.342 43.9991Z" fill="#6F7857"/>
<path d="M170.861 42.717C175.365 42.7505 179.869 42.7088 184.374 42.7766C186.89 42.8146 188.536 44.5153 188.488 46.8248C188.441 49.0516 186.809 50.6017 184.372 50.7127C183.712 50.7433 183.051 50.7 182.391 50.7209C180.953 50.7656 179.509 50.6166 178.076 50.8282C173.882 50.5793 169.686 50.7768 165.491 50.7284C163.212 50.703 160.927 50.6695 158.655 50.7992C157.183 50.8826 155.852 51.3484 154.733 52.0884H150.881C152.847 49.6418 155.897 48.0529 159.337 48.0432C167.204 48.0224 175.073 48.0514 182.94 48.0559C183.479 48.0559 184.022 48.0641 184.56 48.0224C185.339 47.9628 185.784 47.4895 185.788 46.7316C185.791 45.9596 185.297 45.5281 184.545 45.4446C184.07 45.3932 183.585 45.4029 183.105 45.4029C178.781 45.4058 174.458 45.414 170.133 45.4185C164.371 45.4267 159.931 42.1134 158.451 37.0703H161.313C162.417 39.8486 164.536 41.6707 167.638 42.4778C168.663 42.7446 169.784 42.7088 170.861 42.717Z" fill="#6F7857"/>
<path d="M157.222 62.4428C157.469 61.0932 157.565 59.7153 157.727 58.3515C157.919 56.7462 158.601 56.0911 160.198 56.001C160.556 56.9787 160.159 58.0221 160.444 59.008C160.337 59.2487 160.337 59.4894 160.442 59.7302C160.269 60.5693 160.294 61.4092 160.435 62.2506C160.315 62.6128 160.306 62.9742 160.452 63.3342C160.231 64.7658 160.318 66.1944 160.465 67.6245C160.409 67.9763 160.321 68.3273 160.304 68.682C160.236 70.0823 160.048 71.429 159.782 72.7406H157.131C157.349 71.8336 157.531 70.914 157.649 69.9616C157.7 69.551 157.657 69.1299 157.657 68.7051C157.081 68.6693 157.046 69.1895 156.843 69.504C156.118 70.636 155.33 71.7129 154.475 72.7406H150.983C151.458 72.2569 151.942 71.7822 152.417 71.2986C154.866 68.8109 156.586 65.9067 157.222 62.4428Z" fill="#6F7857"/>
<path d="M278.559 42.717C283.064 42.7505 287.568 42.7088 292.072 42.7766C294.589 42.8146 296.234 44.5153 296.187 46.8248C296.14 49.0516 294.508 50.6017 292.072 50.7127C291.413 50.7433 290.749 50.7 290.09 50.7209C288.651 50.7656 287.209 50.6166 285.775 50.8282C281.582 50.5793 277.384 50.7768 273.19 50.7284C270.911 50.703 268.626 50.6695 266.353 50.7992C264.881 50.8826 263.551 51.3484 262.433 52.0884H258.581C260.545 49.6418 263.596 48.0529 267.036 48.0432C274.903 48.0224 282.772 48.0514 290.639 48.0559C291.18 48.0559 291.72 48.0641 292.258 48.0224C293.037 47.9628 293.483 47.4895 293.487 46.7316C293.49 45.9596 292.996 45.5281 292.244 45.4446C291.769 45.3932 291.284 45.4029 290.806 45.4029C286.48 45.4058 282.157 45.414 277.832 45.4185C272.071 45.4267 267.63 42.1134 266.151 37.0703H269.014C270.116 39.8486 272.235 41.6707 275.336 42.4778C276.362 42.7446 277.483 42.7088 278.559 42.717Z" fill="#6F7857"/>
<path d="M291.745 58.7011C292.327 58.6929 293.003 58.5663 293 59.515C292.995 60.6499 292.994 61.6851 292.994 62.7031C293.002 63.3947 292.998 64.0624 292.995 64.7622V65.1929H292.994C292.992 65.5939 292.992 66.0053 292.997 66.4479C293.005 67.5203 292.226 67.2953 291.605 67.3035C291.021 67.3117 290.347 67.4384 290.35 66.4912C290.355 65.3562 290.355 64.321 290.355 63.3015C290.348 62.6114 290.351 61.9437 290.355 61.2439V60.8117H290.356C290.358 60.4122 290.358 60.0001 290.353 59.5567C290.344 58.4858 291.124 58.7093 291.745 58.7011Z" fill="#6F7857"/>
<path d="M297.718 58.7011C298.301 58.6929 298.977 58.5663 298.974 59.515C298.968 60.6499 298.968 61.6851 298.968 62.7031C298.975 63.3947 298.971 64.0624 298.968 64.7622V65.1929H298.967C298.965 65.5939 298.965 66.0053 298.97 66.4479C298.98 67.5203 298.199 67.2953 297.579 67.3035C296.996 67.3117 296.32 67.4384 296.323 66.4912C296.328 65.3562 296.328 64.321 296.328 63.3015C296.321 62.6114 296.327 61.9437 296.328 61.2439V60.8117H296.329C296.331 60.4122 296.331 60.0001 296.328 59.5567C296.318 58.4858 297.097 58.7093 297.718 58.7011Z" fill="#6F7857"/>
<path d="M303.418 58.7011C304 58.6929 304.676 58.5663 304.673 59.515C304.668 60.6499 304.668 61.6851 304.668 62.7031C304.676 63.3947 304.67 64.0624 304.668 64.7622V65.1929H304.666C304.664 65.5939 304.664 66.0053 304.67 66.4479C304.679 67.5203 303.899 67.2953 303.278 67.3035C302.695 67.3117 302.019 67.4384 302.022 66.4912C302.027 65.3562 302.028 64.321 302.028 63.3015C302.021 62.6114 302.023 61.9437 302.027 61.2439V60.8117H302.028C302.031 60.4122 302.031 60.0001 302.027 59.5567C302.017 58.4858 302.797 58.7093 303.418 58.7011Z" fill="#6F7857"/>
<path d="M309.391 58.7011C309.973 58.6929 310.648 58.5663 310.646 59.515C310.641 60.6499 310.64 61.6851 310.64 62.7031C310.648 63.3947 310.644 64.0624 310.641 64.7622V65.1929H310.64C310.638 65.5939 310.638 66.0053 310.641 66.4479C310.651 67.5203 309.872 67.2953 309.251 67.3035C308.669 67.3117 307.993 67.4384 307.996 66.4912C308.001 65.3562 308.001 64.321 308.001 63.3015C307.993 62.6114 307.997 61.9437 308.001 61.2439V60.8117H308.002C308.004 60.4122 308.004 60.0001 307.999 59.5567C307.99 58.4858 308.77 58.7093 309.391 58.7011Z" fill="#6F7857"/>
<path d="M273.826 58.7011C274.409 58.6929 275.085 58.5663 275.082 59.515C275.077 60.6499 275.075 61.6851 275.075 62.7031C275.084 63.3947 275.08 64.0624 275.077 64.7622V65.1929H275.075C275.074 65.5939 275.074 66.0053 275.078 66.4479C275.086 67.5203 274.308 67.2953 273.687 67.3035C273.104 67.3117 272.428 67.4384 272.431 66.4912C272.436 65.3562 272.438 64.321 272.438 63.3015C272.43 62.6114 272.433 61.9437 272.436 61.2439V60.8117H272.438C272.439 60.4122 272.439 60.0001 272.435 59.5567C272.427 58.4858 273.205 58.7093 273.826 58.7011Z" fill="#6F7857"/>
<path d="M279.798 58.7011C280.381 58.6929 281.057 58.5663 281.054 59.515C281.049 60.6499 281.049 61.6851 281.049 62.7031C281.056 63.3947 281.052 64.0624 281.049 64.7622V65.1929H281.047C281.046 65.5939 281.046 66.0053 281.051 66.4479C281.06 67.5203 280.28 67.2953 279.659 67.3035C279.076 67.3117 278.4 67.4384 278.403 66.4912C278.409 65.3562 278.409 64.321 278.409 63.3015C278.402 62.6114 278.407 61.9437 278.409 61.2439V60.8117H278.41C278.412 60.4122 278.412 60.0001 278.409 59.5567C278.397 58.4858 279.178 58.7093 279.798 58.7011Z" fill="#6F7857"/>
<path d="M285.773 58.7011C286.355 58.6929 287.03 58.5663 287.026 59.515C287.023 60.6499 287.022 61.6851 287.022 62.7031C287.03 63.3947 287.026 64.0624 287.023 64.7622V65.1929H287.022C287.02 65.5939 287.02 66.0053 287.025 66.4479C287.033 67.5203 286.252 67.2953 285.633 67.3035C285.05 67.3117 284.374 67.4384 284.377 66.4912C284.383 65.3562 284.383 64.321 284.383 63.3015C284.374 62.6114 284.379 61.9437 284.383 61.2439V60.8117H284.384C284.386 60.4122 284.386 60.0001 284.381 59.5567C284.371 58.4858 285.151 58.7093 285.773 58.7011Z" fill="#6F7857"/>
<path d="M298.994 72.7393H272.433V69.9126H300.086C300.39 69.9126 300.678 69.9722 300.952 70.0617C301.228 69.9722 301.516 69.9126 301.82 69.9126H328.782V72.7393H302.912H298.994Z" fill="#6F7857"/>
<path d="M372.662 62.4428C372.909 61.0932 373.005 59.7153 373.167 58.3515C373.357 56.7462 374.04 56.0911 375.637 56.001C375.994 56.9787 375.599 58.0221 375.885 59.008C375.776 59.2487 375.777 59.4894 375.882 59.7302C375.71 60.5693 375.734 61.4092 375.874 62.2506C375.755 62.6128 375.747 62.9742 375.89 63.3342C375.67 64.7658 375.758 66.1944 375.906 67.6245C375.85 67.9763 375.76 68.3273 375.744 68.682C375.676 70.0823 375.488 71.429 375.22 72.7406H372.571C372.788 71.8336 372.972 70.914 373.089 69.9616C373.14 69.551 373.095 69.1299 373.095 68.7051C372.518 68.6693 372.485 69.1895 372.283 69.504C371.557 70.636 370.769 71.7129 369.915 72.7406H366.422C366.897 72.2569 367.381 71.7822 367.855 71.2986C370.307 68.8109 372.026 65.9067 372.662 62.4428Z" fill="#6F7857"/>
<path d="M386.3 42.717C390.805 42.7505 395.308 42.7088 399.813 42.7766C402.33 42.8146 403.975 44.5153 403.928 46.8248C403.881 49.0516 402.248 50.6017 399.813 50.7127C399.154 50.7433 398.49 50.7 397.831 50.7209C396.392 50.7656 394.95 50.6166 393.515 50.8282C389.322 50.5793 385.125 50.7768 380.931 50.7284C378.653 50.703 376.366 50.6695 374.094 50.7992C372.622 50.8826 371.292 51.3484 370.174 52.0884H366.321C368.286 49.6418 371.336 48.0529 374.777 48.0432C382.643 48.0224 390.513 48.0514 398.38 48.0559C398.921 48.0559 399.461 48.0641 400 48.0224C400.777 47.9628 401.224 47.4895 401.227 46.7316C401.231 45.9596 400.737 45.5281 399.985 45.4446C399.51 45.3932 399.025 45.4029 398.547 45.4029C394.222 45.4058 389.897 45.414 385.573 45.4185C379.812 45.4267 375.371 42.1134 373.892 37.0703H376.755C377.857 39.8486 379.976 41.6707 383.077 42.4778C384.102 42.7446 385.224 42.7088 386.3 42.717Z" fill="#6F7857"/>
<path d="M354.842 45.0147C355.611 44.9782 356.31 45.7294 356.375 46.6647C356.439 47.5739 355.667 48.5188 354.842 48.5397C354.181 48.5576 353.32 47.6298 353.272 46.8465C353.216 45.9343 353.969 45.0564 354.842 45.0147Z" fill="#C49A6D"/>
<path d="M363.909 53.0431C364.742 53.0066 365.394 53.7079 365.416 54.6692C365.442 55.7431 364.806 56.5301 363.928 56.504C363.105 56.4817 362.529 55.7804 362.511 54.7788C362.493 53.7995 363.071 53.0804 363.909 53.0431Z" fill="#C49A6D"/>
<path d="M365.402 59.383C365.481 60.3287 364.881 61.1329 364.053 61.1902C363.225 61.2498 362.561 60.5486 362.509 59.5626C362.455 58.5528 362.991 57.8098 363.836 57.7278C364.601 57.6541 365.322 58.4164 365.402 59.383Z" fill="#C49A6D"/>
<path d="M359.298 46.8228C360.122 46.828 360.707 47.5144 360.742 48.5115C360.773 49.5019 360.207 50.3202 359.467 50.3493C358.732 50.3783 357.928 49.566 357.86 48.7298C357.785 47.7938 358.519 46.8183 359.298 46.8228Z" fill="#C49A6D"/>
<path d="M354.843 53.2273C354.178 53.2467 353.324 52.3233 353.273 51.5341C353.214 50.6249 353.972 49.7396 354.84 49.6979C355.609 49.6606 356.305 50.4103 356.373 51.3493C356.439 52.263 355.673 53.2035 354.843 53.2273Z" fill="#C49A6D"/>
<path d="M354.752 57.9178C354.086 57.8985 353.514 57.1346 353.493 56.2343C353.47 55.2439 354.054 54.4316 354.801 54.4167C355.542 54.4025 356.338 55.2402 356.373 56.0734C356.407 56.8581 355.459 57.9387 354.752 57.9178Z" fill="#C49A6D"/>
<path d="M345.489 57.7308C346.282 57.6525 346.981 58.3598 347.049 59.3107C347.133 60.4837 346.651 61.1499 345.685 61.1917C344.898 61.2252 344.246 60.6186 344.155 59.7675C344.05 58.7965 344.697 57.8098 345.489 57.7308Z" fill="#C49A6D"/>
<path d="M345.621 62.419C346.343 62.3966 346.991 63.0897 347.046 63.9408C347.115 65.0199 346.536 65.8329 345.664 65.8769C344.914 65.9134 344.203 65.116 344.164 64.1964C344.135 63.4564 344.967 62.4384 345.621 62.419Z" fill="#C49A6D"/>
<path d="M345.82 67.3242C346.702 67.3592 347.05 67.8123 347.05 68.9227C347.049 69.9728 346.525 70.5712 345.615 70.5638C344.859 70.5586 344.167 69.7239 344.169 68.8184C344.169 67.9502 344.901 67.2877 345.82 67.3242Z" fill="#C49A6D"/>
<path d="M359.312 69.115C358.559 69.1262 357.868 68.29 357.859 67.3592C357.85 66.4918 358.567 65.6444 359.349 65.5967C360.024 65.5527 360.922 66.4828 360.963 67.2676C361.006 68.0925 360.102 69.1038 359.312 69.115Z" fill="#C49A6D"/>
<path d="M354.886 59.1079C355.664 59.1578 356.384 60.0082 356.377 60.8734C356.367 61.8049 355.677 62.6396 354.923 62.6299C354.135 62.6187 353.226 61.6045 353.272 60.7825C353.315 59.9925 354.21 59.0647 354.886 59.1079Z" fill="#C49A6D"/>
<path d="M359.371 56.1887C360.169 56.2387 360.736 56.966 360.74 57.9527C360.747 58.961 360.158 59.7301 359.395 59.7122C358.634 59.6929 357.894 58.8805 357.862 58.0265C357.826 57.0458 358.569 56.1388 359.371 56.1887Z" fill="#C49A6D"/>
<path d="M359.371 51.5006C360.159 51.5506 360.997 52.5589 360.958 53.4107C360.912 54.4302 360.3 55.1091 359.454 55.0786C358.671 55.0517 357.838 54.0673 357.863 53.202C357.889 52.2712 358.615 51.4544 359.371 51.5006Z" fill="#C49A6D"/>
<path d="M364.047 67.0992C364.793 67.1603 365.432 68.0285 365.414 68.963C365.398 69.9021 364.674 70.6421 363.846 70.5631C363.038 70.4878 362.485 69.7269 362.511 68.7268C362.535 67.7721 363.234 67.0321 364.047 67.0992Z" fill="#C49A6D"/>
<path d="M359.308 60.8764C360.132 60.889 360.719 61.597 360.74 62.5971C360.761 63.6777 360.112 64.4677 359.239 64.4274C358.504 64.3932 357.843 63.525 357.862 62.618C357.883 61.6872 358.565 60.8637 359.308 60.8764Z" fill="#C49A6D"/>
<path d="M363.896 65.8769C363.134 65.8367 362.535 65.1481 362.518 64.291C362.498 63.3453 363.103 62.4034 363.761 62.3534C364.624 62.2893 365.405 63.0987 365.418 64.0682C365.434 65.1451 364.779 65.9239 363.896 65.8769Z" fill="#C49A6D"/>
<path d="M344.164 54.7894C344.15 53.9965 345.116 52.9405 345.818 52.9837C346.533 53.0269 347.057 53.8296 347.049 54.8714C347.041 55.9177 346.527 56.5087 345.625 56.5102C344.875 56.5102 344.181 55.6919 344.164 54.7894Z" fill="#C49A6D"/>
<path d="M354.816 63.7791C355.633 63.782 356.42 64.7121 356.376 65.625C356.333 66.5499 355.637 67.3428 354.893 67.3137C354.054 67.2817 353.251 66.2652 353.28 65.2718C353.299 64.6525 354.2 63.7776 354.816 63.7791Z" fill="#C49A6D"/>
<path d="M354.847 68.4786C355.607 68.498 356.346 69.3133 356.375 70.1659C356.409 71.1496 355.662 72.0536 354.861 71.9991C354.054 71.9425 353.495 71.2204 353.493 70.2314C353.493 69.2269 354.086 68.4593 354.847 68.4786Z" fill="#C49A6D"/>
<path d="M350.26 46.8203C351.085 46.8159 351.698 47.5283 351.722 48.5254C351.748 49.5479 351.071 50.3327 350.154 50.3423C349.433 50.3491 348.859 49.6537 348.816 48.7244C348.764 47.623 349.369 46.827 350.26 46.8203Z" fill="#C49A6D"/>
<path d="M359.314 70.25C360.147 70.2679 360.723 70.9647 360.741 71.976C360.745 72.2532 360.705 72.5103 360.63 72.7398H358.004C357.907 72.5006 357.849 72.2435 357.854 71.9834C357.875 71.0593 358.571 70.2343 359.314 70.25Z" fill="#C49A6D"/>
<path d="M348.817 72.0631C348.802 71.0489 349.351 70.3103 350.172 70.2477C350.982 70.1866 351.687 71.034 351.716 72.1049C351.721 72.3314 351.684 72.5431 351.621 72.7391H348.926C348.86 72.5349 348.82 72.3091 348.817 72.0631Z" fill="#C49A6D"/>
<path d="M350.24 60.8786C351.113 60.8577 351.749 61.6447 351.725 62.7119C351.702 63.7053 351.116 64.4118 350.301 64.4297C349.429 64.4505 348.792 63.6621 348.816 62.5964C348.84 61.5992 349.421 60.898 350.24 60.8786Z" fill="#C49A6D"/>
<path d="M350.263 59.7436C349.443 59.7392 348.847 59.0409 348.817 58.0482C348.78 56.8961 349.421 56.1642 350.458 56.1702C351.351 56.1769 351.695 56.5913 351.727 57.7069C351.763 58.938 351.18 59.7503 350.263 59.7436Z" fill="#C49A6D"/>
<path d="M350.297 51.5073C351.123 51.5266 351.706 52.2391 351.723 53.2541C351.74 54.3295 351.332 54.9972 350.626 55.0501C349.679 55.1209 348.859 54.2781 348.827 53.1975C348.797 52.2443 349.456 51.4864 350.297 51.5073Z" fill="#C49A6D"/>
<path d="M350.368 65.5982C351.139 65.5743 351.733 66.3449 351.725 67.3607C351.717 68.3466 351.136 69.0785 350.33 69.1165C349.506 69.1567 348.821 68.4122 348.821 67.4814C348.823 66.5037 349.545 65.6243 350.368 65.5982Z" fill="#C49A6D"/>
<path d="M335.821 68.7498C335.778 68.6693 335.614 68.6552 335.416 68.5702C335.5 70.0085 335.712 71.3939 336.028 72.7391H333.327C333.033 71.3328 332.851 69.893 332.815 68.4048C332.724 64.6242 332.789 60.8391 332.8 57.0577C332.8 56.6657 332.616 56.144 333.058 55.9227C333.545 55.6783 333.985 56.0285 334.367 56.3125C334.916 56.7186 335.275 57.2627 335.357 57.961C335.426 58.5586 335.519 59.1541 335.555 59.751C335.832 64.4706 337.741 68.4092 341.12 71.6958C341.474 72.0386 341.822 72.3918 342.174 72.7391H338.632C337.579 71.5109 336.614 70.2038 335.821 68.7498Z" fill="#6F7857"/>
<path d="M327.309 58.7011C327.892 58.6929 328.568 58.5663 328.565 59.515C328.56 60.6499 328.558 61.6851 328.558 62.7031C328.566 63.3947 328.563 64.0624 328.56 64.7622V65.1929H328.558C328.557 65.5939 328.557 66.0053 328.561 66.4479C328.569 67.5203 327.791 67.2953 327.17 67.3035C326.587 67.3117 325.911 67.4384 325.914 66.4912C325.919 65.3562 325.919 64.321 325.919 63.3015C325.911 62.6114 325.916 61.9437 325.919 61.2439V60.8117H325.921C325.922 60.4122 325.922 60.0001 325.918 59.5567C325.908 58.4858 326.688 58.7093 327.309 58.7011Z" fill="#6F7857"/>
<path d="M321.336 58.7011C321.919 58.6929 322.595 58.5663 322.591 59.515C322.587 60.6499 322.587 61.6851 322.587 62.7031C322.593 63.3947 322.59 64.0624 322.587 64.7622V65.1929H322.585C322.584 65.5939 322.584 66.0053 322.588 66.4479C322.598 67.5203 321.817 67.2953 321.197 67.3035C320.614 67.3117 319.938 67.4384 319.941 66.4912C319.946 65.3562 319.946 64.321 319.946 63.3015C319.939 62.6114 319.942 61.9437 319.946 61.2439V60.8117H319.948C319.949 60.4122 319.949 60.0001 319.946 59.5567C319.935 58.4858 320.715 58.7093 321.336 58.7011Z" fill="#6F7857"/>
<path d="M264.921 62.4428C265.169 61.0932 265.265 59.7153 265.427 58.3515C265.617 56.7462 266.3 56.0911 267.897 56.001C268.255 56.9787 267.859 58.0221 268.144 59.008C268.036 59.2487 268.037 59.4894 268.141 59.7302C267.97 60.5693 267.994 61.4092 268.133 62.2506C268.015 62.6128 268.007 62.9742 268.151 63.3342C267.93 64.7658 268.018 66.1944 268.165 67.6245C268.109 67.9763 268.019 68.3273 268.004 68.682C267.936 70.0823 267.748 71.429 267.48 72.7406H264.831C265.048 71.8336 265.231 70.914 265.348 69.9616C265.4 69.551 265.355 69.1299 265.355 68.7051C264.778 68.6693 264.745 69.1895 264.543 69.504C263.817 70.636 263.029 71.7129 262.175 72.7406H258.684C259.158 72.2569 259.64 71.7822 260.115 71.2986C262.566 68.8109 264.286 65.9067 264.921 62.4428Z" fill="#6F7857"/>
<path d="M315.364 58.7011C315.947 58.6929 316.621 58.5663 316.617 59.515C316.614 60.6499 316.613 61.6851 316.613 62.7031C316.621 63.3947 316.617 64.0624 316.614 64.7622V65.1929H316.613C316.611 65.5939 316.611 66.0053 316.616 66.4479C316.624 67.5203 315.845 67.2953 315.224 67.3035C314.642 67.3117 313.966 67.4384 313.969 66.4912C313.974 65.3562 313.974 64.321 313.974 63.3015C313.967 62.6114 313.97 61.9437 313.974 61.2439V60.8117H313.975C313.977 60.4122 313.977 60.0001 313.973 59.5567C313.963 58.4858 314.742 58.7093 315.364 58.7011Z" fill="#6F7857"/>
<path d="M216.8 45.4014C212.296 45.4431 207.79 45.4096 203.286 45.4125C202.806 45.4125 202.318 45.3857 201.847 45.4625C201.107 45.5847 200.648 46.0423 200.701 46.824C200.747 47.5059 201.175 47.9277 201.856 47.9956C202.451 48.0552 203.055 48.0403 203.656 48.0403C211.344 48.0455 219.031 48.0552 226.721 48.0373C228.06 48.0343 229.348 48.2407 230.613 48.6506C232.709 49.3295 234.465 50.6359 235.731 52.2971L232.056 52.318C230.735 51.291 229.133 50.7582 227.255 50.7515C223.169 50.7336 219.086 50.747 215 50.747V50.7373C210.976 50.7373 206.952 50.7388 202.928 50.7358C202.27 50.7358 201.611 50.7582 200.96 50.586C198.73 50.0017 197.468 47.7452 198.157 45.5459C198.741 43.6851 200.162 42.7401 202.475 42.7334C206.981 42.7222 211.485 42.7334 215.989 42.7304C217.071 42.7304 218.15 42.7066 219.203 42.398C222.036 41.5701 224.115 39.6399 225.157 37.0703H228.035C226.491 42.0336 222.115 45.3514 216.8 45.4014Z" fill="#6F7857"/>
<path d="M267.041 43.9991C267.33 44.2755 267.731 44.4902 267.805 45.0826C267.103 45.1326 266.389 45.0893 265.726 45.254C264.726 45.503 264.175 45.0454 263.631 44.3121C262.478 42.7552 261.528 41.0934 260.938 39.2526C260.711 38.5528 260.336 38.3069 259.633 38.3278C258.493 38.365 257.349 38.2831 256.212 38.3539C254.729 38.4463 253.518 39.3599 253.178 40.5203C252.839 41.6732 253.802 42.9639 254.937 42.879C255.536 42.8335 255.854 42.3685 256.265 42.0264C256.838 41.5465 257.459 41.4727 258.04 42.0309C258.608 42.5786 258.561 43.2031 258.181 43.8291C257.897 44.2979 257.498 44.6623 257.039 44.9589C254.379 46.6715 250.619 44.6459 250.434 41.3631C250.332 39.5589 250.944 38.1191 252.181 37.0713H263.082C263.777 39.7385 265.035 42.0793 267.041 43.9991Z" fill="#6F7857"/>
<path d="M243.662 41.7691C243.412 43.5398 242.341 44.6904 240.702 45.3067C238.914 45.9797 236.789 45.2717 235.96 43.7775C235.536 43.0054 235.638 42.281 236.267 41.8719C237.025 41.3808 237.582 41.7497 238.176 42.2743C239.067 43.0583 239.652 43.0598 240.381 42.445C241.125 41.819 241.284 40.9053 240.772 40.011C240.15 38.923 239.133 38.4386 237.94 38.3648C236.803 38.2955 235.659 38.376 234.521 38.3208C233.79 38.2858 233.431 38.5921 233.225 39.2568C232.777 40.6981 232.025 41.9904 231.256 43.2841C230.396 44.7306 229.394 45.7472 227.525 45.1688C227.195 45.066 226.817 45.113 226.461 45.0906C226.4 44.984 226.337 44.8797 226.274 44.7754C228.76 42.711 230.293 40.0967 231.09 37.0703H241.953C243.423 38.1554 243.931 39.8672 243.662 41.7691Z" fill="#6F7857"/>
<path d="M247.076 63.7791C247.893 63.782 248.68 64.7121 248.636 65.625C248.593 66.5499 247.896 67.3428 247.153 67.3137C246.313 67.2817 245.511 66.2652 245.54 65.2718C245.559 64.6525 246.459 63.7776 247.076 63.7791Z" fill="#C49A6D"/>
<path d="M247.106 68.4786C247.867 68.498 248.606 69.3133 248.635 70.1659C248.668 71.1496 247.922 72.0536 247.12 71.9991C246.313 71.9425 245.754 71.2204 245.753 70.2314C245.753 69.2269 246.344 68.4593 247.106 68.4786Z" fill="#C49A6D"/>
<path d="M241.076 72.0631C241.062 71.0489 241.61 70.3103 242.429 70.2477C243.242 70.1866 243.946 71.034 243.975 72.1049C243.98 72.3314 243.943 72.5431 243.88 72.7391H241.185C241.119 72.5349 241.079 72.3091 241.076 72.0631Z" fill="#C49A6D"/>
<path d="M251.573 70.25C252.407 70.2679 252.983 70.9647 253 71.976C253.005 72.2532 252.965 72.5103 252.889 72.7398H250.263C250.167 72.5006 250.108 72.2435 250.114 71.9834C250.135 71.0593 250.83 70.2343 251.573 70.25Z" fill="#C49A6D"/>
<path d="M237.748 57.7308C238.541 57.6525 239.241 58.3598 239.309 59.3107C239.392 60.4837 238.911 61.1499 237.944 61.1917C237.157 61.2252 236.506 60.6186 236.414 59.7675C236.31 58.7965 236.957 57.8098 237.748 57.7308Z" fill="#C49A6D"/>
<path d="M242.519 46.8203C243.344 46.8159 243.958 47.5283 243.981 48.5254C244.007 49.5479 243.329 50.3327 242.413 50.3423C241.693 50.3491 241.118 49.6537 241.074 48.7244C241.024 47.623 241.629 46.827 242.519 46.8203Z" fill="#C49A6D"/>
<path d="M242.523 59.7436C241.703 59.7392 241.107 59.0409 241.077 58.0482C241.04 56.8961 241.68 56.1642 242.718 56.1702C243.612 56.1769 243.955 56.5913 243.988 57.7069C244.023 58.938 243.44 59.7503 242.523 59.7436Z" fill="#C49A6D"/>
<path d="M242.556 51.5073C243.384 51.5266 243.965 52.2391 243.981 53.2541C243.999 54.3295 243.591 54.9972 242.887 55.0501C241.938 55.1209 241.119 54.2781 241.085 53.1975C241.056 52.2443 241.714 51.4864 242.556 51.5073Z" fill="#C49A6D"/>
<path d="M236.423 54.7894C236.409 53.9965 237.377 52.9405 238.079 52.9837C238.793 53.0269 239.316 53.8296 239.31 54.8714C239.302 55.9177 238.788 56.5087 237.884 56.5102C237.134 56.5102 236.44 55.6919 236.423 54.7894Z" fill="#C49A6D"/>
<path d="M242.627 65.5982C243.398 65.5743 243.992 66.3449 243.984 67.3607C243.975 68.3466 243.395 69.0785 242.589 69.1165C241.765 69.1567 241.08 68.4122 241.08 67.4814C241.082 66.5037 241.804 65.6243 242.627 65.5982Z" fill="#C49A6D"/>
<path d="M242.499 60.8786C243.37 60.8577 244.008 61.6447 243.983 62.7119C243.961 63.7053 243.375 64.4118 242.56 64.4297C241.688 64.4505 241.051 63.6621 241.074 62.5964C241.099 61.5992 241.68 60.898 242.499 60.8786Z" fill="#C49A6D"/>
<path d="M238.079 67.3242C238.961 67.3592 239.309 67.8123 239.309 68.9227C239.307 69.9728 238.784 70.5712 237.873 70.5638C237.118 70.5586 236.425 69.7239 236.428 68.8184C236.428 67.9502 237.16 67.2877 238.079 67.3242Z" fill="#C49A6D"/>
<path d="M247.011 57.9178C246.345 57.8985 245.773 57.1346 245.752 56.2343C245.728 55.2439 246.313 54.4316 247.059 54.4167C247.801 54.4025 248.597 55.2402 248.633 56.0734C248.666 56.8581 247.717 57.9387 247.011 57.9178Z" fill="#C49A6D"/>
<path d="M247.101 45.0147C247.87 44.9782 248.569 45.7294 248.634 46.6647C248.698 47.5739 247.925 48.5188 247.101 48.5397C246.44 48.5576 245.58 47.6298 245.532 46.8465C245.475 45.9343 246.228 45.0564 247.101 45.0147Z" fill="#C49A6D"/>
<path d="M247.103 53.2273C246.438 53.2467 245.584 52.3233 245.533 51.5341C245.473 50.6249 246.231 49.7396 247.1 49.6979C247.869 49.6606 248.565 50.4103 248.633 51.3493C248.698 52.263 247.933 53.2035 247.103 53.2273Z" fill="#C49A6D"/>
<path d="M247.145 59.1079C247.924 59.1578 248.643 60.0082 248.636 60.8734C248.628 61.8049 247.936 62.6396 247.182 62.6299C246.394 62.6187 245.485 61.6045 245.531 60.7825C245.575 59.9925 246.469 59.0647 247.145 59.1079Z" fill="#C49A6D"/>
<path d="M237.88 62.419C238.603 62.3966 239.251 63.0897 239.306 63.9408C239.374 65.0199 238.795 65.8329 237.924 65.8769C237.174 65.9134 236.463 65.116 236.424 64.1964C236.394 63.4564 237.227 62.4384 237.88 62.419Z" fill="#C49A6D"/>
<path d="M257.661 59.383C257.74 60.3287 257.14 61.1329 256.312 61.1902C255.484 61.2498 254.82 60.5486 254.767 59.5626C254.714 58.5528 255.25 57.8098 256.095 57.7278C256.86 57.6541 257.581 58.4164 257.661 59.383Z" fill="#C49A6D"/>
<path d="M251.63 56.1887C252.428 56.2387 252.995 56.966 252.999 57.9527C253.006 58.961 252.417 59.7301 251.654 59.7122C250.893 59.6929 250.153 58.8805 250.121 58.0265C250.084 57.0458 250.827 56.1388 251.63 56.1887Z" fill="#C49A6D"/>
<path d="M256.155 65.8769C255.393 65.8367 254.794 65.1481 254.776 64.291C254.757 63.3453 255.362 62.4034 256.02 62.3534C256.882 62.2893 257.664 63.0987 257.677 64.0682C257.693 65.1451 257.038 65.9239 256.155 65.8769Z" fill="#C49A6D"/>
<path d="M256.305 67.0992C257.052 67.1603 257.691 68.0285 257.673 68.963C257.657 69.9021 256.933 70.6421 256.105 70.5631C255.297 70.4878 254.743 69.7269 254.769 68.7268C254.793 67.7721 255.492 67.0321 256.305 67.0992Z" fill="#C49A6D"/>
<path d="M256.169 53.0431C257.002 53.0066 257.653 53.7079 257.676 54.6692C257.702 55.7431 257.066 56.5301 256.188 56.504C255.364 56.4817 254.788 55.7804 254.77 54.7788C254.753 53.7995 255.331 53.0804 256.169 53.0431Z" fill="#C49A6D"/>
<path d="M251.629 51.5006C252.418 51.5506 253.255 52.5589 253.217 53.4107C253.17 54.4302 252.558 55.1091 251.713 55.0786C250.929 55.0517 250.096 54.0673 250.122 53.202C250.148 52.2712 250.873 51.4544 251.629 51.5006Z" fill="#C49A6D"/>
<path d="M251.571 69.115C250.819 69.1262 250.127 68.29 250.119 67.3592C250.109 66.4918 250.827 65.6444 251.608 65.5967C252.284 65.5527 253.182 66.4828 253.223 67.2676C253.265 68.0925 252.361 69.1038 251.571 69.115Z" fill="#C49A6D"/>
<path d="M251.557 46.8228C252.38 46.828 252.966 47.5144 253 48.5115C253.033 49.5019 252.465 50.3202 251.725 50.3493C250.991 50.3783 250.186 49.566 250.119 48.7298C250.043 47.7938 250.778 46.8183 251.557 46.8228Z" fill="#C49A6D"/>
<path d="M251.568 60.8764C252.391 60.889 252.978 61.597 252.999 62.5971C253.02 63.6777 252.372 64.4677 251.498 64.4274C250.763 64.3932 250.102 63.525 250.121 62.618C250.142 61.6872 250.824 60.8637 251.568 60.8764Z" fill="#C49A6D"/>
<path d="M207.623 58.7011C208.205 58.6929 208.88 58.5663 208.876 59.515C208.873 60.6499 208.872 61.6851 208.872 62.7031C208.88 63.3947 208.876 64.0624 208.873 64.7622V65.1929H208.872C208.87 65.5939 208.87 66.0053 208.875 66.4479C208.883 67.5203 208.104 67.2953 207.483 67.3035C206.899 67.3117 206.225 67.4384 206.228 66.4912C206.233 65.3562 206.233 64.321 206.233 63.3015C206.226 62.6114 206.229 61.9437 206.233 61.2439V60.8117H206.234C206.236 60.4122 206.236 60.0001 206.231 59.5567C206.222 58.4858 207.002 58.7093 207.623 58.7011Z" fill="#6F7857"/>
<path d="M149.963 59.383C150.042 60.3287 149.441 61.1329 148.613 61.1902C147.786 61.2498 147.122 60.5486 147.068 59.5626C147.014 58.5528 147.552 57.8098 148.396 57.7278C149.162 57.6541 149.882 58.4164 149.963 59.383Z" fill="#C49A6D"/>
<path d="M148.469 53.0431C149.303 53.0066 149.954 53.7079 149.977 54.6692C150.002 55.7431 149.365 56.5301 148.489 56.504C147.664 56.4817 147.089 55.7804 147.071 54.7788C147.052 53.7995 147.632 53.0804 148.469 53.0431Z" fill="#C49A6D"/>
<path d="M148.456 65.8769C147.695 65.8367 147.097 65.1481 147.077 64.291C147.058 63.3453 147.663 62.4034 148.322 62.3534C149.183 62.2893 149.965 63.0987 149.979 64.0682C149.994 65.1451 149.339 65.9239 148.456 65.8769Z" fill="#C49A6D"/>
<path d="M148.606 67.0992C149.354 67.1603 149.991 68.0285 149.975 68.963C149.958 69.9021 149.234 70.6421 148.407 70.5631C147.6 70.4878 147.045 69.7269 147.07 68.7268C147.094 67.7721 147.794 67.0321 148.606 67.0992Z" fill="#C49A6D"/>
</g>
</g>
</svg>
