<svg width="526" height="94" viewBox="0 0 526 94" fill="none" xmlns="http://www.w3.org/2000/svg">
<mask id="mask0_97_64906" style="mask-type:alpha" maskUnits="userSpaceOnUse" x="-44" y="0" width="570" height="94">
<rect x="-44" y="0.97583" width="570" height="93" fill="white"/>
</mask>
<g mask="url(#mask0_97_64906)">
<mask id="mask1_97_64906" style="mask-type:alpha" maskUnits="userSpaceOnUse" x="-1870" y="6" width="2794" height="76">
<rect x="-1869.35" y="6.69922" width="2793.31" height="74.8461" fill="#D9D9D9"/>
</mask>
<g mask="url(#mask1_97_64906)">
<path d="M-1231.21 35.1929H342.49C352.349 35.1929 361.384 40.1428 365.923 48.0311L381.352 74.8382H-1231.21V35.1929Z" fill="#2E3A2B"/>
<path d="M387.065 75.9097C386.414 75.9097 385.781 75.5676 385.439 74.9602L371.829 50.7511C365.633 39.7304 353.929 32.8847 341.284 32.8847H-1230.67C-1231.7 32.8847 -1232.54 32.05 -1232.54 31.0216C-1232.54 29.9924 -1231.7 29.1584 -1230.67 29.1584H341.284C355.273 29.1584 368.222 36.7323 375.076 48.9245L388.688 73.1329C389.192 74.0309 388.874 75.1667 387.977 75.6705C387.688 75.8322 387.374 75.9097 387.065 75.9097Z" fill="#C49A6D"/>
<path d="M400.301 75.9105C399.65 75.9105 399.017 75.5685 398.676 74.9611L374.367 31.7252C373.862 30.8279 374.18 29.6914 375.077 29.1883C375.974 28.6838 377.111 29.002 377.614 29.8986L401.923 73.1338C402.428 74.0318 402.11 75.1675 401.213 75.6713C400.924 75.833 400.61 75.9105 400.301 75.9105Z" fill="#C49A6D"/>
<path d="M413.535 75.9105C412.884 75.9105 412.251 75.5685 411.91 74.9611L387.6 31.7252C387.095 30.8279 387.414 29.6914 388.31 29.1884C389.207 28.6816 390.345 29.0021 390.848 29.8986L415.158 73.1338C415.662 74.0318 415.344 75.1675 414.447 75.6713C414.158 75.8338 413.844 75.9105 413.535 75.9105Z" fill="#C49A6D"/>
<path d="M426.77 75.9105C426.119 75.9105 425.486 75.5685 425.145 74.9611L400.835 31.7252C400.331 30.8279 400.649 29.6914 401.546 29.1884C402.444 28.6816 403.579 29.0021 404.083 29.8986L428.393 73.1338C428.897 74.0318 428.579 75.1675 427.683 75.6713C427.393 75.8338 427.08 75.9105 426.77 75.9105Z" fill="#C49A6D"/>
<path d="M477.613 79.2635C477.613 78.0428 476.628 77.0494 475.407 77.0419C470.718 77.0114 466.029 76.9815 461.34 76.9532C455.914 76.9905 450.485 77.1708 445.064 77.0188C440.561 76.8906 436.648 73.6846 435.255 69.471C433.818 65.121 435.068 60.6078 438.563 57.5516C440.894 55.5119 443.639 54.6526 446.708 54.6556C454.215 54.6623 461.723 54.7011 469.229 54.628C474.584 54.5751 478.887 50.2281 478.956 44.8728C478.997 41.7331 478.98 38.5927 478.983 35.453C478.989 28.119 478.895 31.0724 479.026 23.7415C479.124 18.343 482.708 13.8372 487.781 12.2648C492.772 10.7176 498.047 12.39 501.324 16.576C503.932 19.9042 504.356 23.6625 503.443 27.6659C503.358 28.0348 503.169 28.3761 503.057 28.7398C502.501 30.5537 502.818 31.6537 504.019 32.1336C505.245 32.6218 506.424 32.0017 507.048 30.31C509.183 24.518 508.513 19.0226 504.808 14.0817C501.167 9.22194 496.115 6.93778 490.102 7.51012C481.188 8.36119 475.028 15.1749 474.739 24.135C474.65 26.8946 474.711 29.6587 474.713 32.4198C474.717 39.563 474.751 36.418 474.726 43.5612C474.707 48.5819 472.253 50.7565 467.683 50.5456C466.829 50.5061 465.97 50.5314 465.113 50.5329C458.636 50.5404 452.158 50.518 445.681 50.565C438.795 50.6156 432.909 55.105 431.067 61.6348C429.196 68.2726 431.773 75.0417 437.569 78.8111C440.377 80.637 443.473 81.3882 446.777 81.4128C453.538 81.4619 460.297 81.5007 467.058 81.5454C469.841 81.5268 472.626 81.5044 475.409 81.4836C476.629 81.4753 477.613 80.4842 477.613 79.2635Z" fill="#C49A6D"/>
<path d="M485.933 67.8732C473.448 67.8396 460.963 67.8858 448.478 67.8925C447.621 67.894 446.761 67.9067 445.907 67.8396C444.672 67.7442 443.964 66.9938 443.958 65.7932C443.954 64.5673 444.738 63.8809 445.931 63.7497C446.685 63.6663 447.453 63.6834 448.214 63.6834C455.077 63.6879 461.938 63.6991 468.8 63.708C480.051 63.7229 488.128 55.7563 488.181 44.518C488.224 35.084 488.19 35.9373 488.2 26.5041C488.2 25.5539 488.16 24.5851 488.321 23.6557C488.61 21.9871 489.929 20.9311 491.509 20.9386C492.982 20.9446 494.127 21.8813 494.556 23.459C494.63 23.7303 494.588 24.0328 494.653 24.3086C495.033 25.9347 495.87 26.6963 497.082 26.5436C498.401 26.3766 499.117 25.2327 498.977 23.5141C498.547 18.2326 492.552 15.0027 487.9 17.5574C484.987 19.156 483.962 21.7226 483.978 24.9413C484.029 34.4699 483.988 33.7098 484.001 43.2377C484.004 44.7684 483.978 46.2992 483.643 47.7882C482.302 53.7344 478.621 57.515 472.762 59.0398C471.131 59.4639 469.356 59.4072 467.646 59.4206C460.498 59.475 453.349 59.4072 446.202 59.5145C442.211 59.5749 439.598 62.2734 439.676 65.9393C439.749 69.4724 442.337 71.934 446.205 72.1084C447.251 72.1568 448.302 72.0875 449.35 72.121C451.631 72.1918 453.921 71.9549 456.197 72.2917C462.85 71.8982 469.51 72.2105 476.167 72.1345C479.783 72.0935 483.408 72.0413 487.015 72.2447C489.352 72.3781 491.464 73.1167 493.237 74.2904H499.351C496.23 70.4092 491.392 67.8881 485.933 67.8732Z" fill="#C49A6D"/>
<path d="M430.139 26.9348C427.885 30.7423 427.874 34.7464 429.877 38.6217C431.755 42.2525 434.984 43.8391 440.51 43.8749C442.558 43.9166 445.545 42.6631 447.926 40.0652C449.225 38.6463 450.068 36.9397 450.714 35.1302C451.925 31.7357 454.49 29.9694 457.919 29.412C462.064 28.7398 465.621 29.8353 468.38 33.1621C469.348 34.3276 469.909 34.2181 470.626 32.8923C471.451 31.366 471.188 29.8569 469.809 28.5088C468.488 27.2188 466.847 26.4772 465.15 25.8184C459.217 23.5149 449.482 25.3676 446.583 33.9118C446.25 34.888 445.758 35.8516 445.149 36.6833C443.236 39.2954 439.754 40.3112 436.739 39.244C434.054 38.2945 432.531 35.6847 432.739 32.3959C432.875 30.2824 433.982 28.8285 435.964 28.1652C437.583 27.6234 439.324 28.0586 440.079 29.1936C440.845 30.345 440.626 31.1343 438.997 32.7343C438.164 33.5541 437.772 34.4297 438.392 35.5237C438.948 36.506 440.134 36.8234 441.413 36.2339C443.394 35.3233 444.418 33.6718 444.695 31.5516C445.139 28.1645 443.41 25.3512 440.187 24.1536C436.864 22.9209 431.725 24.2557 430.139 26.9348Z" fill="#C49A6D"/>
<path d="M512.276 57.2712C512.487 53.5703 510.825 50.8264 507.547 49.1592C506.494 48.6257 506.053 48.1107 506.588 46.9861C506.791 46.5606 506.933 46.0918 507.019 45.6283C507.947 40.6531 504 36.2815 499.147 36.9142C497.248 37.1616 495.723 38.0775 494.739 39.7357C494.216 40.6173 494.211 41.5883 494.944 42.385C495.481 42.9693 496.204 43.321 497.002 42.9536C497.506 42.7219 497.992 42.3731 498.378 41.9736C499.324 40.9959 500.332 40.9005 501.454 41.601C502.635 42.3388 503.114 43.6728 502.719 45.0694C502.205 46.8825 500.783 48.0846 498.767 48.2486C497.537 48.3469 496.292 48.2672 495.053 48.2754C492.789 48.2925 492.771 48.2903 492.212 50.4418C491.109 54.6822 489.113 58.401 485.923 61.4535C485.465 61.8924 484.828 62.2323 484.713 63.1728C485.826 63.2525 486.959 63.1832 488.01 63.444C489.597 63.839 490.471 63.1146 491.333 61.9491C493.162 59.4794 494.672 56.8434 495.609 53.9213C495.965 52.8094 496.564 52.4197 497.679 52.454C499.488 52.5121 501.303 52.3832 503.107 52.4964C505.463 52.6425 507.381 54.092 507.923 55.9335C508.46 57.7616 506.932 59.8102 505.131 59.6746C504.181 59.6045 503.676 58.866 503.025 58.3227C502.115 57.5611 501.128 57.4434 500.208 58.3294C499.305 59.1991 499.38 60.1888 499.982 61.1822C500.433 61.9267 501.068 62.505 501.797 62.976C506.017 65.6939 511.983 62.479 512.276 57.2712Z" fill="#C49A6D"/>
<path d="M449.09 17.3599C448.16 16.1086 448.117 14.5175 447.547 13.1217C446.878 11.4792 445.746 10.4567 443.965 10.2503C442.815 10.1176 442.429 10.5551 442.747 11.74C443.291 13.7588 443.931 15.7509 444.51 17.7593C444.769 18.6543 445.062 19.4503 444.301 20.4064C443.189 21.8045 445.021 22.2442 445.52 23.1049C445.974 23.8904 446.625 23.8233 447.436 23.3039C453.353 19.5188 459.794 19.3452 466.413 20.7589C468.958 21.3029 469.316 21.1315 469.888 18.6312C470.024 18.0388 470.112 17.4851 469.49 17.137C468.527 16.599 468.47 15.5944 468.2 14.7046C467.728 13.1589 467.302 11.5999 466.82 10.058C466.438 8.84473 465.805 7.78648 464.591 7.23202C463.728 6.83854 462.74 6.34891 461.92 7.06434C461.227 7.67097 461.935 8.4967 462.101 9.18307C462.457 10.6579 462.984 12.0917 463.395 13.5547C463.588 14.241 464.011 14.9401 463.5 15.7516C462.078 15.7516 460.653 15.6942 459.239 15.7703C458.152 15.8284 457.716 15.2613 457.455 14.3491C457.035 12.8869 456.657 11.4084 456.13 9.9842C455.515 8.32827 454.256 7.37958 452.472 7.23426C451.553 7.16048 450.974 7.45336 451.318 8.55632C451.683 9.73753 451.986 10.9374 452.343 12.1201C453.64 16.4246 453.644 16.4231 449.09 17.3599Z" fill="#C49A6D"/>
<path d="M452.768 40.8373C452.725 37.0075 455.901 33.7225 459.766 33.5988C463.768 33.4691 467.066 36.6781 467.113 40.7419C467.159 44.7901 464.026 48.0356 460.036 48.0751C456.002 48.1153 452.813 44.9413 452.768 40.8373ZM463.154 40.7292C463.081 38.9258 461.582 37.5068 459.82 37.5731C458.093 37.6387 456.674 39.1836 456.702 40.97C456.73 42.684 458.307 44.1633 460.061 44.1223C461.812 44.0821 463.228 42.5282 463.154 40.7292Z" fill="#C49A6D"/>
</g>
<mask id="mask2_97_64906" style="mask-type:alpha" maskUnits="userSpaceOnUse" x="-1232" y="38" width="1609" height="35">
<path d="M342.845 38.0149C351.46 38.0149 359.355 42.3403 363.32 49.233L376.802 72.6567H-1231.36V38.0149H342.845Z" fill="black"/>
</mask>
<g mask="url(#mask2_97_64906)">
<path d="M-12.8682 45.4016C-8.36401 45.4433 -3.85828 45.4098 0.645996 45.4128C1.12585 45.4128 1.61401 45.386 2.08423 45.4627C2.82434 45.5849 3.28345 46.0425 3.23059 46.8243C3.18433 47.5062 2.75732 47.928 2.07605 47.9958C1.48071 48.0554 0.876953 48.0405 0.275635 48.0405C-7.41223 48.0457 -15.0995 48.0554 -22.7882 48.0375C-24.1273 48.0345 -25.4159 48.241 -26.6813 48.6509C-28.7776 49.3298 -30.5334 50.6362 -31.7988 52.2973L-28.124 52.3182C-26.8027 51.2913 -25.2028 50.7584 -23.3232 50.7517C-19.2378 50.7338 -15.1539 50.7472 -11.0685 50.7472V50.7375C-7.04407 50.7375 -3.02063 50.739 1.00439 50.736C1.6626 50.736 2.32056 50.7584 2.97192 50.5863C5.20166 50.002 6.46338 47.7454 5.77478 45.5462C5.19055 43.6853 3.76855 42.7404 1.45691 42.7336C-3.04895 42.7225 -7.55322 42.7336 -12.0588 42.7307C-13.1395 42.7307 -14.2179 42.7068 -15.2709 42.3983C-18.1042 41.5703 -20.1836 39.6401 -21.2253 37.0706H-24.1035C-22.5586 42.0339 -18.1832 45.3517 -12.8682 45.4016Z" fill="#6F7857"/>
<path d="M126.76 58.7014C126.178 58.6932 125.502 58.5665 125.506 59.5152C125.51 60.6502 125.51 61.6853 125.51 62.7033C125.504 63.3949 125.507 64.0627 125.51 64.7624V65.1932H125.512C125.513 65.5941 125.513 66.0055 125.509 66.4482C125.499 67.5206 126.279 67.2955 126.9 67.3037C127.483 67.3119 128.159 67.4386 128.156 66.4914C128.151 65.3564 128.151 64.3213 128.151 63.3018C128.157 62.6117 128.154 61.9439 128.151 61.2442V60.8119H128.149C128.148 60.4125 128.148 60.0004 128.151 59.5569C128.161 58.486 127.382 58.7096 126.76 58.7014Z" fill="#6F7857"/>
<path d="M132.794 58.7014C132.211 58.6932 131.537 58.5665 131.539 59.5152C131.544 60.6502 131.545 61.6853 131.545 62.7033C131.537 63.3949 131.541 64.0627 131.544 64.7624V65.1932H131.545C131.547 65.5941 131.547 66.0055 131.544 66.4482C131.534 67.5206 132.313 67.2955 132.933 67.3037C133.516 67.3119 134.192 67.4386 134.189 66.4914C134.184 65.3564 134.184 64.3213 134.184 63.3018C134.192 62.6117 134.188 61.9439 134.184 61.2442V60.8119H134.183C134.181 60.4125 134.181 60.0004 134.186 59.5569C134.195 58.486 133.415 58.7096 132.794 58.7014Z" fill="#6F7857"/>
<path d="M138.768 58.7014C138.185 58.6932 137.509 58.5665 137.513 59.5152C137.517 60.6502 137.517 61.6853 137.517 62.7033C137.511 63.3949 137.514 64.0627 137.517 64.7624V65.1932H137.519C137.52 65.5941 137.52 66.0055 137.516 66.4482C137.506 67.5206 138.286 67.2955 138.907 67.3037C139.49 67.3119 140.166 67.4386 140.163 66.4914C140.158 65.3564 140.156 64.3213 140.156 63.3018C140.164 62.6117 140.161 61.9439 140.158 61.2442V60.8119H140.156C140.155 60.4125 140.155 60.0004 140.158 59.5569C140.167 58.486 139.389 58.7096 138.768 58.7014Z" fill="#6F7857"/>
<path d="M120.849 58.7014C120.266 58.6932 119.59 58.5665 119.593 59.5152C119.598 60.6502 119.598 61.6853 119.598 62.7033C119.59 63.3949 119.595 64.0627 119.598 64.7624V65.1932H119.6C119.601 65.5941 119.601 66.0055 119.597 66.4482C119.587 67.5206 120.367 67.2955 120.988 67.3037C121.571 67.3119 122.247 67.4386 122.244 66.4914C122.239 65.3564 122.237 64.3213 122.237 63.3018C122.245 62.6117 122.242 61.9439 122.239 61.2442V60.8119H122.237C122.235 60.4125 122.235 60.0004 122.239 59.5569C122.248 58.486 121.469 58.7096 120.849 58.7014Z" fill="#6F7857"/>
<path d="M115.101 58.7014C114.518 58.6932 113.843 58.5665 113.847 59.5152C113.85 60.6502 113.852 61.6853 113.852 62.7033C113.843 63.3949 113.847 64.0627 113.85 64.7624V65.1932H113.852C113.853 65.5941 113.853 66.0055 113.849 66.4482C113.84 67.5206 114.619 67.2955 115.24 67.3037C115.823 67.3119 116.499 67.4386 116.496 66.4914C116.491 65.3564 116.491 64.3213 116.491 63.3018C116.499 62.6117 116.494 61.9439 116.491 61.2442V60.8119H116.489C116.488 60.4125 116.488 60.0004 116.492 59.5569C116.502 58.486 115.721 58.7096 115.101 58.7014Z" fill="#6F7857"/>
<path d="M144.433 58.7014C143.851 58.6932 143.175 58.5665 143.179 59.5152C143.183 60.6502 143.185 61.6853 143.185 62.7033C143.176 63.3949 143.18 64.0627 143.183 64.7624V65.1932H143.185C143.186 65.5941 143.186 66.0055 143.182 66.4482C143.173 67.5206 143.951 67.2955 144.572 67.3037C145.157 67.3119 145.832 67.4386 145.829 66.4914C145.824 65.3564 145.824 64.3213 145.824 63.3018C145.83 62.6117 145.827 61.9439 145.824 61.2442V60.8119H145.822C145.821 60.4125 145.821 60.0004 145.825 59.5569C145.834 58.486 145.054 58.7096 144.433 58.7014Z" fill="#6F7857"/>
<path d="M119.894 72.7393H145.826V69.9126H118.174C117.985 69.9126 117.799 69.932 117.62 69.967C117.441 69.932 117.256 69.9126 117.067 69.9126H90.1055V72.7393H115.348H119.894Z" fill="#6F7857"/>
<path d="M83.066 68.7501C83.1093 68.6696 83.2732 68.6554 83.4707 68.5705C83.3873 70.0088 83.1748 71.3942 82.8589 72.7393H85.5604C85.854 71.3331 86.0359 69.8933 86.0724 68.405C86.1626 64.6244 86.0984 60.8393 86.0873 57.058C86.0873 56.666 86.2736 56.1443 85.8287 55.923C85.342 55.6785 84.9023 56.0288 84.52 56.3127C83.9716 56.7189 83.6116 57.2629 83.5295 57.9612C83.4611 58.5589 83.3679 59.1543 83.3329 59.7513C83.0548 64.4709 81.1462 68.4095 77.7675 71.696C77.4126 72.0388 77.0653 72.392 76.7129 72.7393H80.255C81.308 71.5112 82.2732 70.204 83.066 68.7501Z" fill="#6F7857"/>
<path d="M103.523 58.7014C102.94 58.6932 102.265 58.5665 102.269 59.5152C102.272 60.6502 102.274 61.6853 102.274 62.7033C102.265 63.3949 102.269 64.0627 102.272 64.7624V65.1932H102.274C102.275 65.5941 102.275 66.0055 102.271 66.4482C102.262 67.5206 103.043 67.2955 103.662 67.3037C104.246 67.3119 104.921 67.4386 104.918 66.4914C104.913 65.3564 104.913 64.3213 104.913 63.3018C104.921 62.6117 104.916 61.9439 104.913 61.2442V60.8119H104.911C104.91 60.4125 104.91 60.0004 104.914 59.5569C104.924 58.486 104.143 58.7096 103.523 58.7014Z" fill="#6F7857"/>
<path d="M91.5773 58.7014C90.9944 58.6932 90.32 58.5665 90.3238 59.5152C90.3267 60.6502 90.3283 61.6853 90.3283 62.7033C90.32 63.3949 90.3238 64.0627 90.3267 64.7624V65.1932H90.3283C90.3296 65.5941 90.3296 66.0055 90.3267 66.4482C90.3171 67.5206 91.0959 67.2955 91.7166 67.3037C92.2994 67.3119 92.9754 67.4386 92.9723 66.4914C92.9672 65.3564 92.9672 64.3213 92.9672 63.3018C92.9754 62.6117 92.9709 61.9439 92.9672 61.2442V60.8119H92.9656C92.9642 60.4125 92.9642 60.0004 92.9685 59.5569C92.9783 58.486 92.198 58.7096 91.5773 58.7014Z" fill="#6F7857"/>
<path d="M109.496 58.7014C108.913 58.6932 108.239 58.5665 108.243 59.5152C108.246 60.6502 108.247 61.6853 108.247 62.7033C108.239 63.3949 108.243 64.0627 108.246 64.7624V65.1932H108.247C108.249 65.5941 108.249 66.0055 108.246 66.4482C108.236 67.5206 109.015 67.2955 109.636 67.3037C110.218 67.3119 110.894 67.4386 110.891 66.4914C110.886 65.3564 110.886 64.3213 110.886 63.3018C110.894 62.6117 110.89 61.9439 110.886 61.2442V60.8119H110.885C110.883 60.4125 110.883 60.0004 110.888 59.5569C110.897 58.486 110.117 58.7096 109.496 58.7014Z" fill="#6F7857"/>
<path d="M97.551 58.7014C96.9683 58.6932 96.2923 58.5665 96.2959 59.5152C96.3006 60.6502 96.302 61.6853 96.302 62.7033C96.2937 63.3949 96.2975 64.0627 96.3006 64.7624V65.1932H96.302C96.3035 65.5941 96.3035 66.0055 96.299 66.4482C96.2893 67.5206 97.0696 67.2955 97.6904 67.3037C98.2732 67.3119 98.949 67.4386 98.9461 66.4914C98.9409 65.3564 98.9393 64.3213 98.9393 63.3018C98.9475 62.6117 98.9446 61.9439 98.9409 61.2442V60.8119H98.9393C98.9379 60.4125 98.9379 60.0004 98.9409 59.5569C98.9505 58.486 98.1719 58.7096 97.551 58.7014Z" fill="#6F7857"/>
<path d="M201.46 45.4016C205.964 45.4433 210.47 45.4098 214.974 45.4128C215.454 45.4128 215.942 45.386 216.412 45.4627C217.152 45.5849 217.612 46.0425 217.559 46.8243C217.512 47.5062 217.085 47.928 216.404 47.9958C215.809 48.0554 215.205 48.0405 214.604 48.0405C206.916 48.0457 199.229 48.0554 191.539 48.0375C190.199 48.0345 188.912 48.241 187.647 48.6509C185.551 49.3298 183.795 50.6362 182.529 52.2973L186.203 52.3182C187.525 51.2913 189.127 50.7584 191.005 50.7517C195.09 50.7338 199.174 50.7472 203.259 50.7472V50.7375C207.284 50.7375 211.308 50.739 215.332 50.736C215.99 50.736 216.649 50.7584 217.3 50.5863C219.53 50.002 220.792 47.7454 220.103 45.5462C219.519 43.6853 218.098 42.7404 215.785 42.7336C211.279 42.7225 206.775 42.7336 202.269 42.7307C201.189 42.7307 200.11 42.7068 199.057 42.3983C196.224 41.5703 194.145 39.6401 193.103 37.0706H190.225C191.769 42.0339 196.145 45.3517 201.46 45.4016Z" fill="#6F7857"/>
<path d="M174.596 41.7693C174.846 43.54 175.917 44.6907 177.556 45.307C179.344 45.9799 181.469 45.2719 182.298 43.7777C182.723 43.0057 182.621 42.2813 181.991 41.8721C181.233 41.381 180.676 41.7499 180.082 42.2746C179.192 43.0586 178.606 43.0601 177.877 42.4452C177.134 41.8192 176.975 40.9056 177.487 40.0113C178.108 38.9232 179.126 38.4388 180.319 38.365C181.455 38.2957 182.6 38.3762 183.738 38.3211C184.468 38.286 184.827 38.5923 185.033 39.2571C185.481 40.6984 186.234 41.9906 187.003 43.2844C187.863 44.7309 188.864 45.7474 190.733 45.1691C191.064 45.0663 191.441 45.1132 191.798 45.0908C191.859 44.9843 191.921 44.8799 191.984 44.7756C189.499 42.7113 187.966 40.097 187.168 37.0706H176.306C174.835 38.1556 174.328 39.8675 174.596 41.7693Z" fill="#6F7857"/>
<path d="M151.218 43.9993C150.929 44.2758 150.528 44.4904 150.454 45.0829C151.155 45.1328 151.869 45.0896 152.533 45.2543C153.533 45.5032 154.083 45.0456 154.627 44.3123C155.78 42.7555 156.73 41.0936 157.321 39.2529C157.547 38.5531 157.923 38.3071 158.626 38.328C159.766 38.3653 160.911 38.2833 162.047 38.3541C163.53 38.4465 164.74 39.3602 165.081 40.5205C165.419 41.6734 164.456 42.9642 163.321 42.8792C162.722 42.8337 162.405 42.3687 161.993 42.0266C161.42 41.5467 160.8 41.4729 160.218 42.0311C159.65 42.5789 159.698 43.2034 160.077 43.8294C160.361 44.2981 160.761 44.6626 161.22 44.9592C163.88 46.6717 167.639 44.6462 167.824 41.3634C167.927 39.5591 167.315 38.1193 166.077 37.0715H155.177C154.481 39.7388 153.225 42.0796 151.218 43.9993Z" fill="#6F7857"/>
<path d="M31.3473 58.7014C30.7645 58.6932 30.0886 58.5665 30.0923 59.5152C30.0968 60.6502 30.0968 61.6853 30.0968 62.7033C30.0901 63.3949 30.0938 64.0627 30.0968 64.7624V65.1932H30.0984C30.0999 65.5941 30.0999 66.0055 30.0954 66.4482C30.0856 67.5206 30.8659 67.2955 31.4866 67.3037C32.0694 67.3119 32.7454 67.4386 32.7424 66.4914C32.7371 65.3564 32.7371 64.3213 32.7371 63.3018C32.7439 62.6117 32.7409 61.9439 32.7371 61.2442V60.8119H32.7356C32.7343 60.4125 32.7343 60.0004 32.7371 59.5569C32.7483 58.486 31.9689 58.7096 31.3473 58.7014Z" fill="#6F7857"/>
<path d="M37.3195 58.7014C36.7367 58.6932 36.0621 58.5665 36.0645 59.5152C36.069 60.6502 36.0704 61.6853 36.0704 62.7033C36.0621 63.3949 36.0659 64.0627 36.069 64.7624V65.1932H36.0704C36.0719 65.5941 36.0719 66.0055 36.0675 66.4482C36.0592 67.5206 36.838 67.2955 37.4589 67.3037C38.0416 67.3119 38.7174 67.4386 38.7145 66.4914C38.7094 65.3564 38.7094 64.3213 38.7094 63.3018C38.7174 62.6117 38.713 61.9439 38.7094 61.2442V60.8119H38.7079C38.7063 60.4125 38.7063 60.0004 38.7108 59.5569C38.7205 58.486 37.9409 58.7096 37.3195 58.7014Z" fill="#6F7857"/>
<path d="M25.3734 58.7014C24.7906 58.6932 24.117 58.5665 24.1207 59.5152C24.1229 60.6502 24.1251 61.6853 24.1251 62.7033C24.117 63.3949 24.1207 64.0627 24.1229 64.7624V65.1932H24.1251C24.1258 65.5941 24.1258 66.0055 24.1229 66.4482C24.114 67.5206 24.8919 67.2955 25.5128 67.3037C26.0963 67.3119 26.7723 67.4386 26.7692 66.4914C26.764 65.3564 26.764 64.3213 26.764 63.3018C26.7723 62.6117 26.7678 61.9439 26.764 61.2442V60.8119H26.7618C26.7611 60.4125 26.7611 60.0004 26.7655 59.5569C26.7745 58.486 25.9942 58.7096 25.3734 58.7014Z" fill="#6F7857"/>
<path d="M13.4287 58.7014C12.846 58.6932 12.1702 58.5665 12.1738 59.5152C12.1782 60.6502 12.1782 61.6853 12.1782 62.7033C12.1716 63.3949 12.1753 64.0627 12.1782 64.7624V65.1932H12.1797C12.1813 65.5941 12.1813 66.0055 12.1768 66.4482C12.1671 67.5206 12.9474 67.2955 13.5681 67.3037C14.1509 67.3119 14.8269 67.4386 14.8239 66.4914C14.8186 65.3564 14.8186 64.3213 14.8186 63.3018C14.8255 62.6117 14.8224 61.9439 14.8186 61.2442V60.8119H14.8172C14.8157 60.4125 14.8157 60.0004 14.8186 59.5569C14.8298 58.486 14.0503 58.7096 13.4287 58.7014Z" fill="#6F7857"/>
<path d="M19.4011 58.7014C18.8182 58.6932 18.1438 58.5665 18.146 59.5152C18.1505 60.6502 18.1521 61.6853 18.1521 62.7033C18.1438 63.3949 18.1476 64.0627 18.1505 64.7624V65.1932H18.1521C18.1534 65.5941 18.1534 66.0055 18.1491 66.4482C18.1409 67.5206 18.9197 67.2955 19.5404 67.3037C20.1232 67.3119 20.7992 67.4386 20.7961 66.4914C20.791 65.3564 20.791 64.3213 20.791 63.3018C20.7992 62.6117 20.7947 61.9439 20.791 61.2442V60.8119H20.7894C20.788 60.4125 20.788 60.0004 20.7924 59.5569C20.8021 58.486 20.0219 58.7096 19.4011 58.7014Z" fill="#6F7857"/>
<path d="M46.2245 62.4431C45.9771 61.0935 45.881 59.7155 45.7191 58.3517C45.5292 56.7465 44.8458 56.0914 43.2487 56.0012C42.8917 56.979 43.2867 58.0223 43.0013 59.0083C43.1101 59.249 43.1086 59.4897 43.0043 59.7304C43.1764 60.5696 43.1519 61.4094 43.0125 62.2508C43.131 62.613 43.139 62.9744 42.9945 63.3344C43.2167 64.766 43.1281 66.1946 42.9805 67.6248C43.0363 67.9765 43.1265 68.3275 43.1421 68.6823C43.21 70.0826 43.3978 71.4292 43.666 72.7408H46.3146C46.0978 71.8339 45.9144 70.9143 45.7975 69.9618C45.746 69.5512 45.7908 69.1301 45.7908 68.7054C46.3676 68.6696 46.401 69.1898 46.603 69.5043C47.329 70.6363 48.1173 71.7132 48.9707 72.7408H52.4636C51.9874 72.2572 51.506 71.7825 51.0304 71.2988C48.5795 68.8112 46.8601 65.907 46.2245 62.4431Z" fill="#6F7857"/>
<path d="M32.5868 42.7173C28.0826 42.7508 23.5783 42.7091 19.074 42.7769C16.5574 42.8149 14.9119 44.5155 14.9595 46.825C15.0065 49.0518 16.6386 50.6019 19.074 50.7129C19.7336 50.7435 20.3969 50.7003 21.0564 50.7211C22.4948 50.7659 23.9383 50.6168 25.3714 50.8285C29.5641 50.5795 33.762 50.777 37.9562 50.7286C40.2337 50.7033 42.5201 50.6697 44.793 50.7994C46.2649 50.8829 47.596 51.3486 48.713 52.0887H52.5667C50.6007 49.642 47.5504 48.0532 44.1105 48.0435C36.2437 48.0226 28.3747 48.0517 20.508 48.0562C19.9668 48.0562 19.4258 48.0644 18.8877 48.0226C18.109 47.963 17.6634 47.4898 17.6596 46.7319C17.6565 45.9598 18.1515 45.5283 18.9026 45.4448C19.3773 45.3934 19.8625 45.4031 20.341 45.4031C24.6648 45.4061 28.9895 45.4143 33.3141 45.4188C39.0749 45.427 43.5165 42.1136 44.995 37.0706H42.1333C41.0288 39.8488 38.9117 41.6709 35.81 42.478C34.7845 42.7448 33.6636 42.7091 32.5868 42.7173Z" fill="#6F7857"/>
<path d="M12.6782 72.7393H38.7131V69.9126H11.0603C10.853 69.9126 10.6511 69.9379 10.4565 69.9797C10.2606 69.9379 10.0601 69.9126 9.85132 69.9126H-17.1099V72.7393H8.23364H12.6782Z" fill="#6F7857"/>
<path d="M8.25449 58.7014C7.67173 58.6932 6.99729 58.5665 7.00095 59.5152C7.00401 60.6502 7.00547 61.6853 7.00547 62.7033C6.99729 63.3949 7.00095 64.0627 7.00401 64.7624V65.1932H7.00547C7.00694 65.5941 7.00694 66.0055 7.00401 66.4482C6.99424 67.5206 7.77305 67.2955 8.39378 67.3037C8.97654 67.3119 9.65257 67.4386 9.64951 66.4914C9.64439 65.3564 9.64439 64.3213 9.64439 63.3018C9.65257 62.6117 9.64805 61.9439 9.64439 61.2442V60.8119H9.64292C9.64134 60.4125 9.64134 60.0004 9.64573 59.5569C9.6555 58.486 8.87595 58.7096 8.25449 58.7014Z" fill="#6F7857"/>
<path d="M2.28162 58.7014C1.69959 58.6932 1.02515 58.5665 1.02735 59.5152C1.03187 60.6502 1.03333 61.6853 1.03333 62.7033C1.02515 63.3949 1.02881 64.0627 1.03187 64.7624V65.1932H1.03333C1.0348 65.5941 1.0348 66.0055 1.0304 66.4482C1.02222 67.5206 1.80018 67.2955 2.42103 67.3037C3.00452 67.3119 3.68043 67.4386 3.6775 66.4914C3.67225 65.3564 3.67225 64.3213 3.67225 63.3018C3.68043 62.6117 3.67591 61.9439 3.67225 61.2442V60.8119H3.67078C3.66932 60.4125 3.66932 60.0004 3.67371 59.5569C3.68262 58.486 2.90235 58.7096 2.28162 58.7014Z" fill="#6F7857"/>
<path d="M67.4826 41.7693C67.7337 43.54 68.8046 44.6907 70.4434 45.307C72.2312 45.9799 74.3566 45.2719 75.1853 43.7777C75.6116 43.0057 75.5088 42.2813 74.8782 41.8721C74.1196 41.381 73.5637 41.7499 72.9697 42.2746C72.0791 43.0586 71.492 43.0601 70.7638 42.4452C70.0208 41.8192 69.8613 40.9056 70.374 40.0113C70.9949 38.9232 72.0121 38.4388 73.206 38.365C74.3424 38.2957 75.4871 38.3762 76.6251 38.3211C77.3555 38.286 77.7139 38.5923 77.9196 39.2571C78.3683 40.6984 79.121 41.9906 79.89 43.2844C80.7493 44.7309 81.7516 45.7474 83.6207 45.1691C83.9508 45.0663 84.3279 45.1132 84.685 45.0908C84.7454 44.9843 84.8086 44.8799 84.8712 44.7756C82.3859 42.7113 80.8529 40.097 80.0554 37.0706H69.1929C67.7239 38.1556 67.2143 39.8675 67.4826 41.7693Z" fill="#6F7857"/>
<path d="M94.3467 45.4016C98.851 45.4433 103.357 45.4098 107.861 45.4128C108.341 45.4128 108.829 45.386 109.299 45.4627C110.039 45.5849 110.498 46.0425 110.445 46.8243C110.399 47.5062 109.972 47.928 109.291 47.9958C108.696 48.0554 108.092 48.0405 107.49 48.0405C99.8026 48.0457 92.1155 48.0554 84.426 48.0375C83.0876 48.0345 81.7983 48.241 80.5337 48.6509C78.4373 49.3298 76.6814 50.6362 75.416 52.2973L79.0908 52.3182C80.4121 51.2913 82.0137 50.7584 83.8917 50.7517C87.9771 50.7338 92.061 50.7472 96.1465 50.7472V50.7375C100.171 50.7375 104.194 50.739 108.219 50.736C108.877 50.736 109.535 50.7584 110.187 50.5863C112.417 50.002 113.678 47.7454 112.99 45.5462C112.407 43.6853 110.985 42.7404 108.672 42.7336C104.166 42.7225 99.6619 42.7336 95.156 42.7307C94.0754 42.7307 92.9971 42.7068 91.944 42.3983C89.1106 41.5703 87.0315 39.6401 85.9895 37.0706H83.1136C84.6555 42.0339 89.0316 45.3517 94.3467 45.4016Z" fill="#6F7857"/>
<path d="M44.1047 43.9993C43.8157 44.2758 43.4147 44.4904 43.3408 45.0829C44.0422 45.1328 44.7561 45.0896 45.4194 45.2543C46.4196 45.5032 46.9717 45.0456 47.5143 44.3123C48.6664 42.7555 49.6173 41.0936 50.2076 39.2529C50.4341 38.5531 50.8098 38.3071 51.5125 38.328C52.6526 38.3653 53.7966 38.2833 54.9338 38.3541C56.417 38.4465 57.6272 39.3602 57.967 40.5205C58.3062 41.6734 57.3433 42.9642 56.2083 42.8792C55.6091 42.8337 55.2915 42.3687 54.8801 42.0266C54.3071 41.5467 53.6864 41.4729 53.1051 42.0311C52.5372 42.5789 52.585 43.2034 52.9642 43.8294C53.2482 44.2981 53.6477 44.6626 54.1067 44.9592C56.7664 46.6717 60.5261 44.6462 60.7111 41.3634C60.8131 39.5591 60.2019 38.1193 58.9642 37.0715H48.0635C47.3682 39.7388 46.111 42.0796 44.1047 43.9993Z" fill="#6F7857"/>
<path d="M62.9128 41.4737C62.9099 42.1958 63.1409 42.4932 63.9019 42.4782C65.1024 42.4574 65.1694 42.435 65.1888 41.1592C65.197 40.6934 65.2 40.2261 65.2068 39.7596C65.218 38.8318 65.314 37.9405 65.4624 37.0723H62.6484C62.8875 38.5233 62.9196 40.0018 62.9128 41.4737Z" fill="#6F7857"/>
<path d="M94.3909 39.7134C99.1344 39.7469 103.879 39.7261 108.623 39.7149C110.893 39.7104 112.885 40.3841 114.432 42.0937C115.632 43.4217 116.249 44.8824 116.308 46.4265C116.297 46.7023 116.267 46.9803 116.279 47.253C116.214 47.9752 116.044 48.7122 115.742 49.4619C114.663 52.1411 112.57 53.6882 109.661 53.8074C106.663 53.9274 103.656 53.8439 100.655 53.8477C97.6058 53.8492 94.5579 53.8506 91.5076 53.8521C90.7451 53.8521 90.1273 54.4752 90.134 55.239C90.14 55.9932 90.7533 56.6021 91.5076 56.6021C93.2074 56.6036 94.9073 56.6036 96.608 56.6036V56.5872C100.571 56.5872 104.534 56.5894 108.498 56.5872C110.902 56.5857 113.122 55.9932 115.082 54.5407C116.156 53.7463 116.997 52.7753 117.628 51.7111C118.382 52.969 119.426 54.0787 120.746 54.9372C122.514 56.0886 124.464 56.5618 126.548 56.576C130.809 56.6066 135.068 56.6326 139.329 56.6595C141.083 56.6483 142.836 56.6341 144.591 56.6215C145.359 56.6162 145.981 55.9917 145.981 55.2234C145.981 54.4528 145.358 53.8268 144.589 53.8216C141.634 53.8022 138.681 53.7851 135.725 53.7672C132.306 53.7895 128.884 53.9036 125.47 53.8074C122.631 53.7269 120.164 51.7058 119.288 49.0513C119.103 48.4953 119.007 47.9357 118.96 47.3797C118.985 46.987 118.981 46.5935 118.958 46.2015C119.113 44.4457 119.935 42.7972 121.372 41.54C122.84 40.2559 124.57 39.7134 126.505 39.7149C131.236 39.7201 135.966 39.744 140.697 39.6978C142.759 39.6784 144.563 38.6395 145.675 37.0715H140.915C140.544 37.1192 140.154 37.1453 139.722 37.1244C139.184 37.0998 138.643 37.1162 138.102 37.1162C134.021 37.1207 129.938 37.1081 125.858 37.1371C122.373 37.1625 119.321 39.0084 117.641 41.8597C117.281 41.2494 116.851 40.6718 116.343 40.1419C114.424 38.1305 112.096 37.0924 109.286 37.1095C104.601 37.1371 99.9175 37.1274 95.2338 37.1133C94.9878 37.1133 94.771 37.0902 94.5481 37.0715H89.3984C90.4642 38.6865 92.2737 39.6993 94.3909 39.7134Z" fill="#6F7857"/>
<path d="M-12.824 39.7134C-8.08057 39.7469 -3.33569 39.7261 1.40784 39.7149C3.67786 39.7104 5.66992 40.3841 7.21704 42.0937C9.18359 44.2661 9.60107 46.794 8.5271 49.4619C7.448 52.1411 5.35547 53.6882 2.44592 53.8074C-0.550659 53.9274 -3.55688 53.8439 -6.5603 53.8477C-9.60901 53.8492 -12.6586 53.8506 -15.7073 53.8521C-16.4697 53.8521 -17.0875 54.4752 -17.0808 55.239C-17.075 55.9932 -16.4615 56.6021 -15.7051 56.6021C-14.0052 56.6036 -12.3069 56.6036 -10.6069 56.6036V56.5872C-6.64368 56.5872 -2.68054 56.5894 1.28271 56.5872C3.68909 56.5857 5.90759 55.9932 7.86755 54.5407C8.96826 53.7254 9.82764 52.7283 10.4626 51.6336C11.219 52.9243 12.2847 54.0608 13.6328 54.9372C15.402 56.0886 17.3508 56.5618 19.436 56.576C23.6951 56.6066 27.9548 56.6326 32.2153 56.6595C33.9697 56.6483 35.724 56.6341 37.4768 56.6215C38.2473 56.6162 38.8674 55.9917 38.8674 55.2234C38.8674 54.4528 38.2458 53.8268 37.4768 53.8216C34.522 53.8022 31.5685 53.7851 28.6129 53.7672C25.1937 53.7895 21.7715 53.9036 18.3553 53.8074C15.5176 53.7269 13.0508 51.7058 12.1743 49.0513C11.2689 46.311 12.0566 43.4664 14.2573 41.54C15.7277 40.2559 17.4581 39.7134 19.3912 39.7149C24.1213 39.7201 28.8536 39.744 33.5845 39.6978C35.6458 39.6784 37.4514 38.6395 38.5604 37.0715H33.8013C33.4316 37.1192 33.0419 37.1453 32.6104 37.1244C32.0708 37.0998 31.5298 37.1162 30.9888 37.1162C26.9086 37.1207 22.8262 37.1081 18.7444 37.1371C15.2224 37.1625 12.1416 39.0487 10.4775 41.9514C10.1049 41.309 9.66211 40.6994 9.12927 40.1419C7.20886 38.1305 4.88135 37.0924 2.07104 37.1095C-2.61353 37.1371 -7.29736 37.1274 -11.9797 37.1133C-12.2271 37.1133 -12.444 37.0902 -12.6667 37.0715H-17.8164C-16.7485 38.6865 -14.9412 39.6993 -12.824 39.7134Z" fill="#6F7857"/>
<path d="M277.766 41.4737C277.763 42.1958 277.994 42.4932 278.755 42.4782C279.956 42.4574 280.021 42.435 280.042 41.1592C280.05 40.6934 280.053 40.2261 280.06 39.7596C280.071 38.8318 280.167 37.9405 280.315 37.0723H277.501C277.74 38.5233 277.773 40.0018 277.766 41.4737Z" fill="#6F7857"/>
<path d="M309.245 39.7134C313.989 39.7469 318.734 39.7261 323.477 39.7149C325.747 39.7104 327.739 40.3841 329.286 42.0937C331.252 44.2661 331.67 46.794 330.597 49.4619C329.517 52.1411 327.424 53.6882 324.515 53.8074C321.517 53.9274 318.511 53.8439 315.509 53.8477C312.46 53.8492 309.411 53.8506 306.362 53.8521C305.598 53.8521 304.982 54.4752 304.989 55.239C304.995 55.9932 305.608 56.6021 306.362 56.6021C308.062 56.6036 309.762 56.6036 311.462 56.6036V56.5872C315.426 56.5872 319.389 56.5894 323.352 56.5872C325.756 56.5857 327.976 55.9932 329.936 54.5407C331.19 53.6129 332.132 52.4511 332.784 51.1715C333.545 52.6516 334.683 53.9594 336.186 54.9372C337.954 56.0886 339.905 56.5618 341.988 56.576C346.249 56.6066 350.509 56.6326 354.769 56.6595C356.522 56.6483 358.279 56.6341 360.031 56.6215C360.8 56.6162 361.421 55.9917 361.421 55.2234C361.421 54.4528 360.8 53.8268 360.03 53.8216C357.076 53.8022 354.121 53.7851 351.165 53.7672C347.747 53.7895 344.325 53.9036 340.908 53.8074C338.072 53.7269 335.605 51.7058 334.728 49.0513C333.821 46.311 334.61 43.4664 336.812 41.54C338.282 40.2559 340.013 39.7134 341.944 39.7149C346.676 39.7201 351.407 39.744 356.137 39.6978C358.2 39.6784 360.005 38.6395 361.115 37.0715H356.355C355.985 37.1192 355.594 37.1453 355.164 37.1244C354.625 37.0998 354.084 37.1162 353.542 37.1162C349.461 37.1207 345.378 37.1081 341.297 37.1371C337.598 37.1647 334.375 39.2335 332.779 42.3896C332.369 41.5855 331.849 40.8246 331.198 40.1419C329.278 38.1305 326.951 37.0924 324.141 37.1095C319.456 37.1371 314.772 37.1274 310.088 37.1133C309.842 37.1133 309.625 37.0902 309.403 37.0715H304.253C305.319 38.6865 307.128 39.6993 309.245 39.7134Z" fill="#6F7857"/>
<path d="M201.504 39.7134C206.248 39.7469 210.991 39.7261 215.736 39.7149C218.006 39.7104 219.998 40.3841 221.545 42.0937C223.51 44.2661 223.929 46.794 222.855 49.4619C221.776 52.1411 219.683 53.6882 216.774 53.8074C213.776 53.9274 210.77 53.8439 207.768 53.8477C204.719 53.8492 201.669 53.8506 198.621 53.8521C197.857 53.8521 197.241 54.4752 197.247 55.239C197.253 55.9932 197.867 56.6021 198.621 56.6021C200.321 56.6036 202.021 56.6036 203.721 56.6036V56.5872C207.684 56.5872 211.648 56.5894 215.611 56.5872C218.016 56.5857 220.235 55.9932 222.195 54.5407C223.463 53.6017 224.412 52.4235 225.063 51.1283C225.824 52.6255 226.968 53.9498 228.486 54.9372C230.257 56.0886 232.206 56.5618 234.289 56.576C238.549 56.6066 242.81 56.6326 247.07 56.6595C248.824 56.6483 250.578 56.6341 252.332 56.6215C253.1 56.6162 253.72 55.9917 253.72 55.2234C253.72 54.4528 253.099 53.8268 252.33 53.8216C249.375 53.8022 246.421 53.7851 243.466 53.7672C240.047 53.7895 236.624 53.9036 233.21 53.8074C230.372 53.7269 227.905 51.7058 227.027 49.0513C226.122 46.311 226.91 43.4664 229.112 41.54C230.581 40.2559 232.312 39.7134 234.246 39.7149C238.976 39.7201 243.707 39.744 248.437 39.6978C250.5 39.6784 252.304 38.6395 253.414 37.0715H248.654C248.285 37.1192 247.895 37.1453 247.463 37.1244C246.925 37.0998 246.384 37.1162 245.843 37.1162C241.761 37.1207 237.679 37.1081 233.599 37.1371C229.884 37.1647 226.646 39.2499 225.057 42.4261C224.645 41.6093 224.118 40.8343 223.457 40.1419C221.537 38.1305 219.21 37.0924 216.399 37.1095C211.715 37.1371 207.031 37.1274 202.347 37.1133C202.101 37.1133 201.884 37.0902 201.661 37.0715H196.512C197.577 38.6865 199.385 39.6993 201.504 39.7134Z" fill="#6F7857"/>
<path d="M170.026 41.4737C170.023 42.1958 170.254 42.4932 171.015 42.4782C172.216 42.4574 172.281 42.435 172.302 41.1592C172.31 40.6934 172.313 40.2261 172.32 39.7596C172.331 38.8318 172.427 37.9405 172.573 37.0723H169.762C170 38.5233 170.033 40.0018 170.026 41.4737Z" fill="#6F7857"/>
<path d="M68.5185 65.5984C67.7479 65.5746 67.1539 66.3452 67.1622 67.3609C67.1704 68.3469 67.7508 69.0787 68.5572 69.1167C69.3807 69.157 70.0656 68.4125 70.0656 67.4817C70.0641 66.5039 69.3419 65.6245 68.5185 65.5984Z" fill="#C49A6D"/>
<path d="M68.647 60.8788C67.7751 60.858 67.1379 61.6449 67.1618 62.7121C67.1849 63.7055 67.7705 64.412 68.5859 64.4299C69.4578 64.4508 70.095 63.6623 70.0712 62.5966C70.0467 61.5995 69.4654 60.8982 68.647 60.8788Z" fill="#C49A6D"/>
<path d="M68.6231 59.7439C69.4435 59.7394 70.0391 59.0411 70.0696 58.0485C70.1061 56.8963 69.466 56.1645 68.4286 56.1704C67.5343 56.1771 67.1914 56.5915 67.1587 57.7071C67.1237 58.9383 67.7065 59.7506 68.6231 59.7439Z" fill="#C49A6D"/>
<path d="M53.4845 59.3833C53.4054 60.329 54.0061 61.1331 54.834 61.1905C55.6614 61.2501 56.3261 60.5488 56.3789 59.5629C56.4319 58.5531 55.8953 57.8101 55.0509 57.7281C54.2856 57.6543 53.5649 58.4167 53.4845 59.3833Z" fill="#C49A6D"/>
<path d="M54.9771 53.0434C54.144 53.0068 53.4927 53.7081 53.4695 54.6695C53.4441 55.7434 54.0798 56.5303 54.9578 56.5043C55.7813 56.4819 56.3573 55.7806 56.3752 54.779C56.3931 53.7998 55.8147 53.0806 54.9771 53.0434Z" fill="#C49A6D"/>
<path d="M54.9908 65.8772C55.7532 65.8369 56.3523 65.1483 56.3694 64.2913C56.3888 63.3456 55.7837 62.4036 55.1258 62.3537C54.2633 62.2896 53.4817 63.0989 53.469 64.0685C53.4534 65.1453 54.1077 65.9241 54.9908 65.8772Z" fill="#C49A6D"/>
<path d="M64.1346 57.9181C64.8007 57.8987 65.3725 57.1348 65.3932 56.2346C65.4172 55.2441 64.8329 54.4318 64.0861 54.4169C63.3445 54.4028 62.5486 55.2404 62.5136 56.0736C62.4793 56.8583 63.4282 57.9389 64.1346 57.9181Z" fill="#C49A6D"/>
<path d="M73.266 62.4192C72.5438 62.3969 71.8955 63.0899 71.8405 63.941C71.7719 65.0201 72.3508 65.8332 73.2228 65.8771C73.9725 65.9137 74.6835 65.1162 74.7223 64.1966C74.7528 63.4566 73.9196 62.4386 73.266 62.4192Z" fill="#C49A6D"/>
<path d="M73.0667 67.3244C72.1851 67.3595 71.8369 67.8126 71.8369 68.923C71.8384 69.973 72.3616 70.5715 73.2723 70.564C74.028 70.5588 74.7203 69.7241 74.718 68.8187C74.718 67.9504 73.9862 67.2879 73.0667 67.3244Z" fill="#C49A6D"/>
<path d="M68.6274 46.8206C67.8008 46.8161 67.189 47.5286 67.1637 48.5257C67.1391 49.5482 67.8166 50.3329 68.7317 50.3426C69.4523 50.3493 70.0284 49.654 70.0701 48.7247C70.1215 47.6232 69.5164 46.8273 68.6274 46.8206Z" fill="#C49A6D"/>
<path d="M73.397 57.731C72.6041 57.6528 71.9042 58.36 71.8364 59.3109C71.7529 60.4839 72.2343 61.1502 73.1995 61.1919C73.9879 61.2255 74.6393 60.6188 74.731 59.7678C74.8353 58.7967 74.1884 57.81 73.397 57.731Z" fill="#C49A6D"/>
<path d="M64.0445 45.0149C63.2755 44.9784 62.5771 45.7296 62.5115 46.6649C62.4475 47.5741 63.2195 48.5191 64.0445 48.5399C64.7055 48.5578 65.5662 47.63 65.6147 46.8468C65.6706 45.9346 64.9178 45.0567 64.0445 45.0149Z" fill="#C49A6D"/>
<path d="M74.7219 54.7894C74.736 53.9965 73.7702 52.9405 73.0682 52.9837C72.3527 53.0269 71.8295 53.8296 71.837 54.8714C71.8452 55.9177 72.3586 56.5087 73.2612 56.5102C74.0109 56.5102 74.7061 55.6919 74.7219 54.7894Z" fill="#C49A6D"/>
<path d="M59.5157 56.189C58.716 56.2389 58.1511 56.9663 58.1465 57.953C58.1398 58.9613 58.7293 59.7304 59.4918 59.7125C60.2525 59.6931 60.9926 58.8808 61.0247 58.0267C61.0612 57.046 60.3182 56.1391 59.5157 56.189Z" fill="#C49A6D"/>
<path d="M59.433 55.0795C60.2148 55.0504 61.0495 54.0682 61.0241 53.2029C60.9965 52.2721 60.2721 51.4531 59.5165 51.5016C58.728 51.55 57.8888 52.5576 57.9291 53.4101C57.9753 54.4311 58.5871 55.11 59.433 55.0795Z" fill="#C49A6D"/>
<path d="M59.5783 60.8766C58.7549 60.8893 58.1674 61.5973 58.146 62.5974C58.1258 63.678 58.7741 64.4679 59.6477 64.4277C60.3824 64.3934 61.0434 63.5252 61.0247 62.6182C61.0039 61.6874 60.3213 60.8639 59.5783 60.8766Z" fill="#C49A6D"/>
<path d="M54.8406 67.0994C54.0939 67.1605 53.4552 68.0288 53.473 68.9633C53.4886 69.9023 54.213 70.6423 55.0394 70.5633C55.8489 70.4881 56.4025 69.7272 56.3766 68.727C56.3527 67.7724 55.6528 67.0324 54.8406 67.0994Z" fill="#C49A6D"/>
<path d="M59.5745 69.1152C60.3272 69.1264 61.0187 68.2903 61.0284 67.3595C61.0366 66.492 60.319 65.6447 59.5372 65.597C58.862 65.553 57.964 66.4831 57.9223 67.2678C57.8805 68.0928 58.7845 69.1041 59.5745 69.1152Z" fill="#C49A6D"/>
<path d="M68.5893 51.5075C67.7613 51.5269 67.18 52.2393 67.1636 53.2543C67.1458 54.3297 67.5543 54.9975 68.2584 55.0504C69.2072 55.1212 70.0262 54.2783 70.0596 53.1977C70.0888 52.2445 69.4307 51.4866 68.5893 51.5075Z" fill="#C49A6D"/>
<path d="M64.001 59.1081C63.2222 59.1581 62.5031 60.0084 62.5098 60.8736C62.5195 61.8052 63.2095 62.6398 63.9637 62.6302C64.7522 62.619 65.6607 61.6047 65.6145 60.7827C65.5705 59.9928 64.677 59.0649 64.001 59.1081Z" fill="#C49A6D"/>
<path d="M64.0436 53.2276C64.7084 53.2469 65.5624 52.3236 65.6139 51.5344C65.6728 50.6252 64.9157 49.7398 64.0467 49.6981C63.2783 49.6608 62.5814 50.4106 62.5137 51.3496C62.4481 52.2632 63.2134 53.2037 64.0436 53.2276Z" fill="#C49A6D"/>
<path d="M64.0701 63.7793C63.2533 63.7823 62.4663 64.7123 62.5095 65.6253C62.555 66.5501 63.2496 67.343 63.9933 67.314C64.8324 67.2819 65.6351 66.2654 65.6061 65.272C65.5867 64.6527 64.6864 63.7778 64.0701 63.7793Z" fill="#C49A6D"/>
<path d="M64.0393 68.4789C63.2784 68.4983 62.5399 69.3135 62.5108 70.1661C62.4774 71.1498 63.224 72.0538 64.0251 71.9994C64.8321 71.9427 65.3905 71.2206 65.3927 70.2317C65.3927 69.2271 64.8002 68.4595 64.0393 68.4789Z" fill="#C49A6D"/>
<path d="M59.4205 50.3495C60.1538 50.3786 60.9609 49.5677 61.0272 48.7301C61.1032 47.7941 60.3669 46.8178 59.5897 46.823C58.7661 46.8275 58.1805 47.5146 58.1468 48.5117C58.1148 49.5022 58.6812 50.3204 59.4205 50.3495Z" fill="#C49A6D"/>
<path d="M70.0697 72.0634C70.0838 71.0491 69.5353 70.3106 68.7162 70.248C67.9039 70.1869 67.1997 71.0342 67.1707 72.1051C67.164 72.3317 67.2028 72.5433 67.2653 72.7393H69.9601C70.0265 72.5351 70.0667 72.3093 70.0697 72.0634Z" fill="#C49A6D"/>
<path d="M59.573 70.2502C58.7399 70.2681 58.1637 70.9649 58.1459 71.9762C58.1413 72.2534 58.1809 72.5105 58.2568 72.7401H60.8832C60.9792 72.5008 61.0389 72.2437 61.0321 71.9836C61.0097 71.0595 60.316 70.2346 59.573 70.2502Z" fill="#C49A6D"/>
<path d="M306.431 58.7014C305.848 58.6932 305.173 58.5665 305.175 59.5152C305.18 60.6502 305.181 61.6853 305.181 62.7033C305.173 63.3949 305.177 64.0627 305.18 64.7624V65.1932H305.181C305.183 65.5941 305.183 66.0055 305.18 66.4482C305.17 67.5206 305.949 67.2955 306.57 67.3037C307.153 67.3119 307.829 67.4386 307.826 66.4914C307.82 65.3564 307.82 64.3213 307.82 63.3018C307.829 62.6117 307.824 61.9439 307.82 61.2442V60.8119H307.819C307.817 60.4125 307.817 60.0004 307.822 59.5569C307.832 58.486 307.051 58.7096 306.431 58.7014Z" fill="#6F7857"/>
<path d="M330.323 58.7014C329.74 58.6932 329.064 58.5665 329.067 59.5152C329.073 60.6502 329.073 61.6853 329.073 62.7033C329.066 63.3949 329.07 64.0627 329.073 64.7624V65.1932H329.074C329.076 65.5941 329.076 66.0055 329.071 66.4482C329.061 67.5206 329.842 67.2955 330.462 67.3037C331.045 67.3119 331.721 67.4386 331.718 66.4914C331.713 65.3564 331.711 64.3213 331.711 63.3018C331.72 62.6117 331.717 61.9439 331.713 61.2442V60.8119H331.711C331.71 60.4125 331.71 60.0004 331.713 59.5569C331.723 58.486 330.944 58.7096 330.323 58.7014Z" fill="#6F7857"/>
<path d="M312.405 58.7014C311.822 58.6932 311.146 58.5665 311.149 59.5152C311.155 60.6502 311.155 61.6853 311.155 62.7033C311.148 63.3949 311.152 64.0627 311.155 64.7624V65.1932H311.156C311.158 65.5941 311.158 66.0055 311.153 66.4482C311.144 67.5206 311.924 67.2955 312.545 67.3037C313.127 67.3119 313.803 67.4386 313.8 66.4914C313.795 65.3564 313.794 64.3213 313.794 63.3018C313.802 62.6117 313.799 61.9439 313.795 61.2442V60.8119H313.794C313.792 60.4125 313.792 60.0004 313.795 59.5569C313.805 58.486 313.026 58.7096 312.405 58.7014Z" fill="#6F7857"/>
<path d="M335.982 58.7014C335.399 58.6932 334.724 58.5665 334.728 59.5152C334.731 60.6502 334.733 61.6853 334.733 62.7033C334.724 63.3949 334.728 64.0627 334.731 64.7624V65.1932H334.733C334.734 65.5941 334.734 66.0055 334.73 66.4482C334.721 67.5206 335.5 67.2955 336.121 67.3037C336.704 67.3119 337.38 67.4386 337.377 66.4914C337.371 65.3564 337.371 64.3213 337.371 63.3018C337.378 62.6117 337.375 61.9439 337.371 61.2442V60.8119H337.37C337.368 60.4125 337.368 60.0004 337.373 59.5569C337.383 58.486 336.602 58.7096 335.982 58.7014Z" fill="#6F7857"/>
<path d="M353.9 58.7014C353.317 58.6932 352.642 58.5665 352.646 59.5152C352.649 60.6502 352.65 61.6853 352.65 62.7033C352.642 63.3949 352.646 64.0627 352.649 64.7624V65.1932H352.65C352.652 65.5941 352.652 66.0055 352.647 66.4482C352.639 67.5206 353.418 67.2955 354.039 67.3037C354.622 67.3119 355.298 67.4386 355.295 66.4914C355.289 65.3564 355.289 64.3213 355.289 63.3018C355.296 62.6117 355.293 61.9439 355.289 61.2442V60.8119H355.288C355.286 60.4125 355.286 60.0004 355.291 59.5569C355.301 58.486 354.52 58.7096 353.9 58.7014Z" fill="#6F7857"/>
<path d="M347.928 58.7014C347.345 58.6932 346.669 58.5665 346.673 59.5152C346.677 60.6502 346.677 61.6853 346.677 62.7033C346.669 63.3949 346.674 64.0627 346.677 64.7624V65.1932H346.679C346.68 65.5941 346.68 66.0055 346.676 66.4482C346.666 67.5206 347.446 67.2955 348.067 67.3037C348.65 67.3119 349.326 67.4386 349.323 66.4914C349.318 65.3564 349.316 64.3213 349.316 63.3018C349.324 62.6117 349.322 61.9439 349.318 61.2442V60.8119H349.316C349.315 60.4125 349.315 60.0004 349.318 59.5569C349.327 58.486 348.549 58.7096 347.928 58.7014Z" fill="#6F7857"/>
<path d="M341.954 58.7014C341.371 58.6932 340.697 58.5665 340.698 59.5152C340.703 60.6502 340.705 61.6853 340.705 62.7033C340.697 63.3949 340.7 64.0627 340.703 64.7624V65.1932H340.705C340.706 65.5941 340.706 66.0055 340.703 66.4482C340.694 67.5206 341.473 67.2955 342.093 67.3037C342.676 67.3119 343.352 67.4386 343.349 66.4914C343.344 65.3564 343.344 64.3213 343.344 63.3018C343.352 62.6117 343.348 61.9439 343.344 61.2442V60.8119H343.342C343.341 60.4125 343.341 60.0004 343.345 59.5569C343.355 58.486 342.575 58.7096 341.954 58.7014Z" fill="#6F7857"/>
<path d="M324.351 58.7014C323.768 58.6932 323.093 58.5665 323.097 59.5152C323.1 60.6502 323.102 61.6853 323.102 62.7033C323.093 63.3949 323.097 64.0627 323.1 64.7624V65.1932H323.102C323.103 65.5941 323.103 66.0055 323.1 66.4482C323.091 67.5206 323.869 67.2955 324.49 67.3037C325.073 67.3119 325.749 67.4386 325.746 66.4914C325.741 65.3564 325.741 64.3213 325.741 63.3018C325.749 62.6117 325.744 61.9439 325.741 61.2442V60.8119H325.739C325.738 60.4125 325.738 60.0004 325.742 59.5569C325.752 58.486 324.971 58.7096 324.351 58.7014Z" fill="#6F7857"/>
<path d="M297.921 68.7501C297.964 68.6696 298.128 68.6554 298.325 68.5705C298.242 70.0088 298.029 71.3942 297.714 72.7393H300.415C300.709 71.3331 300.89 69.8933 300.927 68.405C301.017 64.6244 300.953 60.8393 300.942 57.058C300.942 56.666 301.128 56.1443 300.683 55.923C300.197 55.6785 299.757 56.0288 299.375 56.3127C298.826 56.7189 298.466 57.2629 298.384 57.9612C298.316 58.5589 298.222 59.1543 298.187 59.7513C297.909 64.4709 296.001 68.4095 292.622 71.696C292.267 72.0388 291.92 72.392 291.567 72.7393H295.11C296.163 71.5112 297.128 70.204 297.921 68.7501Z" fill="#6F7857"/>
<path d="M334.747 72.7393H361.265V69.9126H333.614C333.317 69.9126 333.036 69.97 332.766 70.0557C332.496 69.97 332.216 69.9126 331.919 69.9126H304.959V72.7393H330.787H334.747Z" fill="#6F7857"/>
<path d="M359.873 58.7014C359.29 58.6932 358.616 58.5665 358.618 59.5152C358.623 60.6502 358.624 61.6853 358.624 62.7033C358.616 63.3949 358.62 64.0627 358.623 64.7624V65.1932H358.624C358.626 65.5941 358.626 66.0055 358.623 66.4482C358.613 67.5206 359.392 67.2955 360.013 67.3037C360.595 67.3119 361.271 67.4386 361.268 66.4914C361.263 65.3564 361.263 64.3213 361.263 63.3018C361.271 62.6117 361.267 61.9439 361.263 61.2442V60.8119H361.262C361.26 60.4125 361.26 60.0004 361.265 59.5569C361.274 58.486 360.494 58.7096 359.873 58.7014Z" fill="#6F7857"/>
<path d="M366.658 43.9993C366.369 44.2758 365.968 44.4904 365.896 45.0829C366.595 45.1328 367.309 45.0896 367.972 45.2543C368.973 45.5032 369.525 45.0456 370.067 44.3123C371.22 42.7555 372.172 41.0936 372.761 39.2529C372.987 38.5531 373.363 38.3071 374.066 38.328C375.206 38.3653 376.35 38.2833 377.487 38.3541C378.972 38.4465 380.18 39.3602 380.522 40.5205C380.861 41.6734 379.896 42.9642 378.763 42.8792C378.162 42.8337 377.845 42.3687 377.436 42.0266C376.862 41.5467 376.239 41.4729 375.66 42.0311C375.09 42.5789 375.138 43.2034 375.517 43.8294C375.803 44.2981 376.201 44.6626 376.661 44.9592C379.32 46.6717 383.079 44.6462 383.266 41.3634C383.367 39.5591 382.755 38.1193 381.517 37.0715H370.617C369.921 39.7388 368.664 42.0796 366.658 43.9993Z" fill="#6F7857"/>
<path d="M355.139 42.7173C350.635 42.7508 346.131 42.7091 341.626 42.7769C339.11 42.8149 337.464 44.5155 337.512 46.825C337.559 49.0518 339.191 50.6019 341.628 50.7129C342.287 50.7435 342.949 50.7003 343.609 50.7211C345.047 50.7659 346.49 50.6168 347.924 50.8285C352.118 50.5795 356.314 50.777 360.508 50.7286C362.788 50.7033 365.072 50.6697 367.345 50.7994C368.817 50.8829 370.147 51.3486 371.267 52.0887H375.119C373.153 49.642 370.103 48.0532 366.663 48.0435C358.796 48.0226 350.927 48.0517 343.059 48.0562C342.521 48.0562 341.978 48.0644 341.44 48.0226C340.661 47.963 340.215 47.4898 340.212 46.7319C340.209 45.9598 340.703 45.5283 341.455 45.4448C341.93 45.3934 342.415 45.4031 342.895 45.4031C347.219 45.4061 351.542 45.4143 355.866 45.4188C361.629 45.427 366.069 42.1136 367.549 37.0706H364.687C363.583 39.8488 361.464 41.6709 358.362 42.478C357.337 42.7448 356.216 42.7091 355.139 42.7173Z" fill="#6F7857"/>
<path d="M368.777 62.4431C368.531 61.0935 368.434 59.7155 368.272 58.3517C368.081 56.7465 367.399 56.0914 365.802 56.0012C365.443 56.979 365.841 58.0223 365.555 59.0083C365.662 59.249 365.662 59.4897 365.557 59.7304C365.73 60.5696 365.705 61.4094 365.565 62.2508C365.685 62.613 365.693 62.9744 365.548 63.3344C365.768 64.766 365.682 66.1946 365.534 67.6248C365.59 67.9765 365.678 68.3275 365.695 68.6823C365.763 70.0826 365.952 71.4292 366.217 72.7408H368.868C368.651 71.8339 368.468 70.9143 368.35 69.9618C368.3 69.5512 368.342 69.1301 368.342 68.7054C368.918 68.6696 368.953 69.1898 369.157 69.5043C369.881 70.6363 370.67 71.7132 371.524 72.7408H375.016C374.541 72.2572 374.058 71.7825 373.582 71.2988C371.133 68.8112 369.413 65.907 368.777 62.4431Z" fill="#6F7857"/>
<path d="M247.441 42.7173C242.936 42.7508 238.432 42.7091 233.928 42.7769C231.411 42.8149 229.766 44.5155 229.814 46.825C229.86 49.0518 231.493 50.6019 233.928 50.7129C234.587 50.7435 235.251 50.7003 235.91 50.7211C237.349 50.7659 238.791 50.6168 240.225 50.8285C244.418 50.5795 248.616 50.777 252.81 50.7286C255.089 50.7033 257.374 50.6697 259.647 50.7994C261.119 50.8829 262.449 51.3486 263.567 52.0887H267.419C265.455 49.642 262.404 48.0532 258.964 48.0435C251.098 48.0226 243.229 48.0517 235.361 48.0562C234.82 48.0562 234.28 48.0644 233.742 48.0226C232.963 47.963 232.517 47.4898 232.513 46.7319C232.511 45.9598 233.005 45.5283 233.756 45.4448C234.231 45.3934 234.716 45.4031 235.194 45.4031C239.52 45.4061 243.843 45.4143 248.168 45.4188C253.929 45.427 258.37 42.1136 259.849 37.0706H256.986C255.884 39.8488 253.765 41.6709 250.664 42.478C249.638 42.7448 248.518 42.7091 247.441 42.7173Z" fill="#6F7857"/>
<path d="M234.255 58.7014C233.672 58.6932 232.996 58.5665 233 59.5152C233.004 60.6502 233.006 61.6853 233.006 62.7033C232.998 63.3949 233.001 64.0627 233.004 64.7624V65.1932H233.006C233.007 65.5941 233.007 66.0055 233.003 66.4482C232.995 67.5206 233.774 67.2955 234.394 67.3037C234.979 67.3119 235.653 67.4386 235.65 66.4914C235.645 65.3564 235.645 64.3213 235.645 63.3018C235.652 62.6117 235.649 61.9439 235.645 61.2442V60.8119H235.643C235.642 60.4125 235.642 60.0004 235.646 59.5569C235.656 58.486 234.876 58.7096 234.255 58.7014Z" fill="#6F7857"/>
<path d="M228.282 58.7014C227.699 58.6932 227.023 58.5665 227.026 59.5152C227.032 60.6502 227.032 61.6853 227.032 62.7033C227.025 63.3949 227.029 64.0627 227.032 64.7624V65.1932H227.033C227.035 65.5941 227.035 66.0055 227.03 66.4482C227.021 67.5206 227.801 67.2955 228.422 67.3037C229.004 67.3119 229.68 67.4386 229.677 66.4914C229.672 65.3564 229.672 64.3213 229.672 63.3018C229.679 62.6117 229.673 61.9439 229.672 61.2442V60.8119H229.671C229.669 60.4125 229.669 60.0004 229.672 59.5569C229.682 58.486 228.903 58.7096 228.282 58.7014Z" fill="#6F7857"/>
<path d="M222.582 58.7014C221.999 58.6932 221.324 58.5665 221.326 59.5152C221.331 60.6502 221.331 61.6853 221.331 62.7033C221.324 63.3949 221.329 64.0627 221.331 64.7624V65.1932H221.334C221.335 65.5941 221.335 66.0055 221.33 66.4482C221.32 67.5206 222.1 67.2955 222.721 67.3037C223.305 67.3119 223.981 67.4386 223.977 66.4914C223.973 65.3564 223.971 64.3213 223.971 63.3018C223.978 62.6117 223.976 61.9439 223.973 61.2442V60.8119H223.971C223.969 60.4125 223.969 60.0004 223.973 59.5569C223.982 58.486 223.203 58.7096 222.582 58.7014Z" fill="#6F7857"/>
<path d="M216.609 58.7014C216.026 58.6932 215.352 58.5665 215.354 59.5152C215.359 60.6502 215.36 61.6853 215.36 62.7033C215.352 63.3949 215.356 64.0627 215.359 64.7624V65.1932H215.36C215.362 65.5941 215.362 66.0055 215.359 66.4482C215.349 67.5206 216.128 67.2955 216.749 67.3037C217.331 67.3119 218.007 67.4386 218.004 66.4914C217.999 65.3564 217.999 64.3213 217.999 63.3018C218.007 62.6117 218.003 61.9439 217.999 61.2442V60.8119H217.998C217.996 60.4125 217.996 60.0004 218.001 59.5569C218.01 58.486 217.23 58.7096 216.609 58.7014Z" fill="#6F7857"/>
<path d="M252.174 58.7014C251.591 58.6932 250.915 58.5665 250.918 59.5152C250.923 60.6502 250.925 61.6853 250.925 62.7033C250.916 63.3949 250.92 64.0627 250.923 64.7624V65.1932H250.925C250.926 65.5941 250.926 66.0055 250.922 66.4482C250.913 67.5206 251.692 67.2955 252.313 67.3037C252.896 67.3119 253.572 67.4386 253.569 66.4914C253.564 65.3564 253.562 64.3213 253.562 63.3018C253.57 62.6117 253.567 61.9439 253.564 61.2442V60.8119H253.562C253.561 60.4125 253.561 60.0004 253.565 59.5569C253.573 58.486 252.795 58.7096 252.174 58.7014Z" fill="#6F7857"/>
<path d="M246.201 58.7014C245.618 58.6932 244.942 58.5665 244.945 59.5152C244.951 60.6502 244.951 61.6853 244.951 62.7033C244.944 63.3949 244.948 64.0627 244.951 64.7624V65.1932H244.952C244.954 65.5941 244.954 66.0055 244.949 66.4482C244.939 67.5206 245.72 67.2955 246.34 67.3037C246.923 67.3119 247.599 67.4386 247.596 66.4914C247.591 65.3564 247.591 64.3213 247.591 63.3018C247.598 62.6117 247.592 61.9439 247.591 61.2442V60.8119H247.589C247.588 60.4125 247.588 60.0004 247.591 59.5569C247.602 58.486 246.822 58.7096 246.201 58.7014Z" fill="#6F7857"/>
<path d="M240.228 58.7014C239.645 58.6932 238.97 58.5665 238.974 59.5152C238.977 60.6502 238.979 61.6853 238.979 62.7033C238.97 63.3949 238.974 64.0627 238.977 64.7624V65.1932H238.979C238.98 65.5941 238.98 66.0055 238.976 66.4482C238.967 67.5206 239.748 67.2955 240.367 67.3037C240.95 67.3119 241.626 67.4386 241.623 66.4914C241.618 65.3564 241.618 64.3213 241.618 63.3018C241.626 62.6117 241.621 61.9439 241.618 61.2442V60.8119H241.616C241.615 60.4125 241.615 60.0004 241.619 59.5569C241.629 58.486 240.849 58.7096 240.228 58.7014Z" fill="#6F7857"/>
<path d="M227.006 72.7393H253.567V69.9126H225.914C225.609 69.9126 225.322 69.9722 225.047 70.0617C224.772 69.9722 224.484 69.9126 224.179 69.9126H197.218V72.7393H223.087H227.006Z" fill="#6F7857"/>
<path d="M153.338 62.4431C153.09 61.0935 152.994 59.7155 152.832 58.3517C152.642 56.7465 151.959 56.0914 150.362 56.0012C150.005 56.979 150.4 58.0223 150.115 59.0083C150.223 59.249 150.222 59.4897 150.118 59.7304C150.29 60.5696 150.265 61.4094 150.126 62.2508C150.244 62.613 150.252 62.9744 150.109 63.3344C150.329 64.766 150.241 66.1946 150.094 67.6248C150.15 67.9765 150.24 68.3275 150.255 68.6823C150.323 70.0826 150.511 71.4292 150.779 72.7408H153.428C153.211 71.8339 153.028 70.9143 152.911 69.9618C152.859 69.5512 152.904 69.1301 152.904 68.7054C153.481 68.6696 153.514 69.1898 153.716 69.5043C154.442 70.6363 155.23 71.7132 156.084 72.7408H159.577C159.102 72.2572 158.619 71.7825 158.144 71.2988C155.693 68.8112 153.973 65.907 153.338 62.4431Z" fill="#6F7857"/>
<path d="M139.699 42.7173C135.195 42.7508 130.692 42.7091 126.187 42.7769C123.67 42.8149 122.025 44.5155 122.072 46.825C122.119 49.0518 123.752 50.6019 126.187 50.7129C126.846 50.7435 127.51 50.7003 128.169 50.7211C129.607 50.7659 131.05 50.6168 132.485 50.8285C136.678 50.5795 140.875 50.777 145.069 50.7286C147.347 50.7033 149.634 50.6697 151.906 50.7994C153.378 50.8829 154.708 51.3486 155.826 52.0887H159.679C157.714 49.642 154.664 48.0532 151.223 48.0435C143.357 48.0226 135.487 48.0517 127.62 48.0562C127.079 48.0562 126.538 48.0644 126 48.0226C125.222 47.963 124.776 47.4898 124.773 46.7319C124.769 45.9598 125.263 45.5283 126.015 45.4448C126.49 45.3934 126.975 45.4031 127.453 45.4031C131.778 45.4061 136.103 45.4143 140.427 45.4188C146.188 45.427 150.629 42.1136 152.108 37.0706H149.245C148.143 39.8488 146.024 41.6709 142.923 42.478C141.898 42.7448 140.776 42.7091 139.699 42.7173Z" fill="#6F7857"/>
<path d="M171.158 45.0149C170.389 44.9784 169.69 45.7296 169.625 46.6649C169.561 47.5741 170.333 48.5191 171.158 48.5399C171.819 48.5578 172.68 47.63 172.728 46.8468C172.784 45.9346 172.031 45.0567 171.158 45.0149Z" fill="#C49A6D"/>
<path d="M162.091 53.0434C161.258 53.0068 160.606 53.7081 160.584 54.6695C160.558 55.7434 161.194 56.5303 162.072 56.5043C162.896 56.4819 163.472 55.7806 163.489 54.779C163.507 53.7998 162.929 53.0806 162.091 53.0434Z" fill="#C49A6D"/>
<path d="M160.598 59.3833C160.519 60.329 161.119 61.1331 161.947 61.1905C162.775 61.2501 163.439 60.5488 163.491 59.5629C163.545 58.5531 163.009 57.8101 162.164 57.7281C161.399 57.6543 160.678 58.4167 160.598 59.3833Z" fill="#C49A6D"/>
<path d="M166.702 46.823C165.878 46.8282 165.292 47.5146 165.258 48.5117C165.227 49.5022 165.793 50.3204 166.533 50.3495C167.268 50.3786 168.072 49.5662 168.14 48.7301C168.215 47.7941 167.48 46.8185 166.702 46.823Z" fill="#C49A6D"/>
<path d="M171.157 53.2276C171.822 53.2469 172.676 52.3236 172.727 51.5344C172.786 50.6252 172.028 49.7398 171.16 49.6981C170.391 49.6608 169.695 50.4106 169.627 51.3496C169.561 52.2632 170.327 53.2037 171.157 53.2276Z" fill="#C49A6D"/>
<path d="M171.248 57.9181C171.914 57.8987 172.486 57.1348 172.507 56.2346C172.53 55.2441 171.946 54.4318 171.199 54.4169C170.458 54.4028 169.662 55.2404 169.627 56.0736C169.593 56.8583 170.541 57.9389 171.248 57.9181Z" fill="#C49A6D"/>
<path d="M180.511 57.731C179.718 57.6528 179.019 58.36 178.951 59.3109C178.867 60.4839 179.349 61.1502 180.315 61.1919C181.102 61.2255 181.753 60.6188 181.845 59.7678C181.95 58.7967 181.303 57.81 180.511 57.731Z" fill="#C49A6D"/>
<path d="M180.379 62.4192C179.657 62.3969 179.009 63.0899 178.954 63.941C178.885 65.0201 179.464 65.8332 180.336 65.8771C181.086 65.9137 181.797 65.1162 181.836 64.1966C181.865 63.4566 181.033 62.4386 180.379 62.4192Z" fill="#C49A6D"/>
<path d="M180.18 67.3244C179.298 67.3595 178.95 67.8126 178.95 68.923C178.952 69.973 179.475 70.5715 180.385 70.564C181.141 70.5588 181.833 69.7241 181.831 68.8187C181.831 67.9504 181.099 67.2879 180.18 67.3244Z" fill="#C49A6D"/>
<path d="M166.687 69.1152C167.44 69.1264 168.131 68.2903 168.14 67.3595C168.149 66.492 167.431 65.6447 166.65 65.597C165.975 65.553 165.077 66.4831 165.036 67.2678C164.993 68.0928 165.897 69.1041 166.687 69.1152Z" fill="#C49A6D"/>
<path d="M171.114 59.1081C170.336 59.1581 169.616 60.0084 169.623 60.8736C169.633 61.8052 170.323 62.6398 171.077 62.6302C171.866 62.619 172.774 61.6047 172.728 60.7827C172.685 59.9928 171.79 59.0649 171.114 59.1081Z" fill="#C49A6D"/>
<path d="M166.629 56.189C165.831 56.2389 165.264 56.9663 165.26 57.953C165.253 58.9613 165.842 59.7304 166.605 59.7125C167.366 59.6931 168.106 58.8808 168.138 58.0267C168.174 57.046 167.431 56.1391 166.629 56.189Z" fill="#C49A6D"/>
<path d="M166.63 51.5009C165.841 51.5508 165.003 52.5591 165.042 53.4109C165.088 54.4304 165.7 55.1094 166.546 55.0788C167.329 55.052 168.163 54.0675 168.137 53.2023C168.111 52.2715 167.385 51.4547 166.63 51.5009Z" fill="#C49A6D"/>
<path d="M161.953 67.0994C161.206 67.1605 160.567 68.0288 160.585 68.9633C160.601 69.9023 161.325 70.6423 162.153 70.5633C162.961 70.4881 163.515 69.7272 163.489 68.727C163.465 67.7724 162.765 67.0324 161.953 67.0994Z" fill="#C49A6D"/>
<path d="M166.691 60.8766C165.867 60.8893 165.28 61.5973 165.259 62.5974C165.238 63.678 165.887 64.4679 166.76 64.4277C167.495 64.3934 168.156 63.5252 168.137 62.6182C168.116 61.6874 167.434 60.8639 166.691 60.8766Z" fill="#C49A6D"/>
<path d="M162.104 65.8772C162.866 65.8369 163.465 65.1483 163.483 64.2913C163.502 63.3456 162.897 62.4036 162.239 62.3537C161.377 62.2896 160.595 63.0989 160.582 64.0685C160.567 65.1453 161.221 65.9241 162.104 65.8772Z" fill="#C49A6D"/>
<path d="M181.835 54.7894C181.849 53.9965 180.883 52.9405 180.181 52.9837C179.466 53.0269 178.943 53.8296 178.95 54.8714C178.958 55.9177 179.472 56.5087 180.374 56.5102C181.124 56.5102 181.819 55.6919 181.835 54.7894Z" fill="#C49A6D"/>
<path d="M171.183 63.7793C170.366 63.7823 169.58 64.7123 169.623 65.6253C169.667 66.5501 170.363 67.343 171.107 67.314C171.946 67.2819 172.748 66.2654 172.719 65.272C172.7 64.6527 171.8 63.7778 171.183 63.7793Z" fill="#C49A6D"/>
<path d="M171.154 68.4789C170.393 68.4983 169.654 69.3135 169.625 70.1661C169.592 71.1498 170.338 72.0538 171.139 71.9994C171.947 71.9427 172.505 71.2206 172.507 70.2317C172.507 69.2271 171.914 68.4595 171.154 68.4789Z" fill="#C49A6D"/>
<path d="M175.74 46.8206C174.915 46.8161 174.302 47.5286 174.278 48.5257C174.252 49.5482 174.929 50.3329 175.846 50.3426C176.567 50.3493 177.141 49.654 177.185 48.7247C177.236 47.6232 176.631 46.8273 175.74 46.8206Z" fill="#C49A6D"/>
<path d="M166.686 70.2502C165.853 70.2681 165.277 70.9649 165.259 71.9762C165.255 72.2534 165.295 72.5105 165.37 72.7401H167.996C168.093 72.5008 168.151 72.2437 168.145 71.9836C168.125 71.0595 167.429 70.2346 166.686 70.2502Z" fill="#C49A6D"/>
<path d="M177.183 72.0634C177.197 71.0491 176.648 70.3106 175.828 70.248C175.017 70.1869 174.313 71.0342 174.284 72.1051C174.278 72.3317 174.316 72.5433 174.378 72.7393H177.073C177.139 72.5351 177.18 72.3093 177.183 72.0634Z" fill="#C49A6D"/>
<path d="M175.76 60.8788C174.887 60.858 174.251 61.6449 174.275 62.7121C174.298 63.7055 174.884 64.412 175.699 64.4299C176.571 64.4508 177.208 63.6623 177.184 62.5966C177.16 61.5995 176.579 60.8982 175.76 60.8788Z" fill="#C49A6D"/>
<path d="M175.737 59.7439C176.557 59.7394 177.153 59.0411 177.183 58.0485C177.22 56.8963 176.58 56.1645 175.542 56.1704C174.649 56.1771 174.305 56.5915 174.273 57.7071C174.237 58.9383 174.82 59.7506 175.737 59.7439Z" fill="#C49A6D"/>
<path d="M175.703 51.5075C174.876 51.5269 174.293 52.2393 174.277 53.2543C174.26 54.3297 174.667 54.9975 175.373 55.0504C176.32 55.1212 177.141 54.2783 177.173 53.1977C177.202 52.2445 176.544 51.4866 175.703 51.5075Z" fill="#C49A6D"/>
<path d="M175.631 65.5984C174.86 65.5746 174.266 66.3452 174.274 67.3609C174.283 68.3469 174.863 69.0787 175.67 69.1167C176.493 69.157 177.178 68.4125 177.178 67.4817C177.176 66.5039 176.454 65.6245 175.631 65.5984Z" fill="#C49A6D"/>
<path d="M190.179 68.7501C190.223 68.6696 190.387 68.6554 190.584 68.5705C190.501 70.0088 190.288 71.3942 189.972 72.7393H192.674C192.967 71.3331 193.149 69.8933 193.186 68.405C193.276 64.6244 193.212 60.8393 193.201 57.058C193.201 56.666 193.385 56.1443 192.942 55.923C192.455 55.6785 192.016 56.0288 191.633 56.3127C191.085 56.7189 190.725 57.2629 190.643 57.9612C190.574 58.5589 190.481 59.1543 190.445 59.7513C190.168 64.4709 188.26 68.4095 184.881 71.696C184.526 72.0388 184.179 72.392 183.826 72.7393H187.368C188.421 71.5112 189.386 70.204 190.179 68.7501Z" fill="#6F7857"/>
<path d="M198.69 58.7014C198.107 58.6932 197.432 58.5665 197.435 59.5152C197.44 60.6502 197.441 61.6853 197.441 62.7033C197.433 63.3949 197.437 64.0627 197.44 64.7624V65.1932H197.441C197.443 65.5941 197.443 66.0055 197.438 66.4482C197.43 67.5206 198.209 67.2955 198.83 67.3037C199.412 67.3119 200.088 67.4386 200.085 66.4914C200.08 65.3564 200.08 64.3213 200.08 63.3018C200.088 62.6117 200.084 61.9439 200.08 61.2442V60.8119H200.079C200.077 60.4125 200.077 60.0004 200.082 59.5569C200.091 58.486 199.311 58.7096 198.69 58.7014Z" fill="#6F7857"/>
<path d="M204.664 58.7014C204.081 58.6932 203.405 58.5665 203.409 59.5152C203.414 60.6502 203.414 61.6853 203.414 62.7033C203.407 63.3949 203.411 64.0627 203.414 64.7624V65.1932H203.415C203.417 65.5941 203.417 66.0055 203.412 66.4482C203.402 67.5206 204.183 67.2955 204.804 67.3037C205.386 67.3119 206.062 67.4386 206.059 66.4914C206.054 65.3564 206.054 64.3213 206.054 63.3018C206.061 62.6117 206.058 61.9439 206.054 61.2442V60.8119H206.053C206.051 60.4125 206.051 60.0004 206.054 59.5569C206.065 58.486 205.285 58.7096 204.664 58.7014Z" fill="#6F7857"/>
<path d="M261.078 62.4431C260.831 61.0935 260.734 59.7155 260.572 58.3517C260.383 56.7465 259.699 56.0914 258.102 56.0012C257.744 56.979 258.14 58.0223 257.855 59.0083C257.964 59.249 257.962 59.4897 257.858 59.7304C258.029 60.5696 258.005 61.4094 257.866 62.2508C257.984 62.613 257.993 62.9744 257.848 63.3344C258.07 64.766 257.982 66.1946 257.834 67.6248C257.89 67.9765 257.98 68.3275 257.996 68.6823C258.064 70.0826 258.251 71.4292 258.519 72.7408H261.168C260.951 71.8339 260.768 70.9143 260.651 69.9618C260.6 69.5512 260.644 69.1301 260.644 68.7054C261.221 68.6696 261.255 69.1898 261.457 69.5043C262.182 70.6363 262.97 71.7132 263.824 72.7408H267.316C266.841 72.2572 266.359 71.7825 265.884 71.2988C263.433 68.8112 261.714 65.907 261.078 62.4431Z" fill="#6F7857"/>
<path d="M210.636 58.7014C210.053 58.6932 209.379 58.5665 209.382 59.5152C209.385 60.6502 209.387 61.6853 209.387 62.7033C209.379 63.3949 209.382 64.0627 209.385 64.7624V65.1932H209.387C209.388 65.5941 209.388 66.0055 209.384 66.4482C209.376 67.5206 210.154 67.2955 210.775 67.3037C211.358 67.3119 212.034 67.4386 212.031 66.4914C212.026 65.3564 212.026 64.3213 212.026 63.3018C212.032 62.6117 212.029 61.9439 212.026 61.2442V60.8119H212.024C212.023 60.4125 212.023 60.0004 212.027 59.5569C212.037 58.486 211.257 58.7096 210.636 58.7014Z" fill="#6F7857"/>
<path d="M309.2 45.4016C313.704 45.4433 318.21 45.4098 322.714 45.4128C323.194 45.4128 323.682 45.386 324.153 45.4627C324.893 45.5849 325.352 46.0425 325.299 46.8243C325.253 47.5062 324.825 47.928 324.145 47.9958C323.549 48.0554 322.945 48.0405 322.344 48.0405C314.656 48.0457 306.969 48.0554 299.28 48.0375C297.94 48.0345 296.653 48.241 295.387 48.6509C293.291 49.3298 291.535 50.6362 290.27 52.2973L293.944 52.3182C295.265 51.2913 296.867 50.7584 298.745 50.7517C302.831 50.7338 306.915 50.7472 311 50.7472V50.7375C315.024 50.7375 319.048 50.739 323.072 50.736C323.73 50.736 324.389 50.7584 325.04 50.5863C327.27 50.002 328.532 47.7454 327.843 45.5462C327.259 43.6853 325.838 42.7404 323.525 42.7336C319.019 42.7225 314.515 42.7336 310.011 42.7307C308.929 42.7307 307.851 42.7068 306.798 42.3983C303.964 41.5703 301.885 39.6401 300.843 37.0706H297.965C299.509 42.0339 303.885 45.3517 309.2 45.4016Z" fill="#6F7857"/>
<path d="M258.959 43.9993C258.67 44.2758 258.269 44.4904 258.195 45.0829C258.897 45.1328 259.611 45.0896 260.274 45.2543C261.274 45.5032 261.825 45.0456 262.369 44.3123C263.522 42.7555 264.472 41.0936 265.062 39.2529C265.289 38.5531 265.664 38.3071 266.367 38.328C267.507 38.3653 268.651 38.2833 269.788 38.3541C271.271 38.4465 272.482 39.3602 272.822 40.5205C273.161 41.6734 272.198 42.9642 271.063 42.8792C270.464 42.8337 270.146 42.3687 269.735 42.0266C269.162 41.5467 268.541 41.4729 267.959 42.0311C267.392 42.5789 267.439 43.2034 267.819 43.8294C268.103 44.2981 268.502 44.6626 268.961 44.9592C271.621 46.6717 275.381 44.6462 275.565 41.3634C275.668 39.5591 275.056 38.1193 273.819 37.0715H262.918C262.223 39.7388 260.965 42.0796 258.959 43.9993Z" fill="#6F7857"/>
<path d="M282.337 41.7693C282.588 43.54 283.659 44.6907 285.297 45.307C287.085 45.9799 289.211 45.2719 290.039 43.7777C290.464 43.0057 290.362 42.2813 289.732 41.8721C288.974 41.381 288.418 41.7499 287.824 42.2746C286.933 43.0586 286.347 43.0601 285.619 42.4452C284.875 41.8192 284.716 40.9056 285.228 40.0113C285.85 38.9232 286.867 38.4388 288.06 38.365C289.196 38.2957 290.341 38.3762 291.479 38.3211C292.209 38.286 292.569 38.5923 292.774 39.2571C293.222 40.6984 293.975 41.9906 294.744 43.2844C295.604 44.7309 296.606 45.7474 298.475 45.1691C298.805 45.0663 299.183 45.1132 299.539 45.0908C299.6 44.9843 299.663 44.8799 299.725 44.7756C297.24 42.7113 295.707 40.097 294.909 37.0706H284.047C282.576 38.1556 282.069 39.8675 282.337 41.7693Z" fill="#6F7857"/>
<path d="M278.924 63.7793C278.107 63.7823 277.32 64.7123 277.363 65.6253C277.406 66.5501 278.103 67.343 278.846 67.314C279.686 67.2819 280.489 66.2654 280.46 65.272C280.44 64.6527 279.54 63.7778 278.924 63.7793Z" fill="#C49A6D"/>
<path d="M278.894 68.4789C278.133 68.4983 277.394 69.3135 277.365 70.1661C277.332 71.1498 278.079 72.0538 278.88 71.9994C279.687 71.9427 280.246 71.2206 280.247 70.2317C280.247 69.2271 279.656 68.4595 278.894 68.4789Z" fill="#C49A6D"/>
<path d="M284.924 72.0634C284.938 71.0491 284.39 70.3106 283.571 70.248C282.758 70.1869 282.054 71.0342 282.025 72.1051C282.02 72.3317 282.057 72.5433 282.12 72.7393H284.814C284.881 72.5351 284.921 72.3093 284.924 72.0634Z" fill="#C49A6D"/>
<path d="M274.426 70.2502C273.593 70.2681 273.017 70.9649 272.999 71.9762C272.995 72.2534 273.035 72.5105 273.11 72.7401H275.737C275.833 72.5008 275.892 72.2437 275.886 71.9836C275.865 71.0595 275.169 70.2346 274.426 70.2502Z" fill="#C49A6D"/>
<path d="M288.251 57.731C287.459 57.6528 286.759 58.36 286.691 59.3109C286.607 60.4839 287.089 61.1502 288.055 61.1919C288.842 61.2255 289.494 60.6188 289.585 59.7678C289.69 58.7967 289.043 57.81 288.251 57.731Z" fill="#C49A6D"/>
<path d="M283.481 46.8206C282.656 46.8161 282.042 47.5286 282.019 48.5257C281.993 49.5482 282.671 50.3329 283.587 50.3426C284.307 50.3493 284.882 49.654 284.926 48.7247C284.976 47.6232 284.371 46.8273 283.481 46.8206Z" fill="#C49A6D"/>
<path d="M283.477 59.7439C284.297 59.7394 284.893 59.0411 284.923 58.0485C284.96 56.8963 284.319 56.1645 283.282 56.1704C282.388 56.1771 282.045 56.5915 282.012 57.7071C281.977 58.9383 282.56 59.7506 283.477 59.7439Z" fill="#C49A6D"/>
<path d="M283.444 51.5075C282.615 51.5269 282.035 52.2393 282.018 53.2543C282 54.3297 282.409 54.9975 283.113 55.0504C284.062 55.1212 284.881 54.2783 284.914 53.1977C284.943 52.2445 284.285 51.4866 283.444 51.5075Z" fill="#C49A6D"/>
<path d="M289.577 54.7894C289.591 53.9965 288.623 52.9405 287.922 52.9837C287.208 53.0269 286.684 53.8296 286.69 54.8714C286.699 55.9177 287.212 56.5087 288.116 56.5102C288.866 56.5102 289.56 55.6919 289.577 54.7894Z" fill="#C49A6D"/>
<path d="M283.372 65.5984C282.601 65.5746 282.007 66.3452 282.016 67.3609C282.024 68.3469 282.604 69.0787 283.411 69.1167C284.234 69.157 284.919 68.4125 284.919 67.4817C284.918 66.5039 284.196 65.6245 283.372 65.5984Z" fill="#C49A6D"/>
<path d="M283.501 60.8788C282.629 60.858 281.992 61.6449 282.016 62.7121C282.039 63.7055 282.624 64.412 283.44 64.4299C284.312 64.4508 284.949 63.6623 284.925 62.5966C284.9 61.5995 284.319 60.8982 283.501 60.8788Z" fill="#C49A6D"/>
<path d="M287.92 67.3244C287.038 67.3595 286.69 67.8126 286.69 68.923C286.692 69.973 287.215 70.5715 288.126 70.564C288.881 70.5588 289.574 69.7241 289.572 68.8187C289.572 67.9504 288.84 67.2879 287.92 67.3244Z" fill="#C49A6D"/>
<path d="M278.989 57.9181C279.655 57.8987 280.227 57.1348 280.247 56.2346C280.271 55.2441 279.687 54.4318 278.94 54.4169C278.199 54.4028 277.403 55.2404 277.367 56.0736C277.334 56.8583 278.282 57.9389 278.989 57.9181Z" fill="#C49A6D"/>
<path d="M278.899 45.0149C278.13 44.9784 277.432 45.7296 277.366 46.6649C277.302 47.5741 278.076 48.5191 278.899 48.5399C279.56 48.5578 280.421 47.63 280.468 46.8468C280.525 45.9346 279.772 45.0567 278.899 45.0149Z" fill="#C49A6D"/>
<path d="M278.897 53.2276C279.562 53.2469 280.416 52.3236 280.467 51.5344C280.526 50.6252 279.768 49.7398 278.9 49.6981C278.131 49.6608 277.435 50.4106 277.367 51.3496C277.302 52.2632 278.067 53.2037 278.897 53.2276Z" fill="#C49A6D"/>
<path d="M278.855 59.1081C278.076 59.1581 277.357 60.0084 277.363 60.8736C277.372 61.8052 278.063 62.6398 278.817 62.6302C279.606 62.619 280.514 61.6047 280.468 60.7827C280.425 59.9928 279.531 59.0649 278.855 59.1081Z" fill="#C49A6D"/>
<path d="M288.12 62.4192C287.397 62.3969 286.749 63.0899 286.694 63.941C286.625 65.0201 287.204 65.8332 288.076 65.8771C288.826 65.9137 289.537 65.1162 289.576 64.1966C289.606 63.4566 288.773 62.4386 288.12 62.4192Z" fill="#C49A6D"/>
<path d="M268.338 59.3833C268.259 60.329 268.86 61.1331 269.688 61.1905C270.515 61.2501 271.179 60.5488 271.233 59.5629C271.285 58.5531 270.749 57.8101 269.905 57.7281C269.139 57.6543 268.419 58.4167 268.338 59.3833Z" fill="#C49A6D"/>
<path d="M274.37 56.189C273.572 56.2389 273.006 56.9663 273.001 57.953C272.994 58.9613 273.583 59.7304 274.346 59.7125C275.107 59.6931 275.847 58.8808 275.879 58.0267C275.916 57.046 275.173 56.1391 274.37 56.189Z" fill="#C49A6D"/>
<path d="M269.844 65.8772C270.607 65.8369 271.205 65.1483 271.223 64.2913C271.242 63.3456 270.637 62.4036 269.979 62.3537C269.117 62.2896 268.335 63.0989 268.323 64.0685C268.306 65.1453 268.961 65.9241 269.844 65.8772Z" fill="#C49A6D"/>
<path d="M269.694 67.0994C268.947 67.1605 268.309 68.0288 268.327 68.9633C268.342 69.9023 269.067 70.6423 269.895 70.5633C270.702 70.4881 271.256 69.7272 271.23 68.727C271.206 67.7724 270.508 67.0324 269.694 67.0994Z" fill="#C49A6D"/>
<path d="M269.832 53.0434C268.998 53.0068 268.347 53.7081 268.324 54.6695C268.299 55.7434 268.934 56.5303 269.812 56.5043C270.636 56.4819 271.212 55.7806 271.23 54.779C271.248 53.7998 270.669 53.0806 269.832 53.0434Z" fill="#C49A6D"/>
<path d="M274.371 51.5009C273.582 51.5508 272.745 52.5591 272.784 53.4109C272.83 54.4304 273.442 55.1094 274.287 55.0788C275.071 55.052 275.904 54.0675 275.878 53.2023C275.852 52.2715 275.127 51.4547 274.371 51.5009Z" fill="#C49A6D"/>
<path d="M274.428 69.1152C275.181 69.1264 275.873 68.2903 275.881 67.3595C275.89 66.492 275.173 65.6447 274.391 65.597C273.716 65.553 272.818 66.4831 272.777 67.2678C272.734 68.0928 273.638 69.1041 274.428 69.1152Z" fill="#C49A6D"/>
<path d="M274.443 46.823C273.619 46.8282 273.034 47.5146 272.999 48.5117C272.967 49.5022 273.534 50.3204 274.274 50.3495C275.009 50.3786 275.813 49.5662 275.881 48.7301C275.956 47.7941 275.222 46.8185 274.443 46.823Z" fill="#C49A6D"/>
<path d="M274.432 60.8766C273.609 60.8893 273.021 61.5973 273 62.5974C272.98 63.678 273.628 64.4679 274.501 64.4277C275.236 64.3934 275.897 63.5252 275.879 62.6182C275.858 61.6874 275.175 60.8639 274.432 60.8766Z" fill="#C49A6D"/>
<path d="M318.377 58.7014C317.794 58.6932 317.12 58.5665 317.124 59.5152C317.127 60.6502 317.128 61.6853 317.128 62.7033C317.12 63.3949 317.124 64.0627 317.127 64.7624V65.1932H317.128C317.129 65.5941 317.129 66.0055 317.125 66.4482C317.117 67.5206 317.896 67.2955 318.516 67.3037C319.101 67.3119 319.775 67.4386 319.772 66.4914C319.767 65.3564 319.767 64.3213 319.767 63.3018C319.774 62.6117 319.771 61.9439 319.767 61.2442V60.8119H319.765C319.764 60.4125 319.764 60.0004 319.768 59.5569C319.778 58.486 318.998 58.7096 318.377 58.7014Z" fill="#6F7857"/>
<path d="M376.037 59.3833C375.958 60.329 376.559 61.1331 377.387 61.1905C378.214 61.2501 378.878 60.5488 378.932 59.5629C378.986 58.5531 378.448 57.8101 377.604 57.7281C376.838 57.6543 376.118 58.4167 376.037 59.3833Z" fill="#C49A6D"/>
<path d="M377.531 53.0434C376.698 53.0068 376.046 53.7081 376.023 54.6695C375.998 55.7434 376.635 56.5303 377.511 56.5043C378.336 56.4819 378.911 55.7806 378.929 54.779C378.948 53.7998 378.368 53.0806 377.531 53.0434Z" fill="#C49A6D"/>
<path d="M377.544 65.8772C378.305 65.8369 378.903 65.1483 378.923 64.2913C378.942 63.3456 378.337 62.4036 377.677 62.3537C376.817 62.2896 376.035 63.0989 376.021 64.0685C376.006 65.1453 376.661 65.9241 377.544 65.8772Z" fill="#C49A6D"/>
<path d="M377.394 67.0994C376.646 67.1605 376.008 68.0288 376.025 68.9633C376.042 69.9023 376.766 70.6423 377.593 70.5633C378.4 70.4881 378.954 69.7272 378.93 68.727C378.906 67.7724 378.206 67.0324 377.394 67.0994Z" fill="#C49A6D"/>
</g>
</g>
</svg>
